<svg xmlns="http://www.w3.org/2000/svg" id="icon_chat_b" width="48" height="48" viewBox="0 0 48 48">
    <defs>
        <style>
            .cls-2{fill:none}.cls-3,.cls-4{stroke:none}.cls-4{fill:#000}
        </style>
    </defs>
    <g id="icon_cus" transform="translate(0 4)">
        <g id="Subtraction_63" class="cls-2">
            <path d="M11 30H4a4 4 0 0 1-4-4V4a4 4 0 0 1 4-4h32a4 4 0 0 1 4 4v6H14a3 3 0 0 0-3 3v17z" class="cls-3" transform="translate(0 0)"/>
            <path d="M8 27V13c0-3.309 2.692-6 6-6h23V4c0-.552-.449-1-1-1H4c-.552 0-1 .448-1 1v22c0 .551.448 1 1 1h4m3 3H4c-2.206 0-4-1.795-4-4V4c0-2.206 1.794-4 4-4h32c2.205 0 4 1.794 4 4v6H14c-1.654 0-3 1.346-3 3v17z" class="cls-4" transform="translate(0 0)"/>
        </g>
        <g id="Union_23" class="cls-2">
            <path d="M16 35v-5H4a4 4 0 0 1-4-4V4a4 4 0 0 1 4-4h32a4 4 0 0 1 4 4v22a4 4 0 0 1-4 4H25.332L17.6 35.8a.985.985 0 0 1-.6.2 1 1 0 0 1-1-1z" class="cls-3" transform="translate(8.002 7)"/>
            <path d="M18.998 31l5.334-4h11.666c.551 0 1-.449 1-1V4c0-.552-.449-1-1-1h-32c-.551 0-1 .448-1 1v22c0 .551.449 1 1 1h15v4m-1.996 5.002c-.518 0-1.004-.41-1.004-1.002v-5h-12c-2.209 0-4-1.791-4-4V4c0-2.209 1.791-4 4-4h32c2.209 0 4 1.791 4 4v22c0 2.209-1.791 4-4 4H25.332l-7.734 5.8c-.186.14-.393.202-.596.202z" class="cls-4" transform="translate(8.002 7)"/>
        </g>
        <path id="Union_17" d="M16 2a2 2 0 1 1 2 2 2 2 0 0 1-2-2zM8 2a2 2 0 1 1 2 2 2 2 0 0 1-2-2zM0 2a2 2 0 1 1 2 2 2 2 0 0 1-2-2z" transform="translate(18.001 20.501)"/>
    </g>
</svg>
