<svg xmlns="http://www.w3.org/2000/svg" id="icon_my_b" width="48" height="48" viewBox="0 0 48 48">
    <defs>
        <style>
            .cls-2,.cls-4{fill:none}.cls-2{stroke:#000;stroke-width:3px}.cls-3{stroke:none}
        </style>
    </defs>
    <g id="icon_mapage" transform="translate(4 4)">
        <g id="Rectangle_352" class="cls-2">
            <path d="M14 0h12a14 14 0 0 1 14 14v6H0v-6A14 14 0 0 1 14 0z" class="cls-3" transform="translate(0 22)"/>
            <path d="M14 1.5h12A12.5 12.5 0 0 1 38.5 14v3a1.5 1.5 0 0 1-1.5 1.5H3A1.5 1.5 0 0 1 1.5 17v-3A12.5 12.5 0 0 1 14 1.5z" class="cls-4" transform="translate(0 22)"/>
        </g>
        <g id="Ellipse_71" class="cls-2" transform="translate(10)">
            <circle cx="10" cy="10" r="10" class="cls-3"/>
            <circle cx="10" cy="10" r="8.5" class="cls-4"/>
        </g>
    </g>
</svg>
