<svg xmlns="http://www.w3.org/2000/svg" width="32" height="32" viewBox="0 0 32 32">
    <g fill="none" fill-rule="evenodd">
        <g>
            <g>
                <path fill="#F5F5F5" fill-opacity="0" d="M0 0H32V32H0z"/>
                <path fill="#666" fill-rule="nonzero" d="M16.958 23.734c.705 0 1.392-.088 2.06-.264.67-.176 1.264-.448 1.786-.815.521-.368.936-.841 1.245-1.422.308-.58.462-1.267.462-2.06 0-.985-.238-1.826-.716-2.523-.477-.698-1.2-1.187-2.17-1.466.705-.338 1.237-.771 1.597-1.3.36-.529.54-1.19.54-1.983 0-.735-.121-1.352-.363-1.852-.243-.5-.584-.9-1.025-1.2-.44-.302-.97-.518-1.587-.65-.617-.133-1.3-.199-2.05-.199H9.334v15.734h7.625zm-.661-9.365h-3.504v-3.68h3.24c.308 0 .606.025.892.077.287.051.54.143.76.275.22.132.397.316.53.551.131.235.198.536.198.904 0 .66-.199 1.138-.595 1.432-.397.294-.904.44-1.521.44zm.198 6.677h-3.702v-4.32h3.768c.75 0 1.352.173 1.808.519.455.345.683.921.683 1.73 0 .41-.07.749-.21 1.013-.14.265-.327.474-.562.628-.235.154-.506.265-.815.33-.309.067-.632.1-.97.1z"/>
            </g>
        </g>
    </g>
</svg>
