<svg xmlns="http://www.w3.org/2000/svg" width="40" height="40" viewBox="0 0 40 40">
    <g data-name="패스 97" style="fill:none">
        <path d="M20 0A20 20 0 1 1 0 20 20 20 0 0 1 20 0z" style="stroke:none"/>
        <path d="M20 2A17.882 17.882 0 0 0 7.272 7.272C3.872 10.672 2 15.192 2 20s1.872 9.328 5.272 12.728C10.672 36.128 15.192 38 20 38s9.328-1.872 12.728-5.272C36.128 29.328 38 24.808 38 20s-1.872-9.328-5.272-12.728C29.328 3.872 24.808 2 20 2m0-2c11.046 0 20 8.954 20 20s-8.954 20-20 20S0 31.046 0 20 8.954 0 20 0z" style="fill:#000;stroke:none"/>
    </g>
    <g data-name="다각형 4" style="stroke-linecap:round;stroke-linejoin:round;fill:none">
        <path d="M9.232 1.275a1 1 0 0 1 1.673 0l8.216 12.531a1 1 0 0 1-.836 1.548H1.852a1 1 0 0 1-.836-1.548z" style="stroke:none" transform="rotate(90 9.986 19.757)"/>
        <path d="m10.068 3.647-6.365 9.707h12.73l-6.365-9.707m0-2.823c.32 0 .639.15.836.451l8.217 12.53a1 1 0 0 1-.837 1.55H1.852a1 1 0 0 1-.837-1.55l8.217-12.53a.992.992 0 0 1 .836-.451z" style="fill:#000;stroke:none" transform="rotate(90 9.986 19.757)"/>
    </g>
</svg>
