<svg id="checkbox" xmlns="http://www.w3.org/2000/svg" width="48" height="48" viewBox="0 0 48 48">
    <defs>
        <style>
            .cls-1{fill:none}
        </style>
    </defs>
    <path id="Rectangle" class="cls-1" d="M0 0h48v48H0z"/>
    <g id="ic">
        <g id="Rectangle-2">
            <path id="패스_229" data-name="패스 229" class="cls-1" d="M24 4a20 20 0 0 1 20 20 20 20 0 0 1-20 20A20 20 0 0 1 4 24 20 20 0 0 1 24 4z"/>
            <path id="패스_230" data-name="패스 230" d="M24 5a19 19 0 0 1 19 19 19 19 0 0 1-19 19A19 19 0 0 1 5 24 19 19 0 0 1 24 5z" style="stroke-miterlimit:10;stroke:#fff;stroke-width:2px;fill:none"/>
        </g>
        <path id="Path" d="M16 24.972 22.135 31 34 19" style="stroke-linecap:round;stroke-linejoin:round;stroke:#fff;stroke-width:2px;fill:none"/>
    </g>
</svg>
