<svg xmlns="http://www.w3.org/2000/svg" width="32" height="32" viewBox="0 0 32 32">
    <g data-name="패스 97" style="fill:none">
        <path d="M16 0A16 16 0 1 1 0 16 16 16 0 0 1 16 0z" style="stroke:none"/>
        <path d="M16 1C11.993 1 8.227 2.56 5.393 5.393A14.902 14.902 0 0 0 1 16c0 4.007 1.56 7.773 4.393 10.607A14.902 14.902 0 0 0 16 31c4.007 0 7.773-1.56 10.607-4.393A14.902 14.902 0 0 0 31 16c0-4.007-1.56-7.773-4.393-10.607A14.902 14.902 0 0 0 16 1m0-1c8.837 0 16 7.163 16 16s-7.163 16-16 16S0 24.837 0 16 7.163 0 16 0z" style="fill:#fff;stroke:none"/>
    </g>
    <g data-name="다각형 4" style="fill:none">
        <path d="M7.032 1.275a1 1 0 0 1 1.673 0l6.017 9.176A1 1 0 0 1 13.886 12H1.852a1 1 0 0 1-.836-1.548z" style="stroke:none" transform="rotate(90 7.839 15.839)"/>
        <path d="M7.868 1.824 1.853 11h12.034L7.868 1.824m0-1c.32 0 .64.15.837.451l6.017 9.177A1 1 0 0 1 13.886 12H1.852a1 1 0 0 1-.837-1.548l6.017-9.177A.992.992 0 0 1 7.87.824z" style="fill:#fff;stroke:none" transform="rotate(90 7.839 15.839)"/>
    </g>
</svg>
