<svg xmlns="http://www.w3.org/2000/svg" xmlns:xlink="http://www.w3.org/1999/xlink" width="26" height="26" viewBox="0 0 26 26">
  <defs>
    <clipPath id="clip-path">
      <rect id="사각형_837" data-name="사각형 837" width="25.5" height="25.5" transform="translate(-0.251 0.251)" fill="none"/>
    </clipPath>
  </defs>
  <g id="그룹_1379" data-name="그룹 1379" transform="translate(-1563 -552)">
    <rect id="사각형_838" data-name="사각형 838" width="26" height="26" transform="translate(1563 552)" fill="none"/>
    <g id="그룹_1272" data-name="그룹 1272" transform="translate(1563.5 552)">
      <g id="그룹_1271" data-name="그룹 1271" clip-path="url(#clip-path)">
        <circle id="타원_183" data-name="타원 183" cx="12" cy="12" r="12" transform="translate(0.5 1)" fill="none" stroke="#fff" stroke-width="1.5"/>
        <g id="다각형_3" data-name="다각형 3" transform="translate(20 6) rotate(90)" fill="none" stroke-linecap="round" stroke-linejoin="round">
          <path d="M5.9,1.723a1.3,1.3,0,0,1,2.194,0L12.729,9a1.3,1.3,0,0,1-1.1,2H2.368a1.3,1.3,0,0,1-1.1-2Z" stroke="none"/>
          <path d="M 6.999996662139893 2.793937683105469 L 2.732514381408691 9.499995231628418 L 11.26748466491699 9.499995231628418 L 6.999996662139893 2.793937683105469 M 6.999999523162842 1.121419906616211 C 7.420669555664062 1.121419906616211 7.841339588165283 1.322105407714844 8.096759796142578 1.723475456237793 L 12.7285795211792 9.002065658569336 C 13.27931976318359 9.867505073547363 12.657639503479 10.99999523162842 11.63181972503662 10.99999523162842 L 2.368169784545898 10.99999523162842 C 1.34235954284668 10.99999523162842 0.7206792831420898 9.867505073547363 1.27140998840332 9.002065658569336 L 5.903239250183105 1.723475456237793 C 6.1586594581604 1.322105407714844 6.579329490661621 1.121419906616211 6.999999523162842 1.121419906616211 Z" stroke="none" fill="#fff"/>
        </g>
      </g>
    </g>
  </g>
</svg>
