<svg xmlns="http://www.w3.org/2000/svg" width="20" height="20" viewBox="0 0 20 20">
    <g fill="none" fill-rule="evenodd">
        <g>
            <g>
                <g>
                    <g>
                        <g>
                            <path d="M0 0H20V20H0z" transform="translate(-929 -3731) translate(198 745) translate(312 38) translate(403 2940) translate(16 8)"/>
                            <g transform="translate(-929 -3731) translate(198 745) translate(312 38) translate(403 2940) translate(16 8)">
                                <path d="M0 0H20V20H0z"/>
                                <rect width="10" height="1.5" x="5" y="9" fill="#222" rx=".75"/>
                                <path fill="#222" d="M5.75 9h8.5c.414 0 .75.336.75.75s-.336.75-.75.75h-8.5c-.414 0-.75-.336-.75-.75S5.336 9 5.75 9z" transform="rotate(90 10 9.75)"/>
                            </g>
                        </g>
                    </g>
                </g>
            </g>
        </g>
    </g>
</svg>
