<svg xmlns="http://www.w3.org/2000/svg" width="32" height="26" viewBox="0 0 32 26">
    <defs>
        <clipPath id="fe3mvvtd2a">
            <path data-name="사각형 1289" style="fill:#ddd" d="M0 0h32v26H0z"/>
        </clipPath>
    </defs>
    <g data-name="&quot;">
        <g data-name="그룹 2121" style="clip-path:url(#fe3mvvtd2a)">
            <path data-name="패스 3688" d="M14.489 19.627a6.123 6.123 0 0 1-1.877 4.5A7.047 7.047 0 0 1 7.4 26a6.653 6.653 0 0 1-5.368-2.428A8.981 8.981 0 0 1 0 17.6a16.445 16.445 0 0 1 1.043-5.817 19.019 19.019 0 0 1 2.814-5.055 20.07 20.07 0 0 1 4.17-4A21.831 21.831 0 0 1 13.134 0l1.877 3.744A15.538 15.538 0 0 0 9.9 6.981a9.453 9.453 0 0 0-2.71 4.654q-.417 1.418-.156 1.821c.173.271.641.4 1.408.4a6.067 6.067 0 0 1 4.221 1.67 5.34 5.34 0 0 1 1.824 4.1m16.99 0a6.045 6.045 0 0 1-1.929 4.5A7.234 7.234 0 0 1 24.287 26a6.5 6.5 0 0 1-5.315-2.428A9.127 9.127 0 0 1 16.99 17.6a16.427 16.427 0 0 1 1.043-5.817 19.019 19.019 0 0 1 2.814-5.058 20.066 20.066 0 0 1 4.169-4A21.863 21.863 0 0 1 30.123 0L32 3.744a15.555 15.555 0 0 0-5.108 3.237 10.212 10.212 0 0 0-2.814 4.654q-.419 1.418-.156 1.821c.173.271.677.4 1.511.4a6.068 6.068 0 0 1 4.222 1.67 5.34 5.34 0 0 1 1.824 4.1" style="fill:#ddd"/>
        </g>
    </g>
</svg>
