<svg xmlns="http://www.w3.org/2000/svg" width="56" height="45" viewBox="0 0 56 45">
    <defs>
        <clipPath id="p13ec2lnla">
            <path data-name="사각형 1289" transform="translate(-.307 -.5)" style="fill:#ddd" d="M0 0h56v45H0z"/>
        </clipPath>
    </defs>
    <g data-name="&quot;">
        <g data-name="그룹 2121" transform="translate(.307 .5)" style="clip-path:url(#p13ec2lnla)">
            <path data-name="패스 3688" d="M25.077 33.969a10.6 10.6 0 0 1-3.248 7.791Q18.584 45 12.81 45a11.515 11.515 0 0 1-9.291-4.2A15.545 15.545 0 0 1 0 30.468 28.463 28.463 0 0 1 1.8 20.4a32.917 32.917 0 0 1 4.871-8.755 34.737 34.737 0 0 1 7.217-6.916A37.784 37.784 0 0 1 22.732 0l3.248 6.479a26.893 26.893 0 0 0-8.841 5.6 16.362 16.362 0 0 0-4.691 8.055q-.722 2.455-.27 3.151c.3.469 1.11.7 2.436.7a10.5 10.5 0 0 1 7.306 2.89 9.242 9.242 0 0 1 3.156 7.091m29.407 0a10.463 10.463 0 0 1-3.338 7.791Q47.8 45 42.035 45a11.253 11.253 0 0 1-9.2-4.2 15.8 15.8 0 0 1-3.429-10.331 28.431 28.431 0 0 1 1.8-10.069 32.917 32.917 0 0 1 4.871-8.755A34.73 34.73 0 0 1 43.3 4.728 37.841 37.841 0 0 1 52.137 0l3.248 6.479a26.923 26.923 0 0 0-8.841 5.6 17.674 17.674 0 0 0-4.87 8.055q-.724 2.455-.27 3.151c.3.469 1.172.7 2.615.7a10.5 10.5 0 0 1 7.307 2.89 9.242 9.242 0 0 1 3.156 7.091" style="fill:#ddd"/>
        </g>
    </g>
</svg>
