<svg xmlns="http://www.w3.org/2000/svg" xmlns:xlink="http://www.w3.org/1999/xlink" width="28" height="28" viewBox="0 0 28 28"><defs><filter id="a" x="5.702" y="9.394" width="16.632" height="14.451" filterUnits="userSpaceOnUse"><feOffset dy="-2" input="SourceAlpha"/><feGaussianBlur result="b"/><feFlood flood-opacity="0.161"/><feComposite operator="in" in2="b"/><feComposite in="SourceGraphic"/></filter><linearGradient id="c" x1="0.058" y1="0.082" x2="1" y2="0.899" gradientUnits="objectBoundingBox"><stop offset="0" stop-color="#fff"/><stop offset="1" stop-color="#fff"/></linearGradient><filter id="d" x="1.202" y="1.646" width="25.629" height="21.45" filterUnits="userSpaceOnUse"><feOffset dy="2" input="SourceAlpha"/><feGaussianBlur stdDeviation="1.5" result="e"/><feFlood flood-opacity="0.031"/><feComposite operator="in" in2="e"/><feComposite in="SourceGraphic"/></filter></defs><g transform="translate(0 -0.01)"><g transform="matrix(1, 0, 0, 1, 0, 0.01)" filter="url(#a)"><path d="M10.653,25.065A2.7,2.7,0,1,1,7.782,20.5l11.224-7.052a2.7,2.7,0,1,1,2.871,4.569Z" transform="translate(-0.81 -1.63)" fill="#fff"/></g><g transform="matrix(1, 0, 0, 1, 0, 0.01)" filter="url(#d)"><path d="M10.653,5.163a2.7,2.7,0,1,0-2.871,4.57L19,16.784a2.7,2.7,0,1,0,2.871-4.57Z" transform="translate(-0.81 -0.6)" fill="url(#c)"/></g><g transform="translate(0 0.01)"><rect width="28" height="28" fill="none"/></g></g></svg>