<svg xmlns="http://www.w3.org/2000/svg" xmlns:xlink="http://www.w3.org/1999/xlink" width="149" height="149" viewBox="0 0 149 149">
  <defs>
    <clipPath id="clip-path">
      <rect id="사각형_663" data-name="사각형 663" width="149" height="149" transform="translate(0.24)" fill="none"/>
    </clipPath>
  </defs>
  <g id="그룹_992" data-name="그룹 992" transform="translate(-0.24)">
    <g id="그룹_991" data-name="그룹 991" clip-path="url(#clip-path)">
      <path id="패스_385" data-name="패스 385" d="M29.365,24.657H103.96a6.217,6.217,0,0,1,6.216,6.216V79.582A6.217,6.217,0,0,1,103.96,85.8H29.365a6.217,6.217,0,0,1-6.216-6.216V30.873a6.217,6.217,0,0,1,6.216-6.216" transform="translate(12.826 13.662)" fill="#fff"/>
      <rect id="사각형_662" data-name="사각형 662" width="83.142" height="57.256" rx="2.75" transform="translate(37.918 40.261)" fill="none" stroke="#000" stroke-width="2.5"/>
      <path id="패스_386" data-name="패스 386" d="M68.373,40.271a178.678,178.678,0,0,1-29.154-2.657c-7.076-1.184-12.1-2.382-13.085-2.622a21.087,21.087,0,0,1-3.144-1.87c-1.741-1.268-2.738-2.533-2.738-3.466V22.48a5.24,5.24,0,0,1,4.95-5.225c1.3.416,6.308,1.966,13.4,3.534a145.107,145.107,0,0,0,30.1,3.633A127.63,127.63,0,0,0,88.268,22.77a160.876,160.876,0,0,0,23.612-5.515,5.24,5.24,0,0,1,4.945,5.225v7.177c0,.482-.831,1.73-3.95,3.351a34.724,34.724,0,0,1-4.667,1.966c-.427.12-5.035,1.392-11.963,2.648a160.683,160.683,0,0,1-27.872,2.65" transform="translate(11.22 9.56)" fill="#fff" stroke="#000" stroke-width="2.5"/>
      <path id="패스_388" data-name="패스 388" d="M36.243,42.9a3.458,3.458,0,0,0-2.968,3.518V61.255a3.423,3.423,0,0,0,3.29,3.534H90.382a3.423,3.423,0,0,0,3.292-3.534V46.419A3.453,3.453,0,0,0,90.706,42.9a148.3,148.3,0,0,1-27.23,2.9,148.3,148.3,0,0,1-27.232-2.9m.322-3.9" transform="translate(16.284 21.609)" fill="none" stroke="#000" stroke-linecap="round" stroke-width="2.5"/>
      <path id="패스_389" data-name="패스 389" d="M84.258,73a4.336,4.336,0,1,1-5.923,1.587A4.335,4.335,0,0,1,84.258,73Z" transform="translate(43.08 40.124)" fill="none" stroke="#000" stroke-width="2.5"/>
      <path id="패스_390" data-name="패스 390" d="M78.476,67.7a1.646,1.646,0,1,1-2.249.6A1.646,1.646,0,0,1,78.476,67.7Z" transform="translate(42.113 37.385)" fill="none" stroke="#000" stroke-width="2.5"/>
      <path id="패스_391" data-name="패스 391" d="M84.206,67.006a1.646,1.646,0,1,1-2.249.6A1.646,1.646,0,0,1,84.206,67.006Z" transform="translate(45.287 37.003)" fill="none" stroke="#000" stroke-width="2.5"/>
      <path id="패스_392" data-name="패스 392" d="M88.628,70.891a1.646,1.646,0,1,1-2.249.6A1.646,1.646,0,0,1,88.628,70.891Z" transform="translate(47.737 39.156)" fill="none" stroke="#000" stroke-width="2.5"/>
      <path id="패스_393" data-name="패스 393" d="M10.628,43.793A4.335,4.335,0,1,1,7.56,49.1,4.336,4.336,0,0,1,10.628,43.793Z" transform="translate(4.106 24.182)" fill="none" stroke="#000" stroke-width="2.5"/>
      <path id="패스_394" data-name="패스 394" d="M3.187,43.17a1.646,1.646,0,1,1-1.164,2.016A1.646,1.646,0,0,1,3.187,43.17Z" transform="translate(1.09 23.888)" fill="none" stroke="#000" stroke-width="2.5"/>
      <path id="패스_395" data-name="패스 395" d="M6.752,38.632a1.646,1.646,0,1,1-1.164,2.016A1.646,1.646,0,0,1,6.752,38.632Z" transform="translate(3.065 21.373)" fill="none" stroke="#000" stroke-width="2.5"/>
      <path id="패스_396" data-name="패스 396" d="M12.626,38.254a1.646,1.646,0,1,1-1.164,2.016A1.646,1.646,0,0,1,12.626,38.254Z" transform="translate(6.32 21.164)" fill="none" stroke="#000" stroke-width="2.5"/>
      <path id="패스_397" data-name="패스 397" d="M41.643,81.711a4.336,4.336,0,1,1-3.068,5.31A4.336,4.336,0,0,1,41.643,81.711Z" transform="translate(21.291 45.191)" fill="none" stroke="#000" stroke-width="2.5"/>
      <path id="패스_398" data-name="패스 398" d="M34.2,81.089A1.646,1.646,0,1,1,33.038,83.1,1.646,1.646,0,0,1,34.2,81.089Z" transform="translate(18.274 44.897)" fill="none" stroke="#000" stroke-width="2.5"/>
      <path id="패스_399" data-name="패스 399" d="M37.767,76.55A1.646,1.646,0,1,1,36.6,78.566,1.646,1.646,0,0,1,37.767,76.55Z" transform="translate(20.249 42.382)" fill="none" stroke="#000" stroke-width="2.5"/>
      <path id="패스_400" data-name="패스 400" d="M43.641,76.173a1.646,1.646,0,1,1-1.164,2.016A1.646,1.646,0,0,1,43.641,76.173Z" transform="translate(23.504 42.173)" fill="none" stroke="#000" stroke-width="2.5"/>
      <path id="패스_401" data-name="패스 401" d="M47.185,31.5s13,23.608,15.587,24.71S75.7,62.858,77.92,66.554s2.953,12.931,2.953,12.931H49.378L43.836,54.05" transform="translate(24.288 17.452)" fill="#fff"/>
      <path id="패스_402" data-name="패스 402" d="M47.185,31.5s13,23.608,15.587,24.71S75.7,62.858,77.92,66.554s2.953,12.931,2.953,12.931H49.378L43.836,54.05" transform="translate(24.288 17.452)" fill="none" stroke="#000" stroke-linecap="round" stroke-linejoin="round" stroke-width="2.5"/>
      <path id="패스_403" data-name="패스 403" d="M73.47,71.9s1.131-5.818-1.455-9.052-10.184-2.909-12.446-3.885-.97-2.909-2.586-5.01.323-7.6-2.263-8.568-5.334,2.1-6.466,3.885-6.95-.646-7.435,4.687,6.466,6.465,7.435,6.95.808,10.992.808,10.992Z" transform="translate(22.603 25.043)" fill="#fff"/>
      <path id="패스_404" data-name="패스 404" d="M73.47,71.9s1.131-5.818-1.455-9.052-10.184-2.909-12.446-3.885-.97-2.909-2.586-5.01.323-7.6-2.263-8.568-5.334,2.1-6.466,3.885-6.95-.646-7.435,4.687,6.466,6.465,7.435,6.95.808,10.992.808,10.992Z" transform="translate(22.603 25.043)" fill="none" stroke="#000" stroke-linecap="round" stroke-linejoin="round" stroke-width="2.5"/>
      <path id="패스_405" data-name="패스 405" d="M48.467,58.9s4.628-10.44,0-11.366S32.267,48,33.192,39.67s10.645-2.777,12.959-6.48,6.942-6.017,13.422-2.314,8.794,14.349,5.091,16.663S54.019,45.688,54.019,39.67" transform="translate(18.361 16.068)" fill="#fff"/>
      <path id="패스_406" data-name="패스 406" d="M48.467,58.9s4.628-10.44,0-11.366S32.267,48,33.192,39.67s10.645-2.777,12.959-6.48,6.942-6.017,13.422-2.314,8.794,14.349,5.091,16.663S54.019,45.688,54.019,39.67" transform="translate(18.361 16.068)" fill="none" stroke="#000" stroke-linecap="round" stroke-width="2.5"/>
    </g>
  </g>
</svg>
