<svg id="icon_error" xmlns="http://www.w3.org/2000/svg" xmlns:xlink="http://www.w3.org/1999/xlink" width="64" height="64" viewBox="0 0 64 64">
  <defs>
    <clipPath id="clip-path">
      <rect id="사각형_957" data-name="사각형 957" width="64" height="64" fill="none"/>
    </clipPath>
  </defs>
  <line id="선_173" data-name="선 173" y2="24.329" transform="translate(9.537 19.619)" fill="none" stroke="#000" stroke-width="2.5"/>
  <line id="선_174" data-name="선 174" y2="24.329" transform="translate(46.537 19.619)" fill="none" stroke="#000" stroke-width="2.5"/>
  <g id="그룹_1553" data-name="그룹 1553">
    <g id="그룹_1552" data-name="그룹 1552" clip-path="url(#clip-path)">
      <path id="패스_3410" data-name="패스 3410" d="M5,6H51a2,2,0,0,1,2,2V20a2,2,0,0,1-2,2H5a2,2,0,0,1-2-2V8A2,2,0,0,1,5,6" fill="#fff"/>
      <rect id="사각형_954" data-name="사각형 954" width="47.5" height="13.5" rx="0.75" transform="translate(4.25 7.25)" fill="none" stroke="#000" stroke-width="2.5"/>
      <path id="패스_3411" data-name="패스 3411" d="M5,24H51a2,2,0,0,1,2,2V38a2,2,0,0,1-2,2H5a2,2,0,0,1-2-2V26a2,2,0,0,1,2-2" fill="#fff"/>
      <rect id="사각형_955" data-name="사각형 955" width="47.5" height="13.5" rx="0.75" transform="translate(4.25 25.25)" fill="none" stroke="#000" stroke-width="2.5"/>
      <path id="패스_3412" data-name="패스 3412" d="M5,42H51a2,2,0,0,1,2,2V56a2,2,0,0,1-2,2H5a2,2,0,0,1-2-2V44a2,2,0,0,1,2-2" fill="#fff"/>
      <rect id="사각형_956" data-name="사각형 956" width="47.5" height="13.5" rx="0.75" transform="translate(4.25 43.25)" fill="none" stroke="#000" stroke-width="2.5"/>
      <path id="패스_3413" data-name="패스 3413" d="M14,10a4,4,0,1,1-4,4,4,4,0,0,1,4-4" fill="#fff"/>
      <circle id="타원_194" data-name="타원 194" cx="2.75" cy="2.75" r="2.75" transform="translate(11.25 11.25)" fill="none" stroke="#000" stroke-width="2.5"/>
      <path id="패스_3414" data-name="패스 3414" d="M14,28a4,4,0,1,1-4,4,4,4,0,0,1,4-4" fill="#fff"/>
      <circle id="타원_195" data-name="타원 195" cx="2.75" cy="2.75" r="2.75" transform="translate(11.25 29.25)" fill="none" stroke="#000" stroke-width="2.5"/>
      <path id="패스_3415" data-name="패스 3415" d="M14,46a4,4,0,1,1-4,4,4,4,0,0,1,4-4" fill="#fff"/>
      <circle id="타원_196" data-name="타원 196" cx="2.75" cy="2.75" r="2.75" transform="translate(11.25 47.25)" fill="none" stroke="#000" stroke-width="2.5"/>
      <line id="선_175" data-name="선 175" x2="3" transform="translate(33.66 14)" fill="none" stroke="#000" stroke-linecap="round" stroke-width="2.5"/>
      <line id="선_176" data-name="선 176" x2="3" transform="translate(33.66 32)" fill="none" stroke="#000" stroke-linecap="round" stroke-width="2.5"/>
      <line id="선_177" data-name="선 177" x2="3" transform="translate(41.661 14)" fill="none" stroke="#000" stroke-linecap="round" stroke-width="2.5"/>
      <path id="패스_3416" data-name="패스 3416" d="M58.9,61.75H29.1a1.75,1.75,0,0,1-1.53-2.6l14.9-26.822a1.75,1.75,0,0,1,3.06,0L60.43,59.15a1.75,1.75,0,0,1-1.53,2.6Z" fill="#fff"/>
      <path id="패스_3417" data-name="패스 3417" d="M44,32.677a.469.469,0,0,0-.437.258L28.66,59.757a.5.5,0,0,0,.437.743H58.9a.5.5,0,0,0,.438-.743l-14.9-26.822A.469.469,0,0,0,44,32.677m0-2.5a2.97,2.97,0,0,1,2.622,1.543l14.9,26.823A3,3,0,0,1,58.9,63H29.1a3,3,0,0,1-2.623-4.457l14.9-26.823A2.97,2.97,0,0,1,44,30.177"/>
      <path id="패스_3418" data-name="패스 3418" d="M44.5,42h0A1.5,1.5,0,0,1,46,43.5v7a1.5,1.5,0,0,1-3,0v-7A1.5,1.5,0,0,1,44.5,42"/>
      <path id="패스_3419" data-name="패스 3419" d="M44.5,54A1.5,1.5,0,1,1,43,55.5,1.5,1.5,0,0,1,44.5,54"/>
    </g>
  </g>
</svg>
