<svg xmlns="http://www.w3.org/2000/svg" width="16" height="16" viewBox="0 0 16 16">
    <path data-name="사각형 867" style="fill:none" d="M0 0h16v16H0z"/>
    <g style="fill-rule:evenodd;fill:none">
        <path d="M2.084 2.56s.043-.039 0 0A1.725 1.725 0 0 0 1.5 3.824c0 .976.634 2.776 3.713 5.855s4.866 3.709 5.84 3.709h.014a1.532 1.532 0 0 0 1.187-.508 1.588 1.588 0 0 1 .116-.11c.677-.681 1.023-1.188 1.02-1.512s-.417-.724-.987-1.266c-.181-.173-.378-.36-.586-.568-.539-.537-.806-.446-1.393-.239-.812.285-1.926.672-3.657-1.06S5.421 5.28 5.705 4.469c.205-.587.3-.855-.24-1.394-.211-.211-.4-.41-.575-.594-.54-.567-.928-.981-1.258-.981h-.005c-.325 0-.831.348-1.546 1.063z" style="stroke:none" transform="translate(.538 .233)"/>
        <path d="M3.627 1.5c-.326 0-.831.348-1.546 1.063l.003-.003c.001 0 .043-.04 0 .003-.164.16-.58.566-.584 1.261-.005.973.634 2.778 3.713 5.855 3.063 3.063 4.866 3.71 5.84 3.71h.014c.695-.004 1.027-.345 1.187-.509a1.59 1.59 0 0 1 .116-.11c.677-.68 1.023-1.187 1.02-1.512-.005-.331-.417-.723-.987-1.266-.182-.172-.379-.36-.586-.568-.54-.537-.806-.445-1.393-.239-.812.285-1.926.672-3.657-1.06C5.033 6.394 5.42 5.28 5.705 4.47c.205-.587.299-.855-.24-1.395-.212-.21-.401-.41-.576-.593-.539-.567-.927-.977-1.257-.981h-.005m0-1h.02c.749.01 1.284.574 1.962 1.287l.03.03c.167.176.34.358.532.55.984.984.704 1.786.478 2.431-.123.353-.23.658-.18 1.014.066.466.404 1.006 1.005 1.606.683.684 1.268 1.016 1.787 1.016.283 0 .55-.093.832-.192.319-.113.621-.219.981-.219.676 0 1.15.396 1.449.693.202.202.397.388.57.552.719.684 1.286 1.224 1.297 1.976.006.634-.385 1.3-1.31 2.231l-.034.034-.034.028a1 1 0 0 0-.041.04l-.004.005c-.215.219-.785.801-1.895.807h-.019c-1.688 0-3.89-1.347-6.547-4.003C1.839 7.72.49 5.51.5 3.82c.004-.736.298-1.396.875-1.962l-.001-.001C2.337.893 2.99.5 3.627.5z" style="fill:#666;stroke:none" transform="translate(.538 .233)"/>
    </g>
</svg>
