<svg xmlns="http://www.w3.org/2000/svg" width="48" height="48" viewBox="0 0 48 48">
    <defs>
        <style>
            .cls-2,.cls-3,.cls-7{fill:none}.cls-2,.cls-3{stroke:#000;stroke-width:1.5px}.cls-2{stroke-linecap:round}.cls-5{stroke:none}
        </style>
    </defs>
    <g id="icon_인테리어" transform="translate(4 1.127)">
        <g id="그룹_164" data-name="그룹 164" transform="translate(-1231 -1795.32)">
            <path id="패스_85" data-name="패스 85" class="cls-2" d="M6855.957 1794.434h.452c-4.348 0-6.1-1.072-7.956-.79a3.625 3.625 0 0 0-3.046 3.724c-.057 1.919 0 4.965 0 4.965" transform="translate(-5605.383 8.597)"/>
            <path id="패스_87" data-name="패스 87" class="cls-2" d="M6845.38 1794.434c4.344 0 5.642-1.072 7.5-.79a3.627 3.627 0 0 1 3.047 3.724c.056 1.918 0 5.078 0 5.078" transform="translate(-5594.468 8.597)"/>
            <path id="패스_86" data-name="패스 86" class="cls-3" d="M6865.375 1819.667h-15.291" transform="translate(-5606.224 .178)"/>
            <g id="합치기_8" data-name="합치기 8" style="stroke-linejoin:round;fill:none">
                <path class="cls-5" d="M23.511 20.264v-.021q-.25.021-.506.021H6.569v-.191a6 6 0 0 1-4.495-5.809V8.37A4.552 4.552 0 0 1 4.495 0a4.514 4.514 0 0 1 4.481 4.193h.013v9.084h14.522V4.193h.013a4.5 4.5 0 1 1 6.9 4.177v5.9a6 6 0 0 1-6 6z" transform="translate(1235.001 1810.672)"/>
                <path d="M24.425 18.764c2.482 0 4.5-2.018 4.5-4.499V8.37a1.5 1.5 0 0 1 .686-1.26A3.043 3.043 0 0 0 31 4.542C31 2.865 29.657 1.5 28.005 1.5c-1.556 0-2.867 1.232-2.985 2.806a1.516 1.516 0 0 1-.01.085v8.886a1.5 1.5 0 0 1-1.5 1.5H8.99a1.5 1.5 0 0 1-1.5-1.5V4.39a1.517 1.517 0 0 1-.01-.085C7.362 2.732 6.05 1.5 4.495 1.5 2.843 1.5 1.5 2.865 1.5 4.542c0 1.046.52 2.006 1.39 2.568a1.5 1.5 0 0 1 .685 1.26v5.895a4.497 4.497 0 0 0 3.37 4.357 1.5 1.5 0 0 1 .356.142h15.704c.127 0 .255-.005.38-.015a1.5 1.5 0 0 1 .376.015h.664m0 1.5h-.914v-.02a6.08 6.08 0 0 1-.506.02H6.569v-.19a6.003 6.003 0 0 1-4.494-5.809V8.37A4.549 4.549 0 0 1 0 4.542C0 2.033 2.012 0 4.495 0 6.86 0 8.8 1.847 8.976 4.193h.013v9.084h14.522V4.193h.013C23.7 1.847 25.639 0 28.005 0 30.488 0 32.5 2.033 32.5 4.542c0 1.608-.827 3.02-2.075 3.828v5.895a6 6 0 0 1-6 6z" style="fill:#000;stroke:none" transform="translate(1235.001 1810.672)"/>
            </g>
            <g id="사각형_93" data-name="사각형 93" class="cls-3">
                <path class="cls-5" d="M0 0h4.206v2.1a2.1 2.1 0 0 1-2.1 2.1A2.1 2.1 0 0 1 0 2.1V0z" transform="translate(1241.119 1829.407)"/>
                <path class="cls-7" d="M.943.75h2.32a.193.193 0 0 1 .193.193V2.1A1.353 1.353 0 0 1 2.1 3.456 1.353 1.353 0 0 1 .75 2.1V.943A.193.193 0 0 1 .943.75z" transform="translate(1241.119 1829.407)"/>
            </g>
            <g id="사각형_94" data-name="사각형 94" class="cls-3">
                <path class="cls-5" d="M0 0h3.823v2.294a1.912 1.912 0 0 1-1.911 1.912A1.912 1.912 0 0 1 0 2.294V0z" transform="translate(1256.795 1829.407)"/>
                <path class="cls-7" d="M.916.75h1.992a.166.166 0 0 1 .166.166v1.378a1.162 1.162 0 0 1-1.162 1.162A1.162 1.162 0 0 1 .75 2.294V.916A.166.166 0 0 1 .916.75z" transform="translate(1256.795 1829.407)"/>
            </g>
            <g id="_" data-name="+" transform="translate(1245.495 1808.222)">
                <path id="패스_88" data-name="패스 88" class="cls-2" d="M6853.25 1804.417h2.708" transform="translate(-6853.25 -1803.062)"/>
                <path id="패스_91" data-name="패스 91" class="cls-2" d="M6853.25 1804.417h2.708" transform="translate(-6845.125 -1803.062)"/>
                <path id="패스_89" data-name="패스 89" class="cls-2" d="M0 0h2.708" transform="rotate(90 .677 .677)"/>
                <path id="패스_90" data-name="패스 90" class="cls-2" d="M0 0h2.708" transform="rotate(90 4.74 4.74)"/>
            </g>
        </g>
    </g>
</svg>
