<svg id="icon_youtube" xmlns="http://www.w3.org/2000/svg" width="56" height="56" viewBox="0 0 56 56">
    <defs>
        <clipPath id="clip-path">
            <path id="사각형_737" data-name="사각형 737" style="fill:none" d="M0 0h56v56H0z"/>
        </clipPath>
        <style>
            .cls-2{clip-path:url(#clip-path)}
        </style>
    </defs>
    <g id="그룹_1145" data-name="그룹 1145" class="cls-2">
        <g id="그룹_1144" data-name="그룹 1144">
            <g id="그룹_1143" data-name="그룹 1143" class="cls-2">
                <path id="패스_394" data-name="패스 394" d="M20.066 26.806v-10.2L30.1 21.724l-10.034 5.083zM42.1 14.84a7.74 7.74 0 0 0-1.476-3.6A5.383 5.383 0 0 0 36.9 9.7c-5.2-.366-12.991-.366-12.991-.366h-.017s-7.792 0-12.992.366a5.389 5.389 0 0 0-3.72 1.537 7.731 7.731 0 0 0-1.474 3.6 53.54 53.54 0 0 0-.373 5.875v2.754a53.5 53.5 0 0 0 .373 5.875 7.751 7.751 0 0 0 1.474 3.6c1.413 1.445 3.269 1.4 4.1 1.551 2.97.279 12.625.366 12.625.366s7.8-.012 13-.379a5.375 5.375 0 0 0 3.72-1.537 7.74 7.74 0 0 0 1.476-3.6 53.5 53.5 0 0 0 .373-5.875v-2.752a53.54 53.54 0 0 0-.374-5.875" transform="translate(3.95 7.211)" style="fill:#666;fill-rule:evenodd"/>
            </g>
        </g>
    </g>
</svg>
