<svg id="그룹_1004" data-name="그룹 1004" xmlns="http://www.w3.org/2000/svg" xmlns:xlink="http://www.w3.org/1999/xlink" width="96" height="96" viewBox="0 0 96 96">
  <defs>
    <clipPath id="clip-path">
      <rect id="사각형_674" data-name="사각형 674" width="96" height="96" fill="none"/>
    </clipPath>
  </defs>
  <g id="그룹_1003" data-name="그룹 1003" clip-path="url(#clip-path)">
    <rect id="사각형_669" data-name="사각형 669" width="57.5" height="15.5" rx="2.75" transform="translate(9.25 11.25)" fill="none" stroke="#000" stroke-linecap="round" stroke-linejoin="round" stroke-width="2.5"/>
    <line id="선_124" data-name="선 124" x2="57.75" transform="translate(9.5 17)" fill="none" stroke="#000" stroke-width="2.5"/>
    <line id="선_125" data-name="선 125" x2="57.75" transform="translate(9.5 22)" fill="none" stroke="#000" stroke-width="2.5"/>
    <rect id="사각형_670" data-name="사각형 670" width="17.5" height="2.5" transform="translate(14.25 26.75)" fill="none" stroke="#000" stroke-width="2.5"/>
    <rect id="사각형_671" data-name="사각형 671" width="17.5" height="2.5" transform="translate(43.25 26.75)" fill="none" stroke="#000" stroke-width="2.5"/>
    <rect id="사각형_672" data-name="사각형 672" width="23.5" height="15.5" rx="2.75" transform="translate(11.25 31.25)" fill="none" stroke="#000" stroke-linecap="round" stroke-linejoin="round" stroke-width="2.5"/>
    <line id="선_126" data-name="선 126" x2="25" transform="translate(10 42)" fill="none" stroke="#000" stroke-width="2.5"/>
    <rect id="사각형_673" data-name="사각형 673" width="23.5" height="15.5" rx="2.75" transform="translate(41.25 31.25)" fill="none" stroke="#000" stroke-linecap="round" stroke-linejoin="round" stroke-width="2.5"/>
    <line id="선_127" data-name="선 127" x2="25" transform="translate(40 42)" fill="none" stroke="#000" stroke-width="2.5"/>
    <path id="패스_445" data-name="패스 445" d="M44.5,46.75h17A1.25,1.25,0,0,1,62.75,48V75.5A2.75,2.75,0,0,1,60,78.25H46a2.75,2.75,0,0,1-2.75-2.75V48A1.25,1.25,0,0,1,44.5,46.75Z" fill="none" stroke="#000" stroke-linecap="round" stroke-linejoin="round" stroke-width="2.5"/>
    <path id="패스_446" data-name="패스 446" d="M14.5,46.75h17A1.25,1.25,0,0,1,32.75,48V75.5A2.75,2.75,0,0,1,30,78.25H16a2.75,2.75,0,0,1-2.75-2.75V48A1.25,1.25,0,0,1,14.5,46.75Z" fill="none" stroke="#000" stroke-linecap="round" stroke-linejoin="round" stroke-width="2.5"/>
    <line id="선_128" data-name="선 128" x2="20" transform="translate(13 61)" fill="none" stroke="#000" stroke-width="2.5"/>
    <line id="선_129" data-name="선 129" x2="20" transform="translate(12 74)" fill="none" stroke="#000" stroke-width="2.5"/>
    <line id="선_130" data-name="선 130" x2="20" transform="translate(44.5 61)" fill="none" stroke="#000" stroke-width="2.5"/>
    <line id="선_131" data-name="선 131" x2="20" transform="translate(44.5 74)" fill="none" stroke="#000" stroke-width="2.5"/>
    <path id="패스_447" data-name="패스 447" d="M70,51A18,18,0,1,1,52,69,18,18,0,0,1,70,51" fill="#fff"/>
    <circle id="타원_139" data-name="타원 139" cx="16.75" cy="16.75" r="16.75" transform="translate(53.25 52.25)" fill="none" stroke="#000" stroke-width="2.5"/>
    <path id="패스_448" data-name="패스 448" d="M86,64.409,72.62,78.115,75.437,81H63.944V68.254l3.783,3.875L73.31,66.41,76.617,69.8V58H63.944l2.895,2.965L54,74.113" fill="none" stroke="#000" stroke-linecap="round" stroke-linejoin="round" stroke-width="2.5"/>
  </g>
</svg>
