<svg id="그룹_1021" data-name="그룹 1021" xmlns="http://www.w3.org/2000/svg" xmlns:xlink="http://www.w3.org/1999/xlink" width="96" height="96" viewBox="0 0 96 96">
  <defs>
    <clipPath id="clip-path">
      <rect id="사각형_683" data-name="사각형 683" width="96" height="96" fill="none"/>
    </clipPath>
    <clipPath id="clip-path-2">
      <path id="패스_483" data-name="패스 483" d="M59.579,65.805a1.079,1.079,0,1,0,.133-.008,1,1,0,0,0-.133.008" fill="none"/>
    </clipPath>
  </defs>
  <g id="그룹_1016" data-name="그룹 1016">
    <g id="그룹_1015" data-name="그룹 1015" clip-path="url(#clip-path)">
      <path id="패스_469" data-name="패스 469" d="M74.407,46.639A32.12,32.12,0,1,1,43.992,12.9,32.12,32.12,0,0,1,74.407,46.639" fill="#fff"/>
      <path id="패스_470" data-name="패스 470" d="M74.407,46.639A32.12,32.12,0,1,1,43.992,12.9,32.12,32.12,0,0,1,74.407,46.639Z" fill="none" stroke="#000" stroke-linecap="round" stroke-linejoin="round" stroke-width="2.5"/>
      <path id="패스_471" data-name="패스 471" d="M69.142,46.366a26.847,26.847,0,1,1-25.423-28.2,26.848,26.848,0,0,1,25.423,28.2" fill="#fff"/>
      <path id="패스_472" data-name="패스 472" d="M69.142,46.366a26.847,26.847,0,1,1-25.423-28.2A26.848,26.848,0,0,1,69.142,46.366Z" fill="none" stroke="#000" stroke-linecap="round" stroke-linejoin="round" stroke-width="2.5"/>
      <path id="패스_473" data-name="패스 473" d="M63.489,46.073A21.186,21.186,0,1,1,43.427,23.819,21.187,21.187,0,0,1,63.489,46.073" fill="#fff"/>
      <path id="패스_474" data-name="패스 474" d="M63.489,46.073A21.186,21.186,0,1,1,43.427,23.819,21.187,21.187,0,0,1,63.489,46.073Z" fill="none" stroke="#000" stroke-linecap="round" stroke-linejoin="round" stroke-width="2.5"/>
      <path id="패스_475" data-name="패스 475" d="M57.805,45.779A15.5,15.5,0,1,1,43.132,29.5,15.5,15.5,0,0,1,57.805,45.779" fill="#fff"/>
      <path id="패스_476" data-name="패스 476" d="M57.805,45.779A15.5,15.5,0,1,1,43.132,29.5,15.5,15.5,0,0,1,57.805,45.779Z" fill="none" stroke="#000" stroke-linecap="round" stroke-linejoin="round" stroke-width="2.5"/>
      <path id="패스_477" data-name="패스 477" d="M52.681,44.978a10.351,10.351,0,1,1-10.35-10.35,10.35,10.35,0,0,1,10.35,10.35" fill="#fff"/>
      <path id="패스_478" data-name="패스 478" d="M52.681,44.978a10.351,10.351,0,1,1-10.35-10.35A10.35,10.35,0,0,1,52.681,44.978Z" fill="none" stroke="#000" stroke-linecap="round" stroke-linejoin="round" stroke-width="2.5"/>
      <path id="패스_479" data-name="패스 479" d="M87.809,61.071c-2.293,7.892-12.76,20.05-15.531,22.564s-12.5,2.984-16.426,3.467-5.349-2.243-5.434-4.407,4.087-2.133,9.22-3.125,6.852-1.748,8.24-3.73.636-5.151-.7-5.712-10.8,2.051-10.7-3.035,9.6-4.441,11.031-4.616,1.318-1.069,2.815-2.158,4.306-.348,6.426-.789,2.468-6.465,2.468-6.465" fill="#fff"/>
      <path id="패스_480" data-name="패스 480" d="M87.809,61.071c-2.293,7.892-12.76,20.05-15.531,22.564s-12.5,2.984-16.426,3.467-5.349-2.243-5.434-4.407,4.087-2.133,9.22-3.125,6.852-1.748,8.24-3.73.636-5.151-.7-5.712-10.8,2.051-10.7-3.035,9.6-4.441,11.031-4.616,1.318-1.069,2.815-2.158,4.306-.348,6.426-.789,2.468-6.465,2.468-6.465" fill="none" stroke="#000" stroke-linecap="round" stroke-linejoin="round" stroke-width="2.5"/>
      <path id="패스_481" data-name="패스 481" d="M58.639,67.008h0a1.079,1.079,0,1,1,1.2.94,1.079,1.079,0,0,1-1.2-.94" fill="#fff"/>
    </g>
  </g>
  <g id="그룹_1018" data-name="그룹 1018">
    <g id="그룹_1017" data-name="그룹 1017" clip-path="url(#clip-path-2)">
      <path id="패스_482" data-name="패스 482" d="M60.814,67.012l-2.142.263m1.175-1.5.263,2.142m-1.5-1.174,2.142-.263m-1.174,1.5-.263-2.142" fill="none" stroke="#000" stroke-linecap="round" stroke-linejoin="round" stroke-width="2.5"/>
    </g>
  </g>
  <g id="그룹_1020" data-name="그룹 1020">
    <g id="그룹_1019" data-name="그룹 1019" clip-path="url(#clip-path)">
      <path id="패스_484" data-name="패스 484" d="M73,13.186s.353,2.585-1.078,3.5a5.355,5.355,0,0,1-3.123.726" fill="none" stroke="#000" stroke-linecap="round" stroke-linejoin="round" stroke-width="2.5"/>
      <path id="패스_485" data-name="패스 485" d="M77.281,17.387s-2.585.353-3.5-1.078a5.355,5.355,0,0,1-.726-3.123" fill="none" stroke="#000" stroke-linecap="round" stroke-linejoin="round" stroke-width="2.5"/>
      <path id="패스_486" data-name="패스 486" d="M73,21.666s.353-2.585-1.078-3.5a5.355,5.355,0,0,0-3.123-.726" fill="none" stroke="#000" stroke-linecap="round" stroke-linejoin="round" stroke-width="2.5"/>
      <path id="패스_487" data-name="패스 487" d="M77.281,17.465s-2.585-.353-3.5,1.078a5.355,5.355,0,0,0-.726,3.123" fill="none" stroke="#000" stroke-linecap="round" stroke-linejoin="round" stroke-width="2.5"/>
      <path id="패스_488" data-name="패스 488" d="M81.526,22.863s.177,1.293-.539,1.749a2.67,2.67,0,0,1-1.562.363" fill="none" stroke="#000" stroke-linecap="round" stroke-linejoin="round" stroke-width="2.5"/>
      <path id="패스_489" data-name="패스 489" d="M83.666,24.964s-1.293.177-1.749-.539a2.67,2.67,0,0,1-.363-1.562" fill="none" stroke="#000" stroke-linecap="round" stroke-linejoin="round" stroke-width="2.5"/>
      <path id="패스_490" data-name="패스 490" d="M81.526,27.1s.177-1.293-.539-1.749a2.67,2.67,0,0,0-1.562-.363" fill="none" stroke="#000" stroke-linecap="round" stroke-linejoin="round" stroke-width="2.5"/>
      <path id="패스_491" data-name="패스 491" d="M83.666,25s-1.293-.177-1.749.539a2.67,2.67,0,0,0-.363,1.562" fill="none" stroke="#000" stroke-linecap="round" stroke-linejoin="round" stroke-width="2.5"/>
    </g>
  </g>
</svg>
