<svg id="그룹_1056" data-name="그룹 1056" xmlns="http://www.w3.org/2000/svg" xmlns:xlink="http://www.w3.org/1999/xlink" width="96" height="96" viewBox="0 0 96 96">
  <defs>
    <clipPath id="clip-path">
      <rect id="사각형_728" data-name="사각형 728" width="96" height="96" fill="none"/>
    </clipPath>
  </defs>
  <rect id="사각형_718" data-name="사각형 718" width="58.361" height="72.056" transform="translate(10.104 10.363)" fill="#fff"/>
  <rect id="사각형_719" data-name="사각형 719" width="58.361" height="72.056" transform="translate(10.104 10.363)" fill="none" stroke="#000" stroke-linecap="round" stroke-linejoin="round" stroke-width="2.5"/>
  <rect id="사각형_720" data-name="사각형 720" width="58.361" height="6.704" transform="translate(10.104 82.419)" fill="#fff"/>
  <rect id="사각형_721" data-name="사각형 721" width="58.361" height="6.704" transform="translate(10.104 82.419)" fill="none" stroke="#000" stroke-linecap="round" stroke-linejoin="round" stroke-width="2.5"/>
  <rect id="사각형_722" data-name="사각형 722" width="3.99" height="1.496" transform="translate(11.601 89.123)" fill="#fff"/>
  <rect id="사각형_723" data-name="사각형 723" width="3.99" height="1.496" transform="translate(11.601 89.123)" fill="none" stroke="#000" stroke-linecap="round" stroke-linejoin="round" stroke-width="2.5"/>
  <rect id="사각형_724" data-name="사각형 724" width="3.99" height="1.496" transform="translate(62.757 89.123)" fill="#fff"/>
  <rect id="사각형_725" data-name="사각형 725" width="3.99" height="1.496" transform="translate(62.757 89.123)" fill="none" stroke="#000" stroke-linecap="round" stroke-linejoin="round" stroke-width="2.5"/>
  <rect id="사각형_726" data-name="사각형 726" width="44.451" height="56.865" transform="translate(17.059 17.958)" fill="#fff"/>
  <rect id="사각형_727" data-name="사각형 727" width="44.451" height="56.865" transform="translate(17.059 17.958)" fill="none" stroke="#000" stroke-linecap="round" stroke-linejoin="round" stroke-width="2.5"/>
  <g id="그룹_1055" data-name="그룹 1055">
    <g id="그룹_1054" data-name="그룹 1054" clip-path="url(#clip-path)">
      <path id="패스_698" data-name="패스 698" d="M85.493,65.247s.827-4.148-4.317-7.014-.259-9.62-10.849-9.094c-10.106.5-12.1.205-15.54,4.862s-.024,6.067-4.158,9.368-1.331,7.907,1.957,9.988C59.269,77.588,57.31,83.4,62.8,85.094a9.093,9.093,0,0,0,6.828-.82" fill="#fff"/>
      <path id="패스_699" data-name="패스 699" d="M85.493,65.247s.827-4.148-4.317-7.014-.259-9.62-10.849-9.094c-10.106.5-12.1.205-15.54,4.862s-.024,6.067-4.158,9.368-1.331,7.907,1.957,9.988C59.269,77.588,57.31,83.4,62.8,85.094a9.093,9.093,0,0,0,6.828-.82" fill="none" stroke="#000" stroke-linecap="round" stroke-width="2.5"/>
      <path id="패스_700" data-name="패스 700" d="M67.6,75.949s-1.253-.431-3.113-1.083c-2.9-1.014-7.419-2.621-7.88-2.929-.709-.473-1.384-1.725-.725-3.876s1.748-1,1.921-1.816.073-2.616,1.135-3.109,2.192-.836,2.546-1.461.467-1.969,1.417-2.5,2.05.244,2.707-.522.276-3.171,2.356-2.664,9.054,3.807,10.063,5.182,4.426,6.145,5.677,6.853,5.784,3.118,5.874,3.906-7.1,11.878-9.334,11.442-1.986-2.487-4.581-3.308-8.04,1.344-10.332.382-2.966-2.215-2.521-3.436,1.567-1.19,2.658-1.422" fill="#fff"/>
      <path id="패스_701" data-name="패스 701" d="M67.6,75.949s-1.253-.431-3.113-1.083c-2.9-1.014-7.419-2.621-7.88-2.929-.709-.473-1.384-1.725-.725-3.876s1.748-1,1.921-1.816.073-2.616,1.135-3.109,2.192-.836,2.546-1.461.467-1.969,1.417-2.5,2.05.244,2.707-.522.276-3.171,2.356-2.664,9.054,3.807,10.063,5.182,4.426,6.145,5.677,6.853,5.784,3.118,5.874,3.906-7.1,11.878-9.334,11.442-1.986-2.487-4.581-3.308-8.04,1.344-10.332.382-2.966-2.215-2.521-3.436,1.567-1.19,2.658-1.422" fill="none" stroke="#000" stroke-linecap="round" stroke-width="2.5"/>
      <path id="패스_702" data-name="패스 702" d="M39.265,51.676s.177,1.293-.539,1.749a2.67,2.67,0,0,1-1.562.363" fill="none" stroke="#000" stroke-linecap="round" stroke-linejoin="round" stroke-width="2.5"/>
      <path id="패스_703" data-name="패스 703" d="M41.4,53.776s-1.293.177-1.749-.539a2.67,2.67,0,0,1-.363-1.562" fill="none" stroke="#000" stroke-linecap="round" stroke-linejoin="round" stroke-width="2.5"/>
      <path id="패스_704" data-name="패스 704" d="M39.265,55.916s.177-1.293-.539-1.749a2.67,2.67,0,0,0-1.562-.363" fill="none" stroke="#000" stroke-linecap="round" stroke-linejoin="round" stroke-width="2.5"/>
      <path id="패스_705" data-name="패스 705" d="M41.4,53.815s-1.293-.177-1.749.539a2.67,2.67,0,0,0-.363,1.562" fill="none" stroke="#000" stroke-linecap="round" stroke-linejoin="round" stroke-width="2.5"/>
      <path id="패스_706" data-name="패스 706" d="M48.89,40.631s.353,2.585-1.078,3.5a5.355,5.355,0,0,1-3.123.726" fill="none" stroke="#000" stroke-linecap="round" stroke-linejoin="round" stroke-width="2.5"/>
      <path id="패스_707" data-name="패스 707" d="M53.168,44.832s-2.585.353-3.5-1.078a5.355,5.355,0,0,1-.726-3.123" fill="none" stroke="#000" stroke-linecap="round" stroke-linejoin="round" stroke-width="2.5"/>
      <path id="패스_708" data-name="패스 708" d="M48.89,49.11s.353-2.585-1.078-3.5a5.355,5.355,0,0,0-3.123-.726" fill="none" stroke="#000" stroke-linecap="round" stroke-linejoin="round" stroke-width="2.5"/>
      <path id="패스_709" data-name="패스 709" d="M53.168,44.909s-2.585-.353-3.5,1.078a5.355,5.355,0,0,0-.726,3.123" fill="none" stroke="#000" stroke-linecap="round" stroke-linejoin="round" stroke-width="2.5"/>
      <line id="선_190" data-name="선 190" y1="13.468" x2="13.8" transform="translate(20.247 21.45)" fill="#fff"/>
      <line id="선_191" data-name="선 191" y1="13.468" x2="13.8" transform="translate(20.247 21.45)" fill="none" stroke="#000" stroke-linecap="round" stroke-width="2.5"/>
      <line id="선_192" data-name="선 192" y1="6.665" x2="6.997" transform="translate(20.193 21.628)" fill="#fff"/>
      <line id="선_193" data-name="선 193" y1="6.665" x2="6.997" transform="translate(20.193 21.628)" fill="none" stroke="#000" stroke-linecap="round" stroke-width="2.5"/>
    </g>
  </g>
</svg>
