<svg xmlns="http://www.w3.org/2000/svg" width="96" height="96" viewBox="0 0 96 96">
    <defs>
        <style>
            .cls-1,.cls-2,.cls-3{fill:none}.cls-2,.cls-3{stroke:#000;stroke-width:2.5px}.cls-2{stroke-linecap:round;stroke-linejoin:round}.cls-4{stroke:none}
        </style>
    </defs>
    <g id="icon_외관_토탈_클리닝" data-name="icon_외관 토탈 클리닝" transform="translate(-322 -72)">
        <path id="bg" class="cls-1" transform="translate(322 72)" d="M0 0h96v96H0z"/>
        <g id="그룹_13" data-name="그룹 13" transform="translate(.167 -7.665)">
            <path id="패스_19" data-name="패스 19" class="cls-2" d="M378.167 132c3 .167 13.333-3.167 13.333-3.167s-.167-1-2-2.833-1-23-1.5-24.833-2-12.333-17.833-12.5S353 98 352.333 100.333s-.333 19.167 0 21.833-2.667 6.667-2.667 6.667 10 3 12.833 3.167"/>
            <path id="패스_20" data-name="패스 20" class="cls-2" d="M375 103s-4.833 3.167-9.333 4a53.69 53.69 0 0 1-8.667.833s-1.994 9.969-.833 13.5 4.328 9.833 14 9.833 13.76-7.1 14.5-9.833 1.167-12.167 0-12.5-3.333.167-5.333-1.833-4.334-4-4.334-4z" transform="translate(-.094 1)"/>
            <g id="타원_10" data-name="타원 10" class="cls-3" transform="translate(360 114)">
                <circle class="cls-4" cx="2" cy="2" r="2"/>
                <circle class="cls-1" cx="2" cy="2" r=".75"/>
            </g>
            <g id="타원_11" data-name="타원 11" class="cls-3" transform="translate(376.8 114)">
                <circle class="cls-4" cx="2" cy="2" r="2"/>
                <circle class="cls-1" cx="2" cy="2" r=".75"/>
            </g>
            <path id="패스_21" data-name="패스 21" class="cls-2" d="M365.333 122.167h8s-3.016 4-4.066 4-3.934-4-3.934-4z" transform="translate(.667 .833)"/>
            <path id="패스_22" data-name="패스 22" class="cls-2" d="M363 131.833v4.833s-8.833-.167-15.5 2.667-12.667 27.833-12.667 27.833h70.833s-5.5-22.167-10.5-26.5-17.833-4-17.833-4v-4.833"/>
            <path id="패스_23" data-name="패스 23" class="cls-3" d="M348.333 139.333v27"/>
            <path id="패스_24" data-name="패스 24" class="cls-3" d="M348.333 139.333v27" transform="translate(43.797)"/>
            <path id="패스_25" data-name="패스 25" class="cls-3" d="m358.667 137 15.167 29.833" transform="translate(-1)"/>
            <path id="패스_26" data-name="패스 26" class="cls-3" d="m383.167 137-12.833 23.265" transform="translate(-.333)"/>
            <path id="패스_27" data-name="패스 27" class="cls-2" d="m361.333 137 4.5 7.917 4.333-4.417-7.25-4.75z"/>
            <path id="패스_28" data-name="패스 28" class="cls-2" d="m370.167 137-4.5 7.917-4.333-4.417 7.25-4.75z" transform="translate(8.25)"/>
            <g id="타원_12" data-name="타원 12" class="cls-3" transform="translate(369 145)">
                <circle class="cls-4" cx="1" cy="1" r="1"/>
                <circle class="cls-1" cx="1" cy="1" r=".25"/>
            </g>
            <g id="타원_13" data-name="타원 13" class="cls-3" transform="translate(369 149)">
                <circle class="cls-4" cx="1" cy="1" r="1"/>
                <circle class="cls-1" cx="1" cy="1" r=".25"/>
            </g>
            <g id="사각형_10" data-name="사각형 10" class="cls-3" transform="translate(380 153)">
                <rect class="cls-4" width="7" height="3" rx="1.5"/>
                <rect class="cls-1" x="1.25" y="1.25" width="4.5" height=".5" rx=".25"/>
            </g>
        </g>
    </g>
</svg>
