<svg xmlns="http://www.w3.org/2000/svg" xmlns:xlink="http://www.w3.org/1999/xlink" width="149" height="149" viewBox="0 0 149 149">
  <defs>
    <clipPath id="clip-path">
      <rect id="사각형_683" data-name="사각형 683" width="149" height="149" transform="translate(-0.061)" fill="none"/>
    </clipPath>
    <clipPath id="clip-path-2">
      <path id="패스_483" data-name="패스 483" d="M60.105,65.809a1.678,1.678,0,1,0,.207-.012,1.555,1.555,0,0,0-.207.012" transform="translate(-58.631 -65.797)" fill="none"/>
    </clipPath>
  </defs>
  <g id="그룹_1021" data-name="그룹 1021" transform="translate(0.061)">
    <g id="그룹_1016" data-name="그룹 1016">
      <g id="그룹_1015" data-name="그룹 1015" clip-path="url(#clip-path)">
        <path id="패스_469" data-name="패스 469" d="M110.046,65.393a49.951,49.951,0,1,1-47.3-52.468,49.952,49.952,0,0,1,47.3,52.468" transform="translate(5.668 7.138)" fill="#fff"/>
        <path id="패스_470" data-name="패스 470" d="M110.046,65.393a49.951,49.951,0,1,1-47.3-52.468A49.952,49.952,0,0,1,110.046,65.393Z" transform="translate(5.668 7.138)" fill="none" stroke="#000" stroke-linecap="round" stroke-linejoin="round" stroke-width="2.5"/>
        <path id="패스_471" data-name="패스 471" d="M98.931,62.042A41.752,41.752,0,1,1,59.395,18.186,41.752,41.752,0,0,1,98.931,62.042" transform="translate(8.595 10.065)" fill="#fff"/>
        <path id="패스_472" data-name="패스 472" d="M98.931,62.042A41.752,41.752,0,1,1,59.395,18.186,41.752,41.752,0,0,1,98.931,62.042Z" transform="translate(8.595 10.065)" fill="none" stroke="#000" stroke-linecap="round" stroke-linejoin="round" stroke-width="2.5"/>
        <path id="패스_473" data-name="패스 473" d="M87,58.443A32.948,32.948,0,1,1,55.8,23.835,32.949,32.949,0,0,1,87,58.443" transform="translate(11.738 13.207)" fill="#fff"/>
        <path id="패스_474" data-name="패스 474" d="M87,58.443A32.948,32.948,0,1,1,55.8,23.835,32.949,32.949,0,0,1,87,58.443Z" transform="translate(11.738 13.207)" fill="none" stroke="#000" stroke-linecap="round" stroke-linejoin="round" stroke-width="2.5"/>
        <path id="패스_475" data-name="패스 475" d="M75,54.826A24.1,24.1,0,1,1,52.179,29.515,24.1,24.1,0,0,1,75,54.826" transform="translate(14.898 16.367)" fill="#fff"/>
        <path id="패스_476" data-name="패스 476" d="M75,54.826A24.1,24.1,0,1,1,52.179,29.515,24.1,24.1,0,0,1,75,54.826Z" transform="translate(14.898 16.367)" fill="none" stroke="#000" stroke-linecap="round" stroke-linejoin="round" stroke-width="2.5"/>
        <path id="패스_477" data-name="패스 477" d="M64.173,50.724a16.1,16.1,0,1,1-16.1-16.1,16.1,16.1,0,0,1,16.1,16.1" transform="translate(17.754 19.224)" fill="#fff"/>
        <path id="패스_478" data-name="패스 478" d="M64.173,50.724a16.1,16.1,0,1,1-16.1-16.1A16.1,16.1,0,0,1,64.173,50.724Z" transform="translate(17.754 19.224)" fill="none" stroke="#000" stroke-linecap="round" stroke-linejoin="round" stroke-width="2.5"/>
        <path id="패스_479" data-name="패스 479" d="M108.568,65.516C105,77.789,88.724,96.7,84.414,100.606S64.977,105.247,58.869,106s-8.319-3.488-8.451-6.854,6.356-3.317,14.339-4.86,10.656-2.718,12.814-5.8.989-8.011-1.092-8.883-16.8,3.19-16.642-4.72S74.772,67.974,76.993,67.7s2.05-1.662,4.378-3.356,6.7-.541,9.993-1.227S95.2,53.065,95.2,53.065" transform="translate(27.989 29.459)" fill="#fff"/>
        <path id="패스_480" data-name="패스 480" d="M108.568,65.516C105,77.789,88.724,96.7,84.414,100.606S64.977,105.247,58.869,106s-8.319-3.488-8.451-6.854,6.356-3.317,14.339-4.86,10.656-2.718,12.814-5.8.989-8.011-1.092-8.883-16.8,3.19-16.642-4.72S74.772,67.974,76.993,67.7s2.05-1.662,4.378-3.356,6.7-.541,9.993-1.227S95.2,53.065,95.2,53.065" transform="translate(27.989 29.459)" fill="none" stroke="#000" stroke-linecap="round" stroke-linejoin="round" stroke-width="2.5"/>
        <path id="패스_481" data-name="패스 481" d="M58.644,67.68h0a1.678,1.678,0,1,1,1.871,1.462,1.678,1.678,0,0,1-1.871-1.462" transform="translate(32.549 36.528)" fill="#fff"/>
      </g>
    </g>
    <g id="그룹_1018" data-name="그룹 1018" transform="translate(91.18 102.325)">
      <g id="그룹_1017" data-name="그룹 1017" clip-path="url(#clip-path-2)">
        <path id="패스_482" data-name="패스 482" d="M62.04,67.7l-3.331.409m1.827-2.337.409,3.331m-2.339-1.826,3.331-.409m-1.826,2.337L59.7,65.875" transform="translate(-58.645 -65.811)" fill="none" stroke="#000" stroke-linecap="round" stroke-linejoin="round" stroke-width="2.5"/>
      </g>
    </g>
    <g id="그룹_1020" data-name="그룹 1020">
      <g id="그룹_1019" data-name="그룹 1019" clip-path="url(#clip-path)">
        <path id="패스_484" data-name="패스 484" d="M75.335,13.186s.549,4.02-1.676,5.44A8.328,8.328,0,0,1,68.8,19.755" transform="translate(38.196 7.32)" fill="none" stroke="#000" stroke-linecap="round" stroke-linejoin="round" stroke-width="2.5"/>
        <path id="패스_485" data-name="패스 485" d="M79.635,19.719s-4.02.549-5.44-1.676a8.328,8.328,0,0,1-1.129-4.857" transform="translate(40.549 7.32)" fill="none" stroke="#000" stroke-linecap="round" stroke-linejoin="round" stroke-width="2.5"/>
        <path id="패스_486" data-name="패스 486" d="M75.335,24.02s.549-4.02-1.676-5.44A8.328,8.328,0,0,0,68.8,17.451" transform="translate(38.196 9.674)" fill="none" stroke="#000" stroke-linecap="round" stroke-linejoin="round" stroke-width="2.5"/>
        <path id="패스_487" data-name="패스 487" d="M79.635,17.486s-4.02-.549-5.44,1.676a8.328,8.328,0,0,0-1.129,4.857" transform="translate(40.549 9.674)" fill="none" stroke="#000" stroke-linecap="round" stroke-linejoin="round" stroke-width="2.5"/>
        <path id="패스_488" data-name="패스 488" d="M82.692,22.863s.275,2.011-.838,2.72a4.152,4.152,0,0,1-2.429.565" transform="translate(44.093 12.693)" fill="none" stroke="#000" stroke-linecap="round" stroke-linejoin="round" stroke-width="2.5"/>
        <path id="패스_489" data-name="패스 489" d="M84.843,26.13s-2.011.275-2.72-.838a4.152,4.152,0,0,1-.565-2.429" transform="translate(45.271 12.693)" fill="none" stroke="#000" stroke-linecap="round" stroke-linejoin="round" stroke-width="2.5"/>
        <path id="패스_490" data-name="패스 490" d="M82.692,28.281s.275-2.011-.838-2.72A4.152,4.152,0,0,0,79.425,25" transform="translate(44.093 13.87)" fill="none" stroke="#000" stroke-linecap="round" stroke-linejoin="round" stroke-width="2.5"/>
        <path id="패스_491" data-name="패스 491" d="M84.843,25.014s-2.011-.275-2.72.838a4.152,4.152,0,0,0-.565,2.429" transform="translate(45.271 13.87)" fill="none" stroke="#000" stroke-linecap="round" stroke-linejoin="round" stroke-width="2.5"/>
      </g>
    </g>
  </g>
</svg>
