<svg xmlns="http://www.w3.org/2000/svg" width="140" height="140" viewBox="0 0 140 140">
  <g id="booking_img01" transform="translate(-422 -314)">
    <circle id="타원_37" data-name="타원 37" cx="70" cy="70" r="70" transform="translate(422 314)" fill="#fbf5ff"/>
    <g id="그룹_435" data-name="그룹 435">
      <g id="패스_205" data-name="패스 205" transform="translate(469 364)" fill="#fff">
        <path d="M 46.25 32.25 L 0.75 32.25 L 0.75 2 C 0.75 1.310750007629395 1.310750007629395 0.75 2 0.75 L 45 0.75 C 45.68925094604492 0.75 46.25 1.310750007629395 46.25 2 L 46.25 32.25 Z" stroke="none"/>
        <path d="M 2 1.5 C 1.724300384521484 1.5 1.5 1.724300384521484 1.5 2 L 1.5 31.5 L 45.5 31.5 L 45.5 2 C 45.5 1.724300384521484 45.27569961547852 1.5 45 1.5 L 2 1.5 M 2 0 L 45 0 C 46.10456848144531 0 47 0.8954315185546875 47 2 L 47 33 L 0 33 L 0 2 C 0 0.8954315185546875 0.8954315185546875 0 2 0 Z" stroke="none" fill="#000"/>
      </g>
      <g id="사각형_352" data-name="사각형 352" transform="translate(462 395)" fill="#edcec9" stroke="#000" stroke-width="1.5">
        <path d="M1,0H60a1,1,0,0,1,1,1V7a3,3,0,0,1-3,3H3A3,3,0,0,1,0,7V1A1,1,0,0,1,1,0Z" stroke="none"/>
        <path d="M1,.75H60a.25.25,0,0,1,.25.25V7A2.25,2.25,0,0,1,58,9.25H3A2.25,2.25,0,0,1,.75,7V1A.25.25,0,0,1,1,.75Z" fill="none"/>
      </g>
      <g id="그룹_432" data-name="그룹 432" transform="translate(-818.743 14)">
        <g id="타원_47" data-name="타원 47" transform="translate(1292 360)" fill="#e1d0b6" stroke="#000" stroke-width="1.5">
          <circle cx="6.5" cy="6.5" r="6.5" stroke="none"/>
          <circle cx="6.5" cy="6.5" r="5.75" fill="none"/>
        </g>
        <g id="타원_48" data-name="타원 48" transform="translate(1295.385 364.231)" stroke="#000" stroke-width="1">
          <circle cx="1" cy="1" r="1" stroke="none"/>
          <circle cx="1" cy="1" r="0.5" fill="none"/>
        </g>
        <g id="타원_49" data-name="타원 49" transform="translate(1299.615 364.231)" stroke="#000" stroke-width="1">
          <circle cx="1" cy="1" r="1" stroke="none"/>
          <circle cx="1" cy="1" r="0.5" fill="none"/>
        </g>
        <path id="패스_152" data-name="패스 152" d="M3291,396.4a2.49,2.49,0,0,0,2.227,1.138,2.768,2.768,0,0,0,2.327-1.138" transform="translate(-1994.858 -28.119)" fill="none" stroke="#000" stroke-linecap="round" stroke-linejoin="round" stroke-width="1.5"/>
      </g>
      <g id="그룹_433" data-name="그룹 433" transform="translate(-793.257 14)">
        <g id="패스_208" data-name="패스 208" transform="translate(1292 360)" fill="#fff">
          <path d="M 6.5 12.25 C 3.329440116882324 12.25 0.75 9.670559883117676 0.75 6.5 C 0.75 3.329440116882324 3.329440116882324 0.75 6.5 0.75 C 9.670559883117676 0.75 12.25 3.329440116882324 12.25 6.5 C 12.25 9.670559883117676 9.670559883117676 12.25 6.5 12.25 Z" stroke="none"/>
          <path d="M 6.5 1.5 C 3.742989540100098 1.5 1.5 3.742989540100098 1.5 6.5 C 1.5 9.257009506225586 3.742989540100098 11.5 6.5 11.5 C 9.257009506225586 11.5 11.5 9.257009506225586 11.5 6.5 C 11.5 3.742989540100098 9.257009506225586 1.5 6.5 1.5 M 6.5 0 C 10.0898494720459 0 13 2.910149574279785 13 6.5 C 13 10.0898494720459 10.0898494720459 13 6.5 13 C 2.910149574279785 13 0 10.0898494720459 0 6.5 C 0 2.910149574279785 2.910149574279785 0 6.5 0 Z" stroke="none" fill="#b833ff"/>
        </g>
        <circle id="타원_48-2" data-name="타원 48" cx="1" cy="1" r="1" transform="translate(1295.385 364.231)" fill="#b833ff"/>
        <circle id="타원_49-2" data-name="타원 49" cx="1" cy="1" r="1" transform="translate(1299.615 364.231)" fill="#b833ff"/>
        <path id="패스_152-2" data-name="패스 152" d="M3291,396.4a2.49,2.49,0,0,0,2.227,1.138,2.768,2.768,0,0,0,2.327-1.138" transform="translate(-1994.858 -28.119)" fill="none" stroke="#b833ff" stroke-linecap="round" stroke-linejoin="round" stroke-width="1.5"/>
      </g>
      <circle id="타원_95" data-name="타원 95" cx="0.75" cy="0.75" r="0.75" transform="translate(488.75 380)" fill="#afafaf" stroke="#afafaf" stroke-width="0.3"/>
      <circle id="타원_96" data-name="타원 96" cx="0.75" cy="0.75" r="0.75" transform="translate(491.75 380)" fill="#afafaf" stroke="#afafaf" stroke-width="0.3"/>
      <circle id="타원_97" data-name="타원 97" cx="0.75" cy="0.75" r="0.75" transform="translate(494.75 380)" fill="#afafaf" stroke="#afafaf" stroke-width="0.3"/>
    </g>
  </g>
</svg>
