<svg id="그룹_1001" data-name="그룹 1001" xmlns="http://www.w3.org/2000/svg" xmlns:xlink="http://www.w3.org/1999/xlink" width="149" height="149" viewBox="0 0 149 149">
  <defs>
    <clipPath id="clip-path">
      <rect id="사각형_668" data-name="사각형 668" width="149" height="149" fill="none"/>
    </clipPath>
  </defs>
  <g id="그룹_1000" data-name="그룹 1000" clip-path="url(#clip-path)">
    <path id="패스_438" data-name="패스 438" d="M23.206,41.141H6.5v10.49H16.6S14.27,110.3,21.264,116.124a16.572,16.572,0,0,0,8.936,3.5c17.834,2.193,61.943,2.452,80.423,0,.777-.1,6.993,0,8.936-3.5,4.743-16.133,3.885-64.494,3.885-64.494H131.6V41.141H116.45V34.148h6.993l2.331-9.713s-12.432-1.166-15.152,0-29.139,6.6-41.96,7.382-36.909-7.77-40.794-7.382-14.375,0-14.375,0v9.713h9.713Z" transform="translate(3.601 13.251)" fill="none" stroke="#000" stroke-linecap="round" stroke-linejoin="round" stroke-width="2.5"/>
    <path id="패스_439" data-name="패스 439" d="M32.62,27.4V15.6H28l8.4-6.85,7.141,6.85H39.761V27.4" transform="translate(15.514 4.848)" fill="none" stroke="#000" stroke-linecap="round" stroke-linejoin="round" stroke-width="2.5"/>
    <path id="패스_440" data-name="패스 440" d="M46.62,27.4V15.6H42l8.4-6.85,7.141,6.85H53.761V27.4" transform="translate(23.271 4.848)" fill="none" stroke="#000" stroke-linecap="round" stroke-linejoin="round" stroke-width="2.5"/>
    <path id="패스_441" data-name="패스 441" d="M60.62,27.4V15.6H56l8.4-6.85,7.141,6.85H67.761V27.4" transform="translate(31.027 4.848)" fill="none" stroke="#000" stroke-linecap="round" stroke-linejoin="round" stroke-width="2.5"/>
    <line id="선_122" data-name="선 122" y2="67.926" transform="translate(72.264 66.5)" fill="none" stroke="#000" stroke-width="2.5"/>
    <path id="패스_442" data-name="패스 442" d="M111.173,35.125s-27,4.079-47.593,4.468-47.2-4.468-47.2-4.468" transform="translate(9.073 19.461)" fill="none" stroke="#000" stroke-width="2.5"/>
    <path id="패스_443" data-name="패스 443" d="M63.456,94.814s-27.973.376-33.8,0a10.99,10.99,0,0,1-9.713-6.01C18.389,86.175,18,39.25,18,39.25s25.254,5.828,45.456,5.615" transform="translate(9.973 21.747)" fill="none" stroke="#000" stroke-linecap="round" stroke-linejoin="round" stroke-width="2.5"/>
    <path id="패스_444" data-name="패스 444" d="M47.25,94.814s27.973.376,33.8,0a10.99,10.99,0,0,0,9.713-6.01c1.554-2.629,1.943-49.554,1.943-49.554S67.453,45.078,47.25,44.865" transform="translate(26.179 21.747)" fill="none" stroke="#000" stroke-linecap="round" stroke-linejoin="round" stroke-width="2.5"/>
    <line id="선_123" data-name="선 123" x2="102" transform="translate(22 124)" fill="none" stroke="#000" stroke-width="2.5"/>
  </g>
</svg>
