<svg xmlns="http://www.w3.org/2000/svg" width="48" height="48" viewBox="0 0 48 48">
    <defs>
        <clipPath id="clip-path">
            <path id="사각형_243" data-name="사각형 243" style="fill:none" d="M0 0h27.5v35.5H0z"/>
        </clipPath>
        <style>
            .cls-4{fill:none;stroke:#da0f47;stroke-width:1.5px}
        </style>
    </defs>
    <g id="icon_뷰티" transform="translate(9 3.934)">
        <g id="그룹_357" data-name="그룹 357" transform="translate(1 2.066)" style="clip-path:url(#clip-path)">
            <path id="패스_119" data-name="패스 119" class="cls-4" d="M5.838 3.715C3.665 5.393.371 8.091.786 14.727c.408 6.53 1.3 12.2 3.724 15.941 1.052 1.622 4.317 2.945 6.359 3.407 6.81 1.543 13.795.39 15.33-2.946s-.054-22.792-5.783-27.851-12.404-1.241-14.578.437z"/>
            <path id="패스_120" data-name="패스 120" class="cls-4" d="M2.21 25.1q8.8 8.3 24.57 4.324"/>
            <path id="패스_121" data-name="패스 121" class="cls-4" d="M.8 20.5a39.33 39.33 0 0 1 25-3.234"/>
            <path id="패스_122" data-name="패스 122" class="cls-4" d="M.72 16.08a34.766 34.766 0 0 1 24.144-3.692"/>
        </g>
    </g>
</svg>
