<svg xmlns="http://www.w3.org/2000/svg" width="48" height="48" viewBox="0 0 48 48">
    <g data-name="그룹 1402">
        <path data-name="패스 970" d="M13.672 16h20.891a1.3 1.3 0 0 1 1.221 1.762l-2.776 6.75a1.956 1.956 0 0 1-1.832 1.27h-14.22" transform="translate(3.13 2.782)" style="fill:none;stroke:#da0f47;stroke-linecap:round;stroke-linejoin:round;stroke-width:1.5px"/>
        <path data-name="패스 971" d="M27.086 28.956H14.45c-.815 0-1.313-.43-1.721-1.309C12.2 26.506 7.521 12 7.521 12H1" transform="translate(8 4.174)" style="fill:none;stroke:#da0f47;stroke-linecap:round;stroke-linejoin:round;stroke-width:1.5px"/>
        <path data-name="패스 972" d="M20.908 42.947a1.961 1.961 0 1 1-1.961-1.961 1.961 1.961 0 0 1 1.961 1.961z" transform="translate(2.439 -5.909)" style="fill:none;stroke:#da0f47;stroke-linecap:round;stroke-linejoin:round;stroke-width:1.5px"/>
        <path data-name="패스 973" d="M38.923 42.947a1.961 1.961 0 1 1-1.961-1.961 1.961 1.961 0 0 1 1.961 1.961z" transform="translate(-3.827 -5.909)" style="fill:none;stroke:#da0f47;stroke-linecap:round;stroke-linejoin:round;stroke-width:1.5px"/>
        <path data-name="패스 974" d="M33.434 3.609V1H23v5.869" transform="translate(.347 8)" style="fill:none;stroke:#da0f47;stroke-linecap:round;stroke-linejoin:round;stroke-width:1.5px"/>
        <path data-name="패스 975" d="M29.434 11.956V10H19v1.956" transform="translate(1.738 4.869)" style="fill:none;stroke:#da0f47;stroke-linecap:round;stroke-linejoin:round;stroke-width:1.5px"/>
        <path data-name="패스 976" d="M38.13 10.217V5H29v3.261" transform="translate(-1.74 6.61)" style="fill:none;stroke:#da0f47;stroke-linecap:round;stroke-linejoin:round;stroke-width:1.5px"/>
    </g>
</svg>
