<svg id="그룹_1046" data-name="그룹 1046" xmlns="http://www.w3.org/2000/svg" xmlns:xlink="http://www.w3.org/1999/xlink" width="96" height="96" viewBox="0 0 96 96">
  <defs>
    <clipPath id="clip-path">
      <rect id="사각형_712" data-name="사각형 712" width="96" height="96" fill="none"/>
    </clipPath>
  </defs>
  <path id="패스_613" data-name="패스 613" d="M69.936,48.349H26.064L11.149,71.731h73.7Z" fill="#fff"/>
  <path id="패스_614" data-name="패스 614" d="M69.936,48.349H26.064L11.149,71.731h73.7Z" fill="none" stroke="#000" stroke-linecap="round" stroke-linejoin="round" stroke-width="2.5"/>
  <path id="패스_615" data-name="패스 615" d="M28.273,55.317h0Z" fill="#fff"/>
  <line id="선_180" data-name="선 180" x2="14.053" transform="translate(28.272 55.317)" fill="none" stroke="#000" stroke-linecap="round" stroke-linejoin="round" stroke-width="2.5"/>
  <path id="패스_616" data-name="패스 616" d="M56.109,58.606h0Z" fill="#fff"/>
  <line id="선_181" data-name="선 181" x2="14.053" transform="translate(56.108 58.606)" fill="none" stroke="#000" stroke-linecap="round" stroke-linejoin="round" stroke-width="2.5"/>
  <path id="패스_617" data-name="패스 617" d="M25.438,63.465h0Z" fill="#fff"/>
  <line id="선_182" data-name="선 182" x2="14.053" transform="translate(25.438 63.465)" fill="none" stroke="#000" stroke-linecap="round" stroke-linejoin="round" stroke-width="2.5"/>
  <line id="선_183" data-name="선 183" x2="3.662" y2="9.464" transform="translate(61.823 54.545)" fill="#fff"/>
  <line id="선_184" data-name="선 184" x2="3.662" y2="9.464" transform="translate(61.823 54.545)" fill="none" stroke="#000" stroke-linecap="round" stroke-linejoin="round" stroke-width="2.5"/>
  <rect id="사각형_710" data-name="사각형 710" width="73.702" height="9.292" transform="translate(11.149 71.732)" fill="#fff"/>
  <rect id="사각형_711" data-name="사각형 711" width="73.702" height="9.292" transform="translate(11.149 71.732)" fill="none" stroke="#000" stroke-linecap="round" stroke-linejoin="round" stroke-width="2.5"/>
  <g id="그룹_1045" data-name="그룹 1045">
    <g id="그룹_1044" data-name="그룹 1044" clip-path="url(#clip-path)">
      <path id="패스_618" data-name="패스 618" d="M31.44,30.824s.177,1.293-.539,1.749a2.67,2.67,0,0,1-1.562.363" fill="none" stroke="#000" stroke-linecap="round" stroke-linejoin="round" stroke-width="2.5"/>
      <path id="패스_619" data-name="패스 619" d="M33.579,32.925s-1.293.177-1.749-.539a2.67,2.67,0,0,1-.363-1.562" fill="none" stroke="#000" stroke-linecap="round" stroke-linejoin="round" stroke-width="2.5"/>
      <path id="패스_620" data-name="패스 620" d="M31.44,35.064s.177-1.293-.539-1.748a2.67,2.67,0,0,0-1.562-.364" fill="none" stroke="#000" stroke-linecap="round" stroke-linejoin="round" stroke-width="2.5"/>
      <path id="패스_621" data-name="패스 621" d="M33.579,32.964s-1.293-.177-1.749.539a2.67,2.67,0,0,0-.363,1.562" fill="none" stroke="#000" stroke-linecap="round" stroke-linejoin="round" stroke-width="2.5"/>
      <path id="패스_622" data-name="패스 622" d="M22.127,15.562s.353,2.585-1.078,3.5a5.355,5.355,0,0,1-3.123.726" fill="none" stroke="#000" stroke-linecap="round" stroke-linejoin="round" stroke-width="2.5"/>
      <path id="패스_623" data-name="패스 623" d="M26.406,19.763s-2.585.353-3.5-1.078a5.355,5.355,0,0,1-.726-3.123" fill="none" stroke="#000" stroke-linecap="round" stroke-linejoin="round" stroke-width="2.5"/>
      <path id="패스_624" data-name="패스 624" d="M22.127,24.042s.353-2.585-1.078-3.5a5.355,5.355,0,0,0-3.123-.726" fill="none" stroke="#000" stroke-linecap="round" stroke-linejoin="round" stroke-width="2.5"/>
      <path id="패스_625" data-name="패스 625" d="M26.406,19.841s-2.585-.353-3.5,1.078a5.355,5.355,0,0,0-.726,3.123" fill="none" stroke="#000" stroke-linecap="round" stroke-linejoin="round" stroke-width="2.5"/>
      <path id="패스_626" data-name="패스 626" d="M66.953,17.977S63.535,15.656,59,19.195,50.247,15.771,46.7,25.5c-3.389,9.284-4.415,10.964-1.533,15.83s5.449,2.328,6.848,7.3,6.608,4.2,9.731,2.035c6.346-4.4,10.835-.431,14.441-4.727a8.884,8.884,0,0,0,1.858-6.455" fill="#fff"/>
      <path id="패스_627" data-name="패스 627" d="M66.953,17.977S63.535,15.656,59,19.195,50.247,15.771,46.7,25.5c-3.389,9.284-4.415,10.964-1.533,15.83s5.449,2.328,6.848,7.3,6.608,4.2,9.731,2.035c6.346-4.4,10.835-.431,14.441-4.727a8.884,8.884,0,0,0,1.858-6.455" fill="none" stroke="#000" stroke-linecap="round" stroke-width="2.5"/>
      <path id="패스_628" data-name="패스 628" d="M69.781,38.141s-.865.964-2.158,2.39c-2.015,2.222-5.179,5.677-5.63,5.976-.695.458-2.079.589-3.764-.822s-.232-1.952-.9-2.418-2.326-1.06-2.367-2.2.083-2.29-.347-2.846S53.02,37.049,52.9,35.991s1-1.751.558-2.634-2.746-1.453-1.5-3.132,6.868-6.7,8.486-7.084,7.213-1.646,8.326-2.5,5-4.019,5.745-3.8S82.5,27.744,81.262,29.585s-2.991.842-4.717,2.865-1.846,7.745-3.583,9.44-3.122,1.828-4.051.962-.474-1.861-.268-2.931" fill="#fff"/>
      <path id="패스_629" data-name="패스 629" d="M69.781,38.141s-.865.964-2.158,2.39c-2.015,2.222-5.179,5.677-5.63,5.976-.695.458-2.079.589-3.764-.822s-.232-1.952-.9-2.418-2.326-1.06-2.367-2.2.083-2.29-.347-2.846S53.02,37.049,52.9,35.991s1-1.751.558-2.634-2.746-1.453-1.5-3.132,6.868-6.7,8.486-7.084,7.213-1.646,8.326-2.5,5-4.019,5.745-3.8S82.5,27.744,81.262,29.585s-2.991.842-4.717,2.865-1.846,7.745-3.583,9.44-3.122,1.828-4.051.962-.474-1.861-.268-2.931" fill="none" stroke="#000" stroke-linecap="round" stroke-width="2.5"/>
    </g>
  </g>
</svg>
