<svg xmlns="http://www.w3.org/2000/svg" xmlns:xlink="http://www.w3.org/1999/xlink" width="149" height="149" viewBox="0 0 149 149">
  <defs>
    <clipPath id="clip-path">
      <rect id="사각형_687" data-name="사각형 687" width="149" height="149" transform="translate(-0.258)" fill="none"/>
    </clipPath>
  </defs>
  <g id="그룹_1030" data-name="그룹 1030" transform="translate(0.258)">
    <path id="패스_553" data-name="패스 553" d="M107.306,81.209,62.062,73.747l9.572-10.166L109.88,68.73Z" transform="translate(33.982 34.814)" fill="#fff"/>
    <g id="그룹_1027" data-name="그룹 1027">
      <g id="그룹_1026" data-name="그룹 1026" clip-path="url(#clip-path)">
        <path id="패스_554" data-name="패스 554" d="M107.306,81.209,62.062,73.747l9.572-10.166L109.88,68.73Z" transform="translate(33.982 34.814)" fill="none" stroke="#000" stroke-linecap="round" stroke-linejoin="round" stroke-width="2.5"/>
      </g>
    </g>
    <path id="패스_555" data-name="패스 555" d="M135.184,77.643V21.378H4.256v82.4h70.16l3.945-1.945L79.9,98.743l4.46.172,6.346-.857,6-2.4,4.8.344V92.4l1.886-2.23,3.6.857,2.744,2.745,6.348-4.8,6.346-1.029,1.544-3.228h5.489l2.574-3.46.17-3.261Z" transform="translate(2.33 11.705)" fill="#fff"/>
    <g id="그룹_1029" data-name="그룹 1029">
      <g id="그룹_1028" data-name="그룹 1028" clip-path="url(#clip-path)">
        <path id="패스_556" data-name="패스 556" d="M135.184,77.643V21.378H4.256v82.4h70.16l3.945-1.945L79.9,98.743l4.46.172,6.346-.857,6-2.4,4.8.344V92.4l1.886-2.23,3.6.857,2.744,2.745,6.348-4.8,6.346-1.029,1.544-3.228h5.489l2.574-3.46.17-3.261Z" transform="translate(2.33 11.705)" fill="none" stroke="#000" stroke-linecap="round" stroke-linejoin="round" stroke-width="2.5"/>
      </g>
    </g>
    <rect id="사각형_689" data-name="사각형 689" width="106.012" height="42.714" transform="translate(15.946 51.18)" fill="#fff"/>
    <rect id="사각형_690" data-name="사각형 690" width="106.012" height="42.714" transform="translate(15.946 51.18)" fill="none" stroke="#000" stroke-linecap="round" stroke-linejoin="round" stroke-width="2.5"/>
    <rect id="사각형_691" data-name="사각형 691" width="12.544" height="12.544" transform="translate(100.504 76.011)" fill="#9c9c9c"/>
    <rect id="사각형_692" data-name="사각형 692" width="12.544" height="12.544" transform="translate(81.591 76.011)" fill="#b0b0b0"/>
    <rect id="사각형_693" data-name="사각형 693" width="12.544" height="12.544" transform="translate(62.679 76.011)" fill="#c8c8c8"/>
    <rect id="사각형_694" data-name="사각형 694" width="12.544" height="12.544" transform="translate(43.766 76.011)" fill="#d6d6d6"/>
    <rect id="사각형_695" data-name="사각형 695" width="12.544" height="12.544" transform="translate(24.854 76.011)" fill="#f2f2f2"/>
    <path id="패스_557" data-name="패스 557" d="M92.223,66.645,89.362,78.82,78.827,77.083,82.272,65.3Z" transform="translate(43.162 35.758)" fill="#fff"/>
    <path id="패스_558" data-name="패스 558" d="M92.223,66.645,89.362,78.82,78.827,77.083,82.272,65.3Z" transform="translate(43.162 35.758)" fill="none" stroke="#000" stroke-linecap="round" stroke-linejoin="round" stroke-width="2.5"/>
    <path id="패스_559" data-name="패스 559" d="M14.1,48.751V40.388H17.9v4.76L14.1,45.085" transform="translate(7.723 22.114)" fill="none" stroke="#000" stroke-miterlimit="10" stroke-width="1"/>
    <path id="패스_560" data-name="패스 560" d="M18.18,48.751V40.388h3.795v4.76l-3.795-.063" transform="translate(9.954 22.114)" fill="none" stroke="#000" stroke-miterlimit="10" stroke-width="1"/>
    <path id="패스_561" data-name="패스 561" d="M22.252,45.856V40.388h7.269v5.467" transform="translate(12.184 22.115)" fill="none" stroke="#000" stroke-miterlimit="10" stroke-width="1"/>
    <line id="선_152" data-name="선 152" y1="5.467" transform="translate(38.07 62.503)" fill="none" stroke="#000" stroke-miterlimit="10" stroke-width="1"/>
    <path id="패스_562" data-name="패스 562" d="M29.027,38.476h7.526" transform="translate(15.894 21.067)" fill="none" stroke="#000" stroke-miterlimit="10" stroke-width="1"/>
    <line id="선_153" data-name="선 153" y1="8.426" transform="translate(48.491 59.544)" fill="none" stroke="#000" stroke-miterlimit="10" stroke-width="1"/>
    <rect id="사각형_696" data-name="사각형 696" width="4.116" height="4.825" transform="translate(51.869 62.502)" fill="none" stroke="#000" stroke-miterlimit="10" stroke-width="1"/>
    <path id="패스_563" data-name="패스 563" d="M37.424,38.975v7.012H40.64" transform="translate(20.491 21.341)" fill="none" stroke="#000" stroke-miterlimit="10" stroke-width="1"/>
    <line id="선_154" data-name="선 154" x1="3.216" transform="translate(57.916 62.503)" fill="none" stroke="#000" stroke-miterlimit="10" stroke-width="1"/>
    <path id="패스_564" data-name="패스 564" d="M40.167,40.388h3.346v4.825H40.167V42.8h3.346" transform="translate(21.994 22.114)" fill="none" stroke="#000" stroke-miterlimit="10" stroke-width="1"/>
    <path id="패스_565" data-name="패스 565" d="M52.8,40.388H56.15v4.825H52.8V42.8H56.15" transform="translate(28.913 22.114)" fill="none" stroke="#000" stroke-miterlimit="10" stroke-width="1"/>
    <path id="패스_566" data-name="패스 566" d="M43.555,38.06v8.426h2.091" transform="translate(23.848 20.84)" fill="none" stroke="#000" stroke-miterlimit="10" stroke-width="1"/>
    <line id="선_155" data-name="선 155" y2="9.07" transform="translate(73.676 58.9)" fill="none" stroke="#000" stroke-miterlimit="10" stroke-width="1"/>
    <line id="선_156" data-name="선 156" x1="5.339" transform="translate(73.676 63.821)" fill="none" stroke="#000" stroke-miterlimit="10" stroke-width="1"/>
    <line id="선_157" data-name="선 157" y2="9.07" transform="translate(79.015 58.9)" fill="none" stroke="#000" stroke-miterlimit="10" stroke-width="1"/>
    <path id="패스_567" data-name="패스 567" d="M56.5,45.856V40.388h3.152v5.467" transform="translate(30.938 22.115)" fill="none" stroke="#000" stroke-miterlimit="10" stroke-width="1"/>
    <path id="패스_568" data-name="패스 568" d="M63.459,45.856V40.388h3.152v5.467" transform="translate(34.747 22.115)" fill="none" stroke="#000" stroke-miterlimit="10" stroke-width="1"/>
    <path id="패스_569" data-name="패스 569" d="M63.022,38.06v8.265h-2.9V41.663h2.9" transform="translate(32.922 20.84)" fill="none" stroke="#000" stroke-miterlimit="10" stroke-width="1"/>
    <path id="패스_570" data-name="패스 570" d="M70.238,40.388H66.958v4.825h3.281" transform="translate(36.662 22.114)" fill="none" stroke="#000" stroke-miterlimit="10" stroke-width="1"/>
    <line id="선_158" data-name="선 158" x1="3.281" transform="translate(103.62 64.915)" fill="none" stroke="#000" stroke-miterlimit="10" stroke-width="1"/>
    <path id="패스_571" data-name="패스 571" d="M73.887,40.388H70.671V42.8h3.216v2.252h-4.31" transform="translate(38.096 22.114)" fill="none" stroke="#000" stroke-miterlimit="10" stroke-width="1"/>
    <path id="패스_572" data-name="패스 572" d="M77.461,40.388H74.246V42.8h3.216v2.252h-4.31" transform="translate(40.054 22.114)" fill="none" stroke="#000" stroke-miterlimit="10" stroke-width="1"/>
  </g>
</svg>
