<svg xmlns="http://www.w3.org/2000/svg" xmlns:xlink="http://www.w3.org/1999/xlink" width="149" height="149" viewBox="0 0 149 149">
  <defs>
    <clipPath id="clip-path">
      <rect id="사각형_686" data-name="사각형 686" width="149" height="149" transform="translate(-0.172)" fill="none"/>
    </clipPath>
  </defs>
  <g id="그룹_1025" data-name="그룹 1025" transform="translate(0.172)">
    <g id="그룹_1024" data-name="그룹 1024" clip-path="url(#clip-path)">
      <path id="패스_531" data-name="패스 531" d="M12.488,10.769s.274,2-.834,2.707a4.131,4.131,0,0,1-2.417.562" transform="translate(5.058 5.897)" fill="none" stroke="#000" stroke-linecap="round" stroke-linejoin="round" stroke-width="2.5"/>
      <path id="패스_532" data-name="패스 532" d="M14.639,14.019s-2,.275-2.707-.833a4.132,4.132,0,0,1-.562-2.417" transform="translate(6.219 5.897)" fill="none" stroke="#000" stroke-linecap="round" stroke-linejoin="round" stroke-width="2.5"/>
      <path id="패스_533" data-name="패스 533" d="M12.488,16.17s.274-2-.834-2.707A4.131,4.131,0,0,0,9.237,12.9" transform="translate(5.058 7.057)" fill="none" stroke="#000" stroke-linecap="round" stroke-linejoin="round" stroke-width="2.5"/>
      <path id="패스_534" data-name="패스 534" d="M14.639,12.919s-2-.274-2.707.834a4.132,4.132,0,0,0-.562,2.417" transform="translate(6.219 7.057)" fill="none" stroke="#000" stroke-linecap="round" stroke-linejoin="round" stroke-width="2.5"/>
      <path id="패스_535" data-name="패스 535" d="M96.4,102.427,32.946,98.31V17.518H96.4Z" transform="translate(18.039 9.592)" fill="#fff"/>
      <path id="패스_536" data-name="패스 536" d="M96.4,102.427,32.946,98.31V17.518H96.4Z" transform="translate(18.039 9.592)" fill="none" stroke="#000" stroke-linecap="round" stroke-linejoin="round" stroke-width="2.5"/>
      <path id="패스_537" data-name="패스 537" d="M86.645,117.29,23.2,111.626V21.395H86.645Z" transform="translate(12.701 11.715)" fill="#fff"/>
      <path id="패스_538" data-name="패스 538" d="M86.645,117.29,23.2,111.626V21.395H86.645Z" transform="translate(12.701 11.715)" fill="none" stroke="#000" stroke-linecap="round" stroke-linejoin="round" stroke-width="2.5"/>
      <path id="패스_539" data-name="패스 539" d="M64.2,23.518l15.089-6v84.911L64.2,119.414Z" transform="translate(35.15 9.591)" fill="#fff"/>
      <path id="패스_540" data-name="패스 540" d="M64.2,23.518l15.089-6v84.911L64.2,119.414Z" transform="translate(35.15 9.591)" fill="none" stroke="#000" stroke-linecap="round" stroke-linejoin="round" stroke-width="2.5"/>
      <path id="패스_541" data-name="패스 541" d="M23.2,23.518l15.089-6h63.449l-15.089,6Z" transform="translate(12.701 9.591)" fill="#fff"/>
      <path id="패스_542" data-name="패스 542" d="M23.2,23.518l15.089-6h63.449l-15.089,6Z" transform="translate(12.701 9.591)" fill="none" stroke="#000" stroke-linecap="round" stroke-linejoin="round" stroke-width="2.5"/>
      <path id="패스_543" data-name="패스 543" d="M12.446,30.263h0l16.636,68.96,63.449,4.8-15.2-73.762Z" transform="translate(6.815 16.57)" fill="#fff"/>
      <path id="패스_544" data-name="패스 544" d="M12.446,30.263h0l16.636,68.96,63.449,4.8-15.2-73.762Z" transform="translate(6.815 16.57)" fill="none" stroke="#000" stroke-linecap="round" stroke-linejoin="round" stroke-width="2.5"/>
      <line id="선_146" data-name="선 146" x1="12.394" transform="translate(86.952 54.381)" fill="#fff"/>
      <line id="선_147" data-name="선 147" x1="12.394" transform="translate(86.952 54.381)" fill="none" stroke="#000" stroke-linecap="round" stroke-linejoin="round" stroke-width="2.5"/>
      <line id="선_148" data-name="선 148" x2="64.562" transform="translate(21.498 56.11)" fill="#fff"/>
      <line id="선_149" data-name="선 149" x2="64.562" transform="translate(21.498 56.11)" fill="none" stroke="#000" stroke-linecap="round" stroke-linejoin="round" stroke-width="2.5"/>
      <line id="선_150" data-name="선 150" x2="64.031" transform="translate(23.3 62.271)" fill="#fff"/>
      <line id="선_151" data-name="선 151" x2="64.031" transform="translate(23.3 62.271)" fill="none" stroke="#000" stroke-linecap="round" stroke-linejoin="round" stroke-width="2.5"/>
      <path id="패스_545" data-name="패스 545" d="M17.859,17.155s.546,4-1.668,5.413a8.287,8.287,0,0,1-4.833,1.124" transform="translate(6.219 9.393)" fill="none" stroke="#000" stroke-linecap="round" stroke-linejoin="round" stroke-width="2.5"/>
      <path id="패스_546" data-name="패스 546" d="M22.158,23.656s-4,.546-5.413-1.668a8.287,8.287,0,0,1-1.124-4.833" transform="translate(8.54 9.393)" fill="none" stroke="#000" stroke-linecap="round" stroke-linejoin="round" stroke-width="2.5"/>
      <path id="패스_547" data-name="패스 547" d="M17.859,27.956s.546-4-1.668-5.413a8.287,8.287,0,0,0-4.833-1.124" transform="translate(6.219 11.715)" fill="none" stroke="#000" stroke-linecap="round" stroke-linejoin="round" stroke-width="2.5"/>
      <path id="패스_548" data-name="패스 548" d="M22.158,21.455s-4-.546-5.413,1.668a8.287,8.287,0,0,0-1.124,4.833" transform="translate(8.54 11.715)" fill="none" stroke="#000" stroke-linecap="round" stroke-linejoin="round" stroke-width="2.5"/>
      <path id="패스_549" data-name="패스 549" d="M98.712,66.71s1.286-5.658-5.661-9.776,0-13.2-14.538-12.868c-13.875.317-16.6-.166-21.486,6.093s-.257,8.317-6.046,12.691S48.865,73.641,53.3,76.616c9.007,6.048,6.107,13.95,13.57,16.469a12.479,12.479,0,0,0,9.392-.873" transform="translate(26.282 24.123)" fill="#fff"/>
      <path id="패스_550" data-name="패스 550" d="M98.712,66.71s1.286-5.658-5.661-9.776,0-13.2-14.538-12.868c-13.875.317-16.6-.166-21.486,6.093s-.257,8.317-6.046,12.691S48.865,73.641,53.3,76.616c9.007,6.048,6.107,13.95,13.57,16.469a12.479,12.479,0,0,0,9.392-.873" transform="translate(26.282 24.123)" fill="none" stroke="#000" stroke-linecap="round" stroke-width="2.5"/>
      <path id="패스_551" data-name="패스 551" d="M70.4,77.47s-1.7-.638-4.228-1.6c-3.939-1.5-10.075-3.869-10.7-4.307-.953-.675-1.834-2.417-.85-5.341s2.433-1.3,2.7-2.42.2-3.583,1.671-4.22,3.036-1.065,3.545-1.91.712-2.682,2.035-3.38,2.8.412,3.73-.616.5-4.336,3.329-3.566,12.274,5.554,13.606,7.476,5.842,8.589,7.532,9.606,7.815,4.488,7.91,5.571S90.5,88.791,87.459,88.11s-2.631-3.482-6.159-4.7-11.073,1.546-14.179.142-3.986-3.146-3.33-4.8,2.193-1.574,3.7-1.851" transform="translate(29.673 27.376)" fill="#fff"/>
      <path id="패스_552" data-name="패스 552" d="M70.4,77.47s-1.7-.638-4.228-1.6c-3.939-1.5-10.075-3.869-10.7-4.307-.953-.675-1.834-2.417-.85-5.341s2.433-1.3,2.7-2.42.2-3.583,1.671-4.22,3.036-1.065,3.545-1.91.712-2.682,2.035-3.38,2.8.412,3.73-.616.5-4.336,3.329-3.566,12.274,5.554,13.606,7.476,5.842,8.589,7.532,9.606,7.815,4.488,7.91,5.571S90.5,88.791,87.459,88.11s-2.631-3.482-6.159-4.7-11.073,1.546-14.179.142-3.986-3.146-3.33-4.8,2.193-1.574,3.7-1.851" transform="translate(29.673 27.376)" fill="none" stroke="#000" stroke-linecap="round" stroke-width="2.5"/>
    </g>
  </g>
</svg>
