<svg xmlns="http://www.w3.org/2000/svg" width="32" height="32" viewBox="0 0 32 32">
    <g fill="none" fill-rule="evenodd">
        <g>
            <g>
                <path fill="#F5F5F5" fill-opacity="0" d="M0 0H32V32H0z"/>
                <g fill="#666">
                    <path d="M16 0c2.21 0 4 1.79 4 4v12c0 2.21-1.79 4-4 4H4c-2.21 0-4-1.79-4-4V4c0-2.21 1.79-4 4-4h12zm-6 4c-3.314 0-6 2.686-6 6s2.686 6 6 6 6-2.686 6-6-2.686-6-6-6zm0 1.333c2.577 0 4.667 2.09 4.667 4.667s-2.09 4.667-4.667 4.667S5.333 12.577 5.333 10 7.423 5.333 10 5.333zm6.125-2.541c-.828 0-1.5.671-1.5 1.5 0 .828.672 1.5 1.5 1.5s1.5-.672 1.5-1.5c0-.829-.672-1.5-1.5-1.5z" transform="translate(6.667 6.667)"/>
                </g>
            </g>
        </g>
    </g>
</svg>
