<svg xmlns="http://www.w3.org/2000/svg" width="48" height="48" viewBox="0 0 48 48">
    <defs>
        <clipPath id="a">
            <path data-name="사각형 240" style="fill:none" d="M0 0h20v34H0z"/>
        </clipPath>
    </defs>
    <g data-name="그룹 354">
        <g data-name="그룹 353" style="clip-path:url(#a)" transform="translate(14 7)">
            <path data-name="패스 116" d="M1.628.75A.969.969 0 0 0 1 .971a.676.676 0 0 0-.249.513v30.7A.674.674 0 0 0 1 32.7a.964.964 0 0 0 .628.221h16.744A.969.969 0 0 0 19 32.7a.676.676 0 0 0 .249-.513V1.484A.674.674 0 0 0 19 .971a.964.964 0 0 0-.628-.221z" style="stroke:#000;stroke-width:1.5px;fill:none"/>
            <path data-name="패스 117" d="M10 10a2 2 0 0 0 0-4 1.732 1.732 0 0 0-1.964 1.7m1.979 3.8H10l5 3H5zM10 10v1.5" style="stroke-linecap:round;stroke-linejoin:round;stroke:#000;stroke-width:1.5px;fill:none"/>
        </g>
    </g>
</svg>
