<svg id="그룹_1053" data-name="그룹 1053" xmlns="http://www.w3.org/2000/svg" xmlns:xlink="http://www.w3.org/1999/xlink" width="96" height="96" viewBox="0 0 96 96">
  <defs>
    <clipPath id="clip-path">
      <rect id="사각형_717" data-name="사각형 717" width="96" height="96" fill="none"/>
    </clipPath>
  </defs>
  <g id="그룹_1052" data-name="그룹 1052" clip-path="url(#clip-path)">
    <path id="패스_683" data-name="패스 683" d="M28.328,24.088s.353,2.585-1.078,3.5a5.355,5.355,0,0,1-3.123.726" fill="none" stroke="#000" stroke-linecap="round" stroke-linejoin="round" stroke-width="2.5"/>
    <path id="패스_684" data-name="패스 684" d="M32.607,28.289s-2.585.353-3.5-1.078a5.355,5.355,0,0,1-.726-3.123" fill="none" stroke="#000" stroke-linecap="round" stroke-linejoin="round" stroke-width="2.5"/>
    <path id="패스_685" data-name="패스 685" d="M28.328,32.568s.353-2.585-1.078-3.5a5.355,5.355,0,0,0-3.123-.726" fill="none" stroke="#000" stroke-linecap="round" stroke-linejoin="round" stroke-width="2.5"/>
    <path id="패스_686" data-name="패스 686" d="M32.607,28.367s-2.585-.353-3.5,1.078a5.355,5.355,0,0,0-.726,3.123" fill="none" stroke="#000" stroke-linecap="round" stroke-linejoin="round" stroke-width="2.5"/>
    <path id="패스_687" data-name="패스 687" d="M71.978,59.769s.353,2.585-1.078,3.5a5.355,5.355,0,0,1-3.123.726" fill="none" stroke="#000" stroke-linecap="round" stroke-linejoin="round" stroke-width="2.5"/>
    <path id="패스_688" data-name="패스 688" d="M76.257,63.97s-2.585.353-3.5-1.078a5.355,5.355,0,0,1-.726-3.123" fill="none" stroke="#000" stroke-linecap="round" stroke-linejoin="round" stroke-width="2.5"/>
    <path id="패스_689" data-name="패스 689" d="M71.978,68.249s.353-2.585-1.078-3.5a5.355,5.355,0,0,0-3.123-.726" fill="none" stroke="#000" stroke-linecap="round" stroke-linejoin="round" stroke-width="2.5"/>
    <path id="패스_690" data-name="패스 690" d="M76.257,64.048s-2.585-.353-3.5,1.078a5.355,5.355,0,0,0-.726,3.123" fill="none" stroke="#000" stroke-linecap="round" stroke-linejoin="round" stroke-width="2.5"/>
    <path id="패스_691" data-name="패스 691" d="M89.9,35.422H35.367l-8,13.558H81.9Z" fill="none" stroke="#000" stroke-linecap="round" stroke-linejoin="round" stroke-width="2.5"/>
    <path id="패스_692" data-name="패스 692" d="M38.23,65.844l-2.41-6.277-4.85-4.8,10.985-3.4C47.33,49.222,51.2,46.7,52.411,48.77s1.516,5.453-2.431,7.349" fill="#fff"/>
    <path id="패스_693" data-name="패스 693" d="M38.23,65.844l-2.41-6.277-4.85-4.8,10.985-3.4C47.33,49.222,51.2,46.7,52.411,48.77s1.516,5.453-2.431,7.349" fill="none" stroke="#000" stroke-linecap="round" stroke-linejoin="round" stroke-width="2.5"/>
    <path id="패스_694" data-name="패스 694" d="M36.879,61.2l10.033-4.662c5.374-2.141,8.286-4.782,9.5-2.715s1.516,5.454-2.431,7.35-13.289,7.267-17.373,6.579" fill="#fff"/>
    <path id="패스_695" data-name="패스 695" d="M36.879,61.2l10.033-4.662c5.374-2.141,8.286-4.782,9.5-2.715s1.516,5.454-2.431,7.35-13.289,7.267-17.373,6.579" fill="none" stroke="#000" stroke-linecap="round" stroke-linejoin="round" stroke-width="2.5"/>
    <path id="패스_696" data-name="패스 696" d="M12.273,47.118s4.385,6.044,6.89,5.088,4.936-3.6,7.224-3.47,2.771,1.14,4.376.369,11.076-7.791,14.579-2.558-8.106,8.833-9.126,10.311.315,5.283,3.085,6.421c0,0,3.322,1.655,11.079-1.616,5.962-2.515,10.339-5.214,11.695-2.9s1.7,6.1-2.719,8.222-14.866,8.129-19.434,7.36S16.326,67.895,8.665,61.2" fill="#fff"/>
    <path id="패스_697" data-name="패스 697" d="M12.273,47.118s4.385,6.044,6.89,5.088,4.936-3.6,7.224-3.47,2.771,1.14,4.376.369,11.076-7.791,14.579-2.558-8.106,8.833-9.126,10.311.315,5.283,3.085,6.421c0,0,3.322,1.655,11.079-1.616,5.962-2.515,10.339-5.214,11.695-2.9s1.7,6.1-2.719,8.222-14.866,8.129-19.434,7.36S16.326,67.895,8.665,61.2" fill="none" stroke="#000" stroke-linecap="round" stroke-linejoin="round" stroke-width="2.5"/>
  </g>
</svg>
