<svg xmlns="http://www.w3.org/2000/svg" xmlns:xlink="http://www.w3.org/1999/xlink" width="32" height="32" viewBox="0 0 32 32">
  <defs>
    <clipPath id="clip">
      <use xlink:href="#fill"/>
    </clipPath>
    <clipPath id="clip-2">
      <use xlink:href="#fill-2"/>
    </clipPath>
    <clipPath id="clip-3">
      <use xlink:href="#fill-3"/>
    </clipPath>
    <clipPath id="clip-4">
      <use xlink:href="#fill-4"/>
    </clipPath>
    <clipPath id="clip-5">
      <use xlink:href="#fill-5"/>
    </clipPath>
    <clipPath id="clip-6">
      <use xlink:href="#fill-6"/>
    </clipPath>
    <clipPath id="clip-7">
      <use xlink:href="#fill-7"/>
    </clipPath>
    <clipPath id="clip-8">
      <use xlink:href="#fill-8"/>
    </clipPath>
    <clipPath id="clip-9">
      <use xlink:href="#fill-9"/>
    </clipPath>
  </defs>
  <g id="그룹_1918" data-name="그룹 1918" transform="translate(-871 -493)">
    <rect id="사각형_1048" data-name="사각형 1048" width="32" height="32" transform="translate(871 493)" fill="#fff"/>
    <g id="그룹_380" data-name="그룹 380" transform="translate(874 496)">
      <g id="사각형_257" data-name="사각형 257" transform="translate(0 2.589)" fill="#fff" stroke="#000" stroke-width="1.5">
        <rect width="26.754" height="24.165" rx="4" stroke="none"/>
        <rect x="0.75" y="0.75" width="25.254" height="22.665" rx="3.25" fill="none"/>
      </g>
      <g id="그룹_822" data-name="그룹 822" transform="translate(7.767 0)">
        <g id="사각형_259" data-name="사각형 259" transform="translate(0)" fill="#fff" stroke="#000" stroke-width="3">
          <rect id="fill" width="2.589" height="6.904" rx="1.295" stroke="none"/>
          <path d="M0,1.5h2.589087724685669M1.5,0v6.904233932495117M2.589087724685669,5.404233932495117h-2.589087724685669M1.089087724685669,6.904233932495117v-6.904233932495117" fill="none" clip-path="url(#clip)"/>
        </g>
        <g id="사각형_277" data-name="사각형 277" transform="translate(8.63)" fill="#fff" stroke="#000" stroke-width="3">
          <rect id="fill-2" width="2.589" height="6.904" rx="1.295" stroke="none"/>
          <path d="M0,1.5h2.589087724685669M1.5,0v6.904233932495117M2.589087724685669,5.404233932495117h-2.589087724685669M1.089087724685669,6.904233932495117v-6.904233932495117" fill="none" clip-path="url(#clip-2)"/>
        </g>
      </g>
      <g id="그룹_379" data-name="그룹 379" transform="translate(4.315 14.808)">
        <g id="사각형_263" data-name="사각형 263" transform="translate(-0.216 -0.432)" fill="#fff" stroke="#000" stroke-width="3">
          <rect id="fill-3" width="4" height="2" rx="1" stroke="none"/>
          <path d="M0,0.5h4M2.5,0v2M4,1.5h-4M1.5,2v-2" fill="none" clip-path="url(#clip-3)"/>
        </g>
        <g id="사각형_1047" data-name="사각형 1047" transform="translate(-0.216 4.568)" fill="#fff" stroke="#000" stroke-width="3">
          <rect id="fill-4" width="4" height="2" rx="1" stroke="none"/>
          <path d="M0,0.5h4M2.5,0v2M4,1.5h-4M1.5,2v-2" fill="none" clip-path="url(#clip-4)"/>
        </g>
        <g id="사각형_1043" data-name="사각형 1043" transform="translate(6.784 -0.432)" fill="#fff" stroke="#000" stroke-width="3">
          <rect id="fill-5" width="4" height="2" rx="1" stroke="none"/>
          <path d="M0,0.5h4M2.5,0v2M4,1.5h-4M1.5,2v-2" fill="none" clip-path="url(#clip-5)"/>
        </g>
        <g id="사각형_1046" data-name="사각형 1046" transform="translate(6.784 4.568)" fill="#fff" stroke="#000" stroke-width="3">
          <rect id="fill-6" width="4" height="2" rx="1" stroke="none"/>
          <path d="M0,0.5h4M2.5,0v2M4,1.5h-4M1.5,2v-2" fill="none" clip-path="url(#clip-6)"/>
        </g>
        <g id="사각형_1044" data-name="사각형 1044" transform="translate(13.784 -0.432)" fill="#fff" stroke="#000" stroke-width="3">
          <rect id="fill-7" width="4" height="2" rx="1" stroke="none"/>
          <path d="M0,0.5h4M2.5,0v2M4,1.5h-4M1.5,2v-2" fill="none" clip-path="url(#clip-7)"/>
        </g>
        <g id="사각형_1045" data-name="사각형 1045" transform="translate(13.784 4.568)" fill="#fff" stroke="#000" stroke-width="3">
          <rect id="fill-8" width="4" height="2" rx="1" stroke="none"/>
          <path d="M0,0.5h4M2.5,0v2M4,1.5h-4M1.5,2v-2" fill="none" clip-path="url(#clip-8)"/>
        </g>
      </g>
      <g id="사각형_261" data-name="사각형 261" transform="translate(0 8.63)" fill="none" stroke="#000" stroke-width="3">
        <rect id="fill-9" width="25.891" height="2.019" stroke="none"/>
        <path d="M0,0.5193159580230713h25.890878677368164M24.390878677368164,0v2.0193159580230713M25.890878677368164,1.5h-25.890878677368164M1.5,2.0193159580230713v-2.0193159580230713" fill="none" clip-path="url(#clip-9)"/>
      </g>
    </g>
  </g>
</svg>
