<svg xmlns="http://www.w3.org/2000/svg" width="160" height="160" viewBox="0 0 160 160">
  <g id="booking_01" transform="translate(-387 -314)">
    <circle id="타원_37" data-name="타원 37" cx="80" cy="80" r="80" transform="translate(387 314)" fill="#fbf5ff"/>
    <g id="그룹_435" data-name="그룹 435" transform="translate(-41.366 1)">
      <g id="패스_205" data-name="패스 205" transform="translate(472.756 364)" fill="#fff">
        <path d="M 70.71923828125 49.20711517333984 L 1.500004172325134 49.20711517333984 L 1.500004172325134 3.073159456253052 C 1.500004172325134 2.20571494102478 2.205715417861938 1.500003933906555 3.073159694671631 1.500003933906555 L 69.14607238769531 1.500003933906555 C 70.01351165771484 1.500003933906555 70.71923828125 2.20571494102478 70.71923828125 3.073159456253052 L 70.71923828125 49.20711517333984 Z" stroke="none"/>
        <path d="M 3.073158264160156 2.999996185302734 C 3.032814025878906 2.999996185302734 3 3.032817840576172 3 3.073158264160156 L 3 47.70711135864258 L 69.21923065185547 47.70711135864258 L 69.21923065185547 3.073158264160156 C 69.21923065185547 3.032817840576172 69.18641662597656 2.999996185302734 69.14607238769531 2.999996185302734 L 3.073158264160156 2.999996185302734 M 3.073158264160156 -3.814697265625e-06 L 69.14607238769531 -3.814697265625e-06 C 70.84333038330078 -3.814697265625e-06 72.21923065185547 1.375900268554688 72.21923065185547 3.073158264160156 L 72.21923065185547 50.70711135864258 L 0 50.70711135864258 L 0 3.073158264160156 C 0 1.375900268554688 1.375900268554688 -3.814697265625e-06 3.073158264160156 -3.814697265625e-06 Z" stroke="none" fill="#000"/>
      </g>
      <g id="사각형_352" data-name="사각형 352" transform="translate(462.366 412)" fill="#edcec9" stroke="#000" stroke-width="3">
        <path d="M1,0H92a1,1,0,0,1,1,1V12a3,3,0,0,1-3,3H3a3,3,0,0,1-3-3V1A1,1,0,0,1,1,0Z" stroke="none"/>
        <path d="M2,1.5H91a.5.5,0,0,1,.5.5V12A1.5,1.5,0,0,1,90,13.5H3A1.5,1.5,0,0,1,1.5,12V2A.5.5,0,0,1,2,1.5Z" fill="none"/>
      </g>
      <g id="그룹_432" data-name="그룹 432" transform="translate(479.297 379.366)">
        <g id="패스_216" data-name="패스 216" fill="#e1d0b6">
          <path d="M 9.987766265869141 18.97553634643555 C 5.031896114349365 18.97553634643555 0.9999962449073792 14.94363594055176 0.9999962449073792 9.987766265869141 C 0.9999962449073792 5.031896114349365 5.031896114349365 0.9999962449073792 9.987766265869141 0.9999962449073792 C 14.94363594055176 0.9999962449073792 18.97553634643555 5.031896114349365 18.97553634643555 9.987766265869141 C 18.97553634643555 14.94363594055176 14.94363594055176 18.97553634643555 9.987766265869141 18.97553634643555 Z" stroke="none"/>
          <path d="M 9.987766265869141 1.999996185302734 C 5.583295822143555 1.999996185302734 1.999996185302734 5.583295822143555 1.999996185302734 9.987766265869141 C 1.999996185302734 14.39223670959473 5.583295822143555 17.97553634643555 9.987766265869141 17.97553634643555 C 14.39223670959473 17.97553634643555 17.97553634643555 14.39223670959473 17.97553634643555 9.987766265869141 C 17.97553634643555 5.583295822143555 14.39223670959473 1.999996185302734 9.987766265869141 1.999996185302734 M 9.987766265869141 -3.814697265625e-06 C 15.50385665893555 -3.814697265625e-06 19.97553634643555 4.471675872802734 19.97553634643555 9.987766265869141 C 19.97553634643555 15.50385665893555 15.50385665893555 19.97553634643555 9.987766265869141 19.97553634643555 C 4.471675872802734 19.97553634643555 -3.814697265625e-06 15.50385665893555 -3.814697265625e-06 9.987766265869141 C -3.814697265625e-06 4.471675872802734 4.471675872802734 -3.814697265625e-06 9.987766265869141 -3.814697265625e-06 Z" stroke="none" fill="#000"/>
        </g>
        <g id="타원_48" data-name="타원 48" transform="translate(5.201 6.501)" stroke="#000" stroke-width="2">
          <circle cx="1.537" cy="1.537" r="1.537" stroke="none"/>
          <circle cx="1.537" cy="1.537" r="0.537" fill="none"/>
        </g>
        <g id="타원_49" data-name="타원 49" transform="translate(11.702 6.501)" stroke="#000" stroke-width="2">
          <circle cx="1.537" cy="1.537" r="1.537" stroke="none"/>
          <circle cx="1.537" cy="1.537" r="0.537" fill="none"/>
        </g>
        <path id="패스_152" data-name="패스 152" d="M3291,396.4a3.827,3.827,0,0,0,3.421,1.749A4.254,4.254,0,0,0,3298,396.4" transform="translate(-3284.635 -383.676)" fill="none" stroke="#000" stroke-linecap="round" stroke-linejoin="round" stroke-width="2"/>
      </g>
      <g id="그룹_433" data-name="그룹 433" transform="translate(518.459 379.366)">
        <g id="패스_208" data-name="패스 208" transform="translate(0)" fill="#fff">
          <path d="M 9.987766265869141 18.97553634643555 C 5.031896114349365 18.97553634643555 0.9999962449073792 14.94363594055176 0.9999962449073792 9.987766265869141 C 0.9999962449073792 5.031896114349365 5.031896114349365 0.9999962449073792 9.987766265869141 0.9999962449073792 C 14.94363594055176 0.9999962449073792 18.97553634643555 5.031896114349365 18.97553634643555 9.987766265869141 C 18.97553634643555 14.94363594055176 14.94363594055176 18.97553634643555 9.987766265869141 18.97553634643555 Z" stroke="none"/>
          <path d="M 9.987766265869141 1.999996185302734 C 5.583295822143555 1.999996185302734 1.999996185302734 5.583295822143555 1.999996185302734 9.987766265869141 C 1.999996185302734 14.39223670959473 5.583295822143555 17.97553634643555 9.987766265869141 17.97553634643555 C 14.39223670959473 17.97553634643555 17.97553634643555 14.39223670959473 17.97553634643555 9.987766265869141 C 17.97553634643555 5.583295822143555 14.39223670959473 1.999996185302734 9.987766265869141 1.999996185302734 M 9.987766265869141 -3.814697265625e-06 C 15.50385665893555 -3.814697265625e-06 19.97553634643555 4.471675872802734 19.97553634643555 9.987766265869141 C 19.97553634643555 15.50385665893555 15.50385665893555 19.97553634643555 9.987766265869141 19.97553634643555 C 4.471675872802734 19.97553634643555 -3.814697265625e-06 15.50385665893555 -3.814697265625e-06 9.987766265869141 C -3.814697265625e-06 4.471675872802734 4.471675872802734 -3.814697265625e-06 9.987766265869141 -3.814697265625e-06 Z" stroke="none" fill="#b833ff"/>
        </g>
        <circle id="타원_48-2" data-name="타원 48" cx="1.537" cy="1.537" r="1.537" transform="translate(5.201 6.501)" fill="#b833ff"/>
        <circle id="타원_49-2" data-name="타원 49" cx="1.537" cy="1.537" r="1.537" transform="translate(11.702 6.501)" fill="#b833ff"/>
        <path id="패스_152-2" data-name="패스 152" d="M3291,396.4a3.827,3.827,0,0,0,3.421,1.749A4.254,4.254,0,0,0,3298,396.4" transform="translate(-3284.635 -383.676)" fill="none" stroke="#b833ff" stroke-linecap="round" stroke-linejoin="round" stroke-width="2"/>
      </g>
      <ellipse id="타원_95" data-name="타원 95" cx="1.5" cy="1.501" rx="1.5" ry="1.501" transform="translate(501.363 388.237)" fill="#afafaf"/>
      <ellipse id="타원_96" data-name="타원 96" cx="1.5" cy="1.501" rx="1.5" ry="1.501" transform="translate(507.365 388.237)" fill="#afafaf"/>
      <ellipse id="타원_97" data-name="타원 97" cx="1.5" cy="1.501" rx="1.5" ry="1.501" transform="translate(513.366 388.237)" fill="#afafaf"/>
    </g>
  </g>
</svg>
