<svg xmlns="http://www.w3.org/2000/svg" width="32" height="32" viewBox="0 0 32 32">
    <path data-name="사각형 542" style="fill:none" d="M0 0h32v32H0z"/>
    <g data-name="그룹 96">
        <path data-name="사각형 79" transform="translate(4 9.739)" style="stroke-miterlimit:10;stroke-linejoin:round;stroke:#333;stroke-linecap:round;stroke-width:1.5px;fill:none" d="M0 0h24v4.159H0z"/>
        <path data-name="사각형 80" transform="translate(5.043 13.898)" style="stroke-miterlimit:10;stroke-linejoin:round;stroke:#333;stroke-linecap:round;stroke-width:1.5px;fill:none" d="M0 0h21.913v14.102H0z"/>
        <path data-name="패스 49" d="M606 2274v13.355h5.217V2274" transform="translate(-592.609 -2259.355)" style="stroke-miterlimit:10;stroke-linejoin:round;stroke:#333;stroke-linecap:round;stroke-width:1.5px;fill:none"/>
        <path data-name="사각형 81" transform="translate(12.348 9.739)" style="stroke-miterlimit:10;stroke-linejoin:round;stroke:#333;stroke-linecap:round;stroke-width:1.5px;fill:none" d="M0 0h7.304v4.159H0z"/>
        <path data-name="패스 51" d="M557.742 2147.739s-9.333 0-7.111-4.145c2.814-5.249 7.111 4.145 7.111 4.145z" transform="translate(-541.742 -2138)" style="stroke-linejoin:bevel;stroke:#333;stroke-linecap:round;stroke-width:1.5px;fill:none"/>
        <path data-name="패스 52" d="m636.048 2147.637-.048.1s9.333 0 7.111-4.145c-1.971-3.677-4.671-.168-6.11 2.263" transform="translate(-620 -2138)" style="stroke-linejoin:round;stroke:#333;stroke-linecap:round;stroke-width:1.5px;fill:none"/>
    </g>
</svg>
