<svg xmlns="http://www.w3.org/2000/svg" xmlns:xlink="http://www.w3.org/1999/xlink" width="120" height="120" viewBox="0 0 120 120">
    <defs>
        <clipPath id="3n3y0q54rb">
            <use xlink:href="#ubsfvn2bta"/>
        </clipPath>
    </defs>
    <path data-name="사각형 832" style="fill:none" d="M0 0h120v120H0z"/>
    <g data-name="그룹 516">
        <g data-name="사각형 290" style="stroke-width:3px;stroke:#000;fill:#aa593d">
            <path d="M10 0h11.674a10 10 0 0 1 10 10v35.075H0V10A10 10 0 0 1 10 0z" style="stroke:none" transform="translate(55.892 26.949)"/>
            <path d="M10 1.5h11.674a8.5 8.5 0 0 1 8.5 8.5v33.575H1.5V10A8.5 8.5 0 0 1 10 1.5z" style="fill:none" transform="translate(55.892 26.949)"/>
        </g>
        <g data-name="패스 146" style="fill:#ddd">
            <path d="M44.75 29.523H2.355c-.471 0-.855-.461-.855-1.028V13.327c0-2.755 1.043-5.045 3.19-7 1.745-1.59 4.148-2.93 7.557-4.215L23.32-1.04 34.593 2.12c3.78 1.271 6.355 2.623 8.103 4.254 1.985 1.852 2.91 4.06 2.91 6.953v15.168c0 .567-.384 1.028-.856 1.028z" style="stroke:none" transform="translate(48.989 62.929)"/>
            <path d="m23.323.517-10.605 3.02C9.565 4.733 7.27 6.008 5.7 7.438 3.858 9.113 3 10.985 3 13.326v14.696h41.105V13.327c0-2.447-.773-4.308-2.432-5.856-1.58-1.475-3.972-2.72-7.522-3.917L23.323.517M23.317-2.6 35.035.686c7.065 2.37 12.07 5.66 12.07 12.64v15.169c0 1.396-1.054 2.528-2.355 2.528H2.355c-1.3 0-2.355-1.132-2.355-2.528V13.327C0 6.346 5.888 2.898 11.776.687L23.317-2.6z" style="fill:#000;stroke:none" transform="translate(48.989 62.929)"/>
        </g>
        <path data-name="패스 147" d="M3244.676 420.58s-2.284 7-4.568 7.157-5.482-11.269-5.482-11.269l4.264-1.218" transform="translate(-3172.946 -351.449)" style="fill:#5b7d83;stroke-width:3px;stroke:#000"/>
        <g data-name="사각형 288" transform="translate(85.13 85.424)" style="fill:#fff;stroke-width:3px;stroke:#000">
            <rect id="ubsfvn2bta" width="1.827" height="8.528" rx=".914" style="stroke:none"/>
            <path d="M0 1.5h1.827M1.5 0v8.528m.327-1.5H0m.327 1.5V0" style="clip-path:url(#3n3y0q54rb);fill:none"/>
        </g>
        <path data-name="패스 148" d="M3234.625 420.58s2.284 7 4.569 7.157 5.482-11.269 5.482-11.269l-4.264-1.218" transform="translate(-3162.896 -351.449)" style="fill:#5b7d83;stroke-width:3px;stroke:#000"/>
        <g data-name="합치기 10" style="fill:#edcec9">
            <path d="M6.09 11.9A4.596 4.596 0 0 1 1.5 7.31V1.5h9.183v5.81c0 2.531-2.06 4.59-4.592 4.59z" style="stroke:none" transform="translate(65.638 57.405)"/>
            <path d="M6.09 10.4a3.095 3.095 0 0 0 3.093-3.09V3H3v4.31a3.094 3.094 0 0 0 3.09 3.09m0 3A6.09 6.09 0 0 1 0 7.31V0h12.183v7.31A6.091 6.091 0 0 1 6.09 13.4z" style="fill:#000;stroke:none" transform="translate(65.638 57.405)"/>
        </g>
        <g data-name="타원 45" transform="translate(59.547 35.477)" style="fill:#edcec9;stroke-width:3px;stroke:#000">
            <circle cx="12.182" cy="12.182" r="12.182" style="stroke:none"/>
            <circle cx="12.182" cy="12.182" r="10.682" style="fill:none"/>
        </g>
        <path data-name="패스 149" d="M3253.457 393.618s-1.714 3.881-4.9 4.337-6.12-.685-8.323 0-6.855 4.337-6.855 4.337l-1.959 3.605s-.734-14.382 1.959-18.034 6.61-6.8 10.037-7.029 6.855-.913 8.814 1.37 1.227 11.414 1.227 11.414z" transform="translate(-3174.973 -355.559)" style="stroke-linecap:round;stroke-linejoin:round;stroke-width:3px;stroke:#000;fill:#aa593d"/>
        <g data-name="그룹 390">
            <path data-name="합치기 11" d="M17.109 24.365H1.25A1.25 1.25 0 0 1 0 23.115V1.25A1.25 1.25 0 0 1 1.25 0h27.956a1.25 1.25 0 0 1 1.25 1.25v21.865a1.25 1.25 0 0 1-1.25 1.25h-7.558v4.118z" transform="translate(24.218 25)" style="fill:#f4fbff;stroke-linecap:round;stroke-linejoin:round;stroke-width:3px;stroke:#000"/>
        </g>
        <g data-name="사각형 291" style="fill:#fff;stroke-width:3px;stroke:#000">
            <path d="M3 0h3.309a1 1 0 0 1 1 1v10.182a1 1 0 0 1-1 1H3a3 3 0 0 1-3-3V3a3 3 0 0 1 3-3z" style="stroke:none" transform="translate(54.674 40.35)"/>
            <path d="M3 1.5h2.309a.5.5 0 0 1 .5.5v8.182a.5.5 0 0 1-.5.5H3a1.5 1.5 0 0 1-1.5-1.5V3A1.5 1.5 0 0 1 3 1.5z" style="fill:none" transform="translate(54.674 40.35)"/>
        </g>
        <g data-name="사각형 292" style="fill:#fff;stroke-width:3px;stroke:#000">
            <path d="M3 0h3.309a1 1 0 0 1 1 1v10.182a1 1 0 0 1-1 1H3a3 3 0 0 1-3-3V3a3 3 0 0 1 3-3z" style="stroke:none" transform="rotate(180 44.392 26.266)"/>
            <path d="M3 1.5h2.309a.5.5 0 0 1 .5.5v8.182a.5.5 0 0 1-.5.5H3a1.5 1.5 0 0 1-1.5-1.5V3A1.5 1.5 0 0 1 3 1.5z" style="fill:none" transform="rotate(180 44.392 26.266)"/>
        </g>
        <path data-name="패스 150" d="M3243.75 406.6h6.712a2.074 2.074 0 0 0 1.281-.658 1.946 1.946 0 0 0 .427-1.376v-1.316" transform="translate(-3169.889 -352.632)" style="stroke-width:2px;stroke-linecap:round;stroke-linejoin:round;stroke:#000;fill:none"/>
        <g data-name="타원 46" transform="translate(70.511 51.532)" style="stroke-width:2px;stroke:#000">
            <circle cx="2.436" cy="2.436" r="2.436" style="stroke:none"/>
            <circle cx="2.436" cy="2.436" r="1.436" style="fill:none"/>
        </g>
        <g data-name="사각형 293" style="fill:#edcec9;stroke-width:3px;stroke:#000">
            <path d="M2 0h32a2 2 0 0 1 2 2v21.5H0V2a2 2 0 0 1 2-2z" style="stroke:none" transform="translate(23 66)"/>
            <path d="M2 1.5h32a.5.5 0 0 1 .5.5v20h-33V2a.5.5 0 0 1 .5-.5z" style="fill:none" transform="translate(23 66)"/>
        </g>
        <g data-name="사각형 294" style="fill:#edcec9;stroke-width:3px;stroke:#000">
            <path d="M0 0h39a1 1 0 0 1 1 1v4.5a2 2 0 0 1-2 2H2a2 2 0 0 1-2-2V0z" style="stroke:none" transform="translate(23 86.643)"/>
            <path d="M1.5 1.5H38a.5.5 0 0 1 .5.5v3.5a.5.5 0 0 1-.5.5H2a.5.5 0 0 1-.5-.5v-4z" style="fill:none" transform="translate(23 86.643)"/>
        </g>
        <g data-name="그룹 391">
            <g data-name="타원 47" transform="translate(31.528 29.386)" style="fill:#e1d0b6;stroke-width:2px;stroke:#000">
                <circle cx="7.919" cy="7.919" r="7.919" style="stroke:none"/>
                <circle cx="7.919" cy="7.919" r="6.919" style="fill:none"/>
            </g>
            <g data-name="타원 48" transform="translate(35.651 34.54)" style="stroke-width:3px;stroke:#000">
                <circle cx="1.218" cy="1.218" r="1.218" style="stroke:none"/>
                <circle cx="1.218" cy="1.218" r=".282" style="fill:none"/>
            </g>
            <g data-name="타원 49" transform="translate(40.805 34.54)" style="stroke-width:3px;stroke:#000">
                <circle cx="1.218" cy="1.218" r="1.218" style="stroke:none"/>
                <circle cx="1.218" cy="1.218" r=".282" style="fill:none"/>
            </g>
            <path data-name="패스 152" d="M3291 396.4a3.033 3.033 0 0 0 2.712 1.387 3.373 3.373 0 0 0 2.835-1.387" transform="translate(-3254.426 -356.926)" style="stroke-width:2px;stroke-linecap:round;stroke-linejoin:round;stroke:#000;fill:none"/>
        </g>
    </g>
</svg>
