<svg xmlns="http://www.w3.org/2000/svg" width="48" height="48" viewBox="0 0 48 48">
    <defs>
        <style>
            .cls-2,.cls-3{fill:#fff}.cls-2{stroke:#000;stroke-width:1.5px}.cls-4,.cls-5{stroke:none}.cls-5{fill:#000}
        </style>
    </defs>
    <g id="icon_watch" transform="translate(9 3.934)">
        <g id="그룹_784" data-name="그룹 784" transform="translate(-.71 -1.123)">
            <rect id="사각형_594" data-name="사각형 594" class="cls-2" width="2.665" height="4.264" rx="1" transform="translate(25.255 15.858)"/>
            <g id="패스_288" data-name="패스 288" class="cls-3">
                <path class="cls-4" d="M11.792 8.844H1.132c-.35 0-1.063-.237-1.344-.43L.797 3.37C1.269 1.63 2.099.75 3.264.75H9.66c.62 0 1.13.228 1.556.697.41.45.724 1.11.91 1.909l1.01 5.058c-.28.193-.993.43-1.344.43z" transform="translate(9.198 3.066)"/>
                <path class="cls-5" d="M3.264 1.5c-.292 0-1.175 0-1.737 2.042L.64 7.978c.19.062.388.11.5.116h10.645c.111-.006.31-.054.5-.116l-.893-4.464c-.154-.659-.413-1.213-.73-1.562-.285-.313-.594-.452-1.002-.452H3.264m0-1.5H9.66c1.767 0 2.796 1.448 3.198 3.198l1.066 5.33c0 .589-1.543 1.066-2.132 1.066H1.132C.543 9.594-1 9.117-1 8.528l1.066-5.33C.535 1.455 1.498 0 3.264 0z" transform="translate(9.198 3.066)"/>
            </g>
            <g id="패스_289" data-name="패스 289" class="cls-3">
                <path class="cls-4" d="M12.792 8.844H2.132c-.35 0-1.063-.237-1.344-.43L1.797 3.37C2.269 1.63 3.099.75 4.264.75h6.396c.62 0 1.13.228 1.556.697.41.45.724 1.11.91 1.909l1.01 5.058c-.28.193-.993.43-1.344.43z" transform="rotate(180 11.561 19.655)"/>
                <path class="cls-5" d="M4.264 1.5c-.292 0-1.175 0-1.737 2.042L1.64 7.978c.19.062.388.11.5.116h10.645c.111-.006.31-.054.5-.116l-.893-4.464c-.154-.659-.413-1.213-.73-1.562-.285-.313-.594-.452-1.002-.452H4.264m0-1.5h6.396c1.767 0 2.796 1.448 3.198 3.198l1.066 5.33c0 .589-1.543 1.066-2.132 1.066H2.132C1.543 9.594 0 9.117 0 8.528l1.066-5.33C1.535 1.455 2.498 0 4.264 0z" transform="rotate(180 11.561 19.655)"/>
            </g>
            <g id="사각형_593" data-name="사각형 593" class="cls-2" transform="translate(4.71 9.188)">
                <rect class="cls-4" width="22" height="24" rx="5"/>
                <rect x=".75" y=".75" width="20.5" height="22.5" rx="4.25" style="fill:none"/>
            </g>
        </g>
    </g>
</svg>
