<svg xmlns="http://www.w3.org/2000/svg" xmlns:xlink="http://www.w3.org/1999/xlink" width="149" height="149" viewBox="0 0 149 149">
  <defs>
    <clipPath id="clip-path">
      <rect id="사각형_667" data-name="사각형 667" width="149" height="149" transform="translate(-0.486)" fill="none"/>
    </clipPath>
  </defs>
  <g id="그룹_1064" data-name="그룹 1064" transform="translate(0.487)">
    <g id="그룹_998" data-name="그룹 998" transform="translate(-0.001)" clip-path="url(#clip-path)">
      <path id="패스_431" data-name="패스 431" d="M72.088,76.288c4.658.259,20.7-4.918,20.7-4.918s-.259-1.553-3.105-4.4-1.553-35.713-2.329-38.559S84.25,9.263,59.666,9,33.01,23.495,31.974,27.117s-.517,29.761,0,33.9-4.141,10.352-4.141,10.352,15.527,4.658,19.926,4.918" transform="translate(15.398 4.975)" fill="none" stroke="#000" stroke-linecap="round" stroke-linejoin="round" stroke-width="2.5"/>
      <path id="패스_432" data-name="패스 432" d="M63.683,24.335s-7.5,4.918-14.492,6.211a83.418,83.418,0,0,1-13.458,1.293s-3.1,15.479-1.293,20.962,6.72,15.268,21.738,15.268S77.545,57.045,78.694,52.8s1.812-18.892,0-19.409-5.175.259-8.281-2.846S63.683,24.335,63.683,24.335Z" transform="translate(18.738 13.451)" fill="none" stroke="#000" stroke-linecap="round" stroke-linejoin="round" stroke-width="2.5"/>
      <ellipse id="타원_135" data-name="타원 135" cx="1.165" cy="1.165" rx="1.165" ry="1.165" transform="translate(61.218 55.254)" fill="none" stroke="#000" stroke-width="2.5"/>
      <ellipse id="타원_136" data-name="타원 136" cx="1.165" cy="1.165" rx="1.165" ry="1.165" transform="translate(87.304 55.254)" fill="none" stroke="#000" stroke-width="2.5"/>
      <path id="패스_433" data-name="패스 433" d="M44.167,43.335H56.589s-4.683,6.211-6.313,6.211S44.167,43.335,44.167,43.335Z" transform="translate(24.426 23.953)" fill="none" stroke="#000" stroke-linecap="round" stroke-linejoin="round" stroke-width="2.5"/>
      <path id="패스_434" data-name="패스 434" d="M56.736,52.168v7.5s-13.715-.259-24.067,4.141S13,107.031,13,107.031H122.985s-8.54-34.42-16.3-41.148-27.69-6.211-27.69-6.211v-7.5" transform="translate(7.199 28.835)" fill="none" stroke="#000" stroke-linecap="round" stroke-linejoin="round" stroke-width="2.5"/>
      <line id="선_118" data-name="선 118" y2="41.924" transform="translate(41.161 92.649)" fill="none" stroke="#000" stroke-width="2.5"/>
      <line id="선_119" data-name="선 119" y2="41.924" transform="translate(109.166 92.649)" fill="none" stroke="#000" stroke-width="2.5"/>
      <line id="선_120" data-name="선 120" x2="23.55" y2="46.323" transform="translate(55.654 89.026)" fill="none" stroke="#000" stroke-width="2.5"/>
      <line id="선_121" data-name="선 121" x1="19.926" y2="36.124" transform="translate(74.806 89.026)" fill="none" stroke="#000" stroke-width="2.5"/>
      <path id="패스_435" data-name="패스 435" d="M39.5,58.026l6.987,12.293,6.728-6.858L41.958,56.085Z" transform="translate(21.847 31)" fill="none" stroke="#000" stroke-linecap="round" stroke-linejoin="round" stroke-width="2.5"/>
      <path id="패스_436" data-name="패스 436" d="M61.466,58.026,54.479,70.319l-6.728-6.858,11.257-7.376Z" transform="translate(26.407 31)" fill="none" stroke="#000" stroke-linecap="round" stroke-linejoin="round" stroke-width="2.5"/>
      <ellipse id="타원_137" data-name="타원 137" cx="0.388" cy="0.388" rx="0.388" ry="0.388" transform="translate(74.416 102.613)" fill="none" stroke="#000" stroke-width="2.5"/>
      <ellipse id="타원_138" data-name="타원 138" cx="0.388" cy="0.388" rx="0.388" ry="0.388" transform="translate(74.416 108.824)" fill="none" stroke="#000" stroke-width="2.5"/>
      <path id="패스_437" data-name="패스 437" d="M59.805,74.585h6.211a.388.388,0,1,1,0,.776H59.805a.388.388,0,1,1,0-.776Z" transform="translate(32.855 41.226)" fill="none" stroke="#000" stroke-width="2.5"/>
    </g>
  </g>
</svg>
