<svg xmlns="http://www.w3.org/2000/svg" width="78.512" height="43.083" viewBox="0 0 78.512 43.083">
    <defs>
        <style>
            .cls-2,.cls-7{stroke:#000}.cls-2{stroke-width:1.5px}.cls-2,.cls-7{fill:#fff}.cls-9{fill:none}.cls-8{stroke:none}
        </style>
    </defs>
    <g id="icon_step_02" transform="translate(-407.488 -364)">
        <g id="그룹_380" data-name="그룹 380" transform="translate(14 7)">
            <g id="사각형_257" data-name="사각형 257" transform="translate(407 360)" style="stroke-width:1.5px;stroke:#000;fill:#e1d0b6">
                <rect class="cls-8" width="48" height="40" rx="4"/>
                <rect class="cls-9" x=".75" y=".75" width="46.5" height="38.5" rx="3.25"/>
            </g>
            <g id="사각형_258" data-name="사각형 258" class="cls-2" transform="translate(416 357)">
                <rect class="cls-8" width="4" height="10" rx="2"/>
                <rect class="cls-9" x=".75" y=".75" width="2.5" height="8.5" rx="1.25"/>
            </g>
            <g id="사각형_259" data-name="사각형 259" class="cls-2" transform="translate(429 357)">
                <rect class="cls-8" width="4" height="10" rx="2"/>
                <rect class="cls-9" x=".75" y=".75" width="2.5" height="8.5" rx="1.25"/>
            </g>
            <g id="사각형_277" data-name="사각형 277" class="cls-2" transform="translate(442 357)">
                <rect class="cls-8" width="4" height="10" rx="2"/>
                <rect class="cls-9" x=".75" y=".75" width="2.5" height="8.5" rx="1.25"/>
            </g>
            <g id="그룹_379" data-name="그룹 379" transform="translate(1 -3)">
                <g id="사각형_262" data-name="사각형 262" class="cls-2" transform="translate(414 379)">
                    <rect class="cls-8" width="5" height="3" rx="1.5"/>
                    <rect class="cls-9" x=".75" y=".75" width="3.5" height="1.5" rx=".75"/>
                </g>
                <g id="사각형_266" data-name="사각형 266" class="cls-2" transform="translate(414 386)">
                    <rect class="cls-8" width="5" height="3" rx="1.5"/>
                    <rect class="cls-9" x=".75" y=".75" width="3.5" height="1.5" rx=".75"/>
                </g>
                <g id="사각형_269" data-name="사각형 269" class="cls-2" transform="translate(414 393)">
                    <rect class="cls-8" width="5" height="3" rx="1.5"/>
                    <rect class="cls-9" x=".75" y=".75" width="3.5" height="1.5" rx=".75"/>
                </g>
                <g id="사각형_263" data-name="사각형 263" class="cls-2" transform="translate(423 379)">
                    <rect class="cls-8" width="5" height="3" rx="1.5"/>
                    <rect class="cls-9" x=".75" y=".75" width="3.5" height="1.5" rx=".75"/>
                </g>
                <g id="사각형_267" data-name="사각형 267" class="cls-2" transform="translate(423 386)">
                    <rect class="cls-8" width="5" height="3" rx="1.5"/>
                    <rect class="cls-9" x=".75" y=".75" width="3.5" height="1.5" rx=".75"/>
                </g>
                <g id="사각형_270" data-name="사각형 270" class="cls-2" transform="translate(423 393)">
                    <rect class="cls-8" width="5" height="3" rx="1.5"/>
                    <rect class="cls-9" x=".75" y=".75" width="3.5" height="1.5" rx=".75"/>
                </g>
                <g id="사각형_264" data-name="사각형 264" class="cls-2" transform="translate(432 379)">
                    <rect class="cls-8" width="5" height="3" rx="1.5"/>
                    <rect class="cls-9" x=".75" y=".75" width="3.5" height="1.5" rx=".75"/>
                </g>
                <g id="사각형_276" data-name="사각형 276" class="cls-2" transform="translate(441 379)">
                    <rect class="cls-8" width="5" height="3" rx="1.5"/>
                    <rect class="cls-9" x=".75" y=".75" width="3.5" height="1.5" rx=".75"/>
                </g>
                <g id="사각형_268" data-name="사각형 268" class="cls-2" transform="translate(432 386)">
                    <rect class="cls-8" width="5" height="3" rx="1.5"/>
                    <rect class="cls-9" x=".75" y=".75" width="3.5" height="1.5" rx=".75"/>
                </g>
                <g id="사각형_274" data-name="사각형 274" class="cls-2" transform="translate(441 386)">
                    <rect class="cls-8" width="5" height="3" rx="1.5"/>
                    <rect class="cls-9" x=".75" y=".75" width="3.5" height="1.5" rx=".75"/>
                </g>
                <g id="사각형_271" data-name="사각형 271" class="cls-2" transform="translate(432 393)">
                    <rect class="cls-8" width="5" height="3" rx="1.5"/>
                    <rect class="cls-9" x=".75" y=".75" width="3.5" height="1.5" rx=".75"/>
                </g>
                <g id="사각형_275" data-name="사각형 275" class="cls-2" transform="translate(441 393)">
                    <rect class="cls-8" width="5" height="3" rx="1.5"/>
                    <rect class="cls-9" x=".75" y=".75" width="3.5" height="1.5" rx=".75"/>
                </g>
            </g>
            <g id="사각형_261" data-name="사각형 261" transform="translate(407 369)" style="fill:none;stroke-width:1.5px;stroke:#000">
                <path class="cls-8" d="M0 0h48v1.5H0z"/>
                <rect class="cls-9" x=".75" y=".75" width="46.5"/>
            </g>
        </g>
        <g id="그룹_382" data-name="그룹 382" transform="translate(-257.762 -.667)">
            <path id="합치기_9" data-name="합치기 9" d="M1.259 12.939A8.5 8.5 0 1 1 17 8.49a8.447 8.447 0 0 1-1.252 4.437L8.5 26z" transform="translate(666 381)" style="fill:#edcec9;stroke-linecap:round;stroke-linejoin:round;stroke-width:1.5px;stroke:#000"/>
            <g id="타원_42" data-name="타원 42" transform="translate(669.143 384.143)" style="fill:#5b7d83;stroke-width:1.5px;stroke:#000">
                <circle class="cls-8" cx="5.4" cy="5.4" r="5.4"/>
                <circle class="cls-9" cx="5.4" cy="5.4" r="4.65"/>
            </g>
        </g>
        <g id="그룹_384" data-name="그룹 384" transform="translate(-215 -15.688)">
            <g id="타원_43" data-name="타원 43" transform="translate(679 400.688)" style="fill:#ddd;stroke-width:1.5px;stroke:#000">
                <circle class="cls-8" cx="11" cy="11" r="11"/>
                <circle class="cls-9" cx="11" cy="11" r="10.25"/>
            </g>
            <g id="사각형_272" data-name="사각형 272" class="cls-7" transform="translate(688.504 404.704)">
                <rect class="cls-8" width="1.633" height="8.622" rx=".817"/>
                <rect class="cls-9" x=".5" y=".5" width=".633" height="7.622" rx=".317"/>
            </g>
            <g id="사각형_273" data-name="사각형 273" class="cls-7" transform="rotate(90 141.682 553.67)">
                <rect class="cls-8" width="1.543" height="6.848" rx=".771"/>
                <rect class="cls-9" x=".5" y=".5" width=".543" height="5.848" rx=".271"/>
            </g>
        </g>
    </g>
</svg>
