<svg xmlns="http://www.w3.org/2000/svg" xmlns:xlink="http://www.w3.org/1999/xlink" width="149" height="149" viewBox="0 0 149 149">
  <defs>
    <clipPath id="clip-path">
      <rect id="사각형_751" data-name="사각형 751" width="149" height="149" transform="translate(-0.086)" fill="none"/>
    </clipPath>
  </defs>
  <g id="그룹_1063" data-name="그룹 1063" transform="translate(0.086)">
    <g id="그룹_1062" data-name="그룹 1062" clip-path="url(#clip-path)">
      <path id="패스_762" data-name="패스 762" d="M120.1,52.354A42.958,42.958,0,1,1,77.139,9.4,42.958,42.958,0,0,1,120.1,52.354" transform="translate(18.716 5.145)" fill="#fff"/>
      <circle id="타원_144" data-name="타원 144" cx="42.958" cy="42.958" r="42.958" transform="translate(52.897 14.541)" fill="none" stroke="#000" stroke-linecap="round" stroke-linejoin="round" stroke-width="2.5"/>
      <path id="패스_763" data-name="패스 763" d="M75.432,60.673V56.222H52.324v4.937h.051c.511,1.431,5.474,2.555,11.529,2.555,6.394,0,11.579-1.252,11.579-2.8a.75.75,0,0,0-.051-.243" transform="translate(28.65 30.784)" fill="#fff"/>
      <path id="패스_764" data-name="패스 764" d="M75.432,60.673V56.222H52.324v4.937h.051c.511,1.431,5.474,2.555,11.529,2.555,6.394,0,11.579-1.252,11.579-2.8A.75.75,0,0,0,75.432,60.673Z" transform="translate(28.65 30.784)" fill="none" stroke="#000" stroke-linecap="round" stroke-linejoin="round" stroke-width="2.5"/>
      <path id="패스_765" data-name="패스 765" d="M75.482,57.212c0,1.546-5.184,2.8-11.579,2.8s-11.579-1.252-11.579-2.8,5.184-2.8,11.579-2.8,11.579,1.252,11.579,2.8" transform="translate(28.65 29.794)" fill="#fff"/>
      <ellipse id="타원_145" data-name="타원 145" cx="11.579" cy="2.798" rx="11.579" ry="2.798" transform="translate(80.976 84.208)" fill="none" stroke="#000" stroke-linecap="round" stroke-linejoin="round" stroke-width="2.5"/>
      <path id="패스_766" data-name="패스 766" d="M48.559,51.662,62.3,61.238a20.264,20.264,0,0,0,7.2,0l24.332-18" transform="translate(26.588 23.677)" fill="#fff"/>
      <path id="패스_767" data-name="패스 767" d="M48.559,51.662,62.3,61.238a20.264,20.264,0,0,0,7.2,0l24.332-18" transform="translate(26.588 23.677)" fill="none" stroke="#000" stroke-linecap="round" stroke-linejoin="round" stroke-width="2.5"/>
      <path id="패스_768" data-name="패스 768" d="M70.881,27.119c-17.58,0-31.831,7.619-31.831,17.017,0,3.4,1.89,6.566,5.11,9.226l-.034-.014L42.374,60.49h19.7l-.046-.019a58.126,58.126,0,0,0,8.849.679c17.58,0,31.831-7.619,31.831-17.015S88.462,27.119,70.881,27.119" transform="translate(21.382 14.849)" fill="#fff"/>
      <path id="패스_769" data-name="패스 769" d="M70.881,27.119c-17.58,0-31.831,7.619-31.831,17.017,0,3.4,1.89,6.566,5.11,9.226l-.034-.014L42.374,60.49h19.7l-.046-.019a58.126,58.126,0,0,0,8.849.679c17.58,0,31.831-7.619,31.831-17.015S88.462,27.119,70.881,27.119Z" transform="translate(21.382 14.849)" fill="none" stroke="#000" stroke-linecap="round" stroke-linejoin="round" stroke-width="2.5"/>
      <line id="선_194" data-name="선 194" x2="6.17" y2="7.128" transform="translate(65.542 68.212)" fill="#fff"/>
      <line id="선_195" data-name="선 195" x2="6.17" y2="7.128" transform="translate(65.542 68.212)" fill="none" stroke="#000" stroke-linecap="round" stroke-linejoin="round" stroke-width="2.5"/>
      <path id="패스_770" data-name="패스 770" d="M73.03,34.957l-6.548-2.809S56.22,46.173,55.451,56.1a57.848,57.848,0,0,0,6.45.365,58,58,0,0,0,8.326-.608c-.173-4.305-.529-17.455,2.8-20.9" transform="translate(30.362 17.603)" fill="#f90b67"/>
      <path id="패스_771" data-name="패스 771" d="M105.484,34.725C96.456,44.922,72.1,49.6,72.1,49.6c-.686-5.854-6.326-4.683-6.326-4.683L54.943,25.365a138.2,138.2,0,0,1,27.61-13.728s16.477,7.554,22.932,23.088" transform="translate(30.084 6.372)" fill="#fff"/>
      <path id="패스_772" data-name="패스 772" d="M105.484,34.725C96.456,44.922,72.1,49.6,72.1,49.6c-.686-5.854-6.326-4.683-6.326-4.683L54.943,25.365a138.2,138.2,0,0,1,27.61-13.728S99.03,19.191,105.484,34.725Z" transform="translate(30.084 6.372)" fill="none" stroke="#000" stroke-linecap="round" stroke-linejoin="round" stroke-width="2.5"/>
      <path id="패스_773" data-name="패스 773" d="M53.1,37.489s.187,1.373-.573,1.857a2.842,2.842,0,0,1-1.659.387" transform="translate(27.853 20.527)" fill="none" stroke="#f90b67" stroke-linecap="round" stroke-linejoin="round" stroke-width="1"/>
      <path id="패스_774" data-name="패스 774" d="M54.577,39.72s-1.373.187-1.857-.573a2.842,2.842,0,0,1-.387-1.659" transform="translate(28.65 20.526)" fill="none" stroke="#f90b67" stroke-linecap="round" stroke-linejoin="round" stroke-width="1"/>
      <path id="패스_775" data-name="패스 775" d="M53.1,41.194s.187-1.371-.573-1.855a2.83,2.83,0,0,0-1.659-.387" transform="translate(27.853 21.324)" fill="none" stroke="#f90b67" stroke-linecap="round" stroke-linejoin="round" stroke-width="1"/>
      <path id="패스_776" data-name="패스 776" d="M54.577,38.964s-1.373-.187-1.857.573a2.842,2.842,0,0,0-.387,1.659" transform="translate(28.65 21.324)" fill="none" stroke="#f90b67" stroke-linecap="round" stroke-linejoin="round" stroke-width="1"/>
      <path id="패스_777" data-name="패스 777" d="M70.622,41.767s.19,1.391-.58,1.882a2.891,2.891,0,0,1-1.681.392" transform="translate(37.431 22.869)" fill="none" stroke="#f90b67" stroke-linecap="round" stroke-linejoin="round" stroke-width="1"/>
      <path id="패스_778" data-name="패스 778" d="M72.117,44.028s-1.391.19-1.882-.58a2.891,2.891,0,0,1-.392-1.681" transform="translate(38.238 22.869)" fill="none" stroke="#f90b67" stroke-linecap="round" stroke-linejoin="round" stroke-width="1"/>
      <path id="패스_779" data-name="패스 779" d="M70.622,45.523s.19-1.391-.58-1.882a2.891,2.891,0,0,0-1.681-.392" transform="translate(37.431 23.677)" fill="none" stroke="#f90b67" stroke-linecap="round" stroke-linejoin="round" stroke-width="1"/>
      <path id="패스_780" data-name="패스 780" d="M72.117,43.262s-1.391-.19-1.882.58a2.891,2.891,0,0,0-.392,1.681" transform="translate(38.238 23.677)" fill="none" stroke="#f90b67" stroke-linecap="round" stroke-linejoin="round" stroke-width="1"/>
      <path id="패스_781" data-name="패스 781" d="M68.018,39.329s.094.695-.289.941a1.43,1.43,0,0,1-.84.195" transform="translate(36.624 21.534)" fill="none" stroke="#f90b67" stroke-linecap="round" stroke-linejoin="round" stroke-width="1"/>
      <path id="패스_782" data-name="패스 782" d="M68.765,40.46s-.695.094-.941-.289a1.43,1.43,0,0,1-.195-.84" transform="translate(37.028 21.535)" fill="none" stroke="#f90b67" stroke-linecap="round" stroke-linejoin="round" stroke-width="1"/>
      <path id="패스_783" data-name="패스 783" d="M68.018,41.207s.094-.695-.289-.941a1.43,1.43,0,0,0-.84-.195" transform="translate(36.624 21.939)" fill="none" stroke="#f90b67" stroke-linecap="round" stroke-linejoin="round" stroke-width="1"/>
      <path id="패스_784" data-name="패스 784" d="M68.765,40.077s-.695-.094-.941.289a1.43,1.43,0,0,0-.195.84" transform="translate(37.028 21.938)" fill="none" stroke="#f90b67" stroke-linecap="round" stroke-linejoin="round" stroke-width="1"/>
      <path id="패스_785" data-name="패스 785" d="M48.535,35.434s.094.695-.289.941a1.43,1.43,0,0,1-.84.195" transform="translate(25.956 19.402)" fill="none" stroke="#f90b67" stroke-linecap="round" stroke-linejoin="round" stroke-width="1"/>
      <path id="패스_786" data-name="패스 786" d="M49.282,36.564s-.695.094-.941-.289a1.43,1.43,0,0,1-.195-.84" transform="translate(26.36 19.402)" fill="none" stroke="#f90b67" stroke-linecap="round" stroke-linejoin="round" stroke-width="1"/>
      <path id="패스_787" data-name="패스 787" d="M48.535,37.311s.094-.695-.289-.941a1.43,1.43,0,0,0-.84-.195" transform="translate(25.956 19.805)" fill="none" stroke="#f90b67" stroke-linecap="round" stroke-linejoin="round" stroke-width="1"/>
      <path id="패스_788" data-name="패스 788" d="M49.282,36.182s-.695-.094-.941.289a1.43,1.43,0,0,0-.195.84" transform="translate(26.36 19.805)" fill="none" stroke="#f90b67" stroke-linecap="round" stroke-linejoin="round" stroke-width="1"/>
      <path id="패스_789" data-name="패스 789" d="M87.194,41.224s-6.337-19.881-18.431-27.84" transform="translate(37.651 7.328)" fill="none" stroke="#000" stroke-linecap="round" stroke-linejoin="round" stroke-width="2.5"/>
      <path id="패스_790" data-name="패스 790" d="M62.863,15.973S76.839,26.93,79.754,44.049" transform="translate(34.42 8.746)" fill="none" stroke="#000" stroke-linecap="round" stroke-linejoin="round" stroke-width="2.5"/>
      <path id="패스_791" data-name="패스 791" d="M7.556,58.642C8.585,58.981,67.574,71.4,67.574,71.4" transform="translate(4.137 32.109)" fill="#fff"/>
      <path id="패스_792" data-name="패스 792" d="M7.556,58.642C8.585,58.981,67.574,71.4,67.574,71.4" transform="translate(4.137 32.109)" fill="none" stroke="#000" stroke-linecap="round" stroke-linejoin="round" stroke-width="2.5"/>
      <path id="패스_793" data-name="패스 793" d="M6.725,84.017,41.72,90.191,77.293,63.2" transform="translate(3.682 34.606)" fill="none" stroke="#000" stroke-linecap="round" stroke-linejoin="round" stroke-width="2.5"/>
      <path id="패스_794" data-name="패스 794" d="M6.725,88,41.72,94.176,77.293,67.187" transform="translate(3.682 36.788)" fill="none" stroke="#000" stroke-linecap="round" stroke-linejoin="round" stroke-width="2.5"/>
      <path id="패스_795" data-name="패스 795" d="M77.293,71.42,41.72,98.41,6.725,92.235" transform="translate(3.682 39.106)" fill="none" stroke="#000" stroke-linecap="round" stroke-linejoin="round" stroke-width="2.5"/>
      <path id="패스_796" data-name="패스 796" d="M42.353,87.443c.325-.248,13.179,2.563,13.179,2.563s12.037-.617,31.575-20.821V63.541" transform="translate(23.19 34.792)" fill="none" stroke="#000" stroke-linecap="round" stroke-linejoin="round" stroke-width="2.5"/>
      <line id="선_196" data-name="선 196" y1="12.563" transform="translate(78.724 112.235)" fill="none" stroke="#000" stroke-linecap="round" stroke-linejoin="round" stroke-width="2.5"/>
      <line id="선_197" data-name="선 197" y2="19.976" transform="translate(87.92 101.615)" fill="none" stroke="#000" stroke-linecap="round" stroke-linejoin="round" stroke-width="2.5"/>
      <line id="선_198" data-name="선 198" y2="28.656" transform="translate(14.524 62.575)" fill="none" stroke="#000" stroke-linecap="round" stroke-linejoin="round" stroke-width="2.5"/>
      <line id="선_199" data-name="선 199" y1="20.621" x2="25.377" transform="translate(20.314 64.637)" fill="none" stroke="#000" stroke-linecap="round" stroke-linejoin="round" stroke-width="2.5"/>
      <path id="패스_797" data-name="패스 797" d="M39.078,31.374S26.947,55.568,26.947,58.821" transform="translate(14.755 17.179)" fill="none" stroke="#000" stroke-linecap="round" stroke-linejoin="round" stroke-width="2.5"/>
      <path id="패스_798" data-name="패스 798" d="M26.179,50.488v7.707c0,1.543,2.592,2.793,5.789,2.793s5.789-1.25,5.789-2.793V50.488Z" transform="translate(14.334 27.645)" fill="#fff"/>
      <path id="패스_799" data-name="패스 799" d="M26.179,50.488v7.707c0,1.543,2.592,2.793,5.789,2.793s5.789-1.25,5.789-2.793V50.488Z" transform="translate(14.334 27.645)" fill="none" stroke="#000" stroke-linecap="round" stroke-linejoin="round" stroke-width="2.5"/>
      <path id="패스_800" data-name="패스 800" d="M37.758,51.476c0,1.543-2.592,2.793-5.789,2.793s-5.789-1.25-5.789-2.793,2.592-2.793,5.789-2.793,5.789,1.25,5.789,2.793" transform="translate(14.334 26.656)" fill="#fff"/>
      <ellipse id="타원_146" data-name="타원 146" cx="5.789" cy="2.793" rx="5.789" ry="2.793" transform="translate(40.513 75.34)" fill="none" stroke="#000" stroke-linecap="round" stroke-linejoin="round" stroke-width="2.5"/>
      <path id="패스_801" data-name="패스 801" d="M30.867,57.214s9.391,3.477,23.944,4.493" transform="translate(16.901 31.327)" fill="#fff"/>
      <path id="패스_802" data-name="패스 802" d="M30.867,57.214s9.391,3.477,23.944,4.493" transform="translate(16.901 31.327)" fill="none" stroke="#000" stroke-linecap="round" stroke-linejoin="round" stroke-width="2.5"/>
      <line id="선_200" data-name="선 200" x2="8.628" transform="translate(52.092 82.213)" fill="#fff"/>
      <line id="선_201" data-name="선 201" x2="8.628" transform="translate(52.092 82.213)" fill="none" stroke="#000" stroke-linecap="round" stroke-linejoin="round" stroke-width="2.5"/>
      <line id="선_202" data-name="선 202" x2="12.548" transform="translate(52.092 87.006)" fill="#fff"/>
      <line id="선_203" data-name="선 203" x2="12.548" transform="translate(52.092 87.006)" fill="none" stroke="#000" stroke-linecap="round" stroke-linejoin="round" stroke-width="2.5"/>
      <line id="선_204" data-name="선 204" x1="12.931" transform="translate(124.845 62.277)" fill="#fff"/>
      <line id="선_205" data-name="선 205" x1="12.931" transform="translate(124.845 62.277)" fill="none" stroke="#000" stroke-linecap="round" stroke-linejoin="round" stroke-width="2.5"/>
    </g>
  </g>
</svg>
