<svg xmlns="http://www.w3.org/2000/svg" width="48" height="48" viewBox="0 0 48 48">
    <defs>
        <clipPath id="8fw7fceyya">
            <path data-name="사각형 237" transform="translate(-1 -1)" style="fill:none" d="M0 0h36.5v27.5H0z"/>
        </clipPath>
    </defs>
    <g data-name="그룹 349" transform="translate(7 11)" style="clip-path:url(#8fw7fceyya)">
        <path data-name="패스 110" d="M2.25 6.969h20a1.5 1.5 0 0 1 1.5 1.5v10a1.5 1.5 0 0 1-1.5 1.5h-20a1.5 1.5 0 0 1-1.5-1.5v-10a1.5 1.5 0 0 1 1.5-1.5zm5.5 17.281 4.528-1 4.472 1m-4.5-4v3" style="stroke-linejoin:round;stroke-linecap:round;stroke:#000;stroke-width:2px;fill:none"/>
        <path data-name="패스 111" d="M19.75 6.158V1.781A1.1 1.1 0 0 1 20.905.75H32.6a1.1 1.1 0 0 1 1.15 1.031V21.72a1.1 1.1 0 0 1-1.15 1.031H20.905a1.1 1.1 0 0 1-1.155-1.032v-1.537" style="stroke-linejoin:round;stroke-linecap:round;stroke:#000;stroke-width:2px;fill:none"/>
        <path data-name="패스 112" d="M27.25 17.75a1 1 0 1 1-1 1 1 1 0 0 1 1-1" style="fill-rule:evenodd;stroke:#000;stroke-width:2px"/>
        <path data-name="선 24" transform="translate(24.625 8.625)" style="stroke-linecap:square;stroke:#000;stroke-width:2px;fill:none" d="M0 0h9"/>
        <path data-name="패스 113" d="M31.75 22.75v2m-10-2v2" style="stroke-linecap:round;stroke:#000;stroke-width:2px;fill:none"/>
    </g>
</svg>
