<svg id="그룹_1036" data-name="그룹 1036" xmlns="http://www.w3.org/2000/svg" xmlns:xlink="http://www.w3.org/1999/xlink" width="96" height="96" viewBox="0 0 96 96">
  <defs>
    <clipPath id="clip-path">
      <rect id="사각형_707" data-name="사각형 707" width="96" height="96" fill="none"/>
    </clipPath>
  </defs>
  <g id="그룹_1035" data-name="그룹 1035" clip-path="url(#clip-path)">
    <path id="패스_591" data-name="패스 591" d="M47.375,18.385V15.06a7.316,7.316,0,1,0-14.632,0v3.325H25.316V15.06a7.315,7.315,0,1,0-14.631,0V80.681a7.315,7.315,0,1,0,14.631,0V77.542h7.427v3.139a7.316,7.316,0,1,0,14.632,0V27.475H54.58v7.648h7.2V18.385ZM25.316,24.149h7.427V71.778H25.316Z" fill="none" stroke="#000" stroke-linecap="round" stroke-linejoin="round" stroke-width="2.5"/>
    <rect id="사각형_705" data-name="사각형 705" width="4.545" height="38.458" transform="translate(56.021 35.123)" fill="none" stroke="#000" stroke-linecap="round" stroke-linejoin="round" stroke-width="2.5"/>
    <rect id="사각형_706" data-name="사각형 706" width="7.205" height="12.166" transform="translate(54.58 73.581)" fill="none" stroke="#000" stroke-linecap="round" stroke-linejoin="round" stroke-width="2.5"/>
    <path id="패스_592" data-name="패스 592" d="M74.345,51.167s.735,5.377-2.243,7.276a11.142,11.142,0,0,1-6.495,1.511" fill="none" stroke="#000" stroke-linecap="round" stroke-linejoin="round" stroke-width="2.5"/>
    <path id="패스_593" data-name="패스 593" d="M83.245,59.9s-5.377.735-7.276-2.243a11.142,11.142,0,0,1-1.511-6.495" fill="none" stroke="#000" stroke-linecap="round" stroke-linejoin="round" stroke-width="2.5"/>
    <path id="패스_594" data-name="패스 594" d="M74.345,68.805s.735-5.377-2.243-7.276a11.142,11.142,0,0,0-6.495-1.511" fill="none" stroke="#000" stroke-linecap="round" stroke-linejoin="round" stroke-width="2.5"/>
    <path id="패스_595" data-name="패스 595" d="M83.245,60.067s-5.377-.735-7.276,2.243a11.142,11.142,0,0,0-1.511,6.495" fill="none" stroke="#000" stroke-linecap="round" stroke-linejoin="round" stroke-width="2.5"/>
    <path id="패스_596" data-name="패스 596" d="M82.331,38.02s.308,2.253-.94,3.049a4.666,4.666,0,0,1-2.722.633" fill="none" stroke="#000" stroke-linecap="round" stroke-linejoin="round" stroke-width="2.5"/>
    <path id="패스_597" data-name="패스 597" d="M86.061,41.682s-2.254.308-3.05-.94a4.666,4.666,0,0,1-.633-2.722" fill="none" stroke="#000" stroke-linecap="round" stroke-linejoin="round" stroke-width="2.5"/>
    <path id="패스_598" data-name="패스 598" d="M82.331,45.411s.308-2.252-.94-3.049a4.682,4.682,0,0,0-2.722-.633" fill="none" stroke="#000" stroke-linecap="round" stroke-linejoin="round" stroke-width="2.5"/>
    <path id="패스_599" data-name="패스 599" d="M86.061,41.75s-2.254-.308-3.05.94a4.666,4.666,0,0,0-.633,2.722" fill="none" stroke="#000" stroke-linecap="round" stroke-linejoin="round" stroke-width="2.5"/>
    <path id="패스_600" data-name="패스 600" d="M17.459,68.239a3.424,3.424,0,0,1,3.424-3.424,3.387,3.387,0,0,1,.927.143V22c-1.663-.6-3.618.858-5,2.153a8.835,8.835,0,0,1-2.522,1.626v8.787a2.045,2.045,0,0,1,.527-.076,2.079,2.079,0,0,1,0,4.157,2.046,2.046,0,0,1-.527-.076v42.49a3.493,3.493,0,0,0,3.492,3.492h.539a3.492,3.492,0,0,0,3.492-3.492V71.52a3.387,3.387,0,0,1-.927.143,3.424,3.424,0,0,1-3.424-3.424m-.467-22.317a1.469,1.469,0,1,1,1.47,1.47,1.47,1.47,0,0,1-1.47-1.47"/>
    <path id="패스_601" data-name="패스 601" d="M41.253,50.052a2.182,2.182,0,0,1,2.182-2.182,2.143,2.143,0,0,1,.322.033V22.448C42.7,21.581,41.182,19.907,40,18.773a3.429,3.429,0,0,0-3.738-.586c-.005.08-.024.157-.024.238v6.7a3.518,3.518,0,0,1,.693-.07,3.44,3.44,0,1,1-.693,6.809V81.057a3.492,3.492,0,0,0,3.492,3.491h.539a3.491,3.491,0,0,0,3.492-3.491V52.2a2.143,2.143,0,0,1-.322.033,2.182,2.182,0,0,1-2.182-2.182M39.109,71.638a1.726,1.726,0,1,1,1.726-1.726,1.726,1.726,0,0,1-1.726,1.726"/>
  </g>
</svg>
