<svg xmlns="http://www.w3.org/2000/svg" width="48" height="48" viewBox="0 0 48 48">
    <g fill="none" fill-rule="evenodd">
        <g fill="#000" fill-rule="nonzero">
            <g>
                <g>
                    <g>
                        <g>
                            <g>
                                <path d="M19.2 0C26.43 0 32.86 4.114 36 10.339V6c0-.615.464-1.123 1.06-1.192l.14-.008c.616 0 1.123.463 1.192 1.06L38.4 6v8.4c0 .615-.463 1.123-1.06 1.192l-.14.008h-8.4c-.662 0-1.2-.537-1.2-1.2 0-.615.464-1.123 1.06-1.192l.14-.008h5.828C32.296 6.788 26.173 2.4 19.2 2.4c-7.214 0-13.518 4.697-15.655 11.473-.2.632-.874.983-1.506.783-.632-.2-.982-.873-.783-1.505C3.706 5.384 10.93 0 19.2 0z" transform="translate(-568 -108) translate(32 108) translate(536) translate(4 4)"/>
                                <path d="M18 22.8c7.23 0 13.66 4.114 16.8 10.339V28.8c0-.615.464-1.123 1.06-1.192L36 27.6c.616 0 1.123.463 1.192 1.06l.008.14v8.4c0 .615-.463 1.123-1.06 1.192L36 38.4h-8.4c-.662 0-1.2-.537-1.2-1.2 0-.615.464-1.123 1.06-1.192L27.6 36h5.828C31.096 29.588 24.973 25.2 18 25.2c-7.214 0-13.518 4.697-15.655 11.473-.2.632-.874.983-1.506.783-.632-.2-.982-.873-.783-1.505C2.506 28.184 9.73 22.8 18 22.8z" transform="translate(-568 -108) translate(32 108) translate(536) translate(4 4) rotate(-180 18.6 30.6)"/>
                            </g>
                        </g>
                    </g>
                </g>
            </g>
        </g>
    </g>
</svg>
