<svg xmlns="http://www.w3.org/2000/svg" xmlns:xlink="http://www.w3.org/1999/xlink" width="64" height="64" viewBox="0 0 64 64">
  <defs>
    <clipPath id="clip-path">
      <rect id="사각형_953" data-name="사각형 953" width="34.419" height="31.548" fill="none"/>
    </clipPath>
  </defs>
  <g id="Iconly_Light-Outline_Setting" data-name="Iconly/Light-Outline/Setting" transform="translate(-2.384 -4.049)">
    <g id="Setting" transform="translate(4.243 4.411)">
      <rect id="사각형_952" data-name="사각형 952" width="64" height="64" transform="translate(-1.859 -0.361)" fill="none"/>
      <g id="그룹_1546" data-name="그룹 1546" transform="translate(1.211 0.182)">
        <g id="그룹_1545" data-name="그룹 1545" transform="translate(1.257 4.67)">
          <g id="Combined-Shape" transform="translate(-2.617 -3.842)" fill="none" fill-rule="evenodd">
            <path d="M22.352,20.017A5.285,5.285,0,1,1,17.067,25.3,5.293,5.293,0,0,1,22.352,20.017Z" stroke="none"/>
            <path d="M 22.3523063659668 20.01691436767578 C 19.43805694580078 20.01691436767578 17.0670166015625 22.3895149230957 17.0670166015625 25.30376434326172 C 17.0670166015625 28.21801376342773 19.43805694580078 30.58750343322754 22.3523063659668 30.58750343322754 C 25.26655578613281 30.58750343322754 27.63759613037109 28.21801376342773 27.63759613037109 25.30376434326172 C 27.63759613037109 22.3895149230957 25.26655578613281 20.01691436767578 22.3523063659668 20.01691436767578 M 22.3523063659668 17.51691436767578 C 26.64512634277344 17.51691436767578 30.13759613037109 21.01008415222168 30.13759613037109 25.30376434326172 C 30.13759613037109 29.59573364257812 26.64512634277344 33.08750152587891 22.3523063659668 33.08750152587891 C 18.05948638916016 33.08750152587891 14.5670166015625 29.59573364257812 14.5670166015625 25.30376434326172 C 14.5670166015625 21.01008415222168 18.05948638916016 17.51691436767578 22.3523063659668 17.51691436767578 Z" stroke="none" fill="#000"/>
          </g>
          <g id="Combined-Shape-2" data-name="Combined-Shape" transform="translate(-4.081 -5.091)" fill="none" fill-rule="evenodd">
            <path d="M25.325,5.091H22.29a2.787,2.787,0,0,0-2.8,2.807,6.484,6.484,0,0,1-6.45,6.392A6.25,6.25,0,0,1,9.9,13.413a2.821,2.821,0,0,0-3.817,1.056l-1.64,2.7a2.812,2.812,0,0,0,1.046,3.8,6.45,6.45,0,0,1,0,11.171,2.8,2.8,0,0,0-1.02,3.815l1.528,2.635a2.824,2.824,0,0,0,3.861,1.124,6.423,6.423,0,0,1,4.856-.642,6.463,6.463,0,0,1,3.9,3.006,6.208,6.208,0,0,1,.86,3.1,2.824,2.824,0,0,0,2.819,2.836h3.035a2.822,2.822,0,0,0,2.819-2.8,6.426,6.426,0,0,1,6.46-6.44,6.6,6.6,0,0,1,3.105.857,2.835,2.835,0,0,0,3.851-1.02l1.608-2.681a2.8,2.8,0,0,0-1.032-3.808A6.387,6.387,0,0,1,39.128,28.2a6.469,6.469,0,0,1,.656-4.89,6.392,6.392,0,0,1,2.352-2.347,2.824,2.824,0,0,0,1.01-3.822,1.352,1.352,0,0,1-.085-.167l-1.419-2.461A2.822,2.822,0,0,0,37.8,13.474a6.427,6.427,0,0,1-8.788-2.3,6.186,6.186,0,0,1-.87-3.115,2.89,2.89,0,0,0-.8-2.117A2.829,2.829,0,0,0,25.325,5.091Z" stroke="none"/>
            <path d="M 22.28971672058105 5.090576171875 C 21.53885650634766 5.090576171875 20.83642768859863 5.383655548095703 20.30597686767578 5.911685943603516 C 19.77795791625977 6.442127227783203 19.48971748352051 7.146976470947266 19.49456787109375 7.897834777832031 C 19.44369697570801 11.43900680541992 16.54923629760742 14.28986740112305 13.04440689086914 14.28986740112305 C 11.92052841186523 14.27775573730469 10.83782577514648 13.9749870300293 9.898036956787109 13.41304779052734 C 8.577964782714844 12.66218185424805 6.853408813476562 13.12481307983398 6.080745697021484 14.4691047668457 L 4.440956115722656 17.16494750976562 C 3.690097808837891 18.46806716918945 4.150306701660156 20.1901969909668 5.487327575683594 20.96771621704102 C 7.471057891845703 22.11580657958984 8.708766937255859 24.25697708129883 8.708766937255859 26.55316543579102 C 8.708766937255859 28.84935569763184 7.471057891845703 30.98810577392578 5.482479095458984 32.13862609863281 C 4.152729034423828 32.90886688232422 3.692516326904297 34.62131500244141 4.462757110595703 35.95349884033203 L 5.991127014160156 38.58878707885742 C 6.368988037109375 39.26939392089844 6.986625671386719 39.7611083984375 7.701156616210938 39.96213531494141 C 8.413261413574219 40.16074371337891 9.198047637939453 40.07597351074219 9.852016448974609 39.71265411376953 C 10.81360626220703 39.14829635620117 11.93263626098633 38.85521697998047 13.0565185546875 38.85521697998047 C 13.61118698120117 38.85521697998047 14.16585540771484 38.92545700073242 14.70841598510742 39.07078552246094 C 16.34578704833984 39.51161575317383 17.767578125 40.60642623901367 18.61047744750977 42.07666778564453 C 19.15788650512695 42.99950408935547 19.46065711975098 44.07735443115234 19.47034645080566 45.17700576782227 C 19.47034645080566 46.75139617919922 20.73469734191895 48.01332473754883 22.28971672058105 48.01332473754883 L 25.32465744018555 48.01332473754883 C 26.87240791320801 48.01332473754883 28.13676643371582 46.7586669921875 28.14402770996094 45.21091461181641 C 28.13433647155762 43.50088500976562 28.8028564453125 41.87562561035156 30.02603721618652 40.65244674682617 C 31.23225593566895 39.44621658325195 32.91804885864258 38.72199249267578 34.60387802124023 38.77044677734375 C 35.70837783813477 38.79708480834961 36.77169799804688 39.09500503540039 37.70905685424805 39.62788391113281 C 39.05818557739258 40.40054702758789 40.78032684326172 39.94033813476562 41.56026840209961 38.608154296875 L 43.16855621337891 35.92684555053711 C 43.52703857421875 35.3092041015625 43.63118743896484 34.53412628173828 43.43984603881836 33.81959533691406 C 43.25091552734375 33.10505676269531 42.77617645263672 32.4849853515625 42.13673782348633 32.11924743652344 C 40.63984680175781 31.25696563720703 39.57168579101562 29.86665534973145 39.12843704223633 28.20022583007812 C 38.69002532958984 26.56527709960938 38.92981719970703 24.7801570892334 39.78483581542969 23.30991554260254 C 40.3419189453125 22.34106636047363 41.15818786621094 21.52480697631836 42.13673782348633 20.96286773681641 C 43.44952774047852 20.19504547119141 43.90973663330078 18.47775650024414 43.14676666259766 17.14072799682617 C 43.11527633666992 17.08743667602539 43.08621597290039 17.0317268371582 43.06198883056641 16.97360610961914 L 41.64261627197266 14.5127067565918 C 40.86995697021484 13.16841506958008 39.15022659301758 12.70578384399414 37.80109786987305 13.47360610961914 C 36.34297943115234 14.33588790893555 34.60871887207031 14.58295059204102 32.94228744506836 14.14453506469727 C 31.27827644348145 13.71339797973633 29.88312721252441 12.65976715087891 29.01357650756836 11.17257690429688 C 28.45648765563965 10.24246597290039 28.15371704101562 9.159774780273438 28.14402770996094 8.057697296142578 C 28.16582679748535 7.229324340820312 27.87516784667969 6.485736846923828 27.34714698791504 5.940746307373047 C 26.82153701782227 5.398185729980469 26.08278656005859 5.090576171875 25.32465744018555 5.090576171875 L 22.28971672058105 5.090576171875 M 22.28971672058105 2.590576171875 L 25.32465744018555 2.590576171875 C 26.75947761535645 2.590576171875 28.15110778808594 3.177646636962891 29.14273643493652 4.201244354248047 C 30.13701438903809 5.227470397949219 30.66909790039062 6.598857879638672 30.64435195922852 8.068126678466797 C 30.65558815002441 8.716331481933594 30.83300590515137 9.344886779785156 31.15829658508301 9.887996673583984 L 31.1717472076416 9.91070556640625 C 31.70166778564453 10.8170280456543 32.55313873291016 11.46115493774414 33.56932830810547 11.72444534301758 L 33.578369140625 11.726806640625 C 33.90719604492188 11.81331634521484 34.24344635009766 11.85718536376953 34.57778930664062 11.85718536376953 C 35.26161956787109 11.85718536376953 35.93617630004883 11.67202758789062 36.52854919433594 11.32171630859375 L 36.56452941894531 11.30084609985352 C 37.36681747436523 10.84424591064453 38.27751922607422 10.60289764404297 39.19818878173828 10.60289764404297 C 41.09844589233398 10.60289764404297 42.86562728881836 11.62368774414062 43.81009674072266 13.26690673828125 L 45.30775833129883 15.863525390625 L 45.33921432495117 15.93898773193359 C 46.74780654907227 18.45402908325195 45.88312530517578 21.66789436340332 43.39889526367188 23.1208667755127 L 43.38170623779297 23.13082695007324 C 42.78582763671875 23.4730167388916 42.29148864746094 23.96585655212402 41.95210647583008 24.55607604980469 L 41.94595718383789 24.56671524047852 C 41.42247772216797 25.46686553955078 41.2756462097168 26.55522537231445 41.54312896728516 27.55272674560547 L 41.54443740844727 27.55759620666504 C 41.81465148925781 28.57351303100586 42.46710586547852 29.42349624633789 43.38187026977539 29.95137977600098 C 44.59538269042969 30.64691925048828 45.49703979492188 31.82266998291016 45.85612869262695 33.17804718017578 C 46.21596145629883 34.52733993530273 46.02458572387695 35.98637008666992 45.33075714111328 37.18179702758789 L 45.31246566772461 37.21279525756836 L 43.7094841003418 39.88526153564453 C 42.75717544555664 41.50041961669922 40.99860000610352 42.50301742553711 39.11590576171875 42.50301742553711 C 38.18994140625 42.50301742553711 37.27484130859375 42.25952911376953 36.4693717956543 41.79887771606445 C 35.88753890991211 41.46904754638672 35.22172927856445 41.28607940673828 34.54359817504883 41.26971435546875 L 34.53200531005859 41.26941680908203 C 34.50277709960938 41.26857757568359 34.47360610961914 41.26815795898438 34.44438934326172 41.26815795898438 C 33.50604629516602 41.2681770324707 32.51516723632812 41.69884490966797 31.79380798339844 42.42020416259766 C 31.04642677307129 43.16759490966797 30.63807678222656 44.15365600585938 30.64398765563965 45.19674682617188 L 30.64405632019043 45.20969772338867 L 30.64399719238281 45.2226448059082 C 30.63031768798828 48.13993453979492 28.24406814575195 50.51332473754883 25.32465744018555 50.51332473754883 L 22.28971672058105 50.51332473754883 C 19.36126136779785 50.51332473754883 16.9779224395752 48.12680816650391 16.97036552429199 45.19076156616211 C 16.96317863464355 44.53828048706055 16.78688621520996 43.90266799926758 16.46030807495117 43.35210418701172 L 16.44162750244141 43.32008743286133 C 15.92734718322754 42.42304611206055 15.0587272644043 41.75412750244141 14.05848693847656 41.48482513427734 C 13.73844909667969 41.39910507202148 13.40029907226562 41.35521697998047 13.0565185546875 41.35521697998047 C 12.37031555175781 41.35521697998047 11.68167877197266 41.53759765625 11.11743545532227 41.86874389648438 L 11.06610870361328 41.89805603027344 C 10.27866744995117 42.33551788330078 9.380996704101562 42.56674575805664 8.470138549804688 42.56674575805664 C 7.981746673583984 42.56674575805664 7.497058868408203 42.50062561035156 7.029518127441406 42.37022399902344 L 7.024078369140625 42.36870574951172 C 5.681438446044922 41.99095153808594 4.514533996582031 41.06488800048828 3.818473815917969 39.82569885253906 L 2.300148010253906 37.20772552490234 C 0.8389968872070312 34.68058776855469 1.705215454101562 31.43744659423828 4.229415893554688 29.9753360748291 C 5.450748443603516 29.26871681213379 6.208766937255859 27.95766639709473 6.208766937255859 26.55316543579102 C 6.208766937255859 25.14717674255371 5.452487945556641 23.83605575561523 4.23504638671875 23.13146591186523 L 4.230556488037109 23.12885665893555 C 1.706516265869141 21.66104698181152 0.8291664123535156 18.42573547363281 2.274818420410156 15.91681671142578 L 2.305057525634766 15.86574554443359 L 3.931327819824219 13.19213104248047 C 4.882015228271484 11.56402587890625 6.642597198486328 10.55408477783203 8.534938812255859 10.55408477783203 C 9.446418762207031 10.55408477783203 10.34518814086914 10.79126739501953 11.13406753540039 11.23997497558594 L 11.18102645874023 11.26736450195312 C 11.73685455322266 11.5997200012207 12.38547515869141 11.7802619934082 13.05760955810547 11.78984451293945 C 15.19232940673828 11.78257369995117 16.95319366455078 10.03367614746094 16.99450492858887 7.881195068359375 C 16.99387359619141 6.471454620361328 17.53989219665527 5.146793365478516 18.53417778015137 4.147964477539062 L 18.54225730895996 4.139884948730469 C 19.54591751098633 3.140796661376953 20.87679672241211 2.590576171875 22.28971672058105 2.590576171875 Z" stroke="none" fill="#000"/>
          </g>
        </g>
        <g id="그룹_1544" data-name="그룹 1544" transform="translate(24.397 27.878)">
          <path id="패스_3397" data-name="패스 3397" d="M15.8,2.116,1.475,27.9l1.471,2.5H31.588l1.686-1.682L17.987,1.251" transform="translate(-0.057 -0.049)" fill="#fff"/>
          <g id="그룹_1543" data-name="그룹 1543" transform="translate(0 0)">
            <g id="그룹_1542" data-name="그룹 1542" clip-path="url(#clip-path)">
              <path id="패스_3398" data-name="패스 3398" d="M31.58,30.4H2.937a1.682,1.682,0,0,1-1.471-2.5L15.787,2.116a1.682,1.682,0,0,1,2.941,0L33.05,27.9a1.682,1.682,0,0,1-1.471,2.5Z" transform="translate(-0.049 -0.049)" fill="#fff"/>
              <path id="패스_3399" data-name="패스 3399" d="M17.209,2.4a.451.451,0,0,0-.42.248L2.465,28.431a.481.481,0,0,0,.42.714H31.531a.481.481,0,0,0,.421-.714L17.629,2.651a.451.451,0,0,0-.42-.248m0-2.4a2.855,2.855,0,0,1,2.52,1.483L34.053,27.264a2.884,2.884,0,0,1-2.521,4.284H2.888A2.883,2.883,0,0,1,.367,27.264L14.689,1.483A2.855,2.855,0,0,1,17.209,0" transform="translate(0 0)" fill="#070303"/>
              <path id="패스_3400" data-name="패스 3400" d="M18.347,11.823h0a1.442,1.442,0,0,1,1.442,1.442v6.728a1.442,1.442,0,1,1-2.883,0V13.265a1.442,1.442,0,0,1,1.442-1.442" transform="translate(-0.657 -0.459)" fill="#070303"/>
              <path id="패스_3401" data-name="패스 3401" d="M18.347,23.823a1.442,1.442,0,1,1-1.442,1.442,1.442,1.442,0,0,1,1.442-1.442" transform="translate(-0.657 -0.925)" fill="#070303"/>
            </g>
          </g>
        </g>
      </g>
    </g>
  </g>
</svg>
