<svg xmlns="http://www.w3.org/2000/svg" width="140" height="140" viewBox="0 0 140 140">
  <g id="booking_img03" transform="translate(-422 -314)">
    <circle id="타원_37" data-name="타원 37" cx="70" cy="70" r="70" transform="translate(422 314)" fill="#fbf5ff"/>
    <g id="그룹_434" data-name="그룹 434" transform="translate(-705 -2)">
      <g id="사각형_355" data-name="사각형 355" transform="translate(1167 364)" fill="#fff" stroke="#000" stroke-width="1.5">
        <rect width="60" height="42" rx="2" stroke="none"/>
        <rect x="0.75" y="0.75" width="58.5" height="40.5" rx="1.25" fill="none"/>
      </g>
      <circle id="타원_98" data-name="타원 98" cx="1.5" cy="1.5" r="1.5" transform="translate(1171 367)" fill="#ff8d8d"/>
      <path id="패스_207" data-name="패스 207" d="M1.5,0A1.5,1.5,0,1,1,0,1.5,1.5,1.5,0,0,1,1.5,0Z" transform="translate(1176 367)" fill="#ffe457"/>
      <path id="패스_215" data-name="패스 215" d="M1.5,0A1.5,1.5,0,1,1,0,1.5,1.5,1.5,0,0,1,1.5,0Z" transform="translate(1181 367)" fill="#9ee37a"/>
      <g id="패스_210" data-name="패스 210" transform="translate(1167 371.448)" fill="#ededed">
        <path d="M 58 35.80224990844727 L 1.999998331069946 35.80224990844727 C 1.310748338699341 35.80224990844727 0.7499982714653015 35.17415237426758 0.7499982714653015 34.4021110534668 L 0.7499982714653015 2.201873540878296 C 0.7648522853851318 2.035838603973389 0.7683957815170288 1.731579661369324 0.7689882516860962 1.066611647605896 C 0.7690908312797546 0.9517442584037781 0.7691847085952759 0.8466302156448364 0.7691164016723633 0.7504397034645081 L 59.25032043457031 0.7830142974853516 C 59.25030517578125 0.8209167718887329 59.25029373168945 0.8596813082695007 59.25027847290039 0.8991716504096985 L 59.25 2.15015172958374 L 59.25 34.4021110534668 C 59.25 35.17415237426758 58.68924713134766 35.80224990844727 58 35.80224990844727 Z" stroke="none"/>
        <path d="M 1.51824951171875 1.500858306884766 C 1.516986846923828 1.845142364501953 1.513248443603516 2.071334838867188 1.5 2.239158630371094 L 1.5 34.4021110534668 C 1.5 34.75452041625977 1.728969573974609 35.05224227905273 2 35.05224227905273 L 58 35.05224227905273 C 58.27102661132812 35.05224227905273 58.5 34.75452041625977 58.5 34.4021110534668 L 58.50013732910156 1.532596588134766 L 1.51824951171875 1.500858306884766 M 0.000530242919921875 -0.000270843505859375 C 0.000705718994140625 -0.000270843505859375 0.000881195068359375 -0.00017547607421875 0.001056671142578125 1.1444091796875e-05 L 0 1.1444091796875e-05 C 0.000179290771484375 -0.000179290771484375 0.000354766845703125 -0.000270843505859375 0.000530242919921875 -0.000270843505859375 Z M 0 1.1444091796875e-05 L 60 0.0334320068359375 C 60 0.0334320068359375 60 0.0334320068359375 60 0.0334320068359375 C 60.0009765625 0.03340530395507812 60 0.963531494140625 60 2.150142669677734 L 60 34.4021110534668 C 60 35.58959197998047 59.10456848144531 36.55224227905273 58 36.55224227905273 L 2 36.55224227905273 C 0.8954277038574219 36.55224227905273 0 35.58959197998047 0 34.4021110534668 L 0 2.150142669677734 C 0.02313995361328125 2.150142669677734 0.02709197998046875 0.02830123901367188 0.001056671142578125 1.1444091796875e-05 Z" stroke="none" fill="#000"/>
      </g>
      <rect id="사각형_356" data-name="사각형 356" width="17" height="11" rx="2" transform="translate(1176 392)" fill="#c3c3c3"/>
      <rect id="사각형_357" data-name="사각형 357" width="22" height="1" rx="0.5" transform="translate(1196 393)" fill="#c3c3c3"/>
      <rect id="사각형_358" data-name="사각형 358" width="22" height="1" rx="0.5" transform="translate(1196 397)" fill="#c3c3c3"/>
      <rect id="사각형_359" data-name="사각형 359" width="22" height="1" rx="0.5" transform="translate(1196 401)" fill="#c3c3c3"/>
      <g id="사각형_354" data-name="사각형 354" transform="translate(1174 377)" fill="#fff" stroke="#000" stroke-width="1.5">
        <rect width="46" height="12" rx="2" stroke="none"/>
        <rect x="0.75" y="0.75" width="44.5" height="10.5" rx="1.25" fill="none"/>
      </g>
      <g id="패스_209" data-name="패스 209" transform="translate(1186.3 378.2)" fill="#fff" stroke-linecap="round" stroke-linejoin="round">
        <path d="M 12.22475337982178 18.27334976196289 L 11.93445301055908 17.58181953430176 L 10.71180534362793 14.66940116882324 L 9.721282958984375 15.62690925598145 L 8.450013160705566 16.85581016540527 L 8.450013160705566 15.08766937255859 L 8.450013160705566 7.299989700317383 L 8.450013160705566 5.489329814910889 L 9.730342864990234 6.769659519195557 L 15.43204307556152 12.47135925292969 L 16.71237373352051 13.75168991088867 L 14.90171337127686 13.75168991088867 L 13.46166610717773 13.75168991088867 L 14.59983348846436 16.46290016174316 L 14.89014339447021 17.15444946289062 L 14.19859313964844 17.44474983215332 L 12.91628360748291 17.9830493927002 L 12.22475337982178 18.27334976196289 Z" stroke="none"/>
        <path d="M 12.62598323822021 17.2915096282959 L 13.90829372406006 16.75321006774902 L 12.33340358734131 13.00168991088867 L 14.90171337127686 13.00168991088867 L 9.200013160705566 7.299989700317383 L 9.200013160705566 15.08766937255859 L 10.97890281677246 13.36806964874268 L 12.62598323822021 17.2915096282959 M 12.62662506103516 18.79190063476562 C 12.04056358337402 18.79190063476562 11.48397541046143 18.44636154174805 11.24291324615479 17.87212944030762 L 10.44470024108887 15.97074031829834 L 10.2425537109375 16.1661491394043 C 9.809661865234375 16.5846004486084 9.16853141784668 16.70367622375488 8.614263534545898 16.46858024597168 C 8.060003280639648 16.23346900939941 7.700013160705566 15.68973922729492 7.700013160705566 15.08766937255859 L 7.700013160705566 7.299989700317383 C 7.700013160705566 6.693299770355225 8.065473556518555 6.146339893341064 8.625983238220215 5.914169788360596 C 9.186501502990723 5.682000637054443 9.831672668457031 5.810328483581543 10.26067352294922 6.239329814910889 L 15.96237373352051 11.94102954864502 C 16.39137268066406 12.37002944946289 16.51970291137695 13.01519966125488 16.28753280639648 13.57571983337402 C 16.05536270141602 14.13622951507568 15.50840282440186 14.50168991088867 14.90171337127686 14.50168991088867 L 14.58991432189941 14.50168991088867 L 15.29136371612549 16.17259979248047 C 15.44535350799561 16.53940963745117 15.44732284545898 16.95237922668457 15.29682350158691 17.32064056396484 C 15.14633369445801 17.68889999389648 14.855712890625 17.9822998046875 14.48889350891113 18.13628959655762 L 13.20658302307129 18.67458915710449 C 13.01697540283203 18.75418472290039 12.82013988494873 18.79190063476562 12.62662506103516 18.79190063476562 Z" stroke="none" fill="#000"/>
      </g>
      <line id="선_28" data-name="선 28" y2="2.5" transform="translate(1193.413 380.513) rotate(-22)" fill="none" stroke="#000" stroke-linecap="round" stroke-width="1.5"/>
      <line id="선_29" data-name="선 29" y2="2.5" transform="translate(1197.783 380.491) rotate(23)" fill="none" stroke="#000" stroke-linecap="round" stroke-width="1.5"/>
      <line id="선_30" data-name="선 30" y2="2.5" transform="translate(1190.253 383.532) rotate(-67)" fill="none" stroke="#000" stroke-linecap="round" stroke-width="1.5"/>
    </g>
  </g>
</svg>
