<svg xmlns="http://www.w3.org/2000/svg" width="48" height="48" viewBox="0 0 48 48">
    <defs>
        <clipPath id="clip-path">
            <path id="사각형_237" data-name="사각형 237" style="fill:none" d="M0 0h34.5v25.5H0z"/>
        </clipPath>
        <style>
            .cls-4{fill:none;stroke:#000;stroke-width:1.5px;stroke-linecap:round;stroke-linejoin:round}
        </style>
    </defs>
    <g id="icon_pc" transform="translate(6 11)">
        <g id="그룹_349" data-name="그룹 349" transform="translate(1)" style="clip-path:url(#clip-path)">
            <path id="패스_110" data-name="패스 110" class="cls-4" d="M2.25 6.969h20a1.5 1.5 0 0 1 1.5 1.5v10a1.5 1.5 0 0 1-1.5 1.5h-20a1.5 1.5 0 0 1-1.5-1.5v-10a1.5 1.5 0 0 1 1.5-1.5zm5.5 17.281 4.528-1 4.472 1m-4.5-4v3"/>
            <path id="패스_111" data-name="패스 111" class="cls-4" d="M19.75 6.158V1.781A1.1 1.1 0 0 1 20.905.75H32.6a1.1 1.1 0 0 1 1.15 1.031V21.72a1.1 1.1 0 0 1-1.15 1.031H20.905a1.1 1.1 0 0 1-1.155-1.032v-1.537"/>
            <path id="패스_112" data-name="패스 112" d="M27.25 17.75a1 1 0 1 1-1 1 1 1 0 0 1 1-1" style="fill-rule:evenodd"/>
            <path id="선_24" data-name="선 24" transform="translate(24.625 8.625)" style="stroke-linecap:square;stroke:#000;stroke-width:1.5px;fill:none" d="M0 0h9"/>
            <path id="패스_113" data-name="패스 113" d="M31.75 22.75v2m-10-2v2" style="stroke-linecap:round;stroke:#000;stroke-width:1.5px;fill:none"/>
        </g>
    </g>
</svg>
