<svg xmlns="http://www.w3.org/2000/svg" xmlns:xlink="http://www.w3.org/1999/xlink" width="149" height="149" viewBox="0 0 149 149">
  <defs>
    <clipPath id="clip-path">
      <rect id="사각형_712" data-name="사각형 712" width="149" height="149" transform="translate(-0.385)" fill="none"/>
    </clipPath>
  </defs>
  <g id="그룹_1046" data-name="그룹 1046" transform="translate(0.385)">
    <path id="패스_613" data-name="패스 613" d="M102.159,48.349H34.239l-23.09,36.2h114.1Z" transform="translate(5.887 26.502)" fill="#fff"/>
    <path id="패스_614" data-name="패스 614" d="M102.159,48.349H34.239l-23.09,36.2h114.1Z" transform="translate(5.887 26.502)" fill="none" stroke="#000" stroke-linecap="round" stroke-linejoin="round" stroke-width="2.5"/>
    <path id="패스_615" data-name="패스 615" d="M28.273,55.317h0Z" transform="translate(15.274 30.321)" fill="#fff"/>
    <line id="선_180" data-name="선 180" x2="21.756" transform="translate(43.546 85.638)" fill="none" stroke="#000" stroke-linecap="round" stroke-linejoin="round" stroke-width="2.5"/>
    <path id="패스_616" data-name="패스 616" d="M56.109,58.606h0Z" transform="translate(30.531 32.124)" fill="#fff"/>
    <line id="선_181" data-name="선 181" x2="21.756" transform="translate(86.639 90.73)" fill="none" stroke="#000" stroke-linecap="round" stroke-linejoin="round" stroke-width="2.5"/>
    <path id="패스_617" data-name="패스 617" d="M25.438,63.465h0Z" transform="translate(13.72 34.787)" fill="#fff"/>
    <line id="선_182" data-name="선 182" x2="21.756" transform="translate(39.158 98.253)" fill="none" stroke="#000" stroke-linecap="round" stroke-linejoin="round" stroke-width="2.5"/>
    <line id="선_183" data-name="선 183" x2="5.669" y2="14.652" transform="translate(95.486 84.442)" fill="#fff"/>
    <line id="선_184" data-name="선 184" x2="5.669" y2="14.652" transform="translate(95.486 84.442)" fill="none" stroke="#000" stroke-linecap="round" stroke-linejoin="round" stroke-width="2.5"/>
    <rect id="사각형_710" data-name="사각형 710" width="114.1" height="14.385" transform="translate(17.037 111.051)" fill="#fff"/>
    <rect id="사각형_711" data-name="사각형 711" width="114.1" height="14.385" transform="translate(17.037 111.051)" fill="none" stroke="#000" stroke-linecap="round" stroke-linejoin="round" stroke-width="2.5"/>
    <g id="그룹_1045" data-name="그룹 1045" transform="translate(0)">
      <g id="그룹_1044" data-name="그룹 1044" transform="translate(0)" clip-path="url(#clip-path)">
        <path id="패스_618" data-name="패스 618" d="M32.592,30.824s.274,2-.834,2.708a4.133,4.133,0,0,1-2.418.562" transform="translate(15.858 16.896)" fill="none" stroke="#000" stroke-linecap="round" stroke-linejoin="round" stroke-width="2.5"/>
        <path id="패스_619" data-name="패스 619" d="M34.741,34.077s-2,.274-2.708-.834a4.133,4.133,0,0,1-.562-2.418" transform="translate(17.02 16.896)" fill="none" stroke="#000" stroke-linecap="round" stroke-linejoin="round" stroke-width="2.5"/>
        <path id="패스_620" data-name="패스 620" d="M32.592,36.226s.274-2-.834-2.706a4.134,4.134,0,0,0-2.418-.564" transform="translate(15.858 18.058)" fill="none" stroke="#000" stroke-linecap="round" stroke-linejoin="round" stroke-width="2.5"/>
        <path id="패스_621" data-name="패스 621" d="M34.741,32.975s-2-.274-2.708.834a4.133,4.133,0,0,0-.562,2.418" transform="translate(17.02 18.058)" fill="none" stroke="#000" stroke-linecap="round" stroke-linejoin="round" stroke-width="2.5"/>
        <path id="패스_622" data-name="패스 622" d="M24.43,15.562s.546,4-1.669,5.415A8.29,8.29,0,0,1,17.926,22.1" transform="translate(9.602 8.53)" fill="none" stroke="#000" stroke-linecap="round" stroke-linejoin="round" stroke-width="2.5"/>
        <path id="패스_623" data-name="패스 623" d="M28.73,22.066s-4,.546-5.415-1.669a8.29,8.29,0,0,1-1.124-4.835" transform="translate(11.926 8.53)" fill="none" stroke="#000" stroke-linecap="round" stroke-linejoin="round" stroke-width="2.5"/>
        <path id="패스_624" data-name="패스 624" d="M24.43,26.366s.546-4-1.669-5.415a8.29,8.29,0,0,0-4.835-1.124" transform="translate(9.602 10.854)" fill="none" stroke="#000" stroke-linecap="round" stroke-linejoin="round" stroke-width="2.5"/>
        <path id="패스_625" data-name="패스 625" d="M28.73,19.862s-4-.546-5.415,1.669a8.29,8.29,0,0,0-1.124,4.835" transform="translate(11.926 10.854)" fill="none" stroke="#000" stroke-linecap="round" stroke-linejoin="round" stroke-width="2.5"/>
        <path id="패스_626" data-name="패스 626" d="M79.818,18.387s-5.292-3.593-12.311,1.886-13.552-5.3-19.05,9.759C43.211,44.4,41.623,47.005,46.085,54.539s8.436,3.6,10.6,11.3,10.23,6.505,15.065,3.15c9.824-6.818,16.774-.667,22.357-7.318a13.754,13.754,0,0,0,2.876-9.993" transform="translate(23.61 9.444)" fill="#fff"/>
        <path id="패스_627" data-name="패스 627" d="M79.818,18.387s-5.292-3.593-12.311,1.886-13.552-5.3-19.05,9.759C43.211,44.4,41.623,47.005,46.085,54.539s8.436,3.6,10.6,11.3,10.23,6.505,15.065,3.15c9.824-6.818,16.774-.667,22.357-7.318a13.754,13.754,0,0,0,2.876-9.993" transform="translate(23.61 9.444)" fill="none" stroke="#000" stroke-linecap="round" stroke-width="2.5"/>
        <path id="패스_628" data-name="패스 628" d="M79.75,49.824s-1.339,1.492-3.341,3.7c-3.119,3.44-8.018,8.789-8.716,9.252-1.076.709-3.219.912-5.827-1.273s-.359-3.022-1.4-3.743-3.6-1.641-3.664-3.411.128-3.545-.537-4.406-2.465-1.81-2.65-3.448,1.547-2.711.864-4.078-4.251-2.249-2.322-4.849S62.791,27.2,65.3,26.6s11.167-2.548,12.89-3.875,7.744-6.222,8.894-5.883S99.447,33.728,97.525,36.578s-4.63,1.3-7.3,4.435S87.364,53,84.675,55.628s-4.833,2.83-6.271,1.489-.734-2.881-.415-4.538" transform="translate(28.056 9.223)" fill="#fff"/>
        <path id="패스_629" data-name="패스 629" d="M79.75,49.824s-1.339,1.492-3.341,3.7c-3.119,3.44-8.018,8.789-8.716,9.252-1.076.709-3.219.912-5.827-1.273s-.359-3.022-1.4-3.743-3.6-1.641-3.664-3.411.128-3.545-.537-4.406-2.465-1.81-2.65-3.448,1.547-2.711.864-4.078-4.251-2.249-2.322-4.849S62.791,27.2,65.3,26.6s11.167-2.548,12.89-3.875,7.744-6.222,8.894-5.883S99.447,33.728,97.525,36.578s-4.63,1.3-7.3,4.435S87.364,53,84.675,55.628s-4.833,2.83-6.271,1.489-.734-2.881-.415-4.538" transform="translate(28.056 9.223)" fill="none" stroke="#000" stroke-linecap="round" stroke-width="2.5"/>
      </g>
    </g>
  </g>
</svg>
