<svg id="그룹_990" data-name="그룹 990" xmlns="http://www.w3.org/2000/svg" xmlns:xlink="http://www.w3.org/1999/xlink" width="96" height="96" viewBox="0 0 96 96">
  <defs>
    <clipPath id="clip-path">
      <rect id="사각형_661" data-name="사각형 661" width="96" height="96" fill="none"/>
    </clipPath>
  </defs>
  <g id="그룹_989" data-name="그룹 989" clip-path="url(#clip-path)">
    <path id="패스_366" data-name="패스 366" d="M38,47.5H62v6a2,2,0,0,1-2,2H40a2,2,0,0,1-2-2Z" fill="#fff"/>
    <path id="패스_367" data-name="패스 367" d="M40.5,48.75h19A1.25,1.25,0,0,1,60.75,50v3.5a.75.75,0,0,1-.75.75H40a.75.75,0,0,1-.75-.75V50A1.25,1.25,0,0,1,40.5,48.75Z" fill="none" stroke="#000" stroke-width="2.5"/>
    <line id="선_107" data-name="선 107" y2="6" transform="translate(55.75 49)" fill="none" stroke="#000" stroke-width="2.5"/>
    <path id="패스_368" data-name="패스 368" d="M42,53H58V66a2,2,0,0,1-2,2H44a2,2,0,0,1-2-2Z" fill="#fff"/>
    <path id="패스_369" data-name="패스 369" d="M44.5,54.25h11a1.25,1.25,0,0,1,1.25,1.25V66a.75.75,0,0,1-.75.75H44a.75.75,0,0,1-.75-.75V55.5A1.25,1.25,0,0,1,44.5,54.25Z" fill="none" stroke="#000" stroke-width="2.5"/>
    <line id="선_108" data-name="선 108" y2="13" transform="translate(52 54.5)" fill="none" stroke="#000" stroke-width="2.5"/>
    <path id="패스_370" data-name="패스 370" d="M35,4H65a4,4,0,0,1,4,4V48a2,2,0,0,1-2,2H33a2,2,0,0,1-2-2V8a4,4,0,0,1,4-4" fill="#fff"/>
    <path id="패스_371" data-name="패스 371" d="M35,5.25H65A2.75,2.75,0,0,1,67.75,8V48a.75.75,0,0,1-.75.75H33a.75.75,0,0,1-.75-.75V8A2.75,2.75,0,0,1,35,5.25Z" fill="none" stroke="#000" stroke-width="2.5"/>
    <line id="선_109" data-name="선 109" y2="44" transform="translate(58.75 5)" fill="none" stroke="#000" stroke-width="2.5"/>
    <path id="패스_372" data-name="패스 372" d="M36,39A11,11,0,1,1,25,50,11,11,0,0,1,36,39" fill="#fff"/>
    <circle id="타원_129" data-name="타원 129" cx="9.75" cy="9.75" r="9.75" transform="translate(26.25 40.25)" fill="none" stroke="#000" stroke-width="2.5"/>
    <line id="선_110" data-name="선 110" y1="3.719" x2="2.874" transform="translate(29.5 54.281)" fill="none" stroke="#000" stroke-width="2.5"/>
    <circle id="타원_130" data-name="타원 130" cx="4.75" cy="4.75" r="4.75" transform="translate(31.25 45.25)" fill="none" stroke="#000" stroke-width="2.5"/>
    <line id="선_111" data-name="선 111" y1="3.781" x2="2.922" transform="translate(39.328 41.5)" fill="none" stroke="#000" stroke-width="2.5"/>
    <path id="패스_373" data-name="패스 373" d="M35.14,47.293c.114.077.019.418-.212.762s-.512.559-.627.482-.019-.419.212-.762S35.026,47.216,35.14,47.293Z" fill="none" stroke="#000" stroke-width="2.5"/>
    <path id="패스_374" data-name="패스 374" d="M36.807,52.686a.25.25,0,1,1-.347.067A.25.25,0,0,1,36.807,52.686Z" fill="none" stroke="#000" stroke-width="2.5"/>
    <path id="패스_375" data-name="패스 375" d="M38.639,47.469a.537.537,0,1,1-.745.145A.536.536,0,0,1,38.639,47.469Z" fill="none" stroke="#000" stroke-width="2.5"/>
    <path id="패스_376" data-name="패스 376" d="M37.689,49.793a.263.263,0,1,1-.424.015A.308.308,0,0,1,37.689,49.793Z" fill="none" stroke="#000" stroke-width="2.5"/>
    <path id="패스_377" data-name="패스 377" d="M35.263,51.391c-.02.08-.279.085-.579.01s-.526-.2-.506-.28.279-.085.579-.011S35.283,51.311,35.263,51.391Z" fill="none" stroke="#000" stroke-width="2.5"/>
    <path id="패스_378" data-name="패스 378" d="M21,25a8,8,0,1,1-8,8,8,8,0,0,1,8-8" fill="#fff"/>
    <circle id="타원_131" data-name="타원 131" cx="6.75" cy="6.75" r="6.75" transform="translate(14.25 26.25)" fill="none" stroke="#000" stroke-width="2.5"/>
    <line id="선_112" data-name="선 112" y1="2.511" x2="1.941" transform="translate(17.039 35.32)" fill="none" stroke="#000" stroke-width="2.5"/>
    <circle id="타원_132" data-name="타원 132" cx="2.75" cy="2.75" r="2.75" transform="translate(18.25 30.25)" fill="none" stroke="#000" stroke-width="2.5"/>
    <line id="선_113" data-name="선 113" y1="2.511" x2="1.941" transform="translate(23.059 28.32)" fill="none" stroke="#000" stroke-width="2.5"/>
    <path id="패스_379" data-name="패스 379" d="M45.5,83.5a4.483,4.483,0,0,1,.256-1.5H45.75l.025-.053a4.415,4.415,0,0,1,.338-.716L50,73l3.887,8.231a4.415,4.415,0,0,1,.338.716L54.25,82h-.006A4.5,4.5,0,1,1,45.5,83.5" fill="#fff"/>
    <path id="패스_380" data-name="패스 380" d="M45.5,83.5a4.483,4.483,0,0,1,.256-1.5H45.75l.025-.053a4.415,4.415,0,0,1,.338-.716L50,73l3.887,8.231a4.415,4.415,0,0,1,.338.716L54.25,82h-.006A4.5,4.5,0,1,1,45.5,83.5Z" fill="none" stroke="#000" stroke-linecap="round" stroke-linejoin="round" stroke-width="2.5"/>
    <path id="패스_381" data-name="패스 381" d="M65.945,65s.5,3.658-1.526,4.95A7.575,7.575,0,0,1,60,70.978" fill="none" stroke="#000" stroke-linecap="round" stroke-linejoin="round" stroke-width="2.5"/>
    <path id="패스_382" data-name="패스 382" d="M72,70.945s-3.658.5-4.95-1.526A7.575,7.575,0,0,1,66.022,65" fill="none" stroke="#000" stroke-linecap="round" stroke-linejoin="round" stroke-width="2.5"/>
    <path id="패스_383" data-name="패스 383" d="M65.945,77s.5-3.658-1.526-4.95A7.575,7.575,0,0,0,60,71.022" fill="none" stroke="#000" stroke-linecap="round" stroke-linejoin="round" stroke-width="2.5"/>
    <path id="패스_384" data-name="패스 384" d="M72,71.055s-3.658-.5-4.95,1.526A7.575,7.575,0,0,0,66.022,77" fill="none" stroke="#000" stroke-linecap="round" stroke-linejoin="round" stroke-width="2.5"/>
  </g>
</svg>
