<svg xmlns="http://www.w3.org/2000/svg" xmlns:xlink="http://www.w3.org/1999/xlink" width="149" height="149" viewBox="0 0 149 149">
  <defs>
    <clipPath id="clip-path">
      <rect id="사각형_666" data-name="사각형 666" width="149" height="149" transform="translate(0.08)" fill="none"/>
    </clipPath>
    <clipPath id="clip-path-2">
      <path id="패스_430" data-name="패스 430" d="M60.041,51.356A1.555,1.555,0,1,0,61.774,50a1.577,1.577,0,0,0-.191-.011,1.557,1.557,0,0,0-1.542,1.366" transform="translate(-60.03 -49.99)" fill="none"/>
    </clipPath>
  </defs>
  <g id="그룹_997" data-name="그룹 997" transform="translate(-0.08)">
    <g id="그룹_994" data-name="그룹 994">
      <g id="그룹_993" data-name="그룹 993" clip-path="url(#clip-path)">
        <rect id="사각형_664" data-name="사각형 664" width="80.034" height="112.669" rx="2.75" transform="translate(12.821 17.483)" fill="none" stroke="#000" stroke-width="2.5"/>
        <line id="선_114" data-name="선 114" x2="80.552" transform="translate(13.21 37.815)" fill="none" stroke="#000" stroke-width="2.5"/>
        <path id="패스_407" data-name="패스 407" d="M48.108,16H58.987a3.108,3.108,0,0,1,0,6.216H48.108a3.108,3.108,0,0,1,0-6.216" transform="translate(24.933 8.865)" fill="#fff"/>
        <path id="패스_408" data-name="패스 408" d="M47.416,17.25H58.294a1.166,1.166,0,0,1,0,2.331H47.416a1.166,1.166,0,0,1,0-2.331Z" transform="translate(25.625 9.558)" fill="none" stroke="#000" stroke-width="2.5"/>
        <path id="패스_409" data-name="패스 409" d="M15.108,16h0A3.108,3.108,0,1,1,12,19.108,3.107,3.107,0,0,1,15.108,16" transform="translate(6.649 8.865)" fill="#fff"/>
        <path id="패스_410" data-name="패스 410" d="M14.416,17.25h0a1.166,1.166,0,1,1-1.166,1.166A1.166,1.166,0,0,1,14.416,17.25Z" transform="translate(7.341 9.558)" fill="none" stroke="#000" stroke-width="2.5"/>
        <path id="패스_411" data-name="패스 411" d="M22.108,16h0A3.108,3.108,0,1,1,19,19.108,3.107,3.107,0,0,1,22.108,16" transform="translate(10.527 8.865)" fill="#fff"/>
        <path id="패스_412" data-name="패스 412" d="M21.416,17.25h0a1.166,1.166,0,1,1-1.166,1.166A1.166,1.166,0,0,1,21.416,17.25Z" transform="translate(11.22 9.558)" fill="none" stroke="#000" stroke-width="2.5"/>
        <path id="패스_413" data-name="패스 413" d="M29.108,16h0A3.108,3.108,0,1,1,26,19.108,3.107,3.107,0,0,1,29.108,16" transform="translate(14.406 8.865)" fill="#fff"/>
        <path id="패스_414" data-name="패스 414" d="M28.416,17.25h0a1.166,1.166,0,1,1-1.166,1.166A1.166,1.166,0,0,1,28.416,17.25Z" transform="translate(15.098 9.558)" fill="none" stroke="#000" stroke-width="2.5"/>
        <circle id="타원_133" data-name="타원 133" cx="30.693" cy="30.693" r="30.693" transform="translate(22.145 51.673)" fill="none" stroke="#000" stroke-width="2.5"/>
        <circle id="타원_134" data-name="타원 134" cx="22.922" cy="22.922" r="22.922" transform="translate(29.916 59.443)" fill="none" stroke="#000" stroke-width="2.5"/>
        <path id="패스_415" data-name="패스 415" d="M33.264,44s.76,5.522-2.3,7.472a11.436,11.436,0,0,1-6.67,1.554" transform="translate(13.459 24.379)" fill="none" stroke="#000" stroke-linecap="round" stroke-linejoin="round" stroke-width="2.5"/>
        <path id="패스_416" data-name="패스 416" d="M38.937,52.973s-5.522.76-7.472-2.3A11.44,11.44,0,0,1,29.915,44" transform="translate(16.557 24.379)" fill="none" stroke="#000" stroke-linecap="round" stroke-linejoin="round" stroke-width="2.5"/>
        <path id="패스_417" data-name="패스 417" d="M33.264,58.646s.76-5.522-2.3-7.472a11.436,11.436,0,0,0-6.67-1.554" transform="translate(13.459 27.474)" fill="none" stroke="#000" stroke-linecap="round" stroke-linejoin="round" stroke-width="2.5"/>
        <path id="패스_418" data-name="패스 418" d="M38.936,49.674s-5.522-.761-7.47,2.3a11.433,11.433,0,0,0-1.551,6.67" transform="translate(16.556 27.476)" fill="none" stroke="#000" stroke-linecap="round" stroke-linejoin="round" stroke-width="2.5"/>
        <path id="패스_419" data-name="패스 419" d="M38.793,55.417S39.26,58.8,37.381,60a7.016,7.016,0,0,1-4.089.951" transform="translate(18.446 30.704)" fill="none" stroke="#000" stroke-linecap="round" stroke-linejoin="round" stroke-width="2.5"/>
        <path id="패스_420" data-name="패스 420" d="M42.272,60.918s-3.385.466-4.581-1.413a7.016,7.016,0,0,1-.951-4.089" transform="translate(20.345 30.704)" fill="none" stroke="#000" stroke-linecap="round" stroke-linejoin="round" stroke-width="2.5"/>
        <path id="패스_421" data-name="패스 421" d="M38.793,64.4s.466-3.385-1.413-4.581a7.016,7.016,0,0,0-4.089-.951" transform="translate(18.446 32.603)" fill="none" stroke="#000" stroke-linecap="round" stroke-linejoin="round" stroke-width="2.5"/>
        <path id="패스_422" data-name="패스 422" d="M42.272,58.9s-3.385-.466-4.581,1.413A7.016,7.016,0,0,0,36.74,64.4" transform="translate(20.345 32.603)" fill="none" stroke="#000" stroke-linecap="round" stroke-linejoin="round" stroke-width="2.5"/>
        <path id="패스_423" data-name="패스 423" d="M52.779,48.787l11.267-5.254a6.216,6.216,0,0,1,8.261,3.007L82.816,69.075a6.215,6.215,0,0,1-3.007,8.26L68.542,82.589a6.216,6.216,0,0,1-8.261-3.006L49.772,57.048a6.218,6.218,0,0,1,3.007-8.261" transform="translate(27.254 23.796)" fill="#fff"/>
        <path id="사각형_665" data-name="사각형 665" d="M2.75,0H18.23a2.75,2.75,0,0,1,2.75,2.75V30.663a2.75,2.75,0,0,1-2.75,2.75H2.749A2.749,2.749,0,0,1,0,30.664V2.75A2.75,2.75,0,0,1,2.75,0Z" transform="translate(76.981 76.15) rotate(-25.002)" fill="none" stroke="#000" stroke-width="2.5"/>
        <path id="패스_424" data-name="패스 424" d="M52.983,42.454l4.225-1.969a5.438,5.438,0,1,1,4.6,9.857L57.58,52.315a5.44,5.44,0,0,1-4.6-9.861" transform="translate(27.615 22.148)" fill="#fff"/>
        <path id="패스_425" data-name="패스 425" d="M53.111,43.523l4.225-1.971a3.5,3.5,0,0,1,2.956,6.339L56.067,49.86a3.5,3.5,0,0,1-2.956-6.337Z" transform="translate(28.308 22.84)" fill="none" stroke="#000" stroke-width="2.5"/>
        <line id="선_115" data-name="선 115" x1="7.637" y2="3.567" transform="translate(59.962 75.717)" fill="none" stroke="#000" stroke-linecap="round" stroke-width="2.5"/>
        <line id="선_116" data-name="선 116" x1="5.532" y2="6.364" transform="translate(65.495 80.262)" fill="none" stroke="#000" stroke-linecap="round" stroke-width="2.5"/>
        <line id="선_117" data-name="선 117" x1="8.432" y2="0.148" transform="translate(58.135 70.689)" fill="none" stroke="#000" stroke-linecap="round" stroke-width="2.5"/>
        <path id="패스_426" data-name="패스 426" d="M93.891,81.292s-.5-8.673-3.554-9.309-7.1.432-9.254-1.138-2-2.855-4.055-3.107-15.741.676-15.886-6.648,13.485-3.563,15.412-4.37,3.007-5.372,1.01-8.227S73.089,44.551,65.7,43.123s-13.4-1.383-13.278-4.5,2.169-7.041,7.825-6.347S79.909,33.646,83.9,37.267s19.065,21.131,22.366,32.5" transform="translate(29.043 17.838)" fill="#fff"/>
        <path id="패스_427" data-name="패스 427" d="M93.891,81.292s-.5-8.673-3.554-9.309-7.1.432-9.254-1.138-2-2.855-4.055-3.107-15.741.676-15.886-6.648,13.485-3.563,15.412-4.37,3.007-5.372,1.01-8.227S73.089,44.551,65.7,43.123s-13.4-1.383-13.278-4.5,2.169-7.041,7.825-6.347S79.909,33.646,83.9,37.267s19.065,21.131,22.366,32.5" transform="translate(29.043 17.838)" fill="none" stroke="#000" stroke-linecap="round" stroke-width="2.5"/>
        <path id="패스_428" data-name="패스 428" d="M61.773,50h0a1.554,1.554,0,1,1-1.731,1.354A1.554,1.554,0,0,1,61.773,50" transform="translate(33.261 27.698)" fill="#fff"/>
      </g>
    </g>
    <g id="그룹_996" data-name="그룹 996" transform="translate(93.29 77.688)">
      <g id="그룹_995" data-name="그룹 995" clip-path="url(#clip-path-2)">
        <path id="패스_429" data-name="패스 429" d="M60.1,50.982l3.085.379m-1.015-1.3-.379,3.085m1.3-1.015-3.085-.379m1.015,1.3.379-3.085" transform="translate(-60.042 -50.003)" fill="none" stroke="#000" stroke-width="2.5"/>
      </g>
    </g>
  </g>
</svg>
