<svg xmlns="http://www.w3.org/2000/svg" xmlns:xlink="http://www.w3.org/1999/xlink" width="120" height="120" viewBox="0 0 120 120">
  <defs>
    <clipPath id="clip-path">
      <rect id="사각형_957" data-name="사각형 957" width="120" height="120" transform="translate(0 -0.342)" fill="none"/>
    </clipPath>
  </defs>
  <g id="icon_error" transform="translate(0 0.639)">
    <g id="그룹_1553" data-name="그룹 1553" transform="translate(0 -0.297)">
      <g id="그룹_434" data-name="그룹 434" transform="translate(3.731 7.596)">
        <g id="사각형_355" data-name="사각형 355" transform="translate(-0.73 0.063)" fill="#fff" stroke="#000" stroke-width="5">
          <rect width="112" height="78" rx="2" stroke="none"/>
          <rect x="2.5" y="2.5" width="107" height="73" rx="0.5" fill="none"/>
        </g>
        <circle id="타원_98" data-name="타원 98" cx="2.5" cy="2.5" r="2.5" transform="translate(8.27 8.062)"/>
        <path id="패스_207" data-name="패스 207" d="M2.5,0A2.5,2.5,0,1,1,0,2.5,2.5,2.5,0,0,1,2.5,0Z" transform="translate(17.496 8.062)"/>
        <path id="패스_215" data-name="패스 215" d="M2.5,0A2.5,2.5,0,1,1,0,2.5,2.5,2.5,0,0,1,2.5,0Z" transform="translate(26.667 8.062)"/>
        <g id="패스_210" data-name="패스 210" transform="translate(-0.731 15.904)" fill="#fff">
          <path d="M 108.2026824951172 65.67945861816406 L 3.731132030487061 65.67945861816406 C 3.063781976699829 65.67945861816406 2.499998807907104 64.98772430419922 2.499998807907104 64.16892242431641 L 2.499998807907104 4.158451557159424 C 2.526980400085449 3.817998170852661 2.532915592193604 3.324965000152588 2.534726142883301 2.501667261123657 L 109.4340209960938 2.561197996139526 C 109.4338989257812 3.008068799972534 109.4337997436523 3.496542930603027 109.4337997436523 4.010806083679199 L 109.4337997436523 64.16892242431641 C 109.4337997436523 64.98772430419922 108.8700180053711 65.67945861816406 108.2026824951172 65.67945861816406 Z" stroke="none"/>
          <path d="M 4.999992370605469 5.003047943115234 L 4.999992370605469 63.17946243286133 L 106.9337921142578 63.17946243286133 L 106.9337921142578 5.059799194335938 L 4.999992370605469 5.003047943115234 M 0.00098419189453125 -0.00026702880859375 C 0.00131988525390625 -0.0002593994140625 0.00164031982421875 -9.1552734375e-05 0.0019683837890625 0.00026702880859375 L -7.62939453125e-06 0.0002593994140625 C 0.00032806396484375 -9.1552734375e-05 0.0006561279296875 -0.00026702880859375 0.00098419189453125 -0.00026702880859375 Z M -7.62939453125e-06 0.0002593994140625 L 111.9337921142578 0.06258392333984375 C 111.9356384277344 0.057769775390625 111.9337921142578 1.795845031738281 111.9337921142578 4.01080322265625 L 111.9337921142578 64.16892242431641 C 111.9337921142578 66.38388061523438 110.263313293457 68.17946624755859 108.2026748657227 68.17946624755859 L 3.731117248535156 68.17946624755859 C 1.670478820800781 68.17946624755859 -7.62939453125e-06 66.38388061523438 -7.62939453125e-06 64.16892242431641 L -7.62939453125e-06 4.01080322265625 C 0.04315948486328125 4.01080322265625 0.05055999755859375 0.05303192138671875 0.0019683837890625 0.00026702880859375 Z" stroke="none" fill="#000"/>
        </g>
      </g>
      <g id="그룹_1552" data-name="그룹 1552" clip-path="url(#clip-path)">
        <path id="패스_3416" data-name="패스 3416" d="M86.206,87.986H30.62a3.264,3.264,0,0,1-2.854-4.85l27.792-50.03a3.265,3.265,0,0,1,5.708,0l27.792,50.03a3.264,3.264,0,0,1-2.854,4.85Z" transform="translate(23.659 27.475)" fill="#fff"/>
        <path id="패스_3417" data-name="패스 3417" d="M59.492,34.84a.876.876,0,0,0-.815.481l-27.8,50.03a.934.934,0,0,0,.815,1.386h55.59a.934.934,0,0,0,.817-1.386L60.307,35.321a.876.876,0,0,0-.815-.481m0-4.663a5.54,5.54,0,0,1,4.891,2.878l27.8,50.032A5.6,5.6,0,0,1,87.286,91.4H31.7a5.6,5.6,0,0,1-4.893-8.313L54.6,33.055a5.54,5.54,0,0,1,4.891-2.878" transform="translate(22.579 26.393)"/>
        <path id="패스_3418" data-name="패스 3418" d="M45.8,42h0a2.8,2.8,0,0,1,2.8,2.8V57.855a2.8,2.8,0,0,1-5.6,0V44.8A2.8,2.8,0,0,1,45.8,42" transform="translate(37.206 36.623)"/>
        <path id="패스_3419" data-name="패스 3419" d="M45.8,54A2.8,2.8,0,1,1,43,56.8,2.8,2.8,0,0,1,45.8,54" transform="translate(37.206 47.006)"/>
      </g>
    </g>
  </g>
</svg>
