<svg id="그룹_1061" data-name="그룹 1061" xmlns="http://www.w3.org/2000/svg" xmlns:xlink="http://www.w3.org/1999/xlink" width="96" height="96" viewBox="0 0 96 96">
  <defs>
    <clipPath id="clip-path">
      <rect id="사각형_750" data-name="사각형 750" width="96" height="96" fill="none"/>
    </clipPath>
  </defs>
  <g id="그룹_1060" data-name="그룹 1060" clip-path="url(#clip-path)">
    <path id="패스_730" data-name="패스 730" d="M23.19,78.321h-.682a3.127,3.127,0,0,1-3.126-3.126V53h6.983V75.146a3.175,3.175,0,0,1-3.175,3.175" fill="#fff"/>
    <path id="패스_731" data-name="패스 731" d="M23.19,78.321h-.682a3.127,3.127,0,0,1-3.126-3.126V53h6.983V75.146A3.175,3.175,0,0,1,23.19,78.321Z" fill="none" stroke="#000" stroke-linecap="round" stroke-linejoin="round" stroke-width="2.5"/>
    <rect id="사각형_742" data-name="사각형 742" width="4.323" height="3.18" transform="translate(20.712 49.823)" fill="#fff"/>
    <rect id="사각형_743" data-name="사각형 743" width="4.323" height="3.18" transform="translate(20.712 49.823)" fill="none" stroke="#000" stroke-linecap="round" stroke-linejoin="round" stroke-width="2.5"/>
    <path id="패스_732" data-name="패스 732" d="M34.208,78.321h-.682A3.127,3.127,0,0,1,30.4,75.195V53h6.983V75.146a3.175,3.175,0,0,1-3.175,3.175" fill="#fff"/>
    <path id="패스_733" data-name="패스 733" d="M34.208,78.321h-.682A3.127,3.127,0,0,1,30.4,75.195V53h6.983V75.146A3.175,3.175,0,0,1,34.208,78.321Z" fill="none" stroke="#000" stroke-linecap="round" stroke-linejoin="round" stroke-width="2.5"/>
    <rect id="사각형_744" data-name="사각형 744" width="4.323" height="3.18" transform="translate(31.73 49.823)" fill="#fff"/>
    <rect id="사각형_745" data-name="사각형 745" width="4.323" height="3.18" transform="translate(31.73 49.823)" fill="none" stroke="#000" stroke-linecap="round" stroke-linejoin="round" stroke-width="2.5"/>
    <path id="패스_734" data-name="패스 734" d="M33.892,49.823V47.56h8.521V73h6.568V43.985H42.912V24.366H70.43v3.99" fill="none" stroke="#000" stroke-linecap="round" stroke-linejoin="round" stroke-width="2.5"/>
    <path id="패스_735" data-name="패스 735" d="M63.28,36.753V32.679H55.632V73H48.981" fill="none" stroke="#000" stroke-linecap="round" stroke-linejoin="round" stroke-width="2.5"/>
    <path id="패스_736" data-name="패스 736" d="M42.912,31.432H23.292v9.477" fill="none" stroke="#000" stroke-linecap="round" stroke-linejoin="round" stroke-width="2.5"/>
    <rect id="사각형_746" data-name="사각형 746" width="3.242" height="8.563" transform="translate(68.767 28.107)" fill="#fff"/>
    <rect id="사각형_747" data-name="사각형 747" width="3.242" height="8.563" transform="translate(68.767 28.107)" fill="none" stroke="#000" stroke-linecap="round" stroke-linejoin="round" stroke-width="2.5"/>
    <path id="패스_737" data-name="패스 737" d="M73.761,43.463h-12.9a2.321,2.321,0,0,1-2.321-2.321V38.991a2.321,2.321,0,0,1,2.321-2.321h12.9a2.321,2.321,0,0,1,2.321,2.321v2.151a2.321,2.321,0,0,1-2.321,2.321" fill="#fff"/>
    <path id="패스_738" data-name="패스 738" d="M73.761,43.463h-12.9a2.321,2.321,0,0,1-2.321-2.321V38.991a2.321,2.321,0,0,1,2.321-2.321h12.9a2.321,2.321,0,0,1,2.321,2.321v2.151A2.321,2.321,0,0,1,73.761,43.463Z" fill="none" stroke="#000" stroke-linecap="round" stroke-linejoin="round" stroke-width="2.5"/>
    <path id="패스_739" data-name="패스 739" d="M60.31,68.249l14-2.476-14-2.477,14-2.478-14-2.473,14-2.476-14-2.479,14-2.48-14-2.48,14-2.483-14-2.484" fill="#fff"/>
    <path id="패스_740" data-name="패스 740" d="M60.31,68.249l14-2.476-14-2.477,14-2.478-14-2.473,14-2.476-14-2.479,14-2.48-14-2.48,14-2.483-14-2.484" fill="none" stroke="#000" stroke-linecap="round" stroke-linejoin="round" stroke-width="2.5"/>
    <path id="패스_741" data-name="패스 741" d="M58.541,69.835V73c0,.876,3.927,1.585,8.771,1.585s8.771-.709,8.771-1.585V69.835Z" fill="#fff"/>
    <path id="패스_742" data-name="패스 742" d="M58.541,69.835V73c0,.876,3.927,1.585,8.771,1.585s8.771-.709,8.771-1.585V69.835Z" fill="none" stroke="#000" stroke-linecap="round" stroke-linejoin="round" stroke-width="2.5"/>
    <path id="패스_743" data-name="패스 743" d="M76.083,69.835c0,.876-3.927,1.585-8.771,1.585s-8.771-.709-8.771-1.585,3.927-1.585,8.771-1.585,8.771.709,8.771,1.585" fill="#fff"/>
    <ellipse id="타원_143" data-name="타원 143" cx="8.771" cy="1.585" rx="8.771" ry="1.585" transform="translate(58.541 68.25)" fill="none" stroke="#000" stroke-linecap="round" stroke-linejoin="round" stroke-width="2.5"/>
    <path id="패스_744" data-name="패스 744" d="M23.83,17.679s.259,1.9-.791,2.567a3.925,3.925,0,0,1-2.292.533" fill="none" stroke="#000" stroke-linecap="round" stroke-linejoin="round" stroke-width="2.5"/>
    <path id="패스_745" data-name="패스 745" d="M26.971,20.762s-1.9.259-2.568-.79a3.926,3.926,0,0,1-.532-2.292" fill="none" stroke="#000" stroke-linecap="round" stroke-linejoin="round" stroke-width="2.5"/>
    <path id="패스_746" data-name="패스 746" d="M23.83,23.9s.259-1.9-.791-2.567a3.925,3.925,0,0,0-2.292-.533" fill="none" stroke="#000" stroke-linecap="round" stroke-linejoin="round" stroke-width="2.5"/>
    <path id="패스_747" data-name="패스 747" d="M26.971,20.82s-1.9-.259-2.568.791a3.925,3.925,0,0,0-.532,2.292" fill="none" stroke="#000" stroke-linecap="round" stroke-linejoin="round" stroke-width="2.5"/>
    <path id="패스_748" data-name="패스 748" d="M15.763,23.933s.177,1.3-.54,1.752a2.672,2.672,0,0,1-1.565.364" fill="none" stroke="#000" stroke-linecap="round" stroke-linejoin="round" stroke-width="2.5"/>
    <path id="패스_749" data-name="패스 749" d="M17.907,26.038s-1.3.177-1.752-.54a2.672,2.672,0,0,1-.364-1.565" fill="none" stroke="#000" stroke-linecap="round" stroke-linejoin="round" stroke-width="2.5"/>
    <path id="패스_750" data-name="패스 750" d="M15.763,28.181s.177-1.3-.54-1.752a2.672,2.672,0,0,0-1.565-.364" fill="none" stroke="#000" stroke-linecap="round" stroke-linejoin="round" stroke-width="2.5"/>
    <path id="패스_751" data-name="패스 751" d="M17.907,26.077s-1.3-.177-1.752.54a2.672,2.672,0,0,0-.364,1.565" fill="none" stroke="#000" stroke-linecap="round" stroke-linejoin="round" stroke-width="2.5"/>
    <path id="패스_752" data-name="패스 752" d="M80.2,62.939s.177,1.3-.54,1.752a2.672,2.672,0,0,1-1.565.364" fill="none" stroke="#000" stroke-linecap="round" stroke-linejoin="round" stroke-width="2.5"/>
    <path id="패스_753" data-name="패스 753" d="M82.342,65.044s-1.3.177-1.752-.54a2.672,2.672,0,0,1-.364-1.565" fill="none" stroke="#000" stroke-linecap="round" stroke-linejoin="round" stroke-width="2.5"/>
    <path id="패스_754" data-name="패스 754" d="M80.2,67.187s.177-1.295-.54-1.752a2.672,2.672,0,0,0-1.565-.364" fill="none" stroke="#000" stroke-linecap="round" stroke-linejoin="round" stroke-width="2.5"/>
    <path id="패스_755" data-name="패스 755" d="M82.342,65.083s-1.3-.177-1.752.54a2.672,2.672,0,0,0-.364,1.565" fill="none" stroke="#000" stroke-linecap="round" stroke-linejoin="round" stroke-width="2.5"/>
    <path id="패스_756" data-name="패스 756" d="M51,68.788H46.9v2.633H44.325v3.907h8.9V71.421H51.052V68.788Z" fill="#fff"/>
    <path id="패스_757" data-name="패스 757" d="M51,68.788H46.9v2.633H44.325v3.907h8.9V71.421H51.052V68.788Z" fill="none" stroke="#000" stroke-linecap="round" stroke-linejoin="round" stroke-width="2.5"/>
    <path id="패스_758" data-name="패스 758" d="M38.533,29.694v4.1h2.633v2.578h3.907v-8.9H41.166v2.169H38.533Z" fill="#fff"/>
    <path id="패스_759" data-name="패스 759" d="M38.533,29.694v4.1h2.633v2.578h3.907v-8.9H41.166v2.169H38.533Z" fill="none" stroke="#000" stroke-linecap="round" stroke-linejoin="round" stroke-width="2.5"/>
    <path id="패스_760" data-name="패스 760" d="M27.005,29.326v4.046h-1.5v9.366h-4.8V29.326Z" fill="#fff"/>
    <path id="패스_761" data-name="패스 761" d="M27.005,29.326v4.046h-1.5v9.366h-4.8V29.326Z" fill="none" stroke="#000" stroke-linecap="round" stroke-linejoin="round" stroke-width="2.5"/>
    <rect id="사각형_748" data-name="사각형 748" width="7.815" height="3.553" transform="translate(19.19 36.171)" fill="#fff"/>
    <rect id="사각형_749" data-name="사각형 749" width="7.815" height="3.553" transform="translate(19.19 36.171)" fill="none" stroke="#000" stroke-linecap="round" stroke-linejoin="round" stroke-width="2.5"/>
  </g>
</svg>
