<svg xmlns="http://www.w3.org/2000/svg" xmlns:xlink="http://www.w3.org/1999/xlink" width="96" height="96" viewBox="0 0 96 96">
    <defs>
        <clipPath id="clip">
            <use xlink:href="#fill"/>
        </clipPath>
        <style>
            .cls-1,.cls-2,.cls-4,.cls-5{fill:none}.cls-2,.cls-3,.cls-4,.cls-5{stroke:#000;stroke-width:2.5px}.cls-3{fill:#fff}.cls-4,.cls-5{stroke-linecap:round}.cls-4{stroke-linejoin:round}.cls-7{stroke:none}
        </style>
    </defs>
    <g id="icon_토탈_클리닝_서비스" data-name="icon_토탈 클리닝 서비스" transform="translate(-1148 -75)">
        <path id="bg" class="cls-1" transform="translate(1148 75)" d="M0 0h96v96H0z"/>
        <g id="그룹_35" data-name="그룹 35" transform="translate(10 -13)">
            <g id="사각형_24" data-name="사각형 24" class="cls-2" transform="translate(1145 98)">
                <rect class="cls-7" width="54" height="75" rx="4"/>
                <rect class="cls-1" x="1.25" y="1.25" width="51.5" height="72.5" rx="2.75"/>
            </g>
            <path id="패스_57" data-name="패스 57" class="cls-2" d="M1146.5 112.333h51.833"/>
            <g id="사각형_25" data-name="사각형 25" class="cls-3" transform="translate(1183 104)">
                <rect class="cls-7" width="11" height="4" rx="2"/>
                <rect class="cls-1" x="1.25" y="1.25" width="8.5" height="1.5" rx=".75"/>
            </g>
            <g id="사각형_26" data-name="사각형 26" class="cls-3" transform="translate(1150 104)">
                <rect class="cls-7" width="4" height="4" rx="2"/>
                <rect class="cls-1" x="1.25" y="1.25" width="1.5" height="1.5" rx=".75"/>
            </g>
            <g id="사각형_27" data-name="사각형 27" class="cls-3" transform="translate(1157 104)">
                <rect class="cls-7" width="4" height="4" rx="2"/>
                <rect class="cls-1" x="1.25" y="1.25" width="1.5" height="1.5" rx=".75"/>
            </g>
            <g id="사각형_28" data-name="사각형 28" class="cls-3" transform="translate(1164 104)">
                <rect class="cls-7" width="4" height="4" rx="2"/>
                <rect class="cls-1" x="1.25" y="1.25" width="1.5" height="1.5" rx=".75"/>
            </g>
            <g id="타원_26" data-name="타원 26" class="cls-2" transform="translate(1151 120)">
                <circle class="cls-7" cx="21" cy="21" r="21"/>
                <circle class="cls-1" cx="21" cy="21" r="19.75"/>
            </g>
            <g id="타원_27" data-name="타원 27" class="cls-2" transform="translate(1156 125)">
                <circle class="cls-7" cx="16" cy="16" r="16"/>
                <circle class="cls-1" cx="16" cy="16" r="14.75"/>
            </g>
            <g id="그룹_30" data-name="그룹 30" transform="translate(1015.292 -11)">
                <path id="패스_7" data-name="패스 7" class="cls-4" d="M152.773 142s.489 3.553-1.482 4.808a7.359 7.359 0 0 1-4.292 1" transform="translate(0 1)"/>
                <path id="패스_8" data-name="패스 8" class="cls-4" d="M5.773 0s.489 3.553-1.482 4.808A7.359 7.359 0 0 1 0 5.806" transform="rotate(90 7.708 150.709)"/>
                <path id="패스_9" data-name="패스 9" class="cls-4" d="M152.773 147.827s.489-3.553-1.482-4.808a7.359 7.359 0 0 0-4.292-1" transform="translate(0 6.589)"/>
                <path id="패스_10" data-name="패스 10" class="cls-4" d="M5.773 5.827s.49-3.553-1.481-4.807A7.359 7.359 0 0 0 0 .022" transform="rotate(-90 153.503 .914)"/>
            </g>
            <g id="그룹_31" data-name="그룹 31" transform="translate(1024.292 .417)">
                <path id="패스_7-2" data-name="패스 7" class="cls-4" d="M150.54 142s.3 2.178-.909 2.948a4.512 4.512 0 0 1-2.631.612" transform="translate(0 1)"/>
                <path id="패스_8-2" data-name="패스 8" class="cls-4" d="M3.54 0s.3 2.178-.909 2.948A4.512 4.512 0 0 1 0 3.56" transform="rotate(90 5.5 148.5)"/>
                <path id="패스_9-2" data-name="패스 9" class="cls-4" d="M150.54 145.573s.3-2.178-.909-2.948a4.512 4.512 0 0 0-2.631-.612" transform="translate(0 4.427)"/>
                <path id="패스_10-2" data-name="패스 10" class="cls-4" d="M3.54 3.573s.3-2.178-.909-2.948A4.512 4.512 0 0 0 0 .013" transform="rotate(-90 150.214 -.214)"/>
            </g>
            <g id="그룹_33" data-name="그룹 33" transform="rotate(-25 1190.774 216.818)">
                <g id="그룹_32" data-name="그룹 32" transform="translate(4.321 -3.14)">
                    <g id="사각형_29" data-name="사각형 29" class="cls-3" transform="translate(1216 145)">
                        <rect class="cls-7" width="16" height="24" rx="4"/>
                        <rect class="cls-1" x="1.25" y="1.25" width="13.5" height="21.5" rx="2.75"/>
                    </g>
                    <g id="사각형_30" data-name="사각형 30" class="cls-3" transform="translate(1219 140.5)">
                        <rect class="cls-7" width="10" height="7" rx="3.5"/>
                        <rect class="cls-1" x="1.25" y="1.25" width="7.5" height="4.5" rx="2.25"/>
                    </g>
                </g>
                <path id="패스_59" data-name="패스 59" class="cls-5" d="m1216 138.833-3.837-3.833" transform="rotate(-45 1217.887 139.308)"/>
                <path id="패스_60" data-name="패스 60" class="cls-5" d="m1216 135-3.837 3.837" transform="rotate(21 1192.51 142.091)"/>
                <path id="패스_61" data-name="패스 61" class="cls-5" d="M3.837 3.837 0 0" transform="rotate(-21 969.903 -3202.31)"/>
            </g>
            <g id="그룹_34" data-name="그룹 34" transform="rotate(7 1250.47 -29.932)">
                <path id="패스_62" data-name="패스 62" d="M1239.5 154.5s-1-5.5-3-5.667-4.5.833-6 0-1.5-1.667-2.833-1.667-10 1.667-10.667-3 8.333-3.333 9.5-4 1.5-3.667 0-5.333-3.167-2.167-8-2.5-8.667.167-8.833-1.833.833-4.667 4.5-4.667 12.667-.667 15.5 1.333 13.833 12 16.833 19" style="stroke-linecap:round;fill:#fff;stroke:#000;stroke-width:2.5px"/>
                <g id="사각형_31" data-name="사각형 31" class="cls-3" transform="translate(1219 143)">
                    <rect id="fill" class="cls-7" width="2" height="2" rx="1"/>
                    <path d="M0 .75h2M1.25 0v2M2 1.25H0M.75 2V0" style="clip-path:url(#clip);fill:none"/>
                </g>
            </g>
        </g>
    </g>
</svg>
