<svg xmlns="http://www.w3.org/2000/svg" width="24" height="24" viewBox="0 0 24 24">
    <g fill="none" fill-rule="evenodd">
        <g>
            <g>
                <g>
                    <g>
                        <g>
                            <g>
                                <g>
                                    <g>
                                        <path d="M0 0H24V24H0z" transform="translate(-1446 -1151) translate(269 286) translate(235 272) translate(0 25) translate(0 564) translate(942) translate(0 4)"/>
                                        <path fill="#DA0F47" d="M6.5 2h11c1.105 0 2 .895 2 2v15.552c0 .552-.448 1-1 1-.269 0-.526-.108-.714-.3l-5.072-5.173c-.387-.394-1.02-.4-1.414-.014l-.014.014-5.072 5.173c-.387.394-1.02.4-1.414.014-.192-.188-.3-.446-.3-.714V4c0-1.105.895-2 2-2z" transform="translate(-1446 -1151) translate(269 286) translate(235 272) translate(0 25) translate(0 564) translate(942) translate(0 4)"/>
                                    </g>
                                </g>
                            </g>
                        </g>
                    </g>
                </g>
            </g>
        </g>
    </g>
</svg>
