<svg id="그룹_1051" data-name="그룹 1051" xmlns="http://www.w3.org/2000/svg" xmlns:xlink="http://www.w3.org/1999/xlink" width="149" height="149" viewBox="0 0 149 149">
  <defs>
    <clipPath id="clip-path">
      <rect id="사각형_716" data-name="사각형 716" width="149" height="149" fill="none"/>
    </clipPath>
  </defs>
  <g id="그룹_1050" data-name="그룹 1050" clip-path="url(#clip-path)">
    <path id="패스_647" data-name="패스 647" d="M34.365,30.824s.275,2.009-.837,2.717A4.147,4.147,0,0,1,31.1,34.1" transform="translate(17.214 17.06)" fill="none" stroke="#000" stroke-linecap="round" stroke-linejoin="round" stroke-width="2.5"/>
    <path id="패스_648" data-name="패스 648" d="M36.515,34.088s-2.009.275-2.717-.837a4.147,4.147,0,0,1-.564-2.427" transform="translate(18.388 17.06)" fill="none" stroke="#000" stroke-linecap="round" stroke-linejoin="round" stroke-width="2.5"/>
    <path id="패스_649" data-name="패스 649" d="M34.365,36.238s.275-2.009-.837-2.717a4.147,4.147,0,0,0-2.427-.564" transform="translate(17.214 18.234)" fill="none" stroke="#000" stroke-linecap="round" stroke-linejoin="round" stroke-width="2.5"/>
    <path id="패스_650" data-name="패스 650" d="M36.515,32.975s-2.009-.275-2.717.837a4.147,4.147,0,0,0-.564,2.427" transform="translate(18.388 18.234)" fill="none" stroke="#000" stroke-linecap="round" stroke-linejoin="round" stroke-width="2.5"/>
    <path id="패스_651" data-name="패스 651" d="M83.3,42.2s.275,2.009-.837,2.717a4.147,4.147,0,0,1-2.427.564" transform="translate(44.3 23.357)" fill="none" stroke="#000" stroke-linecap="round" stroke-linejoin="round" stroke-width="2.5"/>
    <path id="패스_652" data-name="패스 652" d="M85.454,45.465s-2.009.275-2.717-.837a4.147,4.147,0,0,1-.564-2.427" transform="translate(45.474 23.357)" fill="none" stroke="#000" stroke-linecap="round" stroke-linejoin="round" stroke-width="2.5"/>
    <path id="패스_653" data-name="패스 653" d="M83.3,47.614s.275-2.009-.837-2.717a4.147,4.147,0,0,0-2.427-.564" transform="translate(44.3 24.531)" fill="none" stroke="#000" stroke-linecap="round" stroke-linejoin="round" stroke-width="2.5"/>
    <path id="패스_654" data-name="패스 654" d="M85.454,44.352s-2.009-.275-2.717.837a4.147,4.147,0,0,0-.564,2.427" transform="translate(45.474 24.531)" fill="none" stroke="#000" stroke-linecap="round" stroke-linejoin="round" stroke-width="2.5"/>
    <path id="패스_655" data-name="패스 655" d="M47.078,24.393s.548,4.016-1.675,5.434a8.319,8.319,0,0,1-4.852,1.128" transform="translate(22.445 13.501)" fill="none" stroke="#000" stroke-linecap="round" stroke-linejoin="round" stroke-width="2.5"/>
    <path id="패스_656" data-name="패스 656" d="M51.377,30.919s-4.016.548-5.434-1.675a8.319,8.319,0,0,1-1.128-4.852" transform="translate(24.791 13.501)" fill="none" stroke="#000" stroke-linecap="round" stroke-linejoin="round" stroke-width="2.5"/>
    <path id="패스_657" data-name="패스 657" d="M47.078,35.219s.548-4.016-1.675-5.434a8.319,8.319,0,0,0-4.852-1.128" transform="translate(22.445 15.848)" fill="none" stroke="#000" stroke-linecap="round" stroke-linejoin="round" stroke-width="2.5"/>
    <path id="패스_658" data-name="패스 658" d="M51.377,28.692s-4.016-.548-5.434,1.675a8.319,8.319,0,0,0-1.128,4.852" transform="translate(24.791 15.847)" fill="none" stroke="#000" stroke-linecap="round" stroke-linejoin="round" stroke-width="2.5"/>
    <path id="패스_659" data-name="패스 659" d="M34.4,65.08V50.96s.517-7.75,7.749-7.75H83.305s4.477-.343,4.477-4.3V30.824" transform="translate(19.04 17.06)" fill="none" stroke="#000" stroke-linecap="round" stroke-linejoin="round" stroke-width="2.5"/>
    <path id="패스_660" data-name="패스 660" d="M95.1,30.824v14.12s-.517,7.75-7.749,7.75H46.192s-4.477.343-4.477,4.3V65.08" transform="translate(23.088 17.06)" fill="none" stroke="#000" stroke-linecap="round" stroke-linejoin="round" stroke-width="2.5"/>
    <path id="패스_661" data-name="패스 661" d="M113.979,51.656H23.1L13.782,73.009H123.3Z" transform="translate(7.628 28.59)" fill="#fff"/>
    <path id="패스_662" data-name="패스 662" d="M113.979,51.656H23.1L13.782,73.009H123.3Z" transform="translate(7.628 28.59)" fill="none" stroke="#000" stroke-linecap="round" stroke-linejoin="round" stroke-width="2.5"/>
    <path id="패스_663" data-name="패스 663" d="M123.3,65.4H13.782v7.081a3.6,3.6,0,0,0,3.595,3.6h102.2a3.721,3.721,0,0,0,3.721-3.721Z" transform="translate(7.628 36.198)" fill="#fff"/>
    <path id="패스_664" data-name="패스 664" d="M123.3,65.4H13.782v7.081a3.6,3.6,0,0,0,3.595,3.6h102.2a3.721,3.721,0,0,0,3.721-3.721Z" transform="translate(7.628 36.198)" fill="none" stroke="#000" stroke-linecap="round" stroke-linejoin="round" stroke-width="2.5"/>
    <path id="패스_665" data-name="패스 665" d="M39.345,57.468c-.837-13.977-13.351-27.644-13.351-27.644S13.481,43.491,12.644,57.468a13.431,13.431,0,1,0,26.7,0" transform="translate(6.953 16.507)" fill="#fff"/>
    <path id="패스_666" data-name="패스 666" d="M39.345,57.468c-.837-13.977-13.351-27.644-13.351-27.644S13.481,43.491,12.644,57.468a13.431,13.431,0,1,0,26.7,0Z" transform="translate(6.953 16.507)" fill="none" stroke="#000" stroke-linecap="round" stroke-linejoin="round" stroke-width="2.5"/>
    <path id="패스_667" data-name="패스 667" d="M34.818,56.741a1.974,1.974,0,1,1-1.974-1.974,1.974,1.974,0,0,1,1.974,1.974" transform="translate(17.085 30.312)"/>
    <path id="패스_668" data-name="패스 668" d="M41.58,56.741a1.974,1.974,0,1,1-1.974-1.974,1.974,1.974,0,0,1,1.974,1.974" transform="translate(20.828 30.312)"/>
    <path id="패스_669" data-name="패스 669" d="M48.342,56.741a1.974,1.974,0,1,1-1.974-1.974,1.974,1.974,0,0,1,1.974,1.974" transform="translate(24.57 30.312)"/>
    <path id="패스_670" data-name="패스 670" d="M55.1,56.741a1.974,1.974,0,1,1-1.974-1.974A1.974,1.974,0,0,1,55.1,56.741" transform="translate(28.313 30.312)"/>
    <path id="패스_671" data-name="패스 671" d="M61.865,56.741a1.974,1.974,0,1,1-1.974-1.974,1.974,1.974,0,0,1,1.974,1.974" transform="translate(32.055 30.312)"/>
    <path id="패스_672" data-name="패스 672" d="M68.627,56.741a1.974,1.974,0,1,1-1.974-1.974,1.974,1.974,0,0,1,1.974,1.974" transform="translate(35.798 30.312)"/>
    <path id="패스_673" data-name="패스 673" d="M75.388,56.741a1.974,1.974,0,1,1-1.974-1.974,1.974,1.974,0,0,1,1.974,1.974" transform="translate(39.54 30.312)"/>
    <path id="패스_674" data-name="패스 674" d="M24.754,61.54a1.974,1.974,0,1,1-1.974-1.974,1.974,1.974,0,0,1,1.974,1.974" transform="translate(11.515 32.968)"/>
    <path id="패스_675" data-name="패스 675" d="M31.516,61.54a1.974,1.974,0,1,1-1.974-1.974,1.974,1.974,0,0,1,1.974,1.974" transform="translate(15.258 32.968)"/>
    <path id="패스_676" data-name="패스 676" d="M38.278,61.54A1.974,1.974,0,1,1,36.3,59.566a1.974,1.974,0,0,1,1.974,1.974" transform="translate(19 32.968)"/>
    <path id="패스_677" data-name="패스 677" d="M45.039,61.54a1.974,1.974,0,1,1-1.974-1.974,1.974,1.974,0,0,1,1.974,1.974" transform="translate(22.742 32.968)"/>
    <path id="패스_678" data-name="패스 678" d="M51.8,61.54a1.974,1.974,0,1,1-1.974-1.974A1.974,1.974,0,0,1,51.8,61.54" transform="translate(26.485 32.968)"/>
    <path id="패스_679" data-name="패스 679" d="M58.563,61.54a1.974,1.974,0,1,1-1.974-1.974,1.974,1.974,0,0,1,1.974,1.974" transform="translate(30.228 32.968)"/>
    <path id="패스_680" data-name="패스 680" d="M65.324,61.54a1.974,1.974,0,1,1-1.974-1.974,1.974,1.974,0,0,1,1.974,1.974" transform="translate(33.97 32.968)"/>
    <path id="패스_681" data-name="패스 681" d="M72.086,61.54a1.974,1.974,0,1,1-1.974-1.974,1.974,1.974,0,0,1,1.974,1.974" transform="translate(37.712 32.968)"/>
    <path id="패스_682" data-name="패스 682" d="M78.848,61.54a1.974,1.974,0,1,1-1.974-1.974,1.974,1.974,0,0,1,1.974,1.974" transform="translate(41.455 32.968)"/>
  </g>
</svg>
