<svg xmlns="http://www.w3.org/2000/svg" width="64" height="64" viewBox="0 0 64 64">
  <g id="icon_interior_on" transform="translate(16.736 13.853)">
    <rect id="사각형_366" data-name="사각형 366" width="64" height="64" transform="translate(-16.736 -13.853)" fill="#fff"/>
    <g id="그룹_164" data-name="그룹 164" transform="translate(-4.736 -0.853)">
      <path id="패스_85" data-name="패스 85" d="M6858.4,1794.628h.556c-5.354,0-7.507-1.32-9.8-.973a4.466,4.466,0,0,0-3.751,4.585c-.069,2.362,0,6.114,0,6.114" transform="translate(-6839.228 -1793.597)" fill="none" stroke="#da0f47" stroke-linecap="round" stroke-width="3"/>
      <path id="패스_87" data-name="패스 87" d="M6845.38,1794.628c5.35,0,6.947-1.32,9.24-.973a4.466,4.466,0,0,1,3.753,4.586c.069,2.362,0,6.253,0,6.253" transform="translate(-6825.787 -1793.597)" fill="none" stroke="#da0f47" stroke-linecap="round" stroke-width="3"/>
      <path id="패스_86" data-name="패스 86" d="M6868.913,1819.667h-18.83" transform="translate(-6839.174 -1797.931)" fill="none" stroke="#da0f47" stroke-width="3"/>
      <g id="합치기_8" data-name="합치기 8" transform="translate(0 10.44)" fill="none" stroke-linejoin="round">
        <path d="M28.951,24.953H8.089v-.018a6,6,0,0,1-5.535-5.982V10.307A5.605,5.605,0,0,1,5.535,0a5.559,5.559,0,0,1,5.518,5.163h.016V16.349H28.951V5.163h.016a5.537,5.537,0,1,1,8.5,5.143v8.647a6,6,0,0,1-6,6Z" stroke="none"/>
        <path d="M 31.46580123901367 21.95339965820312 C 33.12017059326172 21.95339965820312 34.46610260009766 20.60787010192871 34.46610260009766 18.95400047302246 L 34.46610260009766 10.3067798614502 C 34.46610260009766 9.289079666137695 34.98204040527344 8.34076976776123 35.83650970458984 7.787960052490234 C 36.57776260375977 7.308399677276611 37.02030181884766 6.488039970397949 37.02030181884766 5.593499660491943 C 37.02030181884766 4.163439750671387 35.88310241699219 2.999999761581421 34.48530197143555 2.999999761581421 C 33.1694221496582 2.999999761581421 32.05966949462891 4.049139976501465 31.95886039733887 5.388479709625244 C 31.95670318603516 5.417137145996094 31.95414733886719 5.445675849914551 31.95120048522949 5.474089622497559 L 31.95120048522949 16.34939956665039 C 31.95120048522949 18.00625038146973 30.60805130004883 19.34939956665039 28.95120048522949 19.34939956665039 L 11.06910133361816 19.34939956665039 C 9.412250518798828 19.34939956665039 8.069101333618164 18.00625038146973 8.069101333618164 16.34939956665039 L 8.069101333618164 5.474089622497559 C 8.066153526306152 5.445675849914551 8.063597679138184 5.417137145996094 8.061440467834473 5.388479709625244 C 7.960630893707275 4.049139976501465 6.850881099700928 2.999999761581421 5.535000801086426 2.999999761581421 C 4.137200832366943 2.999999761581421 3.000000953674316 4.163439750671387 3.000000953674316 5.593499660491943 C 3.000000953674316 6.488039970397949 3.442540884017944 7.308409690856934 4.183810710906982 7.787979602813721 C 5.038260936737061 8.340800285339355 5.554201126098633 9.28909969329834 5.554201126098633 10.30678939819336 L 5.554201126098633 18.95400047302246 C 5.554201126098633 20.51202011108398 6.768430709838867 21.82555961608887 8.318520545959473 21.94439888000488 C 8.351058006286621 21.9468936920166 8.383315086364746 21.94988822937012 8.415536880493164 21.95339965820312 L 31.46580123901367 21.95339965820312 M 31.46580123901367 24.95339965820312 L 8.089200973510742 24.95339965820312 L 8.089200973510742 24.93561935424805 C 4.992800712585449 24.69824028015137 2.554200887680054 22.11124992370605 2.554200887680054 18.95400047302246 L 2.554200887680054 10.30678939819336 C 1.018070936203003 9.312950134277344 9.094238180296088e-07 7.573390007019043 9.094238180296088e-07 5.593499660491943 C 9.094238180296088e-07 2.503799915313721 2.47770094871521 -1.708984314063855e-07 5.535000801086426 -1.708984314063855e-07 C 8.44813060760498 -1.708984314063855e-07 10.83556079864502 2.274799823760986 11.05298137664795 5.163300037384033 L 11.06910133361816 5.163300037384033 L 11.06910133361816 16.34939956665039 L 28.95120048522949 16.34939956665039 L 28.95120048522949 5.163300037384033 L 28.96732139587402 5.163300037384033 C 29.18474006652832 2.274799823760986 31.57217025756836 -1.708984314063855e-07 34.48530197143555 -1.708984314063855e-07 C 37.5426025390625 -1.708984314063855e-07 40.02030181884766 2.503799915313721 40.02030181884766 5.593499660491943 C 40.02030181884766 7.573390007019043 39.00223922729492 9.312950134277344 37.46610260009766 10.3067798614502 L 37.46610260009766 18.95400047302246 C 37.46610260009766 22.26779937744141 34.77960205078125 24.95339965820312 31.46580123901367 24.95339965820312 Z" stroke="none" fill="#da0f47"/>
      </g>
      <g id="사각형_93" data-name="사각형 93" transform="translate(7.533 33.51)" fill="none" stroke="#da0f47" stroke-width="3">
        <path d="M0,0H5.179a0,0,0,0,1,0,0V2.59a2.59,2.59,0,0,1-2.59,2.59h0A2.59,2.59,0,0,1,0,2.59V0A0,0,0,0,1,0,0Z" stroke="none"/>
        <path d="M1.863,1.5H3.316a.363.363,0,0,1,.363.363V2.59a1.09,1.09,0,0,1-1.09,1.09h0A1.09,1.09,0,0,1,1.5,2.59V1.863A.363.363,0,0,1,1.863,1.5Z" fill="none"/>
      </g>
      <g id="사각형_94" data-name="사각형 94" transform="translate(26.837 33.51)" fill="none" stroke="#da0f47" stroke-width="3">
        <path d="M0,0H4.708a0,0,0,0,1,0,0V2.825A2.354,2.354,0,0,1,2.354,5.179h0A2.354,2.354,0,0,1,0,2.825V0A0,0,0,0,1,0,0Z" stroke="none"/>
        <path d="M1.785,1.5H2.924a.285.285,0,0,1,.285.285v1.04a.854.854,0,0,1-.854.854h0A.854.854,0,0,1,1.5,2.825V1.785A.285.285,0,0,1,1.785,1.5Z" fill="none"/>
      </g>
      <g id="_" data-name="+" transform="translate(12.923 7.423)">
        <path id="패스_88" data-name="패스 88" d="M6853.25,1804.417h3.336" transform="translate(-6853.25 -1802.749)" fill="none" stroke="#da0f47" stroke-linecap="round" stroke-width="3"/>
        <path id="패스_91" data-name="패스 91" d="M6853.25,1804.417h3.336" transform="translate(-6843.245 -1802.749)" fill="none" stroke="#da0f47" stroke-linecap="round" stroke-width="3"/>
        <path id="패스_89" data-name="패스 89" d="M0,0H3.335" transform="translate(1.668) rotate(90)" fill="none" stroke="#da0f47" stroke-linecap="round" stroke-width="3"/>
        <path id="패스_90" data-name="패스 90" d="M0,0H3.335" transform="translate(11.673) rotate(90)" fill="none" stroke="#da0f47" stroke-linecap="round" stroke-width="3"/>
      </g>
    </g>
  </g>
</svg>
