<svg xmlns="http://www.w3.org/2000/svg" width="18" height="18" viewBox="0 0 18 18">
    <g data-name="[-] co_weak">
        <path data-name="패스 986" d="M529.4 164.36a7.8 7.8 0 1 0 7.8 7.8 7.809 7.809 0 0 0-7.8-7.8m0-1.2a9 9 0 1 1-9 9 9 9 0 0 1 9-9z" transform="translate(-520.4 -163.16)" style="fill:#fff"/>
        <path d="M535.6 176.223v-3.894a.834.834 0 0 0-1.668-.01v3.9a.834.834 0 0 0 1.668.011zm-.1 3.478a1.048 1.048 0 1 0-.741.305 1.046 1.046 0 0 0 .741-.306z" transform="translate(-525.726 -166.492)" style="fill:#fff"/>
    </g>
</svg>
