<svg xmlns="http://www.w3.org/2000/svg" width="48" height="48" viewBox="0 0 48 48">
    <defs>
        <clipPath id="clip-path">
            <path id="사각형_234" data-name="사각형 234" style="fill:none" d="M0 0h19.266v34.5H0z"/>
        </clipPath>
        <style>
            .cls-4{fill:none;stroke:#000;stroke-linejoin:round;stroke-width:1.5px}
        </style>
    </defs>
    <g id="icon_aircleaner" transform="translate(-519.25 -629.5)">
        <g id="그룹_344" data-name="그룹 344" transform="translate(533.25 636.5)">
            <g id="그룹_343" data-name="그룹 343" style="clip-path:url(#clip-path)">
                <path id="패스_102" data-name="패스 102" class="cls-4" d="M4.324 12.4h10.982a1.546 1.546 0 0 1 1.542 1.444l1.032 15.581H1.75l1.031-15.582A1.547 1.547 0 0 1 4.325 12.4zM9.815.75a6.273 6.273 0 0 1 3.231 11.65h2.26a1.546 1.546 0 0 1 1.542 1.444l1.032 15.581H1.75l1.031-15.582A1.547 1.547 0 0 1 4.325 12.4h2.26A6.273 6.273 0 0 1 9.815.75z" transform="translate(-.182 -.078)"/>
                <circle id="타원_20" data-name="타원 20" class="cls-4" cx="2.688" cy="2.688" r="2.688" transform="translate(6.945 4.256)"/>
                <path id="패스_103" data-name="패스 103" d="M1.646 31.856h16.13l-2.016 4.481H3.662zm1.21-7.706h14.338M.75 36.337h17.922" transform="translate(-.078 -2.509)" style="stroke-linecap:round;stroke:#000;stroke-linejoin:round;stroke-width:1.5px;fill:none"/>
            </g>
        </g>
    </g>
</svg>
