<svg xmlns="http://www.w3.org/2000/svg" width="80" height="80" viewBox="0 0 80 80">
  <g id="그룹_1208" data-name="그룹 1208" transform="translate(-451 -364)">
    <rect id="사각형_811" data-name="사각형 811" width="80" height="80" transform="translate(451 364)" fill="none"/>
    <g id="그룹_1187" data-name="그룹 1187" transform="translate(-16.999 10)">
      <g id="그룹_1186" data-name="그룹 1186" transform="translate(492.81 371.214)">
        <g id="사각형_257" data-name="사각형 257" transform="translate(0.19 3.766)" fill="#fff" stroke="#000" stroke-width="1.5">
          <rect width="46" height="42" rx="4" stroke="none"/>
          <rect x="0.75" y="0.75" width="44.5" height="40.5" rx="3.25" fill="none"/>
        </g>
        <g id="그룹_822" data-name="그룹 822" transform="translate(15.066 0)">
          <g id="그룹_1193" data-name="그룹 1193" transform="translate(0)">
            <g id="사각형_259" data-name="사각형 259" transform="translate(0.123 -0.214)" stroke="#000" stroke-width="1.5">
              <rect width="4" height="10" rx="2" stroke="none"/>
              <rect x="0.75" y="0.75" width="2.5" height="8.5" rx="1.25" fill="none"/>
            </g>
            <g id="사각형_277" data-name="사각형 277" transform="translate(12.123 -0.214)" stroke="#000" stroke-width="1.5">
              <rect width="4" height="10" rx="2" stroke="none"/>
              <rect x="0.75" y="0.75" width="2.5" height="8.5" rx="1.25" fill="none"/>
            </g>
          </g>
        </g>
        <g id="그룹_379" data-name="그룹 379" transform="translate(10.19 20.786)">
          <g id="사각형_263" data-name="사각형 263" stroke="#000" stroke-width="1.5">
            <rect width="6.277" height="3.766" rx="1.883" stroke="none"/>
            <rect x="0.75" y="0.75" width="4.777" height="2.266" rx="1.133" fill="none"/>
          </g>
          <g id="사각형_267" data-name="사각형 267" transform="translate(0 7.117)" stroke="#000" stroke-width="1.5">
            <rect width="6.277" height="3.766" rx="1.883" stroke="none"/>
            <rect x="0.75" y="0.75" width="4.777" height="2.266" rx="1.133" fill="none"/>
          </g>
          <g id="사각형_807" data-name="사각형 807" transform="translate(0 14.234)" stroke="#000" stroke-width="1.5">
            <rect width="6.277" height="3.766" rx="1.883" stroke="none"/>
            <rect x="0.75" y="0.75" width="4.777" height="2.266" rx="1.133" fill="none"/>
          </g>
          <g id="사각형_264" data-name="사각형 264" transform="translate(9.861)" stroke="#000" stroke-width="1.5">
            <rect width="6.277" height="3.766" rx="1.883" stroke="none"/>
            <rect x="0.75" y="0.75" width="4.777" height="2.266" rx="1.133" fill="none"/>
          </g>
          <g id="사각형_597" data-name="사각형 597" transform="translate(19.723)" stroke="#000" stroke-width="1.5">
            <rect width="6.277" height="3.766" rx="1.883" stroke="none"/>
            <rect x="0.75" y="0.75" width="4.777" height="2.266" rx="1.133" fill="none"/>
          </g>
          <g id="사각형_268" data-name="사각형 268" transform="translate(9.861 7.117)" stroke="#000" stroke-width="1.5">
            <rect width="6.277" height="3.766" rx="1.883" stroke="none"/>
            <rect x="0.75" y="0.75" width="4.777" height="2.266" rx="1.133" fill="none"/>
          </g>
          <g id="사각형_806" data-name="사각형 806" transform="translate(9.861 14.234)" stroke="#000" stroke-width="1.5">
            <rect width="6.277" height="3.766" rx="1.883" stroke="none"/>
            <rect x="0.75" y="0.75" width="4.777" height="2.266" rx="1.133" fill="none"/>
          </g>
          <g id="사각형_596" data-name="사각형 596" transform="translate(19.723 7.117)" stroke="#000" stroke-width="1.5">
            <rect width="6.277" height="3.766" rx="1.883" stroke="none"/>
            <rect x="0.75" y="0.75" width="4.777" height="2.266" rx="1.133" fill="none"/>
          </g>
          <g id="사각형_805" data-name="사각형 805" transform="translate(19.723 14.234)" stroke="#000" stroke-width="1.5">
            <rect width="6.277" height="3.766" rx="1.883" stroke="none"/>
            <rect x="0.75" y="0.75" width="4.777" height="2.266" rx="1.133" fill="none"/>
          </g>
        </g>
        <g id="사각형_261" data-name="사각형 261" transform="translate(0.189 13.786)" fill="none" stroke="#000" stroke-width="1.5">
          <rect width="45" height="1.5" stroke="none"/>
          <rect x="0.75" y="0.75" width="43.5" fill="none"/>
        </g>
      </g>
      <g id="그룹_1185" data-name="그룹 1185" transform="translate(477 386.011)">
        <path id="합치기_9" data-name="합치기 9" d="M1.467,14.907A9.6,9.6,0,0,1,0,9.8,9.9,9.9,0,0,1,10,0,9.9,9.9,0,0,1,20,9.8,9.613,9.613,0,0,1,18.536,14.9L10,30Z" transform="translate(0 -0.012)" fill="#fff" stroke="#000" stroke-linecap="round" stroke-linejoin="round" stroke-width="1.5"/>
        <g id="타원_42" data-name="타원 42" transform="translate(4.395 3.767)" fill="#fff" stroke="#000" stroke-width="1.5">
          <circle cx="5.65" cy="5.65" r="5.65" stroke="none"/>
          <circle cx="5.65" cy="5.65" r="4.9" fill="none"/>
        </g>
      </g>
    </g>
  </g>
</svg>
