<svg xmlns="http://www.w3.org/2000/svg" width="64" height="64" viewBox="0 0 64 64">
  <g id="icon_etc_on" transform="translate(26.404 14.146)">
    <rect id="사각형_367" data-name="사각형 367" width="64" height="64" transform="translate(-26.404 -14.146)" fill="#fff"/>
    <g id="그룹_499" data-name="그룹 499" transform="translate(-17)">
      <g id="사각형_106" data-name="사각형 106" transform="translate(-0.405 -0.145)" fill="none" stroke="#da0f47" stroke-width="3">
        <rect width="47" height="37" rx="4" stroke="none"/>
        <rect x="1.5" y="1.5" width="44" height="34" rx="2.5" fill="none"/>
      </g>
      <g id="합치기_12" data-name="합치기 12" transform="translate(9.595 14.855)" fill="none">
        <path d="M19.637,3.5A3.686,3.686,0,0,1,27,3.5a3.686,3.686,0,0,1-7.363,0Zm-9.819,0A3.594,3.594,0,0,1,13.5,0a3.6,3.6,0,0,1,3.682,3.5A3.6,3.6,0,0,1,13.5,7,3.6,3.6,0,0,1,9.817,3.5ZM0,3.5A3.594,3.594,0,0,1,3.682,0,3.594,3.594,0,0,1,7.363,3.5,3.594,3.594,0,0,1,3.682,7,3.594,3.594,0,0,1,0,3.5Z" stroke="none"/>
        <path d="M 3.682130813598633 3 C 3.280139923095703 3 3 3.263050079345703 3 3.499140024185181 C 3 3.736040115356445 3.280139923095703 4 3.682130813598633 4 C 4.083250045776367 4 4.362789154052734 3.736040115356445 4.362789154052734 3.499140024185181 C 4.362789154052734 3.263050079345703 4.083250045776367 3 3.682130813598633 3 M 13.5 3 C 13.0977201461792 3 12.81737995147705 3.263050079345703 12.81737995147705 3.499140024185181 C 12.81737995147705 3.736040115356445 13.0977201461792 4 13.5 4 C 13.90198993682861 4 14.18212985992432 3.736040115356445 14.18212985992432 3.499140024185181 C 14.18212985992432 3.263050079345703 13.90198993682861 3 13.5 3 M 23.31737899780273 3 C 22.916259765625 3 22.63672065734863 3.263050079345703 22.63672065734863 3.499140024185181 C 22.63672065734863 3.736040115356445 22.916259765625 4 23.31737899780273 4 C 23.71965980529785 4 24 3.736040115356445 24 3.499140024185181 C 24 3.263050079345703 23.71965980529785 3 23.31737899780273 3 M 3.682130813598633 0 C 5.714359283447266 0 7.362789154052734 1.567039966583252 7.362789154052734 3.499140024185181 C 7.362789154052734 5.43297004699707 5.714359283447266 7 3.682130813598633 7 C 1.64794921875 7 0 5.43297004699707 0 3.499140024185181 C 0 1.567039966583252 1.64794921875 0 3.682130813598633 0 Z M 13.5 0 C 15.53223037719727 0 17.18212890625 1.567039966583252 17.18212890625 3.499140024185181 C 17.18212890625 5.43297004699707 15.53223037719727 7 13.5 7 C 11.4658203125 7 9.817380905151367 5.43297004699707 9.817380905151367 3.499140024185181 C 9.817380905151367 1.567039966583252 11.4658203125 0 13.5 0 Z M 23.31737899780273 0 C 25.35205078125 0 27 1.567039966583252 27 3.499140024185181 C 27 5.43297004699707 25.35205078125 7 23.31737899780273 7 C 21.28516006469727 7 19.63672065734863 5.43297004699707 19.63672065734863 3.499140024185181 C 19.63672065734863 1.567039966583252 21.28516006469727 0 23.31737899780273 0 Z" stroke="none" fill="#da0f47"/>
      </g>
    </g>
  </g>
</svg>
