<svg xmlns="http://www.w3.org/2000/svg" xmlns:xlink="http://www.w3.org/1999/xlink" width="120" height="120" viewBox="0 0 120 120">
  <defs>
    <clipPath id="clip-path">
      <rect id="사각형_953" data-name="사각형 953" width="64.033" height="58.692" fill="none"/>
    </clipPath>
  </defs>
  <g id="Iconly_Light-Outline_Setting" data-name="Iconly/Light-Outline/Setting" transform="translate(-2.161 -3.825)">
    <g id="Setting" transform="translate(1.902 3.567)">
      <rect id="사각형_952" data-name="사각형 952" width="120" height="120" transform="translate(0.259 0.258)" fill="none"/>
      <g id="그룹_1546" data-name="그룹 1546" transform="translate(8.776 10.426)">
        <g id="그룹_1545" data-name="그룹 1545">
          <g id="Combined-Shape" transform="translate(9.817 10.075)" fill="none" fill-rule="evenodd">
            <path d="M26.9,20.017a9.833,9.833,0,1,1-9.833,9.836A9.847,9.847,0,0,1,26.9,20.017Z" stroke="none"/>
            <path d="M 26.89984130859375 20.01691436767578 C 21.47814178466797 20.01691436767578 17.06701278686523 24.43094253540039 17.06701278686523 29.85264205932617 C 17.06701278686523 35.27435302734375 21.47814178466797 39.68257141113281 26.89984130859375 39.68257141113281 C 32.32154846191406 39.68257141113281 36.73266220092773 35.27435302734375 36.73266220092773 29.85264205932617 C 36.73266220092773 24.43094253540039 32.32154846191406 20.01691436767578 26.89984130859375 20.01691436767578 M 26.89984130859375 15.01691436767578 C 35.07868194580078 15.01691436767578 41.73266220092773 21.67219161987305 41.73266220092773 29.85264205932617 C 41.73266220092773 38.02989196777344 35.07868194580078 44.68257141113281 26.89984130859375 44.68257141113281 C 18.72099304199219 44.68257141113281 12.06701278686523 38.02989196777344 12.06701278686523 29.85264205932617 C 12.06701278686523 21.67219161987305 18.72099304199219 15.01691436767578 26.89984130859375 15.01691436767578 Z" stroke="none" fill="#000"/>
          </g>
          <g id="Combined-Shape-2" data-name="Combined-Shape" transform="translate(-4.081 -5.091)" fill="none" fill-rule="evenodd">
            <path d="M43.6,5.091H37.957a5.185,5.185,0,0,0-5.2,5.223,12.064,12.064,0,0,1-12,11.892A11.627,11.627,0,0,1,14.9,20.574a5.248,5.248,0,0,0-7.1,1.965L4.751,27.554A5.232,5.232,0,0,0,6.7,34.629a12,12,0,0,1-.009,20.783,5.207,5.207,0,0,0-1.9,7.1l2.843,4.9A5.255,5.255,0,0,0,14.817,69.5a11.95,11.95,0,0,1,9.035-1.194A12.024,12.024,0,0,1,31.112,73.9a11.55,11.55,0,0,1,1.6,5.768,5.254,5.254,0,0,0,5.245,5.277H43.6a5.249,5.249,0,0,0,5.245-5.214A11.955,11.955,0,0,1,60.866,67.749a12.271,12.271,0,0,1,5.777,1.6,5.275,5.275,0,0,0,7.165-1.9L76.8,62.459a5.208,5.208,0,0,0-1.92-7.084,11.883,11.883,0,0,1-5.6-7.291,12.034,12.034,0,0,1,1.221-9.1A11.893,11.893,0,0,1,74.88,34.62a5.254,5.254,0,0,0,1.879-7.111A2.515,2.515,0,0,1,76.6,27.2L73.961,22.62a5.25,5.25,0,0,0-7.147-1.933,11.956,11.956,0,0,1-16.348-4.281,11.509,11.509,0,0,1-1.618-5.795,5.376,5.376,0,0,0-1.483-3.938A5.263,5.263,0,0,0,43.6,5.091Z" stroke="none"/>
            <path d="M 37.95660400390625 5.090576171875 C 36.5596809387207 5.090576171875 35.25289535522461 5.635818481445312 34.26603698730469 6.618171691894531 C 33.28369903564453 7.605018615722656 32.74746704101562 8.916328430175781 32.75646591186523 10.313232421875 C 32.66183471679688 16.90128326416016 27.27694320678711 22.20504760742188 20.75649642944336 22.20504760742188 C 18.66563415527344 22.18252563476562 16.65135955810547 21.61924743652344 14.90297698974609 20.57382202148438 C 12.44708251953125 19.17689514160156 9.238700866699219 20.03758239746094 7.801239013671875 22.53851318359375 L 4.750541687011719 27.55389785766602 C 3.3536376953125 29.97822189331055 4.209808349609375 33.18211364746094 6.69720458984375 34.62860488891602 C 10.38777160644531 36.76454162597656 12.69043731689453 40.74800491333008 12.69043731689453 45.01985168457031 C 12.69043731689453 49.29171371459961 10.38777160644531 53.27068328857422 6.688201904296875 55.41111373901367 C 4.214309692382812 56.84408187866211 3.358131408691406 60.02994537353516 4.791099548339844 62.50835800170898 L 7.634498596191406 67.41107940673828 C 8.33746337890625 68.67731475830078 9.486541748046875 69.59207916259766 10.81586456298828 69.96607971191406 C 12.14068603515625 70.33558654785156 13.60067749023438 70.17786407470703 14.81735992431641 69.50194549560547 C 16.60631561279297 68.45200347900391 18.68815994262695 67.90676116943359 20.77903747558594 67.90676116943359 C 21.81094360351562 67.90676116943359 22.84286499023438 68.03743743896484 23.85224914550781 68.30780029296875 C 26.8984375 69.1279296875 29.54356002807617 71.16472625732422 31.11171340942383 73.89997863769531 C 32.13011169433594 75.61683654785156 32.69338989257812 77.62208557128906 32.71140670776367 79.66790008544922 C 32.71140670776367 82.59690856933594 35.06363677978516 84.94463348388672 37.95660400390625 84.94463348388672 L 43.60285186767578 84.94463348388672 C 46.48229598999023 84.94463348388672 48.83452606201172 82.61042022705078 48.8480339050293 79.73097229003906 C 48.83002090454102 76.54962158203125 50.07373046875 73.52597045898438 52.34934234619141 71.25034332275391 C 54.59342193603516 69.00626373291016 57.72970581054688 67.65888977050781 60.86602020263672 67.74905395507812 C 62.92085266113281 67.79860687255859 64.89906311035156 68.35285186767578 66.64295959472656 69.34423828125 C 69.15288543701172 70.78171539306641 72.35678863525391 69.92552947998047 73.80779266357422 67.44711303710938 L 76.79988098144531 62.45877456665039 C 77.46680450439453 61.30969619750977 77.66056060791016 59.86772918701172 77.30457305908203 58.53840637207031 C 76.95309448242188 57.20908355712891 76.06990051269531 56.05549621582031 74.8802490234375 55.37506484985352 C 72.09543609619141 53.77086639404297 70.10820770263672 51.18431091308594 69.28357696533203 48.08406448364258 C 68.46795654296875 45.04238891601562 68.9140625 41.72134399414062 70.5047607421875 38.98608016967773 C 71.54117584228516 37.18362045288086 73.05976104736328 35.66501998901367 74.8802490234375 34.61959075927734 C 77.32260131835938 33.19112777709961 78.17877197265625 29.99625015258789 76.75933074951172 27.50883483886719 C 76.70074462890625 27.40969848632812 76.64668273925781 27.30606460571289 76.60162353515625 27.19791412353516 L 73.96099090576172 22.61963653564453 C 72.52352905273438 20.11869049072266 69.32411193847656 19.25800323486328 66.81417083740234 20.68648529052734 C 64.10146331787109 22.29067230224609 60.87503051757812 22.75028991699219 57.77478790283203 21.93468475341797 C 54.67903518676758 21.13259124755859 52.08348083496094 19.17240142822266 50.46575927734375 16.40560150146484 C 49.42934417724609 14.67521667480469 48.86606597900391 12.66095733642578 48.8480339050293 10.61064910888672 C 48.88858795166016 9.069541931152344 48.34785079956055 7.686141967773438 47.36551284790039 6.672248840332031 C 46.38766479492188 5.662864685058594 45.01328277587891 5.090576171875 43.60285186767578 5.090576171875 L 37.95660400390625 5.090576171875 M 37.95660400390625 0.090576171875 L 43.60285186767578 0.090576171875 C 46.36612701416016 0.090576171875 49.04651260375977 1.221466064453125 50.95671081542969 3.193267822265625 C 52.87024688720703 5.168281555175781 53.89490509033203 7.805549621582031 53.84869766235352 10.63030242919922 C 53.86958694458008 11.77296447753906 54.18246078491211 12.88018035888672 54.75520324707031 13.83643341064453 L 54.78209686279297 13.88188171386719 C 55.72072601318359 15.48722076416016 57.22892761230469 16.62815856933594 59.02885055541992 17.09449768066406 L 59.04688262939453 17.09920501708984 C 59.62974548339844 17.25254058837891 60.2254638671875 17.33029937744141 60.81748199462891 17.33029937744141 C 62.02723693847656 17.33029937744141 63.22078704833984 17.00261688232422 64.26909637451172 16.38269805908203 L 64.34100341796875 16.34097290039062 C 65.8861083984375 15.46160125732422 67.64009857177734 14.99678802490234 69.41334533691406 14.99678802490234 C 71.17983245849609 14.99678802490234 72.92601776123047 15.45537567138672 74.46309661865234 16.32297515869141 C 76.056396484375 17.22229766845703 77.38140106201172 18.53746795654297 78.29508209228516 20.12652587890625 L 81.09342193603516 24.97821807861328 L 81.15281677246094 25.12077331542969 C 83.85175323486328 29.96215438842773 82.18392944335938 36.14028167724609 77.40455627441406 38.93558883666992 L 77.37019348144531 38.95551300048828 C 76.31512451171875 39.5613899230957 75.43995666503906 40.43380355834961 74.83929443359375 41.47843551635742 L 74.82700347900391 41.49968338012695 C 73.89951324462891 43.09454345703125 73.63925170898438 45.02246475219727 74.11296081542969 46.78908157348633 L 74.11555480957031 46.79880523681641 C 74.59440612792969 48.59904098510742 75.75114440917969 50.1053581237793 77.37281036376953 51.04065322875977 C 79.70928192138672 52.38074493408203 81.44528198242188 54.64495086669922 82.13699340820312 57.25474166870117 C 82.83032989501953 59.85401916503906 82.46137237548828 62.6649284362793 81.12428283691406 64.96865081787109 L 81.08769989013672 65.03068542480469 L 78.10673522949219 70.00046539306641 C 77.18757629394531 71.55931854248047 75.86788940429688 72.84939575195312 74.28863525390625 73.73233032226562 C 72.75600433349609 74.58920288085938 71.01721954345703 75.04212951660156 69.26028442382812 75.04212951660156 C 67.47894287109375 75.04212951660156 65.71868896484375 74.57434844970703 64.16885375976562 73.68921661376953 C 63.13520050048828 73.10226440429688 61.95151901245117 72.77668762207031 60.7454833984375 72.74760437011719 L 60.72229766845703 72.74699401855469 C 59.02291107177734 72.69792938232422 57.20218658447266 73.46855926513672 55.88488006591797 74.78588104248047 C 54.56089782714844 76.10986328125 53.83749771118164 77.85601806640625 53.84796142578125 79.70266723632812 L 53.84809875488281 79.72854614257812 L 53.84797668457031 79.75443267822266 C 53.835205078125 82.47948455810547 52.76129913330078 85.04013061523438 50.82412719726562 86.96468353271484 C 48.88985061645508 88.88632965087891 46.32529830932617 89.94463348388672 43.60285186767578 89.94463348388672 L 37.95660400390625 89.94463348388672 C 35.21646499633789 89.94463348388672 32.64196014404297 88.87540435791016 30.70732879638672 86.93389892578125 C 28.7818603515625 85.00157165527344 27.71855926513672 82.43215179443359 27.71144104003906 79.69577026367188 C 27.69850921630859 78.54368591308594 27.38741302490234 77.42200469970703 26.81135940551758 76.45083618164062 L 26.77402114868164 76.38683319091797 C 25.86366271972656 74.79893493652344 24.32641983032227 73.61454010009766 22.55598449707031 73.13684844970703 C 21.98505020141602 72.98417663574219 21.38719940185547 72.90676116943359 20.77903747558594 72.90676116943359 C 19.56359100341797 72.90676116943359 18.34515762329102 73.22900390625 17.34819030761719 73.81412506103516 L 17.24551391601562 73.87275695800781 C 15.72882080078125 74.71534729003906 14.00019073486328 75.16069793701172 12.24648284912109 75.16069793701172 C 11.30617523193359 75.16069793701172 10.37289428710938 75.03337097167969 9.472572326660156 74.78226470947266 L 9.461715698242188 74.77922058105469 C 8.148788452148438 74.40983581542969 6.938278198242188 73.78601837158203 5.863853454589844 72.92512512207031 C 4.817756652832031 72.08694458007812 3.951858520507812 71.06450653076172 3.289543151855469 69.88555145263672 L 0.4625244140625 65.01104736328125 C -2.348930358886719 60.1484375 -0.6803512573242188 53.90102005004883 4.182083129882812 51.08452606201172 C 6.346961975097656 49.8320198059082 7.690437316894531 47.50865173339844 7.690437316894531 45.01985168457031 C 7.690437316894531 42.52826690673828 6.35015869140625 40.20477294921875 4.192649841308594 38.95609664916992 L 4.183685302734375 38.95089721679688 C 1.841773986816406 37.58901977539062 0.1583099365234375 35.39511108398438 -0.556610107421875 32.77334213256836 C -0.90313720703125 31.50255966186523 -1.00213623046875 30.19949722290039 -0.8508377075195312 28.90032958984375 C -0.6920089721679688 27.53632736206055 -0.2650070190429688 26.24345016479492 0.4182662963867188 25.0576171875 L 0.4787445068359375 24.95549774169922 L 3.502433776855469 19.98450469970703 C 5.333778381347656 16.85013580322266 8.723625183105469 14.90599060058594 12.36703491210938 14.90599060058594 C 14.12316131591797 14.90599060058594 15.85491180419922 15.363037109375 17.37506866455078 16.22769927978516 L 17.46895599365234 16.28246307373047 C 18.44968032836914 16.86887359619141 19.59509658813477 17.18762969970703 20.78329467773438 17.20500183105469 C 24.56400680541992 17.19060516357422 27.68167114257812 14.09246826171875 27.75635528564453 10.27867126464844 C 27.75608825683594 7.564346313476562 28.80788803100586 5.014060974121094 30.72241973876953 3.090744018554688 L 30.73860549926758 3.074562072753906 C 32.67168045043945 1.150314331054688 35.23508071899414 0.090576171875 37.95660400390625 0.090576171875 Z" stroke="none" fill="#000"/>
          </g>
        </g>
        <g id="그룹_1544" data-name="그룹 1544" transform="translate(43.05 43.177)">
          <path id="패스_3397" data-name="패스 3397" d="M28.118,2.86,1.475,50.822l2.736,4.649H57.5l3.136-3.129L32.2,1.251" transform="translate(1.162 0.986)" fill="#fff"/>
          <g id="그룹_1543" data-name="그룹 1543" transform="translate(0 0)">
            <g id="그룹_1542" data-name="그룹 1542" clip-path="url(#clip-path)">
              <path id="패스_3398" data-name="패스 3398" d="M57.678,55.471H4.389a3.129,3.129,0,0,1-2.736-4.649L28.3,2.86a3.13,3.13,0,0,1,5.472,0L60.412,50.822a3.129,3.129,0,0,1-2.736,4.649Z" transform="translate(0.984 0.986)" fill="#fff"/>
              <path id="패스_3399" data-name="패스 3399" d="M32.017,4.47a.84.84,0,0,0-.781.461L4.586,52.893a.9.9,0,0,0,.781,1.329H58.66a.9.9,0,0,0,.783-1.329L32.8,4.932a.839.839,0,0,0-.781-.461m0-4.47a5.311,5.311,0,0,1,4.689,2.759L63.352,50.722a5.365,5.365,0,0,1-4.69,7.97H5.373a5.364,5.364,0,0,1-4.69-7.97L27.328,2.759A5.311,5.311,0,0,1,32.017,0" transform="translate(0 0)" fill="#070303"/>
              <path id="패스_3400" data-name="패스 3400" d="M19.587,11.823h0a2.683,2.683,0,0,1,2.682,2.682V27.022a2.682,2.682,0,0,1-5.364,0V14.505a2.683,2.683,0,0,1,2.682-2.682" transform="translate(11.817 9.318)" fill="#070303"/>
              <path id="패스_3401" data-name="패스 3401" d="M19.587,23.823a2.682,2.682,0,1,1-2.682,2.682,2.683,2.683,0,0,1,2.682-2.682" transform="translate(11.817 18.776)" fill="#070303"/>
            </g>
          </g>
        </g>
      </g>
    </g>
  </g>
</svg>
