<svg xmlns="http://www.w3.org/2000/svg" xmlns:xlink="http://www.w3.org/1999/xlink" width="149" height="149" viewBox="0 0 149 149">
  <defs>
    <clipPath id="clip-path">
      <rect id="사각형_667" data-name="사각형 667" width="149" height="149" transform="translate(-0.279)" fill="none"/>
    </clipPath>
  </defs>
  <g id="그룹_999" data-name="그룹 999" transform="translate(0.279)">
    <g id="그룹_998" data-name="그룹 998" clip-path="url(#clip-path)">
      <path id="패스_431" data-name="패스 431" d="M72.015,76.178c4.651.259,20.669-4.91,20.669-4.91s-.259-1.55-3.1-4.392-1.55-35.655-2.325-38.5S84.158,9.262,59.614,9,33,23.471,31.967,27.088s-.516,29.713,0,33.846-4.134,10.335-4.134,10.335,15.5,4.651,19.894,4.91" transform="translate(15.314 4.952)" fill="none" stroke="#000" stroke-linecap="round" stroke-linejoin="round" stroke-width="2.5"/>
      <path id="패스_432" data-name="패스 432" d="M63.635,24.335s-7.492,4.91-14.468,6.2a83.282,83.282,0,0,1-13.436,1.291S32.64,47.281,34.44,52.755,41.149,68,56.143,68,77.474,56.992,78.621,52.755s1.809-18.861,0-19.378-5.167.259-8.267-2.842S63.635,24.335,63.635,24.335Z" transform="translate(18.639 13.389)" fill="none" stroke="#000" stroke-linecap="round" stroke-linejoin="round" stroke-width="2.5"/>
      <circle id="타원_135" data-name="타원 135" cx="1.163" cy="1.163" r="1.163" transform="translate(61.104 55.164)" fill="none" stroke="#000" stroke-width="2.5"/>
      <circle id="타원_136" data-name="타원 136" cx="1.163" cy="1.163" r="1.163" transform="translate(87.148 55.164)" fill="none" stroke="#000" stroke-width="2.5"/>
      <path id="패스_433" data-name="패스 433" d="M44.167,43.335h12.4s-4.675,6.2-6.3,6.2S44.167,43.335,44.167,43.335Z" transform="translate(24.301 23.843)" fill="none" stroke="#000" stroke-linecap="round" stroke-linejoin="round" stroke-width="2.5"/>
      <path id="패스_434" data-name="패스 434" d="M56.665,52.168V59.66S42.972,59.4,32.636,63.795,13,106.941,13,106.941H122.806s-8.526-34.363-16.277-41.08-27.645-6.2-27.645-6.2V52.168" transform="translate(7.153 28.703)" fill="none" stroke="#000" stroke-linecap="round" stroke-linejoin="round" stroke-width="2.5"/>
      <line id="선_118" data-name="선 118" y2="41.856" transform="translate(41.08 92.498)" fill="none" stroke="#000" stroke-width="2.5"/>
      <line id="선_119" data-name="선 119" y2="41.856" transform="translate(108.975 92.498)" fill="none" stroke="#000" stroke-width="2.5"/>
      <line id="선_120" data-name="선 120" x2="23.512" y2="46.247" transform="translate(55.55 88.881)" fill="none" stroke="#000" stroke-width="2.5"/>
      <line id="선_121" data-name="선 121" x1="19.894" y2="36.066" transform="translate(74.67 88.881)" fill="none" stroke="#000" stroke-width="2.5"/>
      <path id="패스_435" data-name="패스 435" d="M39.5,58.023,46.476,70.3l6.717-6.847L41.954,56.085Z" transform="translate(21.733 30.858)" fill="none" stroke="#000" stroke-linecap="round" stroke-linejoin="round" stroke-width="2.5"/>
      <path id="패스_436" data-name="패스 436" d="M61.444,58.023,54.468,70.3l-6.717-6.847L58.99,56.085Z" transform="translate(26.273 30.858)" fill="none" stroke="#000" stroke-linecap="round" stroke-linejoin="round" stroke-width="2.5"/>
      <circle id="타원_137" data-name="타원 137" cx="0.388" cy="0.388" r="0.388" transform="translate(74.281 102.445)" fill="none" stroke="#000" stroke-width="2.5"/>
      <circle id="타원_138" data-name="타원 138" cx="0.388" cy="0.388" r="0.388" transform="translate(74.281 108.646)" fill="none" stroke="#000" stroke-width="2.5"/>
      <path id="패스_437" data-name="패스 437" d="M59.8,74.585h6.2a.388.388,0,1,1,0,.775H59.8a.388.388,0,1,1,0-.775Z" transform="translate(32.692 41.037)" fill="none" stroke="#000" stroke-width="2.5"/>
    </g>
  </g>
</svg>
