<svg xmlns="http://www.w3.org/2000/svg" width="140" height="140" viewBox="0 0 140 140">
  <g id="그룹_913" data-name="그룹 913" transform="translate(-328 -314)">
    <circle id="타원_37" data-name="타원 37" cx="70" cy="70" r="70" transform="translate(328 314)" fill="#fbf5ff"/>
    <g id="icon_step05" transform="translate(-52 -7)">
      <g id="그룹_397" data-name="그룹 397">
        <g id="사각형_296" data-name="사각형 296" transform="translate(415 360)" fill="#e1d0b6" stroke="#000" stroke-width="1.5">
          <path d="M4,0H38a4,4,0,0,1,4,4V58a0,0,0,0,1,0,0H4a4,4,0,0,1-4-4V4A4,4,0,0,1,4,0Z" stroke="none"/>
          <path d="M4,.75H38A3.25,3.25,0,0,1,41.25,4V56.5a.75.75,0,0,1-.75.75H4A3.25,3.25,0,0,1,.75,54V4A3.25,3.25,0,0,1,4,.75Z" fill="none"/>
        </g>
        <g id="그룹_396" data-name="그룹 396">
          <g id="사각형_298" data-name="사각형 298" transform="translate(422 369)" fill="#ddd" stroke="#000" stroke-width="1.5">
            <rect width="8" height="6" rx="2" stroke="none"/>
            <rect x="0.75" y="0.75" width="6.5" height="4.5" rx="1.25" fill="none"/>
          </g>
          <g id="사각형_303" data-name="사각형 303" transform="translate(422 377)" fill="#ddd" stroke="#000" stroke-width="1.5">
            <rect width="8" height="6" rx="2" stroke="none"/>
            <rect x="0.75" y="0.75" width="6.5" height="4.5" rx="1.25" fill="none"/>
          </g>
          <g id="사각형_306" data-name="사각형 306" transform="translate(422 385)" fill="#ddd" stroke="#000" stroke-width="1.5">
            <rect width="8" height="6" rx="2" stroke="none"/>
            <rect x="0.75" y="0.75" width="6.5" height="4.5" rx="1.25" fill="none"/>
          </g>
          <g id="사각형_309" data-name="사각형 309" transform="translate(422 393)" fill="#ddd" stroke="#000" stroke-width="1.5">
            <rect width="8" height="6" rx="2" stroke="none"/>
            <rect x="0.75" y="0.75" width="6.5" height="4.5" rx="1.25" fill="none"/>
          </g>
          <g id="사각형_299" data-name="사각형 299" transform="translate(432 369)" fill="#ddd" stroke="#000" stroke-width="1.5">
            <rect width="8" height="6" rx="2" stroke="none"/>
            <rect x="0.75" y="0.75" width="6.5" height="4.5" rx="1.25" fill="none"/>
          </g>
          <g id="사각형_302" data-name="사각형 302" transform="translate(432 377)" fill="#ddd" stroke="#000" stroke-width="1.5">
            <rect width="8" height="6" rx="2" stroke="none"/>
            <rect x="0.75" y="0.75" width="6.5" height="4.5" rx="1.25" fill="none"/>
          </g>
          <g id="사각형_305" data-name="사각형 305" transform="translate(432 385)" fill="#ddd" stroke="#000" stroke-width="1.5">
            <rect width="8" height="6" rx="2" stroke="none"/>
            <rect x="0.75" y="0.75" width="6.5" height="4.5" rx="1.25" fill="none"/>
          </g>
          <g id="사각형_308" data-name="사각형 308" transform="translate(432 393)" fill="#ddd" stroke="#000" stroke-width="1.5">
            <rect width="8" height="6" rx="2" stroke="none"/>
            <rect x="0.75" y="0.75" width="6.5" height="4.5" rx="1.25" fill="none"/>
          </g>
          <g id="사각형_300" data-name="사각형 300" transform="translate(442 369)" fill="#ddd" stroke="#000" stroke-width="1.5">
            <rect width="8" height="6" rx="2" stroke="none"/>
            <rect x="0.75" y="0.75" width="6.5" height="4.5" rx="1.25" fill="none"/>
          </g>
          <g id="사각형_301" data-name="사각형 301" transform="translate(442 377)" fill="#ddd" stroke="#000" stroke-width="1.5">
            <rect width="8" height="6" rx="2" stroke="none"/>
            <rect x="0.75" y="0.75" width="6.5" height="4.5" rx="1.25" fill="none"/>
          </g>
          <g id="사각형_304" data-name="사각형 304" transform="translate(442 385)" fill="#ddd" stroke="#000" stroke-width="1.5">
            <rect width="8" height="6" rx="2" stroke="none"/>
            <rect x="0.75" y="0.75" width="6.5" height="4.5" rx="1.25" fill="none"/>
          </g>
          <g id="사각형_307" data-name="사각형 307" transform="translate(442 393)" fill="#ddd" stroke="#000" stroke-width="1.5">
            <rect width="8" height="6" rx="2" stroke="none"/>
            <rect x="0.75" y="0.75" width="6.5" height="4.5" rx="1.25" fill="none"/>
          </g>
        </g>
        <g id="사각형_310" data-name="사각형 310" transform="translate(431 404)" fill="#edcec9" stroke="#000" stroke-width="1.5">
          <rect width="10" height="14" rx="2" stroke="none"/>
          <rect x="0.75" y="0.75" width="8.5" height="12.5" rx="1.25" fill="none"/>
        </g>
      </g>
      <g id="그룹_395" data-name="그룹 395" transform="translate(0.5)">
        <g id="사각형_297" data-name="사각형 297" transform="translate(455 377)" fill="#5b7d83" stroke="#000" stroke-width="1.5">
          <path d="M4,0H26a4,4,0,0,1,4,4V37a4,4,0,0,1-4,4H0a0,0,0,0,1,0,0V4A4,4,0,0,1,4,0Z" stroke="none"/>
          <path d="M4,.75H26A3.25,3.25,0,0,1,29.25,4V37A3.25,3.25,0,0,1,26,40.25H1.5a.75.75,0,0,1-.75-.75V4A3.25,3.25,0,0,1,4,.75Z" fill="none"/>
        </g>
        <g id="그룹_394" data-name="그룹 394">
          <g id="사각형_313" data-name="사각형 313" transform="translate(463 383)" fill="#ddd" stroke="#000" stroke-width="1.5">
            <rect width="6" height="6" rx="2" stroke="none"/>
            <rect x="0.75" y="0.75" width="4.5" height="4.5" rx="1.25" fill="none"/>
          </g>
          <g id="사각형_316" data-name="사각형 316" transform="translate(463 391)" fill="#ddd" stroke="#000" stroke-width="1.5">
            <rect width="6" height="6" rx="2" stroke="none"/>
            <rect x="0.75" y="0.75" width="4.5" height="4.5" rx="1.25" fill="none"/>
          </g>
          <g id="사각형_318" data-name="사각형 318" transform="translate(463 399)" fill="#ddd" stroke="#000" stroke-width="1.5">
            <rect width="6" height="6" rx="2" stroke="none"/>
            <rect x="0.75" y="0.75" width="4.5" height="4.5" rx="1.25" fill="none"/>
          </g>
          <g id="사각형_314" data-name="사각형 314" transform="translate(471 383)" fill="#ddd" stroke="#000" stroke-width="1.5">
            <rect width="6" height="6" rx="2" stroke="none"/>
            <rect x="0.75" y="0.75" width="4.5" height="4.5" rx="1.25" fill="none"/>
          </g>
          <g id="사각형_315" data-name="사각형 315" transform="translate(471 391)" fill="#ddd" stroke="#000" stroke-width="1.5">
            <rect width="6" height="6" rx="2" stroke="none"/>
            <rect x="0.75" y="0.75" width="4.5" height="4.5" rx="1.25" fill="none"/>
          </g>
          <g id="사각형_317" data-name="사각형 317" transform="translate(471 399)" fill="#ddd" stroke="#000" stroke-width="1.5">
            <rect width="6" height="6" rx="2" stroke="none"/>
            <rect x="0.75" y="0.75" width="4.5" height="4.5" rx="1.25" fill="none"/>
          </g>
        </g>
        <g id="사각형_311" data-name="사각형 311" transform="translate(466 408)" fill="#edcec9" stroke="#000" stroke-width="1.5">
          <path d="M2,0H6A2,2,0,0,1,8,2v8a0,0,0,0,1,0,0H0a0,0,0,0,1,0,0V2A2,2,0,0,1,2,0Z" stroke="none"/>
          <path d="M2,.75H6A1.25,1.25,0,0,1,7.25,2V8.5a.75.75,0,0,1-.75.75h-5A.75.75,0,0,1,.75,8.5V2A1.25,1.25,0,0,1,2,.75Z" fill="none"/>
        </g>
      </g>
    </g>
  </g>
</svg>
