<svg xmlns="http://www.w3.org/2000/svg" width="80" height="80" viewBox="0 0 80 80">
    <g data-name="그룹 1208">
        <path data-name="사각형 811" style="fill:none" d="M0 0h80v80H0z"/>
        <g data-name="그룹 1187">
            <g data-name="그룹 1186">
                <g data-name="사각형 257" transform="translate(25.001 20.98)" style="stroke:#000;stroke-width:1.5px;fill:#e1d0b6">
                    <rect width="46" height="42" rx="4" style="stroke:none"/>
                    <rect x=".75" y=".75" width="44.5" height="40.5" rx="3.25" style="fill:none"/>
                </g>
                <g data-name="그룹 822">
                    <g data-name="그룹 1193">
                        <g data-name="사각형 259" transform="translate(40 17)" style="stroke:#000;stroke-width:1.5px">
                            <rect width="4" height="10" rx="2" style="stroke:none"/>
                            <rect x=".75" y=".75" width="2.5" height="8.5" rx="1.25" style="fill:none"/>
                        </g>
                        <g data-name="사각형 277" transform="translate(52 17)" style="stroke:#000;stroke-width:1.5px">
                            <rect width="4" height="10" rx="2" style="stroke:none"/>
                            <rect x=".75" y=".75" width="2.5" height="8.5" rx="1.25" style="fill:none"/>
                        </g>
                    </g>
                </g>
                <g data-name="그룹 379">
                    <g data-name="사각형 263" style="stroke:#000;stroke-width:1.5px" transform="translate(35.001 38)">
                        <rect width="6.277" height="3.766" rx="1.883" style="stroke:none"/>
                        <rect x=".75" y=".75" width="4.777" height="2.266" rx="1.133" style="fill:none"/>
                    </g>
                    <g data-name="사각형 267" transform="translate(35.001 45.117)" style="stroke:#000;stroke-width:1.5px">
                        <rect width="6.277" height="3.766" rx="1.883" style="stroke:none"/>
                        <rect x=".75" y=".75" width="4.777" height="2.266" rx="1.133" style="fill:none"/>
                    </g>
                    <g data-name="사각형 807" transform="translate(35.001 52.234)" style="stroke:#000;stroke-width:1.5px">
                        <rect width="6.277" height="3.766" rx="1.883" style="stroke:none"/>
                        <rect x=".75" y=".75" width="4.777" height="2.266" rx="1.133" style="fill:none"/>
                    </g>
                    <g data-name="사각형 264" transform="translate(44.862 38)" style="stroke:#000;stroke-width:1.5px">
                        <rect width="6.277" height="3.766" rx="1.883" style="stroke:none"/>
                        <rect x=".75" y=".75" width="4.777" height="2.266" rx="1.133" style="fill:none"/>
                    </g>
                    <g data-name="사각형 597" transform="translate(54.724 38)" style="stroke:#000;stroke-width:1.5px">
                        <rect width="6.277" height="3.766" rx="1.883" style="stroke:none"/>
                        <rect x=".75" y=".75" width="4.777" height="2.266" rx="1.133" style="fill:none"/>
                    </g>
                    <g data-name="사각형 268" transform="translate(44.862 45.117)" style="stroke:#000;stroke-width:1.5px">
                        <rect width="6.277" height="3.766" rx="1.883" style="stroke:none"/>
                        <rect x=".75" y=".75" width="4.777" height="2.266" rx="1.133" style="fill:none"/>
                    </g>
                    <g data-name="사각형 806" transform="translate(44.862 52.234)" style="stroke:#000;stroke-width:1.5px">
                        <rect width="6.277" height="3.766" rx="1.883" style="stroke:none"/>
                        <rect x=".75" y=".75" width="4.777" height="2.266" rx="1.133" style="fill:none"/>
                    </g>
                    <g data-name="사각형 596" transform="translate(54.724 45.117)" style="stroke:#000;stroke-width:1.5px">
                        <rect width="6.277" height="3.766" rx="1.883" style="stroke:none"/>
                        <rect x=".75" y=".75" width="4.777" height="2.266" rx="1.133" style="fill:none"/>
                    </g>
                    <g data-name="사각형 805" transform="translate(54.724 52.234)" style="stroke:#000;stroke-width:1.5px">
                        <rect width="6.277" height="3.766" rx="1.883" style="stroke:none"/>
                        <rect x=".75" y=".75" width="4.777" height="2.266" rx="1.133" style="fill:none"/>
                    </g>
                </g>
                <g data-name="사각형 261" transform="translate(25 31)" style="stroke:#000;stroke-width:1.5px;fill:none">
                    <path style="stroke:none" d="M0 0h45v1.5H0z"/>
                    <rect x=".75" y=".75" width="43.5" style="fill:none"/>
                </g>
            </g>
            <g data-name="그룹 1185">
                <path data-name="합치기 9" d="M1.467 14.907A9.6 9.6 0 0 1 0 9.8 9.9 9.9 0 0 1 10 0a9.9 9.9 0 0 1 10 9.8 9.613 9.613 0 0 1-1.464 5.1L10 30z" transform="translate(9.001 31.999)" style="fill:#edcec9;stroke-linecap:round;stroke-linejoin:round;stroke:#000;stroke-width:1.5px"/>
                <g data-name="타원 42" transform="translate(13.396 35.778)" style="fill:#5b7d83;stroke:#000;stroke-width:1.5px">
                    <circle cx="5.65" cy="5.65" r="5.65" style="stroke:none"/>
                    <circle cx="5.65" cy="5.65" r="4.9" style="fill:none"/>
                </g>
            </g>
        </g>
    </g>
</svg>
