<svg xmlns="http://www.w3.org/2000/svg" width="64" height="64" viewBox="0 0 64 64">
  <g id="icon_wedding" transform="translate(18.049 8.859)">
    <rect id="사각형_479" data-name="사각형 479" width="64" height="64" transform="translate(-18.049 -8.859)" fill="#fff" opacity="0"/>
    <g id="img" transform="translate(-4.049 -3.859)">
      <g id="그룹_96" data-name="그룹 96" transform="translate(3.865)">
        <g id="패스_60" data-name="패스 60" transform="translate(28.27 23.367) rotate(180)" fill="none">
          <path d="M14.212,0,28.27,16.471l-4.673,6.9H4.827L0,16.471Z" stroke="none"/>
          <path d="M 14.19933891296387 4.606590270996094 L 3.796428680419922 16.66315841674805 L 6.389139175415039 20.36747932434082 L 22.00537109375 20.36747932434082 L 24.50414276123047 16.67998886108398 L 14.19933891296387 4.606590270996094 M 14.21171569824219 -1.9073486328125e-06 L 28.26978492736816 16.47082901000977 L 23.59637451171875 23.36747932434082 L 4.827064514160156 23.36747932434082 L -3.814697265625e-06 16.47082901000977 L 14.21171569824219 -1.9073486328125e-06 Z" stroke="none" fill="#da0f47"/>
        </g>
        <path id="패스_61" data-name="패스 61" d="M6238.124,1765.219h24.568" transform="translate(-6236.735 -1758.444)" fill="none" stroke="#da0f47" stroke-width="3"/>
        <path id="패스_63" data-name="패스 63" d="M6243.65,1760.967l5,6.226-5.272,13.509" transform="translate(-6228.803 -1759.891)" fill="none" stroke="#da0f47" stroke-linejoin="round" stroke-width="3"/>
        <path id="패스_71" data-name="패스 71" d="M6248.372,1760.967l-5,6.226,5.274,13.509" transform="translate(-6234.877 -1759.891)" fill="none" stroke="#da0f47" stroke-linejoin="round" stroke-width="3"/>
      </g>
      <g id="패스_70" data-name="패스 70" transform="translate(5.531 23.58)" fill="none">
        <path d="M12.469,0A12.444,12.444,0,1,1,0,12.444,12.457,12.457,0,0,1,12.469,0Z" stroke="none"/>
        <path d="M 12.469162940979 3.000001907348633 C 7.247852325439453 3.000001907348633 3.000003814697266 7.236732482910156 3.000003814697266 12.4443826675415 C 3.000003814697266 17.65203285217285 7.247852325439453 21.88876342773438 12.469162940979 21.88876342773438 C 17.69047355651855 21.88876342773438 21.93832397460938 17.65203285217285 21.93832397460938 12.4443826675415 C 21.93832397460938 7.236732482910156 17.69047355651855 3.000001907348633 12.469162940979 3.000001907348633 M 12.469162940979 1.9073486328125e-06 C 19.35569381713867 1.9073486328125e-06 24.93832206726074 5.571542739868164 24.93832206726074 12.4443826675415 C 24.93832206726074 19.31722259521484 19.35569381713867 24.88876342773438 12.469162940979 24.88876342773438 C 5.582632064819336 24.88876342773438 3.814697265625e-06 19.31722259521484 3.814697265625e-06 12.4443826675415 C 3.814697265625e-06 5.571542739868164 5.582632064819336 1.9073486328125e-06 12.469162940979 1.9073486328125e-06 Z" stroke="none" fill="#da0f47"/>
      </g>
      <g id="패스_72" data-name="패스 72" transform="translate(0 18.05)" fill="none">
        <path d="M18,0A17.975,17.975,0,1,1,0,17.975,17.988,17.988,0,0,1,18,0Z" stroke="none"/>
        <path d="M 18 3 C 13.99258041381836 3 10.22522926330566 4.558210372924805 7.391939163208008 7.387599945068359 C 4.559749603271484 10.21588897705078 3 13.97597885131836 3 17.9752197265625 C 3 21.97446060180664 4.559749603271484 25.73455047607422 7.391939163208008 28.56283950805664 C 10.22522926330566 31.3922290802002 13.99258041381836 32.950439453125 18 32.950439453125 C 22.00741958618164 32.950439453125 25.7747688293457 31.3922290802002 28.60805892944336 28.56283950805664 C 31.44025039672852 25.73455047607422 33 21.97446060180664 33 17.9752197265625 C 33 13.97597885131836 31.44025039672852 10.21588897705078 28.60805892944336 7.387599945068359 C 25.7747688293457 4.558210372924805 22.00741958618164 3 18 3 M 18 0 C 27.94112014770508 0 36 8.047779083251953 36 17.9752197265625 C 36 27.90266036987305 27.94112014770508 35.950439453125 18 35.950439453125 C 8.058879852294922 35.950439453125 0 27.90266036987305 0 17.9752197265625 C 0 8.047779083251953 8.058879852294922 0 18 0 Z" stroke="none" fill="#da0f47"/>
      </g>
    </g>
  </g>
</svg>
