<svg xmlns="http://www.w3.org/2000/svg" width="160" height="160" viewBox="0 0 160 160">
  <g id="booking_img05" transform="translate(-371 -314)">
    <circle id="타원_37" data-name="타원 37" cx="80" cy="80" r="80" transform="translate(371 314)" fill="#fbf5ff"/>
    <g id="그룹_398" data-name="그룹 398" transform="translate(411 358.571)">
      <g id="그룹_397" data-name="그룹 397" transform="translate(0 0.429)">
        <g id="사각형_296" data-name="사각형 296" fill="#e1d0b6" stroke="#000" stroke-width="3">
          <path d="M4,0H45a4,4,0,0,1,4,4V67a0,0,0,0,1,0,0H4a4,4,0,0,1-4-4V4A4,4,0,0,1,4,0Z" stroke="none"/>
          <path d="M4,1.5H45A2.5,2.5,0,0,1,47.5,4V65.5a0,0,0,0,1,0,0H4A2.5,2.5,0,0,1,1.5,63V4A2.5,2.5,0,0,1,4,1.5Z" fill="none"/>
        </g>
        <g id="그룹_396" data-name="그룹 396" transform="translate(8.152 10.189)">
          <g id="사각형_298" data-name="사각형 298" transform="translate(-0.152 -0.189)" fill="#ddd" stroke="#000" stroke-width="3">
            <rect width="9" height="7" rx="2" stroke="none"/>
            <rect x="1.5" y="1.5" width="6" height="4" rx="0.5" fill="none"/>
          </g>
          <g id="사각형_303" data-name="사각형 303" transform="translate(-0.152 8.811)" fill="#ddd" stroke="#000" stroke-width="3">
            <rect width="9" height="7" rx="2" stroke="none"/>
            <rect x="1.5" y="1.5" width="6" height="4" rx="0.5" fill="none"/>
          </g>
          <g id="사각형_306" data-name="사각형 306" transform="translate(-0.152 18.811)" fill="#ddd" stroke="#000" stroke-width="3">
            <rect width="9" height="7" rx="2" stroke="none"/>
            <rect x="1.5" y="1.5" width="6" height="4" rx="0.5" fill="none"/>
          </g>
          <g id="사각형_309" data-name="사각형 309" transform="translate(-0.152 27.811)" fill="#ddd" stroke="#000" stroke-width="3">
            <rect width="9" height="7" rx="2" stroke="none"/>
            <rect x="1.5" y="1.5" width="6" height="4" rx="0.5" fill="none"/>
          </g>
          <g id="사각형_299" data-name="사각형 299" transform="translate(10.848 -0.189)" fill="#ddd" stroke="#000" stroke-width="3">
            <rect width="11" height="7" rx="2" stroke="none"/>
            <rect x="1.5" y="1.5" width="8" height="4" rx="0.5" fill="none"/>
          </g>
          <g id="사각형_302" data-name="사각형 302" transform="translate(10.848 8.811)" fill="#ddd" stroke="#000" stroke-width="3">
            <rect width="11" height="7" rx="2" stroke="none"/>
            <rect x="1.5" y="1.5" width="8" height="4" rx="0.5" fill="none"/>
          </g>
          <g id="사각형_305" data-name="사각형 305" transform="translate(10.848 18.811)" fill="#ddd" stroke="#000" stroke-width="3">
            <rect width="11" height="7" rx="2" stroke="none"/>
            <rect x="1.5" y="1.5" width="8" height="4" rx="0.5" fill="none"/>
          </g>
          <g id="사각형_308" data-name="사각형 308" transform="translate(10.848 27.811)" fill="#ddd" stroke="#000" stroke-width="3">
            <rect width="11" height="7" rx="2" stroke="none"/>
            <rect x="1.5" y="1.5" width="8" height="4" rx="0.5" fill="none"/>
          </g>
          <g id="사각형_300" data-name="사각형 300" transform="translate(23.848 -0.189)" fill="#ddd" stroke="#000" stroke-width="3">
            <rect width="9" height="7" rx="2" stroke="none"/>
            <rect x="1.5" y="1.5" width="6" height="4" rx="0.5" fill="none"/>
          </g>
          <g id="사각형_301" data-name="사각형 301" transform="translate(23.848 8.811)" fill="#ddd" stroke="#000" stroke-width="3">
            <rect width="9" height="7" rx="2" stroke="none"/>
            <rect x="1.5" y="1.5" width="6" height="4" rx="0.5" fill="none"/>
          </g>
          <g id="사각형_304" data-name="사각형 304" transform="translate(23.848 18.811)" fill="#ddd" stroke="#000" stroke-width="3">
            <rect width="9" height="7" rx="2" stroke="none"/>
            <rect x="1.5" y="1.5" width="6" height="4" rx="0.5" fill="none"/>
          </g>
          <g id="사각형_307" data-name="사각형 307" transform="translate(23.848 27.811)" fill="#ddd" stroke="#000" stroke-width="3">
            <rect width="9" height="7" rx="2" stroke="none"/>
            <rect x="1.5" y="1.5" width="6" height="4" rx="0.5" fill="none"/>
          </g>
        </g>
        <g id="사각형_310" data-name="사각형 310" transform="translate(18 51)" fill="#edcec9" stroke="#000" stroke-width="3">
          <rect width="13" height="16" rx="2" stroke="none"/>
          <rect x="1.5" y="1.5" width="10" height="13" rx="0.5" fill="none"/>
        </g>
      </g>
      <g id="그룹_395" data-name="그룹 395" transform="translate(46.5 19.788)">
        <g id="사각형_297" data-name="사각형 297" fill="#5b7d83" stroke="#000" stroke-width="3">
          <path d="M4,0H30.935a4,4,0,0,1,4,4V43.745a4,4,0,0,1-4,4H0a0,0,0,0,1,0,0V4A4,4,0,0,1,4,0Z" stroke="none"/>
          <path d="M4,1.5H30.935a2.5,2.5,0,0,1,2.5,2.5V43.745a2.5,2.5,0,0,1-2.5,2.5H1.5a0,0,0,0,1,0,0V4A2.5,2.5,0,0,1,4,1.5Z" fill="none"/>
        </g>
        <g id="그룹_394" data-name="그룹 394" transform="translate(9.316 6.987)">
          <g id="사각형_313" data-name="사각형 313" fill="#ddd" stroke="#000" stroke-width="3">
            <rect width="6.987" height="6.987" rx="2" stroke="none"/>
            <rect x="1.5" y="1.5" width="3.987" height="3.987" rx="0.5" fill="none"/>
          </g>
          <g id="사각형_316" data-name="사각형 316" transform="translate(0 9.316)" fill="#ddd" stroke="#000" stroke-width="3">
            <rect width="6.987" height="6.987" rx="2" stroke="none"/>
            <rect x="1.5" y="1.5" width="3.987" height="3.987" rx="0.5" fill="none"/>
          </g>
          <g id="사각형_318" data-name="사각형 318" transform="translate(0 18.632)" fill="#ddd" stroke="#000" stroke-width="3">
            <rect width="6.987" height="6.987" rx="2" stroke="none"/>
            <rect x="1.5" y="1.5" width="3.987" height="3.987" rx="0.5" fill="none"/>
          </g>
          <g id="사각형_314" data-name="사각형 314" transform="translate(9.316)" fill="#ddd" stroke="#000" stroke-width="3">
            <rect width="6.987" height="6.987" rx="2" stroke="none"/>
            <rect x="1.5" y="1.5" width="3.987" height="3.987" rx="0.5" fill="none"/>
          </g>
          <g id="사각형_315" data-name="사각형 315" transform="translate(9.316 9.316)" fill="#ddd" stroke="#000" stroke-width="3">
            <rect width="6.987" height="6.987" rx="2" stroke="none"/>
            <rect x="1.5" y="1.5" width="3.987" height="3.987" rx="0.5" fill="none"/>
          </g>
          <g id="사각형_317" data-name="사각형 317" transform="translate(9.316 18.632)" fill="#ddd" stroke="#000" stroke-width="3">
            <rect width="6.987" height="6.987" rx="2" stroke="none"/>
            <rect x="1.5" y="1.5" width="3.987" height="3.987" rx="0.5" fill="none"/>
          </g>
        </g>
        <g id="사각형_311" data-name="사각형 311" transform="translate(12.81 36.1)" fill="#edcec9" stroke="#000" stroke-width="3">
          <path d="M2,0H7.316a2,2,0,0,1,2,2v9.645a0,0,0,0,1,0,0H0a0,0,0,0,1,0,0V2A2,2,0,0,1,2,0Z" stroke="none"/>
          <path d="M2,1.5H7.316a.5.5,0,0,1,.5.5v8.145a0,0,0,0,1,0,0H1.5a0,0,0,0,1,0,0V2A.5.5,0,0,1,2,1.5Z" fill="none"/>
        </g>
      </g>
    </g>
  </g>
</svg>
