<svg xmlns="http://www.w3.org/2000/svg" width="48" height="48" viewBox="0 0 48 48">
    <defs>
        <clipPath id="clip-path">
            <path id="사각형_661" data-name="사각형 661" transform="translate(-.267 -.266)" style="fill:none" d="M0 0h48v48H0z"/>
        </clipPath>
        <style>
            .cls-2,.cls-4{fill:none;stroke:#000;stroke-miterlimit:10;stroke-width:3px}.cls-2{stroke-linecap:round}
        </style>
    </defs>
    <g id="icon_filter" transform="translate(.764 .265)">
        <path id="선_114" data-name="선 114" class="cls-2" transform="translate(15.016 11.004)" d="M0 0h24.381"/>
        <g id="그룹_1035" data-name="그룹 1035" transform="translate(-.497 .001)">
            <g id="그룹_1034" data-name="그룹 1034" style="clip-path:url(#clip-path)">
                <path id="패스_369" data-name="패스 369" class="cls-4" d="M8.68 5A3.68 3.68 0 1 1 5 8.68 3.681 3.681 0 0 1 8.68 5z" transform="translate(2.915 2.324)"/>
                <path id="선_115" data-name="선 115" class="cls-2" transform="translate(15.513 35.014)" d="M0 0h24.381"/>
                <path id="패스_370" data-name="패스 370" class="cls-4" d="M8.68 21.39A3.68 3.68 0 1 1 5 25.07a3.681 3.681 0 0 1 3.68-3.68z" transform="translate(2.915 9.944)"/>
                <path id="선_116" data-name="선 116" class="cls-2" transform="translate(8.165 23.009)" d="M0 0h24.464"/>
                <path id="패스_371" data-name="패스 371" class="cls-4" d="M25.656 13.195a3.68 3.68 0 1 1-3.68 3.68 3.681 3.681 0 0 1 3.68-3.68z" transform="translate(10.807 6.134)"/>
            </g>
        </g>
    </g>
</svg>
