<svg id="그룹_1034" data-name="그룹 1034" xmlns="http://www.w3.org/2000/svg" xmlns:xlink="http://www.w3.org/1999/xlink" width="149" height="149" viewBox="0 0 149 149">
  <defs>
    <clipPath id="clip-path">
      <rect id="사각형_704" data-name="사각형 704" width="149" height="149" fill="none"/>
    </clipPath>
  </defs>
  <g id="그룹_1033" data-name="그룹 1033" clip-path="url(#clip-path)">
    <path id="패스_584" data-name="패스 584" d="M10.188,15.749H112.88c3,0,5.431,1.651,5.431,3.686v13.4c0,2.036-2.432,3.686-5.431,3.686H10.188c-3,0-5.431-1.651-5.431-3.686v-13.4C4.757,17.4,7.189,15.749,10.188,15.749Z" transform="translate(2.629 8.705)" fill="none" stroke="#000" stroke-linecap="round" stroke-linejoin="round" stroke-width="2.5"/>
    <line id="선_159" data-name="선 159" x2="114.049" transform="translate(7.88 32.161)" fill="none" stroke="#000" stroke-width="2.5"/>
    <line id="선_160" data-name="선 160" x2="114.049" transform="translate(7.88 38.862)" fill="none" stroke="#000" stroke-width="2.5"/>
    <rect id="사각형_698" data-name="사각형 698" width="23.459" height="6.024" transform="translate(51.366 45.236)" fill="none" stroke="#000" stroke-width="2.5"/>
    <rect id="사각형_699" data-name="사각형 699" width="23.454" height="6.041" transform="translate(90.239 45.228)" fill="none" stroke="#000" stroke-width="2.5"/>
    <rect id="사각형_700" data-name="사각형 700" width="31.502" height="20.777" rx="2.374" transform="translate(47.345 51.269)" fill="none" stroke="#000" stroke-linecap="round" stroke-linejoin="round" stroke-width="2.5"/>
    <line id="선_161" data-name="선 161" x2="31.681" transform="translate(47.5 65.679)" fill="none" stroke="#000" stroke-width="2.5"/>
    <rect id="사각형_701" data-name="사각형 701" width="31.497" height="20.774" rx="2.374" transform="translate(87.557 51.26)" fill="none" stroke="#000" stroke-linecap="round" stroke-linejoin="round" stroke-width="2.5"/>
    <line id="선_162" data-name="선 162" x2="31.889" transform="translate(87.5 65.667)" fill="none" stroke="#000" stroke-width="2.5"/>
    <path id="패스_585" data-name="패스 585" d="M59.79,46.391H82.575a1.674,1.674,0,0,1,1.675,1.675V84.924a3.686,3.686,0,0,1-3.686,3.686H61.8a3.686,3.686,0,0,1-3.686-3.686V48.066A1.675,1.675,0,0,1,59.79,46.391Z" transform="translate(32.122 25.642)" fill="none" stroke="#000" stroke-linecap="round" stroke-linejoin="round" stroke-width="2.5"/>
    <path id="패스_586" data-name="패스 586" d="M33.893,46.4H56.681a1.675,1.675,0,0,1,1.675,1.675V84.939a3.685,3.685,0,0,1-3.686,3.686H35.9a3.686,3.686,0,0,1-3.686-3.686V48.075A1.675,1.675,0,0,1,33.893,46.4Z" transform="translate(17.808 25.647)" fill="none" stroke="#000" stroke-linecap="round" stroke-linejoin="round" stroke-width="2.5"/>
    <line id="선_163" data-name="선 163" x2="26.81" transform="translate(49.69 91.149)" fill="none" stroke="#000" stroke-width="2.5"/>
    <path id="패스_804" data-name="패스 804" d="M1.428,0H26.81" transform="translate(48.35 108.575)" fill="none" stroke="#000" stroke-width="2.5"/>
    <rect id="사각형_702" data-name="사각형 702" width="23.459" height="6.024" transform="translate(12.066 45.236)" fill="none" stroke="#000" stroke-width="2.5"/>
    <rect id="사각형_703" data-name="사각형 703" width="31.502" height="20.777" rx="2.374" transform="translate(8.045 51.269)" fill="none" stroke="#000" stroke-linecap="round" stroke-linejoin="round" stroke-width="2.5"/>
    <line id="선_165" data-name="선 165" x2="31.382" transform="translate(8.5 65.679)" fill="none" stroke="#000" stroke-width="2.5"/>
    <path id="패스_587" data-name="패스 587" d="M8.583,46.4H31.371a1.675,1.675,0,0,1,1.675,1.675V84.939a3.685,3.685,0,0,1-3.686,3.686H10.594a3.686,3.686,0,0,1-3.686-3.686V48.075A1.675,1.675,0,0,1,8.583,46.4Z" transform="translate(3.818 25.647)" fill="none" stroke="#000" stroke-linecap="round" stroke-linejoin="round" stroke-width="2.5"/>
    <line id="선_166" data-name="선 166" x2="26.81" transform="translate(10.391 91.149)" fill="none" stroke="#000" stroke-width="2.5"/>
    <line id="선_167" data-name="선 167" x2="25.36" transform="translate(10.5 108.575)" fill="none" stroke="#000" stroke-width="2.5"/>
    <line id="선_168" data-name="선 168" x2="27.219" transform="translate(91.5 91.132)" fill="none" stroke="#000" stroke-width="2.5"/>
    <path id="패스_803" data-name="패스 803" d="M-.92,0H26.8" transform="translate(91.913 108.556)" fill="none" stroke="#000" stroke-width="2.5"/>
    <path id="패스_588" data-name="패스 588" d="M85.484,49.741A24.067,24.067,0,1,1,61.417,73.808,24.068,24.068,0,0,1,85.484,49.741" transform="translate(33.947 27.494)" fill="#fff"/>
    <path id="패스_589" data-name="패스 589" d="M84.89,50.817a22.4,22.4,0,1,1-22.4,22.4A22.4,22.4,0,0,1,84.89,50.817Z" transform="translate(34.542 28.089)" fill="none" stroke="#000" stroke-width="2.5"/>
    <path id="패스_590" data-name="패스 590" d="M105.926,64.339,88.035,82.665,91.8,86.523H76.435V69.48l5.059,5.181,7.464-7.647,4.422,4.529V55.766H76.435l3.871,3.964L63.139,77.314" transform="translate(34.899 30.824)" fill="none" stroke="#000" stroke-linecap="round" stroke-linejoin="round" stroke-width="2.5"/>
  </g>
</svg>
