<svg xmlns="http://www.w3.org/2000/svg" width="120" height="120" viewBox="0 0 120 120">
    <path data-name="사각형 830" style="fill:none" d="M0 0h120v120H0z"/>
    <path data-name="패스 3542" d="M39.171 51.992c-3.741 0-8.131-1.665-13.047-4.948a73.375 73.375 0 0 1-12.31-10.709C8.47 30.608 4.289 24.6 2.042 19.425A21.916 21.916 0 0 1 0 11.011a10.766 10.766 0 0 1 2.491-7.265l1.863-2.291a3.941 3.941 0 0 1 5.939-.2L16.98 8.42a3.814 3.814 0 0 1 .2 4.946l-3.05 4.092c.291.869 1.683 3.859 8.245 10.892 6.524 6.993 9.437 8.615 10.3 8.977l4.288-2.756a3.793 3.793 0 0 1 4.921.54l6.687 7.167a3.941 3.941 0 0 1-.613 5.911l-2.4 1.693a10.133 10.133 0 0 1-6.38 2.112" transform="translate(34.5 36.298)" style="stroke-width:3px;stroke:#000;fill:none"/>
    <path data-name="패스 3547" d="M3.235 66.757s14.816.54 15.635 16.235" transform="translate(59.576 -23.649)" style="stroke:#da0f47;stroke-linecap:round;stroke-width:3px;fill:none"/>
    <path data-name="패스 3548" d="M.75.75S24 .749 25.778 25.994" transform="translate(61.722 33.35)" style="stroke:#da0f47;stroke-linecap:round;stroke-width:3px;fill:none"/>
</svg>
