<svg xmlns="http://www.w3.org/2000/svg" width="32" height="32" viewBox="0 0 32 32">
    <g fill="none" fill-rule="evenodd">
        <g>
            <g>
                <path fill="#F5F5F5" fill-opacity="0" d="M0 0H32V32H0z"/>
                <path fill="#666" d="M13.797 19.371v-5.859l5.764 2.94-5.764 2.92zm12.656-6.874s-.208-1.437-.848-2.07c-.811-.83-1.72-.834-2.137-.883-2.985-.21-7.463-.21-7.463-.21h-.01s-4.478 0-7.463.21c-.417.049-1.326.053-2.138.883-.64.633-.847 2.07-.847 2.07s-.214 1.688-.214 3.375v1.582c0 1.688.214 3.375.214 3.375s.208 1.437.847 2.07c.812.83 1.878.804 2.353.891C10.453 23.95 16 24 16 24s4.483-.007 7.468-.218c.417-.049 1.326-.052 2.137-.883.64-.633.848-2.07.848-2.07s.214-1.687.214-3.375v-1.582c0-1.687-.214-3.375-.214-3.375z"/>
            </g>
        </g>
    </g>
</svg>
