<svg id="그룹_1023" data-name="그룹 1023" xmlns="http://www.w3.org/2000/svg" xmlns:xlink="http://www.w3.org/1999/xlink" width="96" height="96" viewBox="0 0 96 96">
  <defs>
    <clipPath id="clip-path">
      <rect id="사각형_685" data-name="사각형 685" width="96" height="96" fill="none"/>
    </clipPath>
  </defs>
  <g id="그룹_1022" data-name="그룹 1022" clip-path="url(#clip-path)">
    <path id="패스_492" data-name="패스 492" d="M17.069,20.743s.353,2.585-1.078,3.5a5.355,5.355,0,0,1-3.123.726" fill="none" stroke="#000" stroke-linecap="round" stroke-linejoin="round" stroke-width="2.5"/>
    <path id="패스_493" data-name="패스 493" d="M21.347,24.944s-2.585.353-3.5-1.078a5.355,5.355,0,0,1-.726-3.123" fill="none" stroke="#000" stroke-linecap="round" stroke-linejoin="round" stroke-width="2.5"/>
    <path id="패스_494" data-name="패스 494" d="M17.069,29.223s.353-2.585-1.078-3.5A5.355,5.355,0,0,0,12.868,25" fill="none" stroke="#000" stroke-linecap="round" stroke-linejoin="round" stroke-width="2.5"/>
    <path id="패스_495" data-name="패스 495" d="M21.347,25.022s-2.585-.353-3.5,1.078a5.355,5.355,0,0,0-.726,3.123" fill="none" stroke="#000" stroke-linecap="round" stroke-linejoin="round" stroke-width="2.5"/>
    <path id="패스_496" data-name="패스 496" d="M81.055,57.91s.353,2.585-1.078,3.5a5.355,5.355,0,0,1-3.123.726" fill="none" stroke="#000" stroke-linecap="round" stroke-linejoin="round" stroke-width="2.5"/>
    <path id="패스_497" data-name="패스 497" d="M85.334,62.111s-2.585.353-3.5-1.078a5.355,5.355,0,0,1-.726-3.123" fill="none" stroke="#000" stroke-linecap="round" stroke-linejoin="round" stroke-width="2.5"/>
    <path id="패스_498" data-name="패스 498" d="M81.055,66.39s.353-2.585-1.078-3.5a5.355,5.355,0,0,0-3.123-.726" fill="none" stroke="#000" stroke-linecap="round" stroke-linejoin="round" stroke-width="2.5"/>
    <path id="패스_499" data-name="패스 499" d="M85.334,62.189s-2.585-.353-3.5,1.078a5.355,5.355,0,0,0-.726,3.123" fill="none" stroke="#000" stroke-linecap="round" stroke-linejoin="round" stroke-width="2.5"/>
    <path id="패스_500" data-name="패스 500" d="M13.12,15.052s.151,1.1-.461,1.5a2.284,2.284,0,0,1-1.334.31" fill="none" stroke="#000" stroke-linecap="round" stroke-linejoin="round" stroke-width="2.5"/>
    <path id="패스_501" data-name="패스 501" d="M14.949,16.848s-1.105.151-1.495-.461a2.284,2.284,0,0,1-.31-1.334" fill="none" stroke="#000" stroke-linecap="round" stroke-linejoin="round" stroke-width="2.5"/>
    <path id="패스_502" data-name="패스 502" d="M13.12,18.676s.151-1.105-.461-1.5a2.284,2.284,0,0,0-1.334-.31" fill="none" stroke="#000" stroke-linecap="round" stroke-linejoin="round" stroke-width="2.5"/>
    <path id="패스_503" data-name="패스 503" d="M14.949,16.881s-1.105-.151-1.495.461a2.284,2.284,0,0,0-.31,1.334" fill="none" stroke="#000" stroke-linecap="round" stroke-linejoin="round" stroke-width="2.5"/>
    <path id="패스_504" data-name="패스 504" d="M76.838,51.7s.151,1.1-.461,1.5a2.284,2.284,0,0,1-1.334.31" fill="none" stroke="#000" stroke-linecap="round" stroke-linejoin="round" stroke-width="2.5"/>
    <path id="패스_505" data-name="패스 505" d="M78.666,53.5s-1.105.151-1.5-.461a2.284,2.284,0,0,1-.31-1.334" fill="none" stroke="#000" stroke-linecap="round" stroke-linejoin="round" stroke-width="2.5"/>
    <path id="패스_506" data-name="패스 506" d="M76.838,55.328s.151-1.1-.461-1.495a2.284,2.284,0,0,0-1.334-.31" fill="none" stroke="#000" stroke-linecap="round" stroke-linejoin="round" stroke-width="2.5"/>
    <path id="패스_507" data-name="패스 507" d="M78.666,53.533s-1.105-.151-1.5.461a2.284,2.284,0,0,0-.31,1.334" fill="none" stroke="#000" stroke-linecap="round" stroke-linejoin="round" stroke-width="2.5"/>
    <path id="패스_508" data-name="패스 508" d="M49.94,72.1c-.367.011-.737.016-1.108.016-11.1,0-20.1-4.744-20.1-10.6v14c0,5.852,9,10.6,20.1,10.6s20.1-4.744,20.1-10.6v-14c0,4.657-5.7,8.612-13.618,10.034" fill="#fff"/>
    <path id="패스_509" data-name="패스 509" d="M49.94,72.1c-.367.011-.737.016-1.108.016-11.1,0-20.1-4.744-20.1-10.6v14c0,5.852,9,10.6,20.1,10.6s20.1-4.744,20.1-10.6v-14c0,4.657-5.7,8.612-13.618,10.034" fill="none" stroke="#000" stroke-linecap="round" stroke-linejoin="round" stroke-width="2.5"/>
    <path id="패스_510" data-name="패스 510" d="M55.772,82.637c7.026-1.551,13.16-6.121,13.16-10.824" fill="#fff"/>
    <path id="패스_511" data-name="패스 511" d="M55.772,82.637c7.026-1.551,13.16-6.121,13.16-10.824" fill="none" stroke="#000" stroke-linecap="round" stroke-linejoin="round" stroke-width="2.5"/>
    <path id="패스_512" data-name="패스 512" d="M28.731,71.813c0,5.852,9,11.6,20.1,11.6.9,0,1.795-.039,2.667-.112" fill="#fff"/>
    <path id="패스_513" data-name="패스 513" d="M28.731,71.813c0,5.852,9,11.6,20.1,11.6.9,0,1.795-.039,2.667-.112" fill="none" stroke="#000" stroke-linecap="round" stroke-linejoin="round" stroke-width="2.5"/>
    <path id="패스_514" data-name="패스 514" d="M55.313,71.551c7.92-1.422,13.618-5.377,13.618-10.033v-13.3c0,4.657-5.7,8.612-13.618,10.033" fill="#fff"/>
    <path id="패스_515" data-name="패스 515" d="M55.313,71.551c7.92-1.422,13.618-5.377,13.618-10.033v-13.3c0,4.657-5.7,8.612-13.618,10.033" fill="none" stroke="#000" stroke-linecap="round" stroke-linejoin="round" stroke-width="2.5"/>
    <path id="패스_516" data-name="패스 516" d="M49.995,58.795c-.385.012-.773.017-1.163.017-11.1,0-20.1-4.744-20.1-10.6v13.3c0,5.852,9,10.6,20.1,10.6q.558,0,1.108-.016" fill="#fff"/>
    <path id="패스_517" data-name="패스 517" d="M49.995,58.795c-.385.012-.773.017-1.163.017-11.1,0-20.1-4.744-20.1-10.6v13.3c0,5.852,9,10.6,20.1,10.6q.558,0,1.108-.016" fill="none" stroke="#000" stroke-linecap="round" stroke-linejoin="round" stroke-width="2.5"/>
    <path id="패스_518" data-name="패스 518" d="M55.314,58.249c7.92-1.422,13.618-5.377,13.618-10.033V38.982h-40.2v9.234c0,5.852,9,10.6,20.1,10.6q.585,0,1.163-.017" fill="#fff"/>
    <path id="패스_519" data-name="패스 519" d="M55.314,58.249c7.92-1.422,13.618-5.377,13.618-10.033V38.982h-40.2v9.234c0,5.852,9,10.6,20.1,10.6q.585,0,1.163-.017" fill="none" stroke="#000" stroke-linecap="round" stroke-linejoin="round" stroke-width="2.5"/>
    <path id="패스_520" data-name="패스 520" d="M51.5,83.3V74.241H50V68.41h1.5V62.15H50V55.328h1.5V44.9" fill="none" stroke="#000" stroke-linecap="round" stroke-linejoin="round" stroke-width="2.5"/>
    <line id="선_140" data-name="선 140" y1="37.84" transform="translate(55.313 44.897)" fill="#fff"/>
    <line id="선_141" data-name="선 141" y1="37.84" transform="translate(55.313 44.897)" fill="none" stroke="#000" stroke-linecap="round" stroke-linejoin="round" stroke-width="2.5"/>
    <path id="패스_521" data-name="패스 521" d="M72.275,32.618c0,6.826-10.5,12.359-23.444,12.359S25.387,39.444,25.387,32.618s10.5-12.359,23.444-12.359,23.444,5.533,23.444,12.359" fill="#fff"/>
    <ellipse id="타원_141" data-name="타원 141" cx="23.444" cy="12.359" rx="23.444" ry="12.359" transform="translate(25.387 20.259)" fill="none" stroke="#000" stroke-linecap="round" stroke-linejoin="round" stroke-width="2.5"/>
    <path id="패스_522" data-name="패스 522" d="M51.493,37.826q-1.311.078-2.662.079c-12.948,0-23.444-5.534-23.444-12.36s10.5-12.359,23.444-12.359,23.444,5.533,23.444,12.359c0,5.638-7.161,10.395-16.949,11.879" fill="#fff"/>
    <path id="패스_523" data-name="패스 523" d="M51.493,37.826q-1.311.078-2.662.079c-12.948,0-23.444-5.534-23.444-12.36s10.5-12.359,23.444-12.359,23.444,5.533,23.444,12.359c0,5.638-7.161,10.395-16.949,11.879" fill="none" stroke="#000" stroke-linecap="round" stroke-linejoin="round" stroke-width="2.5"/>
    <path id="패스_524" data-name="패스 524" d="M72.275,21.561c0,6.826-10.5,12.359-23.444,12.359S25.387,28.387,25.387,21.561,35.883,9.2,48.831,9.2s23.444,5.533,23.444,12.359" fill="#fff"/>
    <ellipse id="타원_142" data-name="타원 142" cx="23.444" cy="12.359" rx="23.444" ry="12.359" transform="translate(25.387 9.202)" fill="none" stroke="#000" stroke-linecap="round" stroke-linejoin="round" stroke-width="2.5"/>
    <line id="선_142" data-name="선 142" y2="7.796" transform="translate(55.313 33.441)" fill="#fff"/>
    <line id="선_143" data-name="선 143" y2="7.796" transform="translate(55.313 33.441)" fill="none" stroke="#000" stroke-linecap="round" stroke-linejoin="round" stroke-width="2.5"/>
    <line id="선_144" data-name="선 144" y1="8.061" transform="translate(51.498 33.841)" fill="#fff"/>
    <line id="선_145" data-name="선 145" y1="8.061" transform="translate(51.498 33.841)" fill="none" stroke="#000" stroke-linecap="round" stroke-linejoin="round" stroke-width="2.5"/>
    <path id="패스_525" data-name="패스 525" d="M30.4,24.983s8.733,5.831,22.256,4.28c0,0,13.3-.413,15.63-8.52,0,0-11.481,5.612-37.886,4.24" fill="#fff"/>
    <path id="패스_526" data-name="패스 526" d="M30.4,24.983s8.733,5.831,22.256,4.28c0,0,13.3-.413,15.63-8.52C68.285,20.743,56.8,26.355,30.4,24.983Z" fill="none" stroke="#000" stroke-linecap="round" stroke-linejoin="round" stroke-width="2.5"/>
    <path id="패스_527" data-name="패스 527" d="M30.4,24.983s18.82-10.323,37.886-4.24" fill="#fff"/>
    <path id="패스_528" data-name="패스 528" d="M30.4,24.983s18.82-10.323,37.886-4.24" fill="none" stroke="#000" stroke-linecap="round" stroke-linejoin="round" stroke-width="2.5"/>
    <path id="패스_529" data-name="패스 529" d="M31.927,19.546s9.644-4.359,28.709-4.691c0,0-20.285-5.36-28.709,4.691" fill="#fff"/>
    <path id="패스_530" data-name="패스 530" d="M31.927,19.546s9.644-4.359,28.709-4.691C60.636,14.855,40.351,9.495,31.927,19.546Z" fill="none" stroke="#000" stroke-linecap="round" stroke-linejoin="round" stroke-width="2.5"/>
  </g>
</svg>
