<svg id="그룹_1063" data-name="그룹 1063" xmlns="http://www.w3.org/2000/svg" xmlns:xlink="http://www.w3.org/1999/xlink" width="96" height="96" viewBox="0 0 96 96">
  <defs>
    <clipPath id="clip-path">
      <rect id="사각형_751" data-name="사각형 751" width="96" height="96" fill="none"/>
    </clipPath>
  </defs>
  <g id="그룹_1062" data-name="그룹 1062" clip-path="url(#clip-path)">
    <path id="패스_762" data-name="패스 762" d="M89.7,37.155A27.759,27.759,0,1,1,61.94,9.4,27.759,27.759,0,0,1,89.7,37.155" fill="#fff"/>
    <circle id="타원_144" data-name="타원 144" cx="27.759" cy="27.759" r="27.759" transform="translate(34.181 9.396)" fill="none" stroke="#000" stroke-linecap="round" stroke-linejoin="round" stroke-width="2.5"/>
    <path id="패스_763" data-name="패스 763" d="M67.256,59.1V56.222H52.324v3.19h.033c.33.925,3.537,1.651,7.45,1.651,4.132,0,7.482-.809,7.482-1.808a.485.485,0,0,0-.033-.157" fill="#fff"/>
    <path id="패스_764" data-name="패스 764" d="M67.256,59.1V56.222H52.324v3.19h.033c.33.925,3.537,1.651,7.45,1.651,4.132,0,7.482-.809,7.482-1.808A.485.485,0,0,0,67.256,59.1Z" fill="none" stroke="#000" stroke-linecap="round" stroke-linejoin="round" stroke-width="2.5"/>
    <path id="패스_765" data-name="패스 765" d="M67.289,56.222c0,1-3.35,1.808-7.482,1.808s-7.482-.809-7.482-1.808,3.35-1.808,7.482-1.808,7.482.809,7.482,1.808" fill="#fff"/>
    <ellipse id="타원_145" data-name="타원 145" cx="7.482" cy="1.808" rx="7.482" ry="1.808" transform="translate(52.325 54.414)" fill="none" stroke="#000" stroke-linecap="round" stroke-linejoin="round" stroke-width="2.5"/>
    <path id="패스_766" data-name="패스 766" d="M48.559,48.683l8.879,6.188a13.094,13.094,0,0,0,4.655,0L77.816,43.242" fill="#fff"/>
    <path id="패스_767" data-name="패스 767" d="M48.559,48.683l8.879,6.188a13.094,13.094,0,0,0,4.655,0L77.816,43.242" fill="none" stroke="#000" stroke-linecap="round" stroke-linejoin="round" stroke-width="2.5"/>
    <path id="패스_768" data-name="패스 768" d="M59.619,27.119c-11.36,0-20.569,4.923-20.569,11,0,2.2,1.221,4.243,3.3,5.962l-.022-.009L41.2,48.683H53.931l-.03-.012a37.56,37.56,0,0,0,5.718.439c11.36,0,20.569-4.923,20.569-10.995s-9.209-11-20.569-11" fill="#fff"/>
    <path id="패스_769" data-name="패스 769" d="M59.619,27.119c-11.36,0-20.569,4.923-20.569,11,0,2.2,1.221,4.243,3.3,5.962l-.022-.009L41.2,48.683H53.931l-.03-.012a37.56,37.56,0,0,0,5.718.439c11.36,0,20.569-4.923,20.569-10.995S70.979,27.119,59.619,27.119Z" fill="none" stroke="#000" stroke-linecap="round" stroke-linejoin="round" stroke-width="2.5"/>
    <line id="선_194" data-name="선 194" x2="3.987" y2="4.606" transform="translate(42.353 44.077)" fill="#fff"/>
    <line id="선_195" data-name="선 195" x2="3.987" y2="4.606" transform="translate(42.353 44.077)" fill="none" stroke="#000" stroke-linecap="round" stroke-linejoin="round" stroke-width="2.5"/>
    <path id="패스_770" data-name="패스 770" d="M66.81,33.963l-4.231-1.815s-6.631,9.063-7.128,15.475A36.979,36.979,0,0,0,65,47.466c-.112-2.782-.342-11.279,1.811-13.5" fill="#f90b67"/>
    <path id="패스_771" data-name="패스 771" d="M87.6,26.556c-5.834,6.589-21.574,9.615-21.574,9.615a3.314,3.314,0,0,0-4.088-3.026l-7-12.637a89.3,89.3,0,0,1,17.841-8.871S83.431,16.518,87.6,26.556" fill="#fff"/>
    <path id="패스_772" data-name="패스 772" d="M87.6,26.556c-5.834,6.589-21.574,9.615-21.574,9.615a3.314,3.314,0,0,0-4.088-3.026l-7-12.637a89.3,89.3,0,0,1,17.841-8.871S83.431,16.518,87.6,26.556Z" fill="none" stroke="#000" stroke-linecap="round" stroke-linejoin="round" stroke-width="2.5"/>
    <path id="패스_773" data-name="패스 773" d="M52.311,37.489s.121.887-.37,1.2a1.837,1.837,0,0,1-1.072.25" fill="none" stroke="#f90b67" stroke-linecap="round" stroke-linejoin="round" stroke-width="1"/>
    <path id="패스_774" data-name="패스 774" d="M53.78,38.93s-.887.121-1.2-.37a1.837,1.837,0,0,1-.25-1.072" fill="none" stroke="#f90b67" stroke-linecap="round" stroke-linejoin="round" stroke-width="1"/>
    <path id="패스_775" data-name="패스 775" d="M52.311,40.4s.121-.886-.37-1.2a1.829,1.829,0,0,0-1.072-.25" fill="none" stroke="#f90b67" stroke-linecap="round" stroke-linejoin="round" stroke-width="1"/>
    <path id="패스_776" data-name="패스 776" d="M53.78,38.957s-.887-.121-1.2.37a1.837,1.837,0,0,0-.25,1.072" fill="none" stroke="#f90b67" stroke-linecap="round" stroke-linejoin="round" stroke-width="1"/>
    <path id="패스_777" data-name="패스 777" d="M69.822,41.767s.123.9-.375,1.216a1.868,1.868,0,0,1-1.086.253" fill="none" stroke="#f90b67" stroke-linecap="round" stroke-linejoin="round" stroke-width="1"/>
    <path id="패스_778" data-name="패스 778" d="M71.31,43.228s-.9.123-1.216-.375a1.868,1.868,0,0,1-.253-1.086" fill="none" stroke="#f90b67" stroke-linecap="round" stroke-linejoin="round" stroke-width="1"/>
    <path id="패스_779" data-name="패스 779" d="M69.822,44.716s.123-.9-.375-1.216a1.868,1.868,0,0,0-1.086-.253" fill="none" stroke="#f90b67" stroke-linecap="round" stroke-linejoin="round" stroke-width="1"/>
    <path id="패스_780" data-name="패스 780" d="M71.31,43.255s-.9-.123-1.216.375a1.868,1.868,0,0,0-.253,1.086" fill="none" stroke="#f90b67" stroke-linecap="round" stroke-linejoin="round" stroke-width="1"/>
    <path id="패스_781" data-name="패스 781" d="M67.618,39.329s.061.449-.187.608a.924.924,0,0,1-.543.126" fill="none" stroke="#f90b67" stroke-linecap="round" stroke-linejoin="round" stroke-width="1"/>
    <path id="패스_782" data-name="패스 782" d="M68.362,40.06s-.449.061-.608-.187a.924.924,0,0,1-.126-.543" fill="none" stroke="#f90b67" stroke-linecap="round" stroke-linejoin="round" stroke-width="1"/>
    <path id="패스_783" data-name="패스 783" d="M67.618,40.8s.061-.449-.187-.608a.924.924,0,0,0-.543-.126" fill="none" stroke="#f90b67" stroke-linecap="round" stroke-linejoin="round" stroke-width="1"/>
    <path id="패스_784" data-name="패스 784" d="M68.362,40.073s-.449-.061-.608.187a.924.924,0,0,0-.126.543" fill="none" stroke="#f90b67" stroke-linecap="round" stroke-linejoin="round" stroke-width="1"/>
    <path id="패스_785" data-name="패스 785" d="M48.135,35.434s.061.449-.187.608a.924.924,0,0,1-.543.126" fill="none" stroke="#f90b67" stroke-linecap="round" stroke-linejoin="round" stroke-width="1"/>
    <path id="패스_786" data-name="패스 786" d="M48.879,36.164s-.449.061-.608-.187a.924.924,0,0,1-.126-.543" fill="none" stroke="#f90b67" stroke-linecap="round" stroke-linejoin="round" stroke-width="1"/>
    <path id="패스_787" data-name="패스 787" d="M48.135,36.908s.061-.449-.187-.608a.924.924,0,0,0-.543-.126" fill="none" stroke="#f90b67" stroke-linecap="round" stroke-linejoin="round" stroke-width="1"/>
    <path id="패스_788" data-name="패스 788" d="M48.879,36.178s-.449-.061-.608.187a.924.924,0,0,0-.126.543" fill="none" stroke="#f90b67" stroke-linecap="round" stroke-linejoin="round" stroke-width="1"/>
    <path id="패스_789" data-name="패스 789" d="M80.673,31.374s-4.095-12.847-11.91-17.99" fill="none" stroke="#000" stroke-linecap="round" stroke-linejoin="round" stroke-width="2.5"/>
    <path id="패스_790" data-name="패스 790" d="M62.863,15.973s9.031,7.08,10.915,18.142" fill="none" stroke="#000" stroke-linecap="round" stroke-linejoin="round" stroke-width="2.5"/>
    <path id="패스_791" data-name="패스 791" d="M7.556,58.642c.665.219,38.783,8.243,38.783,8.243" fill="#fff"/>
    <path id="패스_792" data-name="패스 792" d="M7.556,58.642c.665.219,38.783,8.243,38.783,8.243" fill="none" stroke="#000" stroke-linecap="round" stroke-linejoin="round" stroke-width="2.5"/>
    <path id="패스_793" data-name="패스 793" d="M6.725,76.652l22.613,3.99L52.325,63.2" fill="none" stroke="#000" stroke-linecap="round" stroke-linejoin="round" stroke-width="2.5"/>
    <path id="패스_794" data-name="패스 794" d="M6.725,80.637l22.613,3.99,22.987-17.44" fill="none" stroke="#000" stroke-linecap="round" stroke-linejoin="round" stroke-width="2.5"/>
    <path id="패스_795" data-name="패스 795" d="M52.325,71.42,29.338,88.86,6.725,84.87" fill="none" stroke="#000" stroke-linecap="round" stroke-linejoin="round" stroke-width="2.5"/>
    <path id="패스_796" data-name="패스 796" d="M42.353,78.986c.21-.16,8.516,1.656,8.516,1.656s7.778-.4,20.4-13.454V63.541" fill="none" stroke="#000" stroke-linecap="round" stroke-linejoin="round" stroke-width="2.5"/>
    <line id="선_196" data-name="선 196" y1="8.118" transform="translate(50.87 72.525)" fill="none" stroke="#000" stroke-linecap="round" stroke-linejoin="round" stroke-width="2.5"/>
    <line id="선_197" data-name="선 197" y2="12.908" transform="translate(56.813 65.662)" fill="none" stroke="#000" stroke-linecap="round" stroke-linejoin="round" stroke-width="2.5"/>
    <line id="선_198" data-name="선 198" y2="18.517" transform="translate(9.385 40.435)" fill="none" stroke="#000" stroke-linecap="round" stroke-linejoin="round" stroke-width="2.5"/>
    <line id="선_199" data-name="선 199" y1="13.325" x2="16.398" transform="translate(13.127 41.767)" fill="none" stroke="#000" stroke-linecap="round" stroke-linejoin="round" stroke-width="2.5"/>
    <path id="패스_797" data-name="패스 797" d="M34.786,31.374S26.947,47.008,26.947,49.11" fill="none" stroke="#000" stroke-linecap="round" stroke-linejoin="round" stroke-width="2.5"/>
    <path id="패스_798" data-name="패스 798" d="M26.179,50.488v4.98c0,1,1.675,1.805,3.741,1.805s3.741-.808,3.741-1.805v-4.98Z" fill="#fff"/>
    <path id="패스_799" data-name="패스 799" d="M26.179,50.488v4.98c0,1,1.675,1.805,3.741,1.805s3.741-.808,3.741-1.805v-4.98Z" fill="none" stroke="#000" stroke-linecap="round" stroke-linejoin="round" stroke-width="2.5"/>
    <path id="패스_800" data-name="패스 800" d="M33.661,50.488c0,1-1.675,1.805-3.741,1.805s-3.741-.808-3.741-1.805,1.675-1.805,3.741-1.805,3.741.808,3.741,1.805" fill="#fff"/>
    <ellipse id="타원_146" data-name="타원 146" cx="3.741" cy="1.805" rx="3.741" ry="1.805" transform="translate(26.179 48.683)" fill="none" stroke="#000" stroke-linecap="round" stroke-linejoin="round" stroke-width="2.5"/>
    <path id="패스_801" data-name="패스 801" d="M30.867,57.214a61.036,61.036,0,0,0,15.472,2.9" fill="#fff"/>
    <path id="패스_802" data-name="패스 802" d="M30.867,57.214a61.036,61.036,0,0,0,15.472,2.9" fill="none" stroke="#000" stroke-linecap="round" stroke-linejoin="round" stroke-width="2.5"/>
    <line id="선_200" data-name="선 200" x2="5.575" transform="translate(33.661 53.125)" fill="#fff"/>
    <line id="선_201" data-name="선 201" x2="5.575" transform="translate(33.661 53.125)" fill="none" stroke="#000" stroke-linecap="round" stroke-linejoin="round" stroke-width="2.5"/>
    <line id="선_202" data-name="선 202" x2="8.108" transform="translate(33.661 56.222)" fill="#fff"/>
    <line id="선_203" data-name="선 203" x2="8.108" transform="translate(33.661 56.222)" fill="none" stroke="#000" stroke-linecap="round" stroke-linejoin="round" stroke-width="2.5"/>
    <line id="선_204" data-name="선 204" x1="8.356" transform="translate(80.673 40.242)" fill="#fff"/>
    <line id="선_205" data-name="선 205" x1="8.356" transform="translate(80.673 40.242)" fill="none" stroke="#000" stroke-linecap="round" stroke-linejoin="round" stroke-width="2.5"/>
  </g>
</svg>
