<svg xmlns="http://www.w3.org/2000/svg" width="48" height="48" viewBox="0 0 48 48">
    <defs>
        <clipPath id="rxqdicuo6a">
            <path data-name="사각형 243" transform="translate(-1 -1)" style="fill:none" d="M0 0h29.5v37.5H0z"/>
        </clipPath>
    </defs>
    <g data-name="그룹 357" transform="translate(10 6)" style="clip-path:url(#rxqdicuo6a)">
        <path data-name="패스 119" d="M5.838 3.715C3.665 5.393.371 8.091.786 14.727c.408 6.53 1.3 12.2 3.724 15.941 1.052 1.622 4.317 2.945 6.359 3.407 6.81 1.543 13.795.39 15.33-2.946s-.054-22.792-5.783-27.851-12.404-1.241-14.578.437z" style="stroke:#000;stroke-width:2px;fill:none"/>
        <path data-name="패스 120" d="M2.21 25.1q8.8 8.3 24.57 4.324" style="stroke:#000;stroke-width:2px;fill:none"/>
        <path data-name="패스 121" d="M.8 20.5a39.33 39.33 0 0 1 25-3.234" style="stroke:#000;stroke-width:2px;fill:none"/>
        <path data-name="패스 122" d="M.72 16.08a34.766 34.766 0 0 1 24.144-3.692" style="stroke:#000;stroke-width:2px;fill:none"/>
    </g>
</svg>
