<svg xmlns="http://www.w3.org/2000/svg" width="160" height="160" viewBox="0 0 160 160">
  <g id="booking_img01" transform="translate(-387 -314)">
    <circle id="타원_37" data-name="타원 37" cx="80" cy="80" r="80" transform="translate(387 314)" fill="#fbf5ff"/>
    <g id="icon_step02" transform="translate(6.103 6.607)">
      <g id="그룹_380" data-name="그룹 380" transform="translate(475.007 377.318)">
        <g id="사각형_257" data-name="사각형 257" transform="translate(0 3.846)" fill="#e1d0b6" stroke="#000" stroke-width="3">
          <rect width="39.747" height="35.901" rx="4" stroke="none"/>
          <rect x="1.5" y="1.5" width="36.747" height="32.901" rx="2.5" fill="none"/>
        </g>
        <g id="그룹_822" data-name="그룹 822" transform="translate(11.539 0)">
          <g id="사각형_259" data-name="사각형 259" transform="translate(0)" fill="#fff" stroke="#000" stroke-width="3">
            <rect width="3.846" height="10.257" rx="1.923" stroke="none"/>
            <rect x="1.5" y="1.5" width="0.846" height="7.257" rx="0.423" fill="none"/>
          </g>
          <g id="사각형_277" data-name="사각형 277" transform="translate(12.822)" fill="#fff" stroke="#000" stroke-width="3">
            <rect width="3.846" height="10.257" rx="1.923" stroke="none"/>
            <rect x="1.5" y="1.5" width="0.846" height="7.257" rx="0.423" fill="none"/>
          </g>
        </g>
        <g id="그룹_379" data-name="그룹 379" transform="translate(6.411 20.515)">
          <g id="사각형_263" data-name="사각형 263" fill="#fff" stroke="#000" stroke-width="3">
            <rect width="6.411" height="3.846" rx="1.923" stroke="none"/>
            <rect x="1.5" y="1.5" width="3.411" height="0.846" rx="0.423" fill="none"/>
          </g>
          <g id="사각형_267" data-name="사각형 267" transform="translate(0 7.693)" fill="#fff" stroke="#000" stroke-width="3">
            <rect width="6.411" height="3.846" rx="1.923" stroke="none"/>
            <rect x="1.5" y="1.5" width="3.411" height="0.846" rx="0.423" fill="none"/>
          </g>
          <g id="사각형_264" data-name="사각형 264" transform="translate(10.257)" fill="#fff" stroke="#000" stroke-width="3">
            <rect width="6.411" height="3.846" rx="1.923" stroke="none"/>
            <rect x="1.5" y="1.5" width="3.411" height="0.846" rx="0.423" fill="none"/>
          </g>
          <g id="사각형_597" data-name="사각형 597" transform="translate(20.515)" fill="#fff" stroke="#000" stroke-width="3">
            <rect width="6.411" height="3.846" rx="1.923" stroke="none"/>
            <rect x="1.5" y="1.5" width="3.411" height="0.846" rx="0.423" fill="none"/>
          </g>
          <g id="사각형_268" data-name="사각형 268" transform="translate(10.257 7.693)" fill="#fff" stroke="#000" stroke-width="3">
            <rect width="6.411" height="3.846" rx="1.923" stroke="none"/>
            <rect x="1.5" y="1.5" width="3.411" height="0.846" rx="0.423" fill="none"/>
          </g>
          <g id="사각형_596" data-name="사각형 596" transform="translate(20.515 7.693)" fill="#fff" stroke="#000" stroke-width="3">
            <rect width="6.411" height="3.846" rx="1.923" stroke="none"/>
            <rect x="1.5" y="1.5" width="3.411" height="0.846" rx="0.423" fill="none"/>
          </g>
        </g>
        <g id="사각형_261" data-name="사각형 261" transform="translate(0 12.822)" fill="none" stroke="#000" stroke-width="3">
          <rect width="38.465" height="3" stroke="none"/>
          <rect x="1.5" y="1.5" width="35.465" fill="none"/>
        </g>
      </g>
      <g id="그룹_821" data-name="그룹 821" transform="translate(407.897 373.471)">
        <g id="그룹_851" data-name="그룹 851">
          <path id="패스_136" data-name="패스 136" d="M.75,17.75H25.31V36.784a1.843,1.843,0,0,1-1.842,1.842H2.592A1.843,1.843,0,0,1,.75,36.784Z" transform="translate(0.171 4.047)" fill="#edcec9" stroke="#000" stroke-width="3" fill-rule="evenodd"/>
          <path id="패스_137" data-name="패스 137" d="M.75,17.75H25.31V36.784a1.843,1.843,0,0,1-1.842,1.842H2.592A1.843,1.843,0,0,1,.75,36.784Z" transform="translate(0.171 4.047)" fill="none" stroke="#000" stroke-width="1.5"/>
          <path id="패스_138" data-name="패스 138" d="M2.592.75H23.468A1.843,1.843,0,0,1,25.31,2.592V21.626H.75V2.592A1.843,1.843,0,0,1,2.592.75" transform="translate(0.171 0.171)" fill="#5b7d83" stroke="#000" stroke-width="3" fill-rule="evenodd"/>
          <path id="패스_139" data-name="패스 139" d="M2.592.75H23.468A1.843,1.843,0,0,1,25.31,2.592V21.626H.75V2.592A1.843,1.843,0,0,1,2.592.75Z" transform="translate(0.171 0.171)" fill="none" stroke="#000" stroke-width="1.5"/>
          <path id="패스_140" data-name="패스 140" d="M11.662,5.25A4.912,4.912,0,1,1,6.75,10.162,4.912,4.912,0,0,1,11.662,5.25" transform="translate(1.539 1.197)" fill="#333" fill-rule="evenodd"/>
          <circle id="타원_39" data-name="타원 39" cx="4.912" cy="4.912" r="4.912" transform="translate(8.289 6.447)" fill="none" stroke="#000" stroke-width="3"/>
          <path id="패스_141" data-name="패스 141" d="M11.662,22.25A4.912,4.912,0,1,1,6.75,27.162a4.912,4.912,0,0,1,4.912-4.912" transform="translate(1.539 5.073)" fill="#333" fill-rule="evenodd"/>
          <circle id="타원_40" data-name="타원 40" cx="4.912" cy="4.912" r="4.912" transform="translate(8.289 27.323)" fill="none" stroke="#000" stroke-width="3"/>
        </g>
      </g>
      <g id="그룹_823" data-name="그룹 823" transform="translate(437.061 366.786)">
        <rect id="사각형_251" data-name="사각형 251" width="16.668" height="28.208" transform="translate(15.188 1.107)" stroke="#000" stroke-linecap="round" stroke-linejoin="round" stroke-width="3"/>
        <g id="그룹_373" data-name="그룹 373">
          <g id="그룹_852" data-name="그룹 852">
            <path id="패스_126" data-name="패스 126" d="M16.095,4h5.587a2.1,2.1,0,0,1,2.095,2.095v12.57a2.1,2.1,0,0,1-2.095,2.095H16.095A2.1,2.1,0,0,1,14,18.665V6.095A2.1,2.1,0,0,1,16.095,4" transform="translate(5.553 1.587)" fill="#444" fill-rule="evenodd"/>
            <rect id="사각형_252" data-name="사각형 252" width="10.284" height="17.141" rx="1.5" transform="translate(19.426 5.714)" fill="none" stroke="#000" stroke-width="1.5"/>
            <path id="패스_127" data-name="패스 127" d="M1,19H16.363V41.346H1Zm15.363,0H31.726V41.346H16.363Z" transform="translate(0.397 7.536)" fill="#e1d0b6" stroke="#000" stroke-linecap="round" stroke-linejoin="round" stroke-width="3" fill-rule="evenodd"/>
            <rect id="사각형_253" data-name="사각형 253" width="15.998" height="25.044" transform="translate(1.336 1.143)" fill="#5b7d83" stroke="#000" stroke-linecap="round" stroke-linejoin="round" stroke-width="3"/>
            <path id="패스_128" data-name="패스 128" d="M31.127.75H1.8A1.049,1.049,0,0,0,.75,1.8V47.886A1.049,1.049,0,0,0,1.8,48.934H31.127a1.049,1.049,0,0,0,1.047-1.047V1.8A1.049,1.049,0,0,0,31.127.75Z" transform="translate(0.587 0.357)" fill="none" stroke="#000" stroke-width="1.5"/>
            <path id="패스_129" data-name="패스 129" d="M1.015,18H31.457a1.048,1.048,0,0,1,0,2.095H1.015a1.048,1.048,0,0,1,0-2.095" transform="translate(1.048 7.139)" fill-rule="evenodd"/>
            <line id="선_25" data-name="선 25" y2="47" transform="translate(17.141 1.107)" fill="none" stroke="#000" stroke-linecap="round" stroke-width="3"/>
          </g>
        </g>
      </g>
      <g id="그룹_382" data-name="그룹 382" transform="translate(462.185 388.857)">
        <path id="합치기_9" data-name="합치기 9" d="M1.5,15.29A9.851,9.851,0,0,1,0,10.048,10.154,10.154,0,0,1,10.257,0,10.155,10.155,0,0,1,20.515,10.048a9.86,9.86,0,0,1-1.5,5.238L10.257,30.772Z" transform="translate(0 0)" fill="#edcec9" stroke="#000" stroke-linecap="round" stroke-linejoin="round" stroke-width="3"/>
        <g id="타원_42" data-name="타원 42" transform="translate(4.489 3.847)" fill="#5b7d83" stroke="#000" stroke-width="3">
          <circle cx="5.77" cy="5.77" r="5.77" stroke="none"/>
          <circle cx="5.77" cy="5.77" r="4.27" fill="none"/>
        </g>
      </g>
    </g>
  </g>
</svg>
