<svg xmlns="http://www.w3.org/2000/svg" width="120" height="120" viewBox="0 0 120 120">
    <path data-name="사각형 829" style="fill:none" d="M0 0h120v120H0z"/>
    <g data-name="그룹 435" transform="translate(-448.365 -335)">
        <g data-name="패스 205" style="fill:#fff">
            <path d="M70.72 49.207H1.5V3.073c0-.867.706-1.573 1.573-1.573h66.073c.868 0 1.573.706 1.573 1.573v46.134z" style="stroke:none" transform="translate(472.756 364)"/>
            <path d="M3.073 3A.073.073 0 0 0 3 3.073v44.634h66.22V3.073A.073.073 0 0 0 69.145 3H3.073m0-3h66.073a3.073 3.073 0 0 1 3.073 3.073v47.634H0V3.073A3.073 3.073 0 0 1 3.073 0z" style="fill:#000;stroke:none" transform="translate(472.756 364)"/>
        </g>
        <g data-name="사각형 352" style="stroke:#000;fill:#edcec9;stroke-width:3px">
            <path d="M1 0h91a1 1 0 0 1 1 1v11a3 3 0 0 1-3 3H3a3 3 0 0 1-3-3V1a1 1 0 0 1 1-1z" style="stroke:none" transform="translate(462.366 412)"/>
            <path d="M2 1.5h89a.5.5 0 0 1 .5.5v10a1.5 1.5 0 0 1-1.5 1.5H3A1.5 1.5 0 0 1 1.5 12V2a.5.5 0 0 1 .5-.5z" style="fill:none" transform="translate(462.366 412)"/>
        </g>
        <g data-name="그룹 432">
            <g data-name="패스 216" style="fill:#e1d0b6">
                <path d="M9.988 18.976C5.032 18.976 1 14.944 1 9.988 1 5.032 5.032 1 9.988 1c4.956 0 8.988 4.032 8.988 8.988 0 4.956-4.032 8.988-8.988 8.988z" style="stroke:none" transform="translate(479.297 379.366)"/>
                <path d="M9.988 2C5.583 2 2 5.583 2 9.988c0 4.404 3.583 7.988 7.988 7.988 4.404 0 7.988-3.584 7.988-7.988C17.976 5.583 14.392 2 9.988 2m0-2c5.516 0 9.988 4.472 9.988 9.988 0 5.516-4.472 9.988-9.988 9.988C4.472 19.976 0 15.504 0 9.988 0 4.472 4.472 0 9.988 0z" style="fill:#000;stroke:none" transform="translate(479.297 379.366)"/>
            </g>
            <g data-name="타원 48" transform="translate(484.498 385.867)" style="stroke-width:2px;stroke:#000">
                <circle cx="1.537" cy="1.537" r="1.537" style="stroke:none"/>
                <circle cx="1.537" cy="1.537" r=".537" style="fill:none"/>
            </g>
            <g data-name="타원 49" transform="translate(490.999 385.867)" style="stroke-width:2px;stroke:#000">
                <circle cx="1.537" cy="1.537" r="1.537" style="stroke:none"/>
                <circle cx="1.537" cy="1.537" r=".537" style="fill:none"/>
            </g>
            <path data-name="패스 152" d="M3291 396.4a3.827 3.827 0 0 0 3.421 1.749A4.254 4.254 0 0 0 3298 396.4" transform="translate(-2805.338 -4.31)" style="stroke-linecap:round;stroke-linejoin:round;stroke-width:2px;stroke:#000;fill:none"/>
        </g>
        <g data-name="그룹 433" transform="translate(518.459 379.366)">
            <g data-name="패스 208" style="fill:#fff">
                <path d="M9.988 18.976C5.032 18.976 1 14.944 1 9.988 1 5.032 5.032 1 9.988 1c4.956 0 8.988 4.032 8.988 8.988 0 4.956-4.032 8.988-8.988 8.988z" style="stroke:none"/>
                <path d="M9.988 2C5.583 2 2 5.583 2 9.988c0 4.404 3.583 7.988 7.988 7.988 4.404 0 7.988-3.584 7.988-7.988C17.976 5.583 14.392 2 9.988 2m0-2c5.516 0 9.988 4.472 9.988 9.988 0 5.516-4.472 9.988-9.988 9.988C4.472 19.976 0 15.504 0 9.988 0 4.472 4.472 0 9.988 0z" style="fill:#b833ff;stroke:none"/>
            </g>
            <circle data-name="타원 48" cx="1.537" cy="1.537" r="1.537" transform="translate(5.201 6.501)" style="fill:#b833ff"/>
            <circle data-name="타원 49" cx="1.537" cy="1.537" r="1.537" transform="translate(11.702 6.501)" style="fill:#b833ff"/>
            <path data-name="패스 152" d="M3291 396.4a3.827 3.827 0 0 0 3.421 1.749A4.254 4.254 0 0 0 3298 396.4" transform="translate(-3284.635 -383.676)" style="stroke:#b833ff;stroke-linecap:round;stroke-linejoin:round;stroke-width:2px;fill:none"/>
        </g>
        <ellipse data-name="타원 95" cx="1.5" cy="1.501" rx="1.5" ry="1.501" transform="translate(501.363 388.237)" style="fill:#afafaf"/>
        <ellipse data-name="타원 96" cx="1.5" cy="1.501" rx="1.5" ry="1.501" transform="translate(507.365 388.237)" style="fill:#afafaf"/>
        <ellipse data-name="타원 97" cx="1.5" cy="1.501" rx="1.5" ry="1.501" transform="translate(513.366 388.237)" style="fill:#afafaf"/>
    </g>
</svg>
