<svg xmlns="http://www.w3.org/2000/svg" width="48" height="48" viewBox="0 0 48 48">
    <defs>
        <style>
            .cls-4{stroke:none}
        </style>
    </defs>
    <g id="icon_기타" transform="translate(7 2.127)">
        <g id="그룹_695" data-name="그룹 695" transform="translate(1)">
            <g id="사각형_106" data-name="사각형 106" transform="translate(-3 6.873)" style="stroke:#000;stroke-width:1.5px;fill:none">
                <rect class="cls-4" width="38" height="30" rx="4"/>
                <rect x=".75" y=".75" width="36.5" height="28.5" rx="3.25" style="fill:none"/>
            </g>
            <g id="합치기_12" data-name="합치기 12" style="fill:none">
                <path class="cls-4" d="M-5865-80a3 3 0 0 1 3-3 3 3 0 0 1 3 3 3 3 0 0 1-3 3 3 3 0 0 1-3-3zm-8 0a3 3 0 0 1 3-3 3 3 0 0 1 3 3 3 3 0 0 1-3 3 3 3 0 0 1-3-3zm-8 0a3 3 0 0 1 3-3 3 3 0 0 1 3 3 3 3 0 0 1-3 3 3 3 0 0 1-3-3z" transform="translate(5886 101.873)"/>
                <path d="M-5878-81.5c-.827 0-1.5.673-1.5 1.5s.673 1.5 1.5 1.5 1.5-.673 1.5-1.5a1.5 1.5 0 0 0-1.5-1.5m8 0c-.827 0-1.5.673-1.5 1.5s.673 1.5 1.5 1.5 1.5-.673 1.5-1.5-.673-1.5-1.5-1.5m8 0a1.5 1.5 0 0 0 0 3c.827 0 1.5-.673 1.5-1.5s-.673-1.5-1.5-1.5m-16-1.5a3 3 0 1 1 0 6 3 3 0 0 1 0-6zm8 0a3 3 0 1 1 0 6.002 3 3 0 0 1 0-6.001zm8 0a3 3 0 1 1 .001 6 3 3 0 0 1-.001-6z" style="fill:#000;stroke:none" transform="translate(5886 101.873)"/>
            </g>
        </g>
    </g>
</svg>
