<?xml version="1.0" encoding="UTF-8"?>
<svg width="24px" height="24px" viewBox="0 0 24 24" version="1.1" xmlns="http://www.w3.org/2000/svg" xmlns:xlink="http://www.w3.org/1999/xlink">
    <!-- Generator: Sketch 61.2 (89653) - https://sketch.com -->
    <title>Artboard</title>
    <desc>Created with Sketch.</desc>
    <g id="Page-1" stroke="none" stroke-width="1" fill="none" fill-rule="evenodd">
        <g id="Artboard" transform="translate(-349.000000, -193.000000)">
            <g id="ic_tooltip_Black_24" transform="translate(349.000000, 193.000000)">
                <g>
                    <rect id="Area" x="0" y="0" width="24" height="24"></rect>
                    <circle id="Oval" stroke="#000000" cx="12" cy="12" r="8.5"></circle>
                    <path d="M11.8828125,15.0594813 C12.1328125,15.0594813 12.3300781,15.1327234 12.4746094,15.2792078 C12.6191406,15.4256922 12.6914062,15.6102625 12.6914062,15.8329188 C12.6914062,16.0477625 12.6210938,16.22745 12.4804688,16.3719813 C12.3398438,16.5165125 12.140625,16.5887781 11.8828125,16.5887781 C11.625,16.5887781 11.4267578,16.5165125 11.2880859,16.3719813 C11.1494141,16.22745 11.0800781,16.0477625 11.0800781,15.8329188 C11.0800781,15.60245 11.1523438,15.4159266 11.296875,15.2733484 C11.4414062,15.1307703 11.6367188,15.0594813 11.8828125,15.0594813 Z M12.0234375,7.41122187 C12.8085937,7.41122187 13.4208984,7.66927843 13.8603516,8.06771593 C14.2998047,8.46615343 14.5195312,9.02279406 14.5195312,9.73763781 C14.5195312,10.3743566 14.2226562,11.0013097 13.6289062,11.6184972 L13.6289062,11.6184972 L12.9187735,12.211971 C12.660961,12.5049398 12.5281485,12.9326741 12.520336,13.4951741 C12.51074,13.8713789 12.2857233,14.0594813 11.8452858,14.0594813 C11.4048483,14.0594813 11.1865056,13.8713789 11.1902578,13.4951741 C11.1902578,12.9756429 11.254711,12.5615804 11.3836172,12.2529866 C11.5125235,11.9443929 11.7568359,11.7210362 12.1376953,11.3518956 C12.5185547,10.982755 12.7597656,10.7200597 12.8613281,10.5638097 C13.0175781,10.3255284 13.0957031,10.0677159 13.0957031,9.79037218 C13.0957031,9.42318468 13.0048828,9.14291124 12.8232422,8.94955187 C12.6416016,8.75619249 12.375,8.65951281 12.0234375,8.65951281 C11.6875,8.65951281 11.4169922,8.75423937 11.2119141,8.94369249 C11.0068359,9.13314562 10.9042969,9.38998156 10.9042969,9.71420031 C10.9042969,10.3202361 10.6722331,10.623254 10.2081057,10.623254 C9.74397818,10.623254 9.50143255,10.3202361 9.48046875,9.71420031 C9.48828125,9.02279406 9.72363281,8.47591906 10.1865234,8.07357531 C10.6494141,7.67123156 11.2617187,7.41122187 12.0234375,7.41122187 Z" id="?" fill="#000000" fill-rule="nonzero"></path>
                </g>
            </g>
        </g>
    </g>
</svg>