<svg xmlns="http://www.w3.org/2000/svg" width="120" height="120" viewBox="0 0 120 120">
    <path data-name="사각형 831" style="fill:none" d="M0 0h120v120H0z"/>
    <g data-name="그룹 434" transform="translate(-1150 -335.568)">
        <g data-name="사각형 355" transform="translate(1167.049 363.569)" style="stroke-width:3px;stroke:#000;fill:#fff">
            <rect width="86" height="61" rx="2" style="stroke:none"/>
            <rect x="1.5" y="1.5" width="83" height="58" rx=".5" style="fill:none"/>
        </g>
        <circle data-name="타원 98" cx="2" cy="2" r="2" transform="translate(1173.049 368.569)" style="fill:#ff8d8d"/>
        <path data-name="패스 207" d="M2.152 0A2.152 2.152 0 1 1 0 2.152 2.152 2.152 0 0 1 2.152 0z" transform="translate(1179.915 368.305)" style="fill:#ffe457"/>
        <path data-name="패스 215" d="M2.152 0A2.152 2.152 0 1 1 0 2.152 2.152 2.152 0 0 1 2.152 0z" transform="translate(1187.09 368.305)" style="fill:#9ee37a"/>
        <g data-name="패스 210" style="fill:#ededed">
            <path d="M83.228 50.951H2.87c-.755 0-1.37-.71-1.37-1.585V3.181c.022-.273.026-.736.027-1.65v-.03l83.071.046v47.819c0 .874-.615 1.585-1.37 1.585z" style="stroke:none" transform="translate(1167 374.687)"/>
            <path d="M3.012 3.002c-.003.078-.007.15-.012.219v46.145a.3.3 0 0 0 .011.085h80.076a.3.3 0 0 0 .011-.085V3.046L3.012 3.002M0 0H0zM0 0l86.098.048v49.318c0 1.704-1.285 3.085-2.87 3.085H2.87C1.285 52.451 0 51.07 0 49.366V3.086C.033 3.086.039.04.002 0z" style="fill:#000;stroke:none" transform="translate(1167 374.687)"/>
        </g>
        <rect data-name="사각형 356" width="24" height="15" rx="2" transform="translate(1180.049 404.569)" style="fill:#c3c3c3"/>
        <rect data-name="사각형 357" width="31" height="2" rx="1" transform="translate(1209.049 405.569)" style="fill:#c3c3c3"/>
        <rect data-name="사각형 358" width="31" height="2" rx="1" transform="translate(1209.049 411.569)" style="fill:#c3c3c3"/>
        <rect data-name="사각형 359" width="31" height="2" rx="1" transform="translate(1209.049 417.569)" style="fill:#c3c3c3"/>
        <g data-name="사각형 354" transform="translate(1177.049 382.569)" style="stroke-width:3px;stroke:#000;fill:#fff">
            <rect width="66" height="17" rx="2" style="stroke:none"/>
            <rect x="1.5" y="1.5" width="63" height="14" rx=".5" style="fill:none"/>
        </g>
        <g data-name="패스 209" style="stroke-linejoin:round;stroke-linecap:round;fill:#fff">
            <path d="m13.581 22.947-.387-.922-1.797-4.282-1.502 1.451L8.2 20.833V4.886l1.707 1.707 8.182 8.182 1.707 1.707H15.201l1.677 3.996.387.922-.922.387-1.84.773-.922.387z" style="stroke:none" transform="translate(1198.696 387.552)"/>
            <path d="m14.116 21.638 1.84-.773-2.26-5.383h3.686L9.2 7.3v11.175l2.553-2.468 2.363 5.63m.001 2.001a2 2 0 0 1-1.845-1.226l-1.232-2.934-.45.435a2 2 0 0 1-3.39-1.438V7.3a2 2 0 0 1 3.414-1.414l8.182 8.182a2 2 0 0 1-1.414 3.414h-.677L17.8 20.09a2 2 0 0 1-1.07 2.618l-1.84.773a1.994 1.994 0 0 1-.773.156z" style="fill:#000;stroke:none" transform="translate(1198.696 387.552)"/>
        </g>
        <path data-name="선 28" transform="rotate(-22 1599.71 -2905.494)" style="stroke-width:2px;stroke-linecap:round;stroke:#000;fill:none" d="M0 0v3.587"/>
        <path data-name="선 29" transform="rotate(23 -347.128 3170.385)" style="stroke-width:2px;stroke-linecap:round;stroke:#000;fill:none" d="M0 0v3.587"/>
        <path data-name="선 30" transform="rotate(-67 896.328 -710.764)" style="stroke-width:2px;stroke-linecap:round;stroke:#000;fill:none" d="M0 0v3.587"/>
    </g>
</svg>
