<svg xmlns="http://www.w3.org/2000/svg" xmlns:xlink="http://www.w3.org/1999/xlink" width="149" height="149" viewBox="0 0 149 149">
  <defs>
    <clipPath id="clip-path">
      <rect id="사각형_750" data-name="사각형 750" width="149" height="149" transform="translate(-0.426)" fill="none"/>
    </clipPath>
  </defs>
  <g id="그룹_1061" data-name="그룹 1061" transform="translate(0.426)">
    <g id="그룹_1060" data-name="그룹 1060" clip-path="url(#clip-path)">
      <path id="패스_730" data-name="패스 730" d="M25.285,92.251H24.228A4.847,4.847,0,0,1,19.382,87.4V53H30.207V87.329a4.922,4.922,0,0,1-4.922,4.922" transform="translate(10.664 29.163)" fill="#fff"/>
      <path id="패스_731" data-name="패스 731" d="M25.285,92.251H24.228A4.847,4.847,0,0,1,19.382,87.4V53H30.207V87.329A4.922,4.922,0,0,1,25.285,92.251Z" transform="translate(10.664 29.163)" fill="none" stroke="#000" stroke-linecap="round" stroke-linejoin="round" stroke-width="2.5"/>
      <rect id="사각형_742" data-name="사각형 742" width="6.702" height="4.93" transform="translate(32.108 77.236)" fill="#fff"/>
      <rect id="사각형_743" data-name="사각형 743" width="6.702" height="4.93" transform="translate(32.108 77.236)" fill="none" stroke="#000" stroke-linecap="round" stroke-linejoin="round" stroke-width="2.5"/>
      <path id="패스_732" data-name="패스 732" d="M36.3,92.251H35.246A4.847,4.847,0,0,1,30.4,87.4V53H41.225V87.329A4.922,4.922,0,0,1,36.3,92.251" transform="translate(16.726 29.163)" fill="#fff"/>
      <path id="패스_733" data-name="패스 733" d="M36.3,92.251H35.246A4.847,4.847,0,0,1,30.4,87.4V53H41.225V87.329A4.922,4.922,0,0,1,36.3,92.251Z" transform="translate(16.726 29.163)" fill="none" stroke="#000" stroke-linecap="round" stroke-linejoin="round" stroke-width="2.5"/>
      <rect id="사각형_744" data-name="사각형 744" width="6.702" height="4.93" transform="translate(49.188 77.236)" fill="#fff"/>
      <rect id="사각형_745" data-name="사각형 745" width="6.702" height="4.93" transform="translate(49.188 77.236)" fill="none" stroke="#000" stroke-linecap="round" stroke-linejoin="round" stroke-width="2.5"/>
      <path id="패스_734" data-name="패스 734" d="M33.892,63.83V60.322H47.1V99.759H57.283V54.78H47.874V24.366H90.533v6.185" transform="translate(18.647 13.406)" fill="none" stroke="#000" stroke-linecap="round" stroke-linejoin="round" stroke-width="2.5"/>
      <path id="패스_735" data-name="패스 735" d="M71.147,38.995V32.679H59.291V95.185H48.981" transform="translate(26.95 17.98)" fill="none" stroke="#000" stroke-linecap="round" stroke-linejoin="round" stroke-width="2.5"/>
      <path id="패스_736" data-name="패스 736" d="M53.707,31.432H23.292V46.124" transform="translate(12.815 17.294)" fill="none" stroke="#000" stroke-linecap="round" stroke-linejoin="round" stroke-width="2.5"/>
      <rect id="사각형_746" data-name="사각형 746" width="5.026" height="13.274" transform="translate(106.603 43.572)" fill="#fff"/>
      <rect id="사각형_747" data-name="사각형 747" width="5.026" height="13.274" transform="translate(106.603 43.572)" fill="none" stroke="#000" stroke-linecap="round" stroke-linejoin="round" stroke-width="2.5"/>
      <path id="패스_737" data-name="패스 737" d="M82.135,47.2h-20a3.6,3.6,0,0,1-3.6-3.6V40.268a3.6,3.6,0,0,1,3.6-3.6h20a3.6,3.6,0,0,1,3.6,3.6V43.6a3.6,3.6,0,0,1-3.6,3.6" transform="translate(32.21 20.176)" fill="#fff"/>
      <path id="패스_738" data-name="패스 738" d="M82.135,47.2h-20a3.6,3.6,0,0,1-3.6-3.6V40.268a3.6,3.6,0,0,1,3.6-3.6h20a3.6,3.6,0,0,1,3.6,3.6V43.6A3.6,3.6,0,0,1,82.135,47.2Z" transform="translate(32.21 20.176)" fill="none" stroke="#000" stroke-linecap="round" stroke-linejoin="round" stroke-width="2.5"/>
      <path id="패스_739" data-name="패스 739" d="M60.31,81.887l21.708-3.838L60.31,74.209l21.708-3.841L60.31,66.534,82.018,62.7,60.31,58.852l21.708-3.845L60.31,51.163l21.708-3.849L60.31,43.464" transform="translate(33.183 23.914)" fill="#fff"/>
      <path id="패스_740" data-name="패스 740" d="M60.31,81.887l21.708-3.838L60.31,74.209l21.708-3.841L60.31,66.534,82.018,62.7,60.31,58.852l21.708-3.845L60.31,51.163l21.708-3.849L60.31,43.464" transform="translate(33.183 23.914)" fill="none" stroke="#000" stroke-linecap="round" stroke-linejoin="round" stroke-width="2.5"/>
      <path id="패스_741" data-name="패스 741" d="M58.541,69.835v4.906c0,1.358,6.088,2.457,13.6,2.457s13.6-1.1,13.6-2.457V69.835Z" transform="translate(32.21 38.424)" fill="#fff"/>
      <path id="패스_742" data-name="패스 742" d="M58.541,69.835v4.906c0,1.358,6.088,2.457,13.6,2.457s13.6-1.1,13.6-2.457V69.835Z" transform="translate(32.21 38.424)" fill="none" stroke="#000" stroke-linecap="round" stroke-linejoin="round" stroke-width="2.5"/>
      <path id="패스_743" data-name="패스 743" d="M85.735,70.707c0,1.358-6.088,2.457-13.6,2.457s-13.6-1.1-13.6-2.457,6.088-2.457,13.6-2.457,13.6,1.1,13.6,2.457" transform="translate(32.21 37.552)" fill="#fff"/>
      <ellipse id="타원_143" data-name="타원 143" cx="13.597" cy="2.457" rx="13.597" ry="2.457" transform="translate(90.75 105.802)" fill="none" stroke="#000" stroke-linecap="round" stroke-linejoin="round" stroke-width="2.5"/>
      <path id="패스_744" data-name="패스 744" d="M25.526,17.679s.4,2.941-1.226,3.979a6.085,6.085,0,0,1-3.553.826" transform="translate(11.415 9.727)" fill="none" stroke="#000" stroke-linecap="round" stroke-linejoin="round" stroke-width="2.5"/>
      <path id="패스_745" data-name="패스 745" d="M28.683,22.458s-2.942.4-3.981-1.225a6.087,6.087,0,0,1-.825-3.553" transform="translate(13.128 9.728)" fill="none" stroke="#000" stroke-linecap="round" stroke-linejoin="round" stroke-width="2.5"/>
      <path id="패스_746" data-name="패스 746" d="M25.526,25.615s.4-2.941-1.226-3.979a6.085,6.085,0,0,0-3.553-.826" transform="translate(11.415 11.44)" fill="none" stroke="#000" stroke-linecap="round" stroke-linejoin="round" stroke-width="2.5"/>
      <path id="패스_747" data-name="패스 747" d="M28.683,20.836s-2.942-.4-3.981,1.226a6.084,6.084,0,0,0-.825,3.553" transform="translate(13.128 11.44)" fill="none" stroke="#000" stroke-linecap="round" stroke-linejoin="round" stroke-width="2.5"/>
      <path id="패스_748" data-name="패스 748" d="M16.921,23.933s.274,2.008-.837,2.716a4.143,4.143,0,0,1-2.426.564" transform="translate(7.515 13.168)" fill="none" stroke="#000" stroke-linecap="round" stroke-linejoin="round" stroke-width="2.5"/>
      <path id="패스_749" data-name="패스 749" d="M19.076,27.2s-2.008.274-2.716-.837a4.143,4.143,0,0,1-.564-2.426" transform="translate(8.684 13.168)" fill="none" stroke="#000" stroke-linecap="round" stroke-linejoin="round" stroke-width="2.5"/>
      <path id="패스_750" data-name="패스 750" d="M16.921,29.35s.274-2.008-.837-2.716a4.143,4.143,0,0,0-2.426-.564" transform="translate(7.515 14.337)" fill="none" stroke="#000" stroke-linecap="round" stroke-linejoin="round" stroke-width="2.5"/>
      <path id="패스_751" data-name="패스 751" d="M19.076,26.088s-2.008-.274-2.716.837a4.143,4.143,0,0,0-.564,2.426" transform="translate(8.684 14.337)" fill="none" stroke="#000" stroke-linecap="round" stroke-linejoin="round" stroke-width="2.5"/>
      <path id="패스_752" data-name="패스 752" d="M81.356,62.939s.274,2.008-.837,2.716a4.143,4.143,0,0,1-2.426.564" transform="translate(42.967 34.629)" fill="none" stroke="#000" stroke-linecap="round" stroke-linejoin="round" stroke-width="2.5"/>
      <path id="패스_753" data-name="패스 753" d="M83.511,66.2s-2.008.274-2.716-.837a4.143,4.143,0,0,1-.564-2.426" transform="translate(44.137 34.629)" fill="none" stroke="#000" stroke-linecap="round" stroke-linejoin="round" stroke-width="2.5"/>
      <path id="패스_754" data-name="패스 754" d="M81.356,68.356s.274-2.008-.837-2.716a4.143,4.143,0,0,0-2.426-.564" transform="translate(42.967 35.798)" fill="none" stroke="#000" stroke-linecap="round" stroke-linejoin="round" stroke-width="2.5"/>
      <path id="패스_755" data-name="패스 755" d="M83.511,65.094s-2.008-.274-2.716.837a4.143,4.143,0,0,0-.564,2.426" transform="translate(44.137 35.798)" fill="none" stroke="#000" stroke-linecap="round" stroke-linejoin="round" stroke-width="2.5"/>
      <path id="패스_756" data-name="패스 756" d="M54.678,68.788H48.321v4.082h-4v6.057H58.115V72.869H54.753V68.788Z" transform="translate(24.388 37.847)" fill="#fff"/>
      <path id="패스_757" data-name="패스 757" d="M54.678,68.788H48.321v4.082h-4v6.057H58.115V72.869H54.753V68.788Z" transform="translate(24.388 37.847)" fill="none" stroke="#000" stroke-linecap="round" stroke-linejoin="round" stroke-width="2.5"/>
      <path id="패스_758" data-name="패스 758" d="M38.533,30.914v6.357h4.082v4h6.057V27.477H42.615V30.84H38.533Z" transform="translate(21.201 15.118)" fill="#fff"/>
      <path id="패스_759" data-name="패스 759" d="M38.533,30.914v6.357h4.082v4h6.057V27.477H42.615V30.84H38.533Z" transform="translate(21.201 15.118)" fill="none" stroke="#000" stroke-linecap="round" stroke-linejoin="round" stroke-width="2.5"/>
      <path id="패스_760" data-name="패스 760" d="M30.468,29.326V35.6H28.149V50.118H20.712V29.326Z" transform="translate(11.396 16.136)" fill="#fff"/>
      <path id="패스_761" data-name="패스 761" d="M30.468,29.326V35.6H28.149V50.118H20.712V29.326Z" transform="translate(11.396 16.136)" fill="none" stroke="#000" stroke-linecap="round" stroke-linejoin="round" stroke-width="2.5"/>
      <rect id="사각형_748" data-name="사각형 748" width="12.115" height="5.508" transform="translate(29.748 56.073)" fill="#fff"/>
      <rect id="사각형_749" data-name="사각형 749" width="12.115" height="5.508" transform="translate(29.748 56.073)" fill="none" stroke="#000" stroke-linecap="round" stroke-linejoin="round" stroke-width="2.5"/>
    </g>
  </g>
</svg>
