<svg xmlns="http://www.w3.org/2000/svg" width="48" height="48" viewBox="0 0 48 48">
    <g data-name="그룹 695">
        <g data-name="패스 3532" style="fill:none">
            <path d="M4 0h14a4 4 0 0 1 4 4l3 15a4 4 0 0 1-4 4H1a4 4 0 0 1-4-4L0 4a4 4 0 0 1 4-4z" style="stroke:none" transform="translate(13 16)"/>
            <path d="M4 1.5A2.503 2.503 0 0 0 1.5 4v.149L-1.497 19.13A2.503 2.503 0 0 0 1 21.5h20a2.503 2.503 0 0 0 2.497-2.369L20.5 4.15V4c0-1.378-1.122-2.5-2.5-2.5H4M4 0h14a4 4 0 0 1 4 4l3 15a4 4 0 0 1-4 4H1a4 4 0 0 1-4-4L0 4a4 4 0 0 1 4-4z" style="fill:#000;stroke:none" transform="translate(13 16)"/>
        </g>
        <path data-name="패스 3533" d="M11.523 20.883s-.81-10.82 4.444-10.82 4.715 10.82 4.715 10.82" transform="translate(8 1.127)" style="stroke:#000;stroke-linecap:round;stroke-width:1.5px;fill:none"/>
    </g>
</svg>
