<svg xmlns="http://www.w3.org/2000/svg" width="120" height="120" viewBox="0 0 120 120">
  <g id="step02" transform="translate(-397 -408)">
    <rect id="사각형_830" data-name="사각형 830" width="120" height="120" transform="translate(397 408)" fill="none"/>
    <g id="booking_img01" transform="translate(-6.467 70.834)">
      <g id="icon_step02" transform="translate(-35.719 -10.152)">
        <g id="그룹_380" data-name="그룹 380" transform="translate(480.086 377.318)">
          <g id="사각형_257" data-name="사각형 257" transform="translate(0 5.37)" fill="#fff" stroke="#000" stroke-width="3">
            <rect width="55.49" height="50.12" rx="4" stroke="none"/>
            <rect x="1.5" y="1.5" width="52.49" height="47.12" rx="2.5" fill="none"/>
          </g>
          <g id="그룹_822" data-name="그룹 822" transform="translate(16.11 0)">
            <g id="사각형_259" data-name="사각형 259" transform="translate(0)" fill="#fff" stroke="#000" stroke-width="3">
              <rect width="5.37" height="14.32" rx="2" stroke="none"/>
              <rect x="1.5" y="1.5" width="2.37" height="11.32" rx="0.5" fill="none"/>
            </g>
            <g id="사각형_277" data-name="사각형 277" transform="translate(17.9)" fill="#fff" stroke="#000" stroke-width="3">
              <rect width="5.37" height="14.32" rx="2" stroke="none"/>
              <rect x="1.5" y="1.5" width="2.37" height="11.32" rx="0.5" fill="none"/>
            </g>
          </g>
          <g id="그룹_379" data-name="그룹 379" transform="translate(8.95 28.64)">
            <g id="사각형_263" data-name="사각형 263" fill="#fff" stroke="#000" stroke-width="3">
              <rect width="8.95" height="5.37" rx="2.685" stroke="none"/>
              <rect x="1.5" y="1.5" width="5.95" height="2.37" rx="1.185" fill="none"/>
            </g>
            <g id="사각형_267" data-name="사각형 267" transform="translate(0 10.74)" fill="#fff" stroke="#000" stroke-width="3">
              <rect width="8.95" height="5.37" rx="2.685" stroke="none"/>
              <rect x="1.5" y="1.5" width="5.95" height="2.37" rx="1.185" fill="none"/>
            </g>
            <g id="사각형_264" data-name="사각형 264" transform="translate(14.32)" fill="#fff" stroke="#000" stroke-width="3">
              <rect width="8.95" height="5.37" rx="2.685" stroke="none"/>
              <rect x="1.5" y="1.5" width="5.95" height="2.37" rx="1.185" fill="none"/>
            </g>
            <g id="사각형_597" data-name="사각형 597" transform="translate(28.64)" fill="#fff" stroke="#000" stroke-width="3">
              <rect width="8.95" height="5.37" rx="2.685" stroke="none"/>
              <rect x="1.5" y="1.5" width="5.95" height="2.37" rx="1.185" fill="none"/>
            </g>
            <g id="사각형_268" data-name="사각형 268" transform="translate(14.32 10.74)" fill="#fff" stroke="#000" stroke-width="3">
              <rect width="8.95" height="5.37" rx="2.685" stroke="none"/>
              <rect x="1.5" y="1.5" width="5.95" height="2.37" rx="1.185" fill="none"/>
            </g>
            <g id="사각형_596" data-name="사각형 596" transform="translate(28.64 10.74)" fill="#fff" stroke="#000" stroke-width="3">
              <rect width="8.95" height="5.37" rx="2.685" stroke="none"/>
              <rect x="1.5" y="1.5" width="5.95" height="2.37" rx="1.185" fill="none"/>
            </g>
          </g>
          <g id="사각형_261" data-name="사각형 261" transform="translate(0 17.9)" fill="none" stroke="#000" stroke-width="3">
            <rect width="53.7" height="4.188" stroke="none"/>
            <rect x="1.5" y="1.5" width="50.7" height="1.188" fill="none"/>
          </g>
        </g>
        <g id="그룹_382" data-name="그룹 382" transform="translate(462.185 393.428)">
          <path id="합치기_9" data-name="합치기 9" d="M2.107,21.358A13.747,13.747,0,0,1,0,14.028,14.176,14.176,0,0,1,14.319,0,14.176,14.176,0,0,1,28.64,14.028a13.752,13.752,0,0,1-2.108,7.329l-12.213,21.6Z" transform="translate(0 0)" fill="#fff" stroke="#000" stroke-linecap="round" stroke-linejoin="round" stroke-width="3"/>
          <g id="타원_42" data-name="타원 42" transform="translate(6.266 5.371)" fill="#fff" stroke="#da0f47" stroke-width="3">
            <circle cx="8.055" cy="8.055" r="8.055" stroke="none"/>
            <circle cx="8.055" cy="8.055" r="6.555" fill="none"/>
          </g>
        </g>
      </g>
    </g>
  </g>
</svg>
