<svg xmlns="http://www.w3.org/2000/svg" width="48" height="48" viewBox="0 0 48 48">
    <defs>
        <clipPath id="clip-path">
            <path id="사각형_237" data-name="사각형 237" style="stroke:#707070;fill:none;stroke-width:3px" d="M0 0h42.623v31.923H0z"/>
        </clipPath>
        <style>
            .cls-4{fill:none;stroke-width:3px;stroke:#da0f47;stroke-linecap:round;stroke-linejoin:round}
        </style>
    </defs>
    <g id="icon_desktop_on" transform="translate(-5.053 5.78)">
        <path id="사각형_372" data-name="사각형 372" transform="translate(5.053 -5.78)" style="fill:#fff" d="M0 0h48v48H0z"/>
        <g id="그룹_350" data-name="그룹 350" transform="translate(9.053 3.22)">
            <g id="마스크_그룹_349" data-name="마스크 그룹 349" transform="translate(-1 -1)" style="clip-path:url(#clip-path)">
                <path id="패스_110" data-name="패스 110" class="cls-4" d="M2.533 6.969H26.31a1.783 1.783 0 0 1 1.783 1.783V20.64a1.784 1.784 0 0 1-1.783 1.783H2.533A1.784 1.784 0 0 1 .75 20.64V8.752a1.783 1.783 0 0 1 1.783-1.783zm6.539 20.544 5.383-1.189 5.316 1.189m-5.35-4.755v3.566" transform="translate(.946 2.12)"/>
                <path id="패스_111" data-name="패스 111" class="cls-4" d="M19.75 7.179v-5.2A1.305 1.305 0 0 1 21.123.75h13.9a1.306 1.306 0 0 1 1.373 1.226v23.7a1.305 1.305 0 0 1-1.373 1.226h-13.9a1.308 1.308 0 0 1-1.373-1.227v-1.824" transform="translate(4.533 .946)"/>
                <path id="패스_112" data-name="패스 112" d="M27.439 17.75a1.189 1.189 0 1 1-1.189 1.189 1.189 1.189 0 0 1 1.189-1.189" transform="translate(5.761 4.156)" style="stroke-width:2px;fill-rule:evenodd;stroke:#da0f47"/>
                <path id="선_24" data-name="선 24" transform="translate(30.079 11.058)" style="stroke-linecap:square;stroke:#da0f47;fill:none;stroke-width:3px" d="M0 0h10.699"/>
                <path id="패스_113" data-name="패스 113" d="M33.638 22.75v2.378M21.75 22.75v2.378" transform="translate(4.911 5.1)" style="stroke-linecap:round;stroke:#da0f47;fill:none;stroke-width:3px"/>
            </g>
        </g>
    </g>
</svg>
