<svg xmlns="http://www.w3.org/2000/svg" width="48" height="48" viewBox="0 0 48 48">
    <defs>
        <clipPath id="a">
            <path data-name="사각형 236" style="stroke:#707070;fill:none;stroke-width:3px" d="M0 0h41.399v25.667H0z"/>
        </clipPath>
    </defs>
    <path data-name="사각형 371" style="fill:#fff" d="M0 0h48v48H0z"/>
    <g data-name="그룹 348">
        <g data-name="그룹 347" style="clip-path:url(#a)" transform="translate(3 11)">
            <path data-name="패스 109" d="M5.886.75h29.49a1.639 1.639 0 0 1 1.638 1.638V21.5H4.247V2.388A1.639 1.639 0 0 1 5.886.75zM1.818 21.5h37.625a1.067 1.067 0 0 1 .9 1.638l-.555.877a1.64 1.64 0 0 1-1.385.761H2.856a1.64 1.64 0 0 1-1.385-.761l-.555-.875a1.068 1.068 0 0 1 .9-1.638z" transform="translate(.069 .069)" style="stroke:#000;stroke-linecap:round;stroke-linejoin:round;fill:none;stroke-width:3px"/>
        </g>
    </g>
</svg>
