<svg xmlns="http://www.w3.org/2000/svg" width="40" height="40" viewBox="0 0 40 40">
    <path data-name="사각형 535" style="fill:none" d="M0 0h40v40H0z"/>
    <path data-name="패스 273" d="M300.364 153.667c-8.556 0-15.49 6.414-15.49 14.327 0 5.844 2.448 8.634 5.8 11.177l.016.007v6.858a.394.394 0 0 0 .629.316l5.873-4.362.127.055a16.794 16.794 0 0 0 3.045.278c8.555 0 15.489-6.415 15.489-14.328s-6.934-14.327-15.489-14.327m-5.193 17.957a3.236 3.236 0 0 0 3.208-2.313h2.245a5.373 5.373 0 0 1-5.453 4.473 5.807 5.807 0 1 1 0-11.615 5.379 5.379 0 0 1 5.47 4.556H298.4a3.194 3.194 0 0 0-3.231-2.426 3.506 3.506 0 0 0-3.645 3.677 3.6 3.6 0 0 0 3.645 3.647m14.8 1.938h-2.058v-4.642a1.478 1.478 0 0 0-1.579-1.643c-1.069 0-1.755.654-1.755 1.978v4.308h-2.059v-11.356h2.059v4.271a2.637 2.637 0 0 1 2.376-1.116 2.823 2.823 0 0 1 2.153.877 3.311 3.311 0 0 1 .863 2.425z" transform="translate(-280.875 -149.668)" style="fill:#666"/>
</svg>
