<svg data-name="그룹 1258" xmlns="http://www.w3.org/2000/svg" width="80" height="80" viewBox="0 0 80 80">
    <path data-name="사각형 826" style="fill:none" d="M0 0h80v80H0z"/>
    <g data-name="그룹 435" transform="translate(-452 -344)">
        <g data-name="패스 205" style="fill:#fff">
            <path d="M46.25 32.25H.75V2C.75 1.31 1.31.75 2 .75h43c.69 0 1.25.56 1.25 1.25v30.25z" style="stroke:none" transform="translate(469 364)"/>
            <path d="M2 1.5a.5.5 0 0 0-.5.5v29.5h44V2a.5.5 0 0 0-.5-.5H2M2 0h43a2 2 0 0 1 2 2v31H0V2a2 2 0 0 1 2-2z" style="fill:#000;stroke:none" transform="translate(469 364)"/>
        </g>
        <g data-name="사각형 352" style="stroke-width:1.5px;stroke:#000;fill:#edcec9">
            <path d="M1 0h59a1 1 0 0 1 1 1v6a3 3 0 0 1-3 3H3a3 3 0 0 1-3-3V1a1 1 0 0 1 1-1z" style="stroke:none" transform="translate(462 395)"/>
            <path d="M1 .75h59a.25.25 0 0 1 .25.25v6A2.25 2.25 0 0 1 58 9.25H3A2.25 2.25 0 0 1 .75 7V1A.25.25 0 0 1 1 .75z" style="fill:none" transform="translate(462 395)"/>
        </g>
        <g data-name="그룹 432">
            <g data-name="타원 47" transform="translate(473.257 374)" style="fill:#e1d0b6;stroke-width:1.5px;stroke:#000">
                <circle cx="6.5" cy="6.5" r="6.5" style="stroke:none"/>
                <circle cx="6.5" cy="6.5" r="5.75" style="fill:none"/>
            </g>
            <g data-name="타원 48" transform="translate(476.642 378.231)" style="stroke:#000">
                <circle cx="1" cy="1" r="1" style="stroke:none"/>
                <circle cx="1" cy="1" r=".5" style="fill:none"/>
            </g>
            <g data-name="타원 49" transform="translate(480.872 378.231)" style="stroke:#000">
                <circle cx="1" cy="1" r="1" style="stroke:none"/>
                <circle cx="1" cy="1" r=".5" style="fill:none"/>
            </g>
            <path data-name="패스 152" d="M3291 396.4a2.49 2.49 0 0 0 2.227 1.138 2.768 2.768 0 0 0 2.327-1.138" transform="translate(-2813.601 -14.119)" style="stroke-linecap:round;stroke-linejoin:round;stroke-width:1.5px;stroke:#000;fill:none"/>
        </g>
        <g data-name="그룹 433" transform="translate(-793.257 14)">
            <g data-name="패스 208" style="fill:#fff">
                <path d="M6.5 12.25C3.33 12.25.75 9.67.75 6.5S3.33.75 6.5.75s5.75 2.58 5.75 5.75-2.58 5.75-5.75 5.75z" style="stroke:none" transform="translate(1292 360)"/>
                <path d="M6.5 1.5c-2.757 0-5 2.243-5 5s2.243 5 5 5 5-2.243 5-5-2.243-5-5-5m0-1.5a6.5 6.5 0 1 1 0 13 6.5 6.5 0 0 1 0-13z" style="fill:#b833ff;stroke:none" transform="translate(1292 360)"/>
            </g>
            <circle data-name="타원 48" cx="1" cy="1" r="1" transform="translate(1295.385 364.231)" style="fill:#b833ff"/>
            <circle data-name="타원 49" cx="1" cy="1" r="1" transform="translate(1299.615 364.231)" style="fill:#b833ff"/>
            <path data-name="패스 152" d="M3291 396.4a2.49 2.49 0 0 0 2.227 1.138 2.768 2.768 0 0 0 2.327-1.138" transform="translate(-1994.858 -28.119)" style="stroke:#b833ff;stroke-linecap:round;stroke-linejoin:round;stroke-width:1.5px;fill:none"/>
        </g>
        <circle data-name="타원 95" cx=".75" cy=".75" r=".75" transform="translate(488.75 380)" style="fill:#afafaf;stroke:#afafaf;stroke-width:.3px"/>
        <circle data-name="타원 96" cx=".75" cy=".75" r=".75" transform="translate(491.75 380)" style="fill:#afafaf;stroke:#afafaf;stroke-width:.3px"/>
        <circle data-name="타원 97" cx=".75" cy=".75" r=".75" transform="translate(494.75 380)" style="fill:#afafaf;stroke:#afafaf;stroke-width:.3px"/>
    </g>
</svg>
