<svg xmlns="http://www.w3.org/2000/svg" xmlns:xlink="http://www.w3.org/1999/xlink" width="120" height="120" viewBox="0 0 120 120">
  <defs>
    <clipPath id="clip-path">
      <rect id="사각형_254" data-name="사각형 254" width="36.932" height="55" transform="translate(-1 -1)" fill="rgba(0,0,0,0)"/>
    </clipPath>
    <clipPath id="clip">
      <use xlink:href="#fill"/>
    </clipPath>
  </defs>
  <g id="step01" transform="translate(-397 -408)">
    <rect id="사각형_829" data-name="사각형 829" width="120" height="120" transform="translate(397 408)" fill="none"/>
    <g id="그룹_910" data-name="그룹 910" transform="translate(-58.74 96)">
      <g id="icon_step02" transform="translate(452.998 346)">
        <g id="그룹_823" data-name="그룹 823" transform="translate(30.743)">
          <g id="그룹_373" data-name="그룹 373">
            <g id="그룹_372" data-name="그룹 372" clip-path="url(#clip-path)">
              <rect id="사각형_253" data-name="사각형 253" width="16.864" height="26.795" transform="translate(1.205 1.205)" fill="#fff"/>
              <path id="패스_128" data-name="패스 128" d="M32.771.75H1.854a1.106,1.106,0,0,0-1.1,1.1V50.438a1.106,1.106,0,0,0,1.1,1.1H32.771a1.106,1.106,0,0,0,1.1-1.1V1.854a1.106,1.106,0,0,0-1.1-1.1Z" transform="translate(0.354 0.354)" fill="rgba(0,0,0,0)" stroke="#000" stroke-linecap="round" stroke-linejoin="round" stroke-width="3"/>
              <path id="패스_129" data-name="패스 129" d="M1.035,18H32.09c.571,0,1.035.672,1.035,1.5S32.661,21,32.09,21H1.035C.464,21,0,20.328,0,19.5S.464,18,1.035,18" transform="translate(1.104 8.5)" fill-rule="evenodd"/>
              <path id="패스_854" data-name="패스 854" d="M0,0V50.591" transform="translate(18.068 1.205)" fill="rgba(0,0,0,0)" stroke="#000" stroke-linecap="round" stroke-width="3"/>
            </g>
          </g>
          <rect id="사각형_1029" data-name="사각형 1029" width="8" height="19" rx="2" transform="translate(22.258 5)" fill="#fff" stroke="#000" stroke-linecap="round" stroke-linejoin="round" stroke-width="3"/>
        </g>
        <g id="그룹_1192" data-name="그룹 1192" transform="translate(68.932 18.922)">
          <g id="그룹_1188" data-name="그룹 1188" transform="translate(0.676 0)">
            <g id="그룹_1189" data-name="그룹 1189" transform="translate(0)">
              <rect id="사각형_808" data-name="사각형 808" width="27.031" height="32.437" rx="1" fill="none" stroke="#000" stroke-linecap="round" stroke-linejoin="round" stroke-width="3"/>
              <g id="그룹_1190" data-name="그룹 1190" transform="translate(6.758 13.516)">
                <g id="타원_160" data-name="타원 160" transform="translate(0)" fill="none" stroke="#000" stroke-width="3">
                  <ellipse cx="6.758" cy="6.758" rx="6.758" ry="6.758" stroke="none"/>
                  <ellipse cx="6.758" cy="6.758" rx="5.258" ry="5.258" fill="none"/>
                </g>
              </g>
              <g id="타원_204" data-name="타원 204" transform="translate(-16.607 14.078)" fill="#fff" stroke="#da0f47" stroke-width="3">
                <circle cx="11" cy="11" r="11" stroke="none"/>
                <circle cx="11" cy="11" r="9.5" fill="none"/>
              </g>
              <path id="패스_1018" data-name="패스 1018" d="M431.667,370.474l3.209,3.209,5.616-6.017" transform="translate(-441.688 -344.644)" fill="none" stroke="#da0f47" stroke-linecap="round" stroke-linejoin="round" stroke-width="3"/>
            </g>
          </g>
          <path id="패스_853" data-name="패스 853" d="M483.327,386.393h27.031" transform="translate(-483.327 -378.284)" fill="none" stroke="#000" stroke-width="3"/>
          <g id="타원_161" data-name="타원 161" transform="translate(4.159 2.876)" fill="#fff" stroke="#000" stroke-width="3">
            <circle cx="1.282" cy="1.282" r="1.282" stroke="none"/>
            <circle cx="1.282" cy="1.282" r="0.218" fill="none"/>
          </g>
          <g id="타원_162" data-name="타원 162" transform="translate(8.006 2.876)" fill="#fff" stroke="#000" stroke-width="3">
            <circle cx="1.282" cy="1.282" r="1.282" stroke="none"/>
            <circle cx="1.282" cy="1.282" r="0.218" fill="none"/>
          </g>
          <g id="타원_163" data-name="타원 163" transform="translate(11.853 2.876)" fill="#fff" stroke="#000" stroke-width="3">
            <circle cx="1.282" cy="1.282" r="1.282" stroke="none"/>
            <circle cx="1.282" cy="1.282" r="0.218" fill="none"/>
          </g>
          <g id="사각형_809" data-name="사각형 809" transform="translate(16.982 2.876)" fill="#fff" stroke="#000" stroke-width="3">
            <rect id="fill" width="7.694" height="2.565" rx="1.282" stroke="none"/>
            <path d="M0,1.0645301342010498h7.6935906410217285M6.1935906410217285,0v2.56453013420105M7.6935906410217285,1.5h-7.6935906410217285M1.5,2.56453013420105v-2.56453013420105" fill="none" clip-path="url(#clip)"/>
          </g>
        </g>
      </g>
    </g>
  </g>
</svg>
