<svg xmlns="http://www.w3.org/2000/svg" width="96" height="96" viewBox="0 0 96 96">
    <defs>
        <style>
            .cls-1,.cls-3,.cls-5{fill:none}.cls-2{fill:#fff}.cls-2,.cls-3,.cls-5{stroke:#000;stroke-width:2.5px}.cls-5{stroke-linecap:round;stroke-linejoin:round}.cls-6{stroke:none}
        </style>
    </defs>
    <g id="icon_출수구_살균" data-name="icon_출수구 살균" transform="translate(-109 -72)">
        <path id="bg" class="cls-1" transform="translate(109 72)" d="M0 0h96v96H0z"/>
        <g id="그룹_4" data-name="그룹 4" transform="translate(-24 -6)">
            <g id="그룹_5" data-name="그룹 5" transform="translate(1)">
                <g id="사각형_2" data-name="사각형 2" class="cls-2">
                    <path class="cls-6" d="M0 0h24v6a2 2 0 0 1-2 2H2a2 2 0 0 1-2-2V0z" transform="translate(170 125.5)"/>
                    <path class="cls-1" d="M2.5 1.25h19a1.25 1.25 0 0 1 1.25 1.25V6a.75.75 0 0 1-.75.75H2A.75.75 0 0 1 1.25 6V2.5A1.25 1.25 0 0 1 2.5 1.25z" transform="translate(170 125.5)"/>
                </g>
                <path id="패스_5" data-name="패스 5" class="cls-3" d="M188.75 87.25v6" transform="translate(-1 39.75)"/>
            </g>
            <g id="그룹_6" data-name="그룹 6">
                <g id="사각형_3" data-name="사각형 3" class="cls-2">
                    <path class="cls-6" d="M0 0h16v13a2 2 0 0 1-2 2H2a2 2 0 0 1-2-2V0z" transform="translate(175 131)"/>
                    <path class="cls-1" d="M2.5 1.25h11a1.25 1.25 0 0 1 1.25 1.25V13a.75.75 0 0 1-.75.75H2a.75.75 0 0 1-.75-.75V2.5A1.25 1.25 0 0 1 2.5 1.25z" transform="translate(175 131)"/>
                </g>
                <path id="패스_6" data-name="패스 6" class="cls-3" d="M188.75 87.25v13" transform="translate(-3.75 45.25)"/>
            </g>
            <g id="그룹_7" data-name="그룹 7">
                <g id="사각형_1" data-name="사각형 1" class="cls-2">
                    <path class="cls-6" d="M4 0h30a4 4 0 0 1 4 4v40a2 2 0 0 1-2 2H2a2 2 0 0 1-2-2V4a4 4 0 0 1 4-4z" transform="translate(164 82)"/>
                    <path class="cls-1" d="M4 1.25h30A2.75 2.75 0 0 1 36.75 4v40a.75.75 0 0 1-.75.75H2a.75.75 0 0 1-.75-.75V4A2.75 2.75 0 0 1 4 1.25z" transform="translate(164 82)"/>
                </g>
                <path id="패스_1" data-name="패스 1" class="cls-3" d="M188.75 87.25v44" transform="translate(3 -4.25)"/>
            </g>
            <g id="그룹_1" data-name="그룹 1" transform="translate(21 -4)">
                <g id="타원_1" data-name="타원 1" class="cls-2" transform="translate(137 121)">
                    <circle class="cls-6" cx="11" cy="11" r="11"/>
                    <circle class="cls-1" cx="11" cy="11" r="9.75"/>
                </g>
                <path id="패스_2" data-name="패스 2" class="cls-3" d="m138.25 125.469 2.874-3.719" transform="translate(3.25 14.531)"/>
                <g id="타원_2" data-name="타원 2" class="cls-3" transform="translate(142 126)">
                    <circle class="cls-6" cx="6" cy="6" r="6"/>
                    <circle class="cls-1" cx="6" cy="6" r="4.75"/>
                </g>
                <path id="패스_3" data-name="패스 3" class="cls-3" d="m138.25 125.531 2.922-3.781" transform="translate(13.078 1.75)"/>
                <g id="타원_3" data-name="타원 3" class="cls-3" transform="rotate(34 -135.334 304.273)">
                    <ellipse class="cls-6" cx="1" cy="2" rx="1" ry="2"/>
                    <ellipse class="cls-1" cx="1" cy="2" rx=".25" ry=".75"/>
                </g>
                <g id="타원_4" data-name="타원 4" class="cls-3" transform="rotate(34 -144.139 309.446)">
                    <circle class="cls-6" cx="1" cy="1" r="1"/>
                    <circle class="cls-1" cx="1" cy="1" r=".25"/>
                </g>
                <g id="타원_6" data-name="타원 6" class="cls-3" transform="rotate(34 -135.774 310.015)">
                    <circle class="cls-6" cx=".713" cy=".713" r=".713"/>
                    <circle class="cls-1" cx=".713" cy=".713" r=".537"/>
                </g>
                <g id="타원_5" data-name="타원 5" class="cls-3" transform="rotate(34 -138.67 308.472)">
                    <ellipse class="cls-6" cx="1.593" cy="1" rx="1.593" ry="1"/>
                    <ellipse class="cls-1" cx="1.593" cy="1" rx=".343" ry=".25"/>
                </g>
                <g id="타원_7" data-name="타원 7" class="cls-3" transform="rotate(104 22.125 123.859)">
                    <ellipse class="cls-6" cx="1.1" cy=".691" rx="1.1" ry=".691"/>
                    <ellipse class="cls-1" cx="1.1" cy=".691" rx=".15" ry=".559"/>
                </g>
            </g>
            <g id="그룹_2" data-name="그룹 2" transform="translate(9 -18)">
                <g id="타원_1-2" data-name="타원 1" class="cls-2" transform="translate(137 121)">
                    <circle class="cls-6" cx="8" cy="8" r="8"/>
                    <circle class="cls-1" cx="8" cy="8" r="6.75"/>
                </g>
                <path id="패스_2-2" data-name="패스 2" class="cls-3" d="m138.25 124.261 1.941-2.511" transform="translate(2.789 9.57)"/>
                <g id="타원_2-2" data-name="타원 2" class="cls-3" transform="translate(141 125)">
                    <circle class="cls-6" cx="4" cy="4" r="4"/>
                    <circle class="cls-1" cx="4" cy="4" r="2.75"/>
                </g>
                <path id="패스_4" data-name="패스 4" class="cls-3" d="m138.25 124.261 1.941-2.511" transform="translate(8.809 2.57)"/>
            </g>
            <path id="합치기_1" data-name="합치기 1" d="M0 10.5A4.492 4.492 0 0 1 .256 9H.25l.025-.053a4.479 4.479 0 0 1 .338-.716L4.5 0l3.887 8.231a4.48 4.48 0 0 1 .338.716L8.75 9h-.006A4.5 4.5 0 1 1 0 10.5z" transform="translate(178.5 151)" style="stroke-linecap:round;stroke-linejoin:round;stroke:#000;stroke-width:2.5px;fill:#fff"/>
            <g id="그룹_3" data-name="그룹 3" transform="translate(46)">
                <path id="패스_7" data-name="패스 7" class="cls-5" d="M152.945 142s.5 3.658-1.526 4.95a7.577 7.577 0 0 1-4.419 1.028" transform="translate(0 1)"/>
                <path id="패스_8" data-name="패스 8" class="cls-5" d="M152.945 142s.5 3.658-1.526 4.95a7.577 7.577 0 0 1-4.419 1.028" transform="rotate(90 152.5 148.5)"/>
                <path id="패스_9" data-name="패스 9" class="cls-5" d="M152.945 148s.5-3.658-1.526-4.95a7.577 7.577 0 0 0-4.419-1.028" transform="translate(0 7)"/>
                <path id="패스_10" data-name="패스 10" class="cls-5" d="M5.945 6s.5-3.658-1.526-4.95A7.577 7.577 0 0 0 0 .022" transform="rotate(-90 154 1)"/>
            </g>
        </g>
    </g>
</svg>
