<svg xmlns="http://www.w3.org/2000/svg" xmlns:xlink="http://www.w3.org/1999/xlink" width="149" height="149" viewBox="0 0 149 149">
  <defs>
    <clipPath id="clip-path">
      <rect id="사각형_707" data-name="사각형 707" width="149" height="149" transform="translate(-0.242)" fill="none"/>
    </clipPath>
  </defs>
  <g id="그룹_1036" data-name="그룹 1036" transform="translate(0.242)">
    <g id="그룹_1035" data-name="그룹 1035" transform="translate(0.001)" clip-path="url(#clip-path)">
      <path id="패스_591" data-name="패스 591" d="M67.655,24.267V19.1a11.36,11.36,0,1,0-22.72,0v5.163H33.4V19.1a11.359,11.359,0,1,0-22.718,0V121A11.359,11.359,0,1,0,33.4,121v-4.874H44.935V121a11.36,11.36,0,1,0,22.72,0V38.381H78.842V50.256H90.03V24.267ZM33.4,33.217H44.935v73.955H33.4Z" transform="translate(6.413 4.28)" fill="none" stroke="#000" stroke-linecap="round" stroke-linejoin="round" stroke-width="2.5"/>
      <rect id="사각형_705" data-name="사각형 705" width="7.057" height="59.715" transform="translate(87.493 54.537)" fill="none" stroke="#000" stroke-linecap="round" stroke-linejoin="round" stroke-width="2.5"/>
      <rect id="사각형_706" data-name="사각형 706" width="11.187" height="18.891" transform="translate(85.256 114.252)" fill="none" stroke="#000" stroke-linecap="round" stroke-linejoin="round" stroke-width="2.5"/>
      <path id="패스_592" data-name="패스 592" d="M79.175,51.167s1.141,8.349-3.483,11.3a17.3,17.3,0,0,1-10.085,2.346" transform="translate(36.771 28.282)" fill="none" stroke="#000" stroke-linecap="round" stroke-linejoin="round" stroke-width="2.5"/>
      <path id="패스_593" data-name="패스 593" d="M88.119,64.735s-8.349,1.141-11.3-3.483a17.3,17.3,0,0,1-2.346-10.085" transform="translate(41.646 28.282)" fill="none" stroke="#000" stroke-linecap="round" stroke-linejoin="round" stroke-width="2.5"/>
      <path id="패스_594" data-name="패스 594" d="M79.175,73.679s1.141-8.349-3.483-11.3a17.3,17.3,0,0,0-10.085-2.346" transform="translate(36.771 33.157)" fill="none" stroke="#000" stroke-linecap="round" stroke-linejoin="round" stroke-width="2.5"/>
      <path id="패스_595" data-name="패스 595" d="M88.119,60.111s-8.349-1.141-11.3,3.483a17.3,17.3,0,0,0-2.346,10.085" transform="translate(41.646 33.157)" fill="none" stroke="#000" stroke-linecap="round" stroke-linejoin="round" stroke-width="2.5"/>
      <path id="패스_596" data-name="패스 596" d="M84.355,38.02s.478,3.5-1.46,4.734a7.246,7.246,0,0,1-4.227.983" transform="translate(43.991 21.015)" fill="none" stroke="#000" stroke-linecap="round" stroke-linejoin="round" stroke-width="2.5"/>
      <path id="패스_597" data-name="패스 597" d="M88.1,43.706s-3.5.478-4.736-1.46a7.245,7.245,0,0,1-.983-4.227" transform="translate(46.033 21.015)" fill="none" stroke="#000" stroke-linecap="round" stroke-linejoin="round" stroke-width="2.5"/>
      <path id="패스_598" data-name="패스 598" d="M84.355,47.453s.478-3.5-1.46-4.734a7.269,7.269,0,0,0-4.227-.983" transform="translate(43.991 23.058)" fill="none" stroke="#000" stroke-linecap="round" stroke-linejoin="round" stroke-width="2.5"/>
      <path id="패스_599" data-name="패스 599" d="M88.1,41.769s-3.5-.478-4.736,1.46a7.246,7.246,0,0,0-.983,4.227" transform="translate(46.033 23.058)" fill="none" stroke="#000" stroke-linecap="round" stroke-linejoin="round" stroke-width="2.5"/>
      <path id="패스_600" data-name="패스 600" d="M19.212,93.877a5.317,5.317,0,0,1,5.317-5.317,5.26,5.26,0,0,1,1.439.222V22.073c-2.582-.935-5.618,1.332-7.765,3.343a13.719,13.719,0,0,1-3.916,2.525V41.585a3.176,3.176,0,0,1,.818-.118,3.227,3.227,0,0,1,0,6.455,3.176,3.176,0,0,1-.818-.118V113.78a5.423,5.423,0,0,0,5.422,5.422h.837a5.422,5.422,0,0,0,5.422-5.422V98.971a5.26,5.26,0,0,1-1.439.222,5.317,5.317,0,0,1-5.317-5.317m-.725-34.652a2.282,2.282,0,1,1,2.283,2.283,2.282,2.282,0,0,1-2.283-2.283" transform="translate(8.404 12.081)"/>
      <path id="패스_601" data-name="패스 601" d="M44.027,67.831a3.388,3.388,0,0,1,3.388-3.388,3.327,3.327,0,0,1,.5.051V24.969c-1.635-1.346-4-3.946-5.84-5.706a5.324,5.324,0,0,0-5.8-.91c-.008.124-.037.244-.037.37V29.134a5.462,5.462,0,0,1,1.076-.109A5.341,5.341,0,1,1,36.234,39.6v76.376a5.422,5.422,0,0,0,5.422,5.421h.837a5.421,5.421,0,0,0,5.422-5.421V71.168a3.326,3.326,0,0,1-.5.051,3.388,3.388,0,0,1-3.388-3.388M40.7,101.348a2.679,2.679,0,1,1,2.68-2.68,2.681,2.681,0,0,1-2.68,2.68" transform="translate(20.535 9.887)"/>
    </g>
  </g>
</svg>
