<svg xmlns="http://www.w3.org/2000/svg" width="48" height="48" viewBox="0 0 48 48">
    <defs>
        <style>
            .cls-2{fill:none;stroke:#da0f47;stroke-width:1.5px;stroke-linecap:round;stroke-linejoin:round;fill-rule:evenodd}
        </style>
    </defs>
    <g id="icon_soundbar" transform="translate(-470.645 -630.5)">
        <g id="CT50000036" transform="translate(475.645 643.5)">
            <g id="그룹_246" data-name="그룹 246">
                <g id="그룹_245" data-name="그룹 245">
                    <g id="그룹_244" data-name="그룹 244">
                        <g id="그룹_243" data-name="그룹 243">
                            <g id="그룹_242" data-name="그룹 242">
                                <g id="그룹_241" data-name="그룹 241">
                                    <path id="패스_75" data-name="패스 75" class="cls-2" d="M14 15h22.5a1.5 1.5 0 0 1 1.5 1.5v5a1.5 1.5 0 0 1-1.5 1.5H14z" transform="translate(0 -.912)"/>
                                    <g id="그룹_239" data-name="그룹 239" transform="translate(19.032)">
                                        <path id="패스_76" data-name="패스 76" fill="#da0f47" d="M.537 1.34A8.187 8.187 0 0 1 6.38 3.754 8.221 8.221 0 0 1 8.786 9.6l.047.122a.68.68 0 0 0 1.3-.122A9.573 9.573 0 0 0 .537 0a.683.683 0 0 0-.086 1.309l.086.03z" transform="rotate(-45 8.653 3.584)"/>
                                        <path id="패스_77" data-name="패스 77" fill="#da0f47" d="M.586 1.322A5.014 5.014 0 0 1 5.646 6.4l.04.1a.681.681 0 0 0 1.3-.1A6.373 6.373 0 0 0 .586 0a.646.646 0 0 0-.2 1.233l.2.089z" transform="rotate(-45 12.705 2.112)"/>
                                    </g>
                                    <rect id="사각형_184" data-name="사각형 184" width="8" height="1.5" rx=".75" transform="translate(22 17.338)" fill="#da0f47"/>
                                    <path id="패스_78" data-name="패스 78" class="cls-2" d="M1.5 2h11A1.5 1.5 0 0 1 14 3.5V23H1.5A1.5 1.5 0 0 1 0 21.5v-18A1.5 1.5 0 0 1 1.5 2z" transform="translate(0 -.912)"/>
                                    <g id="그룹_240" data-name="그룹 240" transform="translate(4 5.088)">
                                        <circle id="타원_7" data-name="타원 7" cx="2" cy="2" r="2" transform="translate(1)" style="fill:none;stroke:#da0f47;stroke-width:1.5px"/>
                                        <path id="패스_79" data-name="패스 79" d="M3 13.5a3 3 0 1 0-3-3 3 3 0 0 0 3 3z" style="fill-rule:evenodd;fill:none;stroke:#da0f47;stroke-width:1.5px"/>
                                    </g>
                                </g>
                            </g>
                        </g>
                    </g>
                </g>
            </g>
        </g>
    </g>
</svg>
