<svg id="그룹_1030" data-name="그룹 1030" xmlns="http://www.w3.org/2000/svg" xmlns:xlink="http://www.w3.org/1999/xlink" width="96" height="96" viewBox="0 0 96 96">
  <defs>
    <clipPath id="clip-path">
      <rect id="사각형_687" data-name="사각형 687" width="96" height="96" fill="none"/>
    </clipPath>
  </defs>
  <path id="패스_553" data-name="패스 553" d="M91.3,74.972,62.062,70.15l6.185-6.569,24.714,3.327Z" fill="#fff"/>
  <g id="그룹_1027" data-name="그룹 1027">
    <g id="그룹_1026" data-name="그룹 1026" clip-path="url(#clip-path)">
      <path id="패스_554" data-name="패스 554" d="M91.3,74.972,62.062,70.15l6.185-6.569,24.714,3.327Z" fill="none" stroke="#000" stroke-linecap="round" stroke-linejoin="round" stroke-width="2.5"/>
    </g>
  </g>
  <path id="패스_555" data-name="패스 555" d="M88.86,57.736V21.378H4.256V74.622H49.592l2.549-1.257,1-2,2.882.111,4.1-.554L64,69.375l3.1.222V67.269l1.219-1.441,2.328.554,1.773,1.774,4.1-3.1,4.1-.665,1-2.086h3.547l1.663-2.236.11-2.107Z" fill="#fff"/>
  <g id="그룹_1029" data-name="그룹 1029">
    <g id="그룹_1028" data-name="그룹 1028" clip-path="url(#clip-path)">
      <path id="패스_556" data-name="패스 556" d="M88.86,57.736V21.378H4.256V74.622H49.592l2.549-1.257,1-2,2.882.111,4.1-.554L64,69.375l3.1.222V67.269l1.219-1.441,2.328.554,1.773,1.774,4.1-3.1,4.1-.665,1-2.086h3.547l1.663-2.236.11-2.107Z" fill="none" stroke="#000" stroke-linecap="round" stroke-linejoin="round" stroke-width="2.5"/>
    </g>
  </g>
  <rect id="사각형_689" data-name="사각형 689" width="68.503" height="27.601" transform="translate(10.304 33.072)" fill="#fff"/>
  <rect id="사각형_690" data-name="사각형 690" width="68.503" height="27.601" transform="translate(10.304 33.072)" fill="none" stroke="#000" stroke-linecap="round" stroke-linejoin="round" stroke-width="2.5"/>
  <rect id="사각형_691" data-name="사각형 691" width="8.106" height="8.106" transform="translate(64.944 49.117)" fill="#9c9c9c"/>
  <rect id="사각형_692" data-name="사각형 692" width="8.106" height="8.106" transform="translate(52.723 49.117)" fill="#b0b0b0"/>
  <rect id="사각형_693" data-name="사각형 693" width="8.106" height="8.106" transform="translate(40.502 49.117)" fill="#c8c8c8"/>
  <rect id="사각형_694" data-name="사각형 694" width="8.106" height="8.106" transform="translate(28.281 49.117)" fill="#d6d6d6"/>
  <rect id="사각형_695" data-name="사각형 695" width="8.106" height="8.106" transform="translate(16.06 49.117)" fill="#f2f2f2"/>
  <path id="패스_557" data-name="패스 557" d="M87.483,66.171l-1.849,7.867-6.807-1.122,2.226-7.611Z" fill="#fff"/>
  <path id="패스_558" data-name="패스 558" d="M87.483,66.171l-1.849,7.867-6.807-1.122,2.226-7.611Z" fill="none" stroke="#000" stroke-linecap="round" stroke-linejoin="round" stroke-width="2.5"/>
  <path id="패스_559" data-name="패스 559" d="M14.1,45.792v-5.4h2.452v3.076L14.1,43.423" fill="none" stroke="#000" stroke-miterlimit="10" stroke-width="1"/>
  <path id="패스_560" data-name="패스 560" d="M18.18,45.792v-5.4h2.452v3.076l-2.452-.041" fill="none" stroke="#000" stroke-miterlimit="10" stroke-width="1"/>
  <path id="패스_561" data-name="패스 561" d="M22.252,43.921V40.388h4.7v3.533" fill="none" stroke="#000" stroke-miterlimit="10" stroke-width="1"/>
  <line id="선_152" data-name="선 152" y1="3.533" transform="translate(24.6 40.388)" fill="none" stroke="#000" stroke-miterlimit="10" stroke-width="1"/>
  <path id="패스_562" data-name="패스 562" d="M29.027,38.476H33.89" fill="none" stroke="#000" stroke-miterlimit="10" stroke-width="1"/>
  <line id="선_153" data-name="선 153" y1="5.445" transform="translate(31.334 38.476)" fill="none" stroke="#000" stroke-miterlimit="10" stroke-width="1"/>
  <rect id="사각형_696" data-name="사각형 696" width="2.66" height="3.118" transform="translate(33.517 40.388)" fill="none" stroke="#000" stroke-miterlimit="10" stroke-width="1"/>
  <path id="패스_563" data-name="패스 563" d="M37.424,38.975v4.531H39.5" fill="none" stroke="#000" stroke-miterlimit="10" stroke-width="1"/>
  <line id="선_154" data-name="선 154" x1="2.078" transform="translate(37.424 40.388)" fill="none" stroke="#000" stroke-miterlimit="10" stroke-width="1"/>
  <path id="패스_564" data-name="패스 564" d="M40.167,40.388h2.162v3.118H40.167V41.947h2.162" fill="none" stroke="#000" stroke-miterlimit="10" stroke-width="1"/>
  <path id="패스_565" data-name="패스 565" d="M52.8,40.388h2.162v3.118H52.8V41.947h2.162" fill="none" stroke="#000" stroke-miterlimit="10" stroke-width="1"/>
  <path id="패스_566" data-name="패스 566" d="M43.555,38.06v5.445h1.351" fill="none" stroke="#000" stroke-miterlimit="10" stroke-width="1"/>
  <line id="선_155" data-name="선 155" y2="5.861" transform="translate(47.608 38.06)" fill="none" stroke="#000" stroke-miterlimit="10" stroke-width="1"/>
  <line id="선_156" data-name="선 156" x1="3.45" transform="translate(47.608 41.24)" fill="none" stroke="#000" stroke-miterlimit="10" stroke-width="1"/>
  <line id="선_157" data-name="선 157" y2="5.861" transform="translate(51.058 38.06)" fill="none" stroke="#000" stroke-miterlimit="10" stroke-width="1"/>
  <path id="패스_567" data-name="패스 567" d="M56.5,43.921V40.388h2.037v3.533" fill="none" stroke="#000" stroke-miterlimit="10" stroke-width="1"/>
  <path id="패스_568" data-name="패스 568" d="M63.459,43.921V40.388H65.5v3.533" fill="none" stroke="#000" stroke-miterlimit="10" stroke-width="1"/>
  <path id="패스_569" data-name="패스 569" d="M62,38.06V43.4H60.126V40.388H62" fill="none" stroke="#000" stroke-miterlimit="10" stroke-width="1"/>
  <path id="패스_570" data-name="패스 570" d="M69.078,40.388h-2.12v3.118h2.12" fill="none" stroke="#000" stroke-miterlimit="10" stroke-width="1"/>
  <line id="선_158" data-name="선 158" x1="2.12" transform="translate(66.958 41.947)" fill="none" stroke="#000" stroke-miterlimit="10" stroke-width="1"/>
  <path id="패스_571" data-name="패스 571" d="M72.362,40.388H70.284v1.559h2.078V43.4H69.577" fill="none" stroke="#000" stroke-miterlimit="10" stroke-width="1"/>
  <path id="패스_572" data-name="패스 572" d="M75.936,40.388H73.858v1.559h2.078V43.4H73.151" fill="none" stroke="#000" stroke-miterlimit="10" stroke-width="1"/>
</svg>
