<svg xmlns="http://www.w3.org/2000/svg" width="80" height="80" viewBox="0 0 80 80">
    <g data-name="그룹 1209">
        <path data-name="사각형 812" style="fill:none" d="M0 0h80v80H0z"/>
        <g data-name="그룹 1184">
            <g data-name="그룹 386">
                <g data-name="사각형 278" transform="rotate(90 20 35)" style="stroke-width:1.5px;stroke:#000;fill:#edcec9">
                    <rect width="52" height="42" rx="4" style="stroke:none"/>
                    <rect x=".75" y=".75" width="50.5" height="40.5" rx="3.25" style="fill:none"/>
                </g>
                <g data-name="그룹 388">
                    <g data-name="사각형 279" transform="translate(33.332 28)" style="fill:#fff;stroke-width:1.5px;stroke:#000">
                        <rect width="14" height="2" rx="1" style="stroke:none"/>
                        <rect x=".75" y=".75" width="12.5" height=".5" rx=".25" style="fill:none"/>
                    </g>
                    <g data-name="사각형 282" transform="translate(33.332 46)" style="fill:#fff;stroke-width:1.5px;stroke:#000">
                        <rect width="14" height="2" rx="1" style="stroke:none"/>
                        <rect x=".75" y=".75" width="12.5" height=".5" rx=".25" style="fill:none"/>
                    </g>
                    <g data-name="사각형 280" transform="translate(33.332 35)" style="fill:#fff;stroke-width:1.5px;stroke:#000">
                        <rect width="14" height="2" rx="1" style="stroke:none"/>
                        <rect x=".75" y=".75" width="12.5" height=".5" rx=".25" style="fill:none"/>
                    </g>
                    <g data-name="사각형 281" transform="translate(33.332 53)" style="fill:#fff;stroke-width:1.5px;stroke:#000">
                        <rect width="14" height="2" rx="1" style="stroke:none"/>
                        <rect x=".75" y=".75" width="12.5" height=".5" rx=".25" style="fill:none"/>
                    </g>
                    <path data-name="패스 143" d="m431.667 370 2.667 2.667 4.667-5" transform="translate(-410.668 -337)" style="stroke-width:2px;stroke-linecap:round;stroke-linejoin:round;stroke:#000;fill:none"/>
                    <path data-name="패스 144" d="m431.667 370 2.667 2.667 4.667-5" transform="translate(-410.668 -319)" style="stroke-width:2px;stroke-linecap:round;stroke-linejoin:round;stroke:#000;fill:none"/>
                </g>
                <g data-name="사각형 285" transform="translate(21.999 12)" style="fill:#5b7d83;stroke-width:1.5px;stroke:#000">
                    <rect width="24" height="8" rx="2" style="stroke:none"/>
                    <rect x=".75" y=".75" width="22.5" height="6.5" rx="1.25" style="fill:none"/>
                </g>
            </g>
            <g data-name="그룹 385">
                <g data-name="사각형 283" style="fill:#e1d0b6;stroke-width:1.5px;stroke:#000">
                    <path d="M2 0h4a2 2 0 0 1 2 2v27a1 1 0 0 1-1 1H1a1 1 0 0 1-1-1V2a2 2 0 0 1 2-2z" style="stroke:none" transform="rotate(180 34 33.5)"/>
                    <path d="M2 .75h4A1.25 1.25 0 0 1 7.25 2v27a.25.25 0 0 1-.25.25H1A.25.25 0 0 1 .75 29V2A1.25 1.25 0 0 1 2 .75z" style="fill:none" transform="rotate(180 34 33.5)"/>
                </g>
                <path data-name="패스 145" d="m2973.75 410.063 3.031 4.25 3.469-4.25" transform="rotate(180 1520.5 223.781)" style="fill:#ddd;stroke-linecap:round;stroke-linejoin:round;stroke-width:1.5px;stroke:#000"/>
                <g data-name="사각형 284" style="fill:#fff;stroke:#000">
                    <path style="stroke:none" d="M0 0h6v1.5H0z" transform="rotate(180 33.5 31.5)"/>
                    <path style="fill:none" d="M.5.5h5V1h-5z" transform="rotate(180 33.5 31.5)"/>
                </g>
            </g>
        </g>
    </g>
</svg>
