<svg xmlns="http://www.w3.org/2000/svg" width="80" height="80" viewBox="0 0 80 80">
  <g id="그룹_1209" data-name="그룹 1209" transform="translate(-453.001 -370)">
    <rect id="사각형_812" data-name="사각형 812" width="80" height="80" transform="translate(453.001 370)" fill="none"/>
    <g id="그룹_1184" data-name="그룹 1184" transform="translate(48 31)">
      <g id="그룹_386" data-name="그룹 386">
        <g id="사각형_278" data-name="사각형 278" transform="translate(466 357) rotate(90)" fill="#fff" stroke="#000" stroke-width="1.5">
          <rect width="48" height="42" rx="4" stroke="none"/>
          <rect x="0.75" y="0.75" width="46.5" height="40.5" rx="3.25" fill="none"/>
        </g>
        <g id="그룹_388" data-name="그룹 388" transform="translate(-1.667 3)">
          <g id="사각형_279" data-name="사각형 279" transform="translate(446 365)" fill="#fff" stroke="#000" stroke-width="1.5">
            <rect width="14" height="2" rx="1" stroke="none"/>
            <rect x="0.75" y="0.75" width="12.5" height="0.5" rx="0.25" fill="none"/>
          </g>
          <g id="사각형_282" data-name="사각형 282" transform="translate(446 383)" fill="#fff" stroke="#000" stroke-width="1.5">
            <rect width="14" height="2" rx="1" stroke="none"/>
            <rect x="0.75" y="0.75" width="12.5" height="0.5" rx="0.25" fill="none"/>
          </g>
          <g id="사각형_280" data-name="사각형 280" transform="translate(446 372)" fill="#fff" stroke="#000" stroke-width="1.5">
            <rect width="14" height="2" rx="1" stroke="none"/>
            <rect x="0.75" y="0.75" width="12.5" height="0.5" rx="0.25" fill="none"/>
          </g>
          <g id="사각형_281" data-name="사각형 281" transform="translate(446 390)" fill="#fff" stroke="#000" stroke-width="1.5">
            <rect width="14" height="2" rx="1" stroke="none"/>
            <rect x="0.75" y="0.75" width="12.5" height="0.5" rx="0.25" fill="none"/>
          </g>
          <path id="패스_143" data-name="패스 143" d="M431.667,370l2.667,2.667,4.667-5" transform="translate(2)" fill="none" stroke="#da0f47" stroke-linecap="round" stroke-linejoin="round" stroke-width="2"/>
          <path id="패스_144" data-name="패스 144" d="M431.667,370l2.667,2.667,4.667-5" transform="translate(2 18)" fill="none" stroke="#da0f47" stroke-linecap="round" stroke-linejoin="round" stroke-width="2"/>
        </g>
        <g id="사각형_285" data-name="사각형 285" transform="translate(433 354)" fill="#fff" stroke="#000" stroke-width="1.5">
          <rect width="24" height="8" rx="2" stroke="none"/>
          <rect x="0.75" y="0.75" width="22.5" height="6.5" rx="1.25" fill="none"/>
        </g>
      </g>
    </g>
  </g>
</svg>
