<svg xmlns="http://www.w3.org/2000/svg" xmlns:xlink="http://www.w3.org/1999/xlink" width="120" height="120" viewBox="0 0 120 120">
  <defs>
    <clipPath id="clip">
      <use xlink:href="#fill"/>
    </clipPath>
  </defs>
  <g id="step04" transform="translate(-381 -408)">
    <rect id="사각형_832" data-name="사각형 832" width="120" height="120" transform="translate(381 408)" fill="none"/>
    <g id="그룹_1201" data-name="그룹 1201" transform="translate(404 432.999)">
      <g id="사각형_290" data-name="사각형 290" transform="translate(32.892 1.949)" fill="#aa593d" stroke="#000" stroke-width="3">
        <path d="M10,0H21.674a10,10,0,0,1,10,10V45.075a0,0,0,0,1,0,0H0a0,0,0,0,1,0,0V10A10,10,0,0,1,10,0Z" stroke="none"/>
        <path d="M10,1.5H21.674a8.5,8.5,0,0,1,8.5,8.5V43.575a0,0,0,0,1,0,0H1.5a0,0,0,0,1,0,0V10A8.5,8.5,0,0,1,10,1.5Z" fill="none"/>
      </g>
      <g id="패스_146" data-name="패스 146" transform="translate(25.989 37.929)" fill="#ddd">
        <path d="M 44.74998092651367 29.52295303344727 L 2.355259895324707 29.52295303344727 C 1.883669972419739 29.52295303344727 1.49999988079071 29.0617733001709 1.49999988079071 28.49491310119629 L 1.49999988079071 13.32666301727295 C 1.49999988079071 10.5717134475708 2.543489933013916 8.282173156738281 4.690099716186523 6.327213287353516 C 6.435262680053711 4.737850189208984 8.837527275085449 3.397716283798218 12.24666500091553 2.112149953842163 L 23.32024955749512 -1.041251063346863 L 34.59294891357422 2.120489120483398 C 38.37257385253906 3.391298294067383 40.94809722900391 4.743395805358887 42.69633865356445 6.374283313751221 C 44.6809196472168 8.225643157958984 45.60523986816406 10.4348030090332 45.60523986816406 13.32666301727295 L 45.60523986816406 28.49491310119629 C 45.60523986816406 29.0617733001709 45.2215690612793 29.52295303344727 44.74998092651367 29.52295303344727 Z" stroke="none"/>
        <path d="M 23.32334518432617 0.5174961090087891 L 12.71808624267578 3.537532806396484 C 9.565353393554688 4.73155403137207 7.268997192382812 6.00738525390625 5.700088500976562 7.436223983764648 C 3.85797119140625 9.113872528076172 3 10.98560333251953 3 13.32666301727295 L 3 28.02295303344727 L 44.10523986816406 28.02295303344727 L 44.10523986816406 13.32666301727295 C 44.10523986816406 10.87966346740723 43.33242034912109 9.019023895263672 41.67314147949219 7.471122741699219 C 40.09208297729492 5.996198654174805 37.7006950378418 4.750827789306641 34.15079498291016 3.554353713989258 L 23.32334518432617 0.5174961090087891 M 23.3171501159668 -2.600006103515625 L 35.03451919555664 0.6864528656005859 C 42.10031127929688 3.056493759155273 47.10523986816406 6.345672607421875 47.10523986816406 13.32666301727295 L 47.10523986816406 28.49491310119629 C 47.10523986816406 29.89111328125 46.05075073242188 31.02295303344727 44.74998092651367 31.02295303344727 L 2.355258941650391 31.02295303344727 C 1.054481506347656 31.02295303344727 0 29.89111328125 0 28.49491310119629 L 0 13.32666301727295 C 0 6.345672607421875 5.888149261474609 2.898492813110352 11.77630996704102 0.6864528656005859 L 23.3171501159668 -2.600006103515625 Z" stroke="none" fill="#000"/>
      </g>
      <path id="패스_147" data-name="패스 147" d="M3244.676,420.58s-2.284,7-4.568,7.157-5.482-11.269-5.482-11.269l4.264-1.218" transform="translate(-3195.946 -376.449)" fill="#5b7d83" stroke="#000" stroke-width="3"/>
      <g id="사각형_288" data-name="사각형 288" transform="translate(62.13 60.424)" fill="#fff" stroke="#000" stroke-width="3">
        <rect id="fill" width="1.827" height="8.528" rx="0.914" stroke="none"/>
        <path d="M0,1.5h1.8273546695709229M1.5,0v8.527654647827148M1.8273546695709229,7.027654647827148h-1.8273546695709229M0.32735466957092285,8.527654647827148v-8.527654647827148" fill="none" clip-path="url(#clip)"/>
      </g>
      <path id="패스_148" data-name="패스 148" d="M3234.625,420.58s2.284,7,4.569,7.157,5.482-11.269,5.482-11.269l-4.264-1.218" transform="translate(-3185.896 -376.449)" fill="#5b7d83" stroke="#000" stroke-width="3"/>
      <g id="합치기_10" data-name="합치기 10" transform="translate(42.638 32.405)" fill="#edcec9">
        <path d="M 6.090735912322998 11.90035915374756 C 3.559396028518677 11.90035915374756 1.499996185302734 9.841029167175293 1.499996185302734 7.309779167175293 L 1.499996185302734 1.499999046325684 L 10.68251609802246 1.499999046325684 L 10.68251609802246 7.309779167175293 C 10.68251609802246 9.841029167175293 8.622655868530273 11.90035915374756 6.090735912322998 11.90035915374756 Z" stroke="none"/>
        <path d="M 6.090735912322998 10.40035915374756 C 7.795546054840088 10.40035915374756 9.182516098022461 9.01392936706543 9.182516098022461 7.309779167175293 L 9.182516098022461 2.999999046325684 L 2.999996185302734 2.999999046325684 L 2.999996185302734 7.309779167175293 C 2.999996185302734 9.01392936706543 4.386496067047119 10.40035915374756 6.090735912322998 10.40035915374756 M 6.090735912322998 13.40035915374756 C 2.727086067199707 13.40035915374756 -3.85833754990017e-06 10.67357921600342 -3.85833754990017e-06 7.309779167175293 L -3.85833754990017e-06 -8.999633678286045e-07 L 12.18251609802246 -8.999633678286045e-07 L 12.18251609802246 7.309779167175293 C 12.18251609802246 10.67357921600342 9.455426216125488 13.40035915374756 6.090735912322998 13.40035915374756 Z" stroke="none" fill="#000"/>
      </g>
      <g id="타원_45" data-name="타원 45" transform="translate(36.547 10.477)" fill="#edcec9" stroke="#000" stroke-width="3">
        <circle cx="12.182" cy="12.182" r="12.182" stroke="none"/>
        <circle cx="12.182" cy="12.182" r="10.682" fill="none"/>
      </g>
      <path id="패스_149" data-name="패스 149" d="M3253.457,393.618s-1.714,3.881-4.9,4.337-6.12-.685-8.323,0-6.855,4.337-6.855,4.337l-1.959,3.605s-.734-14.382,1.959-18.034,6.61-6.8,10.037-7.029,6.855-.913,8.814,1.37S3253.457,393.618,3253.457,393.618Z" transform="translate(-3197.973 -380.559)" fill="#aa593d" stroke="#000" stroke-linecap="round" stroke-linejoin="round" stroke-width="3"/>
      <g id="그룹_390" data-name="그룹 390" transform="translate(1.218 0)">
        <path id="합치기_11" data-name="합치기 11" d="M17.109,24.365H1.25A1.25,1.25,0,0,1,0,23.115V1.25A1.25,1.25,0,0,1,1.25,0H29.206a1.25,1.25,0,0,1,1.25,1.25V23.115a1.25,1.25,0,0,1-1.25,1.25H21.648v4.118Z" transform="translate(0 0)" fill="#f4fbff" stroke="#000" stroke-linecap="round" stroke-linejoin="round" stroke-width="3"/>
      </g>
      <g id="사각형_291" data-name="사각형 291" transform="translate(31.674 15.35)" fill="#fff" stroke="#000" stroke-width="3">
        <path d="M3,0H6.309a1,1,0,0,1,1,1V11.182a1,1,0,0,1-1,1H3a3,3,0,0,1-3-3V3A3,3,0,0,1,3,0Z" stroke="none"/>
        <path d="M3,1.5H5.309a.5.5,0,0,1,.5.5v8.182a.5.5,0,0,1-.5.5H3a1.5,1.5,0,0,1-1.5-1.5V3A1.5,1.5,0,0,1,3,1.5Z" fill="none"/>
      </g>
      <g id="사각형_292" data-name="사각형 292" transform="translate(65.785 27.532) rotate(180)" fill="#fff" stroke="#000" stroke-width="3">
        <path d="M3,0H6.309a1,1,0,0,1,1,1V11.182a1,1,0,0,1-1,1H3a3,3,0,0,1-3-3V3A3,3,0,0,1,3,0Z" stroke="none"/>
        <path d="M3,1.5H5.309a.5.5,0,0,1,.5.5v8.182a.5.5,0,0,1-.5.5H3a1.5,1.5,0,0,1-1.5-1.5V3A1.5,1.5,0,0,1,3,1.5Z" fill="none"/>
      </g>
      <path id="패스_150" data-name="패스 150" d="M3243.75,406.6h6.712a2.074,2.074,0,0,0,1.281-.658,1.946,1.946,0,0,0,.427-1.376V403.25" transform="translate(-3192.889 -377.632)" fill="none" stroke="#000" stroke-linecap="round" stroke-linejoin="round" stroke-width="2"/>
      <g id="타원_46" data-name="타원 46" transform="translate(47.511 26.532)" stroke="#000" stroke-width="2">
        <circle cx="2.436" cy="2.436" r="2.436" stroke="none"/>
        <circle cx="2.436" cy="2.436" r="1.436" fill="none"/>
      </g>
      <g id="사각형_293" data-name="사각형 293" transform="translate(0 41)" fill="#edcec9" stroke="#000" stroke-width="3">
        <path d="M2,0H34a2,2,0,0,1,2,2V23.5a0,0,0,0,1,0,0H0a0,0,0,0,1,0,0V2A2,2,0,0,1,2,0Z" stroke="none"/>
        <path d="M2,1.5H34a.5.5,0,0,1,.5.5V22a0,0,0,0,1,0,0H1.5a0,0,0,0,1,0,0V2A.5.5,0,0,1,2,1.5Z" fill="none"/>
      </g>
      <g id="사각형_294" data-name="사각형 294" transform="translate(0 61.643)" fill="#edcec9" stroke="#000" stroke-width="3">
        <path d="M0,0H39a1,1,0,0,1,1,1V5.5a2,2,0,0,1-2,2H2a2,2,0,0,1-2-2V0A0,0,0,0,1,0,0Z" stroke="none"/>
        <path d="M1.5,1.5H38a.5.5,0,0,1,.5.5V5.5A.5.5,0,0,1,38,6H2a.5.5,0,0,1-.5-.5v-4A0,0,0,0,1,1.5,1.5Z" fill="none"/>
      </g>
      <g id="그룹_391" data-name="그룹 391" transform="translate(8.528 4.386)">
        <g id="타원_47" data-name="타원 47" transform="translate(0)" fill="#e1d0b6" stroke="#000" stroke-width="2">
          <circle cx="7.919" cy="7.919" r="7.919" stroke="none"/>
          <circle cx="7.919" cy="7.919" r="6.919" fill="none"/>
        </g>
        <g id="타원_48" data-name="타원 48" transform="translate(4.123 5.154)" stroke="#000" stroke-width="3">
          <circle cx="1.218" cy="1.218" r="1.218" stroke="none"/>
          <circle cx="1.218" cy="1.218" r="0.282" fill="none"/>
        </g>
        <g id="타원_49" data-name="타원 49" transform="translate(9.277 5.154)" stroke="#000" stroke-width="3">
          <circle cx="1.218" cy="1.218" r="1.218" stroke="none"/>
          <circle cx="1.218" cy="1.218" r="0.282" fill="none"/>
        </g>
        <path id="패스_152" data-name="패스 152" d="M3291,396.4a3.033,3.033,0,0,0,2.712,1.387,3.373,3.373,0,0,0,2.835-1.387" transform="translate(-3285.954 -386.312)" fill="none" stroke="#000" stroke-linecap="round" stroke-linejoin="round" stroke-width="2"/>
      </g>
    </g>
  </g>
</svg>
