<svg xmlns="http://www.w3.org/2000/svg" width="64" height="64" viewBox="0 0 64 64">
  <g id="icon_benefit03" transform="translate(-1308.342 -628.603)">
    <rect id="사각형_342" data-name="사각형 342" width="64" height="64" transform="translate(1308.342 628.603)" fill="none"/>
    <g id="그룹_707" data-name="그룹 707" transform="translate(-2 0)">
      <g id="사각형_340" data-name="사각형 340" transform="translate(1322.342 648)" fill="none" stroke="#000" stroke-linecap="round" stroke-linejoin="round" stroke-width="1.5">
        <rect width="40" height="12" rx="2" stroke="none"/>
        <rect x="0.75" y="0.75" width="38.5" height="10.5" rx="1.25" fill="none"/>
      </g>
      <g id="사각형_341" data-name="사각형 341" transform="translate(1325.342 658.5)" fill="none" stroke="#000" stroke-linecap="round" stroke-linejoin="round" stroke-width="1.5">
        <rect width="34" height="21" rx="2" stroke="none"/>
        <rect x="0.75" y="0.75" width="32.5" height="19.5" rx="1.25" fill="none"/>
      </g>
      <path id="패스_169" data-name="패스 169" d="M1342,678.667V648.833" transform="translate(0.342)" fill="none" stroke="#000" stroke-width="1.5"/>
      <path id="패스_170" data-name="패스 170" d="M3321.832,648.555a4.621,4.621,0,0,1-1.488-3.18,3.772,3.772,0,0,1,4.9-3.594c2.979.875,6.63,6,6.6,7.469" transform="translate(-1990)" fill="none" stroke="#000" stroke-width="1.5"/>
      <path id="패스_171" data-name="패스 171" d="M3330,648.938l.429-.463a4.557,4.557,0,0,0,1.411-3.1,3.772,3.772,0,0,0-4.9-3.594c-2.979.875-6.63,6-6.6,7.469" transform="translate(-1977.5)" fill="none" stroke="#000" stroke-width="1.5"/>
    </g>
  </g>
</svg>
