<svg xmlns="http://www.w3.org/2000/svg" xmlns:xlink="http://www.w3.org/1999/xlink" width="149" height="149" viewBox="0 0 149 149">
  <defs>
    <clipPath id="clip-path">
      <rect id="사각형_697" data-name="사각형 697" width="149" height="149" transform="translate(0.16)" fill="none"/>
    </clipPath>
  </defs>
  <g id="그룹_1032" data-name="그룹 1032" transform="translate(-0.16)">
    <g id="그룹_1031" data-name="그룹 1031" clip-path="url(#clip-path)">
      <path id="패스_573" data-name="패스 573" d="M9.082,63.322,39.7,98.464s10.5.7,15.928-4.855,10.981-7.365,18.992-6.072,11.11,1.291,16.148-5.556S99.943,70.023,110.8,71.092s16.409-2.805,24.161-7.456" transform="translate(5.032 35.084)" fill="#fff"/>
      <path id="패스_574" data-name="패스 574" d="M9.082,63.322,39.7,98.464s10.5.7,15.928-4.855,10.981-7.365,18.992-6.072,11.11,1.291,16.148-5.556S99.943,70.023,110.8,71.092s16.409-2.805,24.161-7.456" transform="translate(5.032 35.084)" fill="none" stroke="#000" stroke-linecap="round" stroke-linejoin="round" stroke-width="2.5"/>
      <path id="패스_575" data-name="패스 575" d="M10.495,69.062,41.115,104.2s5.167,1.809,10.594-3.747S62.691,93.093,70.7,94.386s11.112,1.291,16.15-5.556,9.174-11.959,20.026-10.889,16.408-2.807,24.159-7.458l-36.3-30.749s-15.245,7.752-29.457,1.809S48.866,34.7,46.412,43.094s-5.3,17.312-15.245,20.155-20.672,5.814-20.672,5.814" transform="translate(5.815 20.466)" fill="#fff"/>
      <path id="패스_576" data-name="패스 576" d="M10.495,69.062,41.115,104.2s5.167,1.809,10.594-3.747S62.691,93.093,70.7,94.386s11.112,1.291,16.15-5.556,9.174-11.959,20.026-10.889,16.408-2.807,24.159-7.458l-36.3-30.749s-15.245,7.752-29.457,1.809S48.866,34.7,46.412,43.094s-5.3,17.312-15.245,20.155S10.495,69.062,10.495,69.062Z" transform="translate(5.815 20.466)" fill="none" stroke="#000" stroke-linecap="round" stroke-linejoin="round" stroke-width="2.5"/>
      <path id="패스_577" data-name="패스 577" d="M47.447,36.589S43.059,49.091,61.4,61.754s13.436,18.475,12.92,18.475S54.946,65.112,37.5,64.66c0,0-12.143-.452-21.188,1.615,0,0,20.679-1.834,24.589-15.94,1.862-6.715,3.138-12.454,5.119-13.745" transform="translate(9.04 21.187)"/>
      <path id="패스_578" data-name="패스 578" d="M43.368,22.978a4.416,4.416,0,0,0-5.786-4.261c0-.075.022-.143.022-.218a4.479,4.479,0,1,0-8.881.758,4.472,4.472,0,1,0-2.017,8.711,4.462,4.462,0,0,0,7.539,4.637,4.451,4.451,0,0,0,6.664-5.649,4.465,4.465,0,0,0,2.46-3.978m-8.936-.216c0,.073-.022.143-.022.216a4.432,4.432,0,0,0,.566,2.138,4.46,4.46,0,0,0-1.433,1.155A4.462,4.462,0,0,0,31.7,25.4a4.448,4.448,0,0,0,.392-1.815,4.529,4.529,0,0,0-.076-.758,4.051,4.051,0,0,0,2.417-.061" transform="translate(12.818 7.768)"/>
      <path id="패스_579" data-name="패스 579" d="M35.079,22.236a3.922,3.922,0,1,1-3.921-3.921,3.921,3.921,0,0,1,3.921,3.921" transform="translate(15.09 10.148)" fill="#fff"/>
      <path id="패스_580" data-name="패스 580" d="M20.452,33.161a2.995,2.995,0,0,0-3.919-2.886c0-.05.016-.1.016-.146a3.033,3.033,0,1,0-6.066,0,3.1,3.1,0,0,0,.051.513,2.986,2.986,0,0,0-.751-.1,3.032,3.032,0,0,0-.615,6,3.022,3.022,0,0,0,5.105,3.141,3.013,3.013,0,0,0,4.511-3.825,3.024,3.024,0,0,0,1.668-2.695M14.4,33.014c0,.05-.016.1-.016.146a3,3,0,0,0,.384,1.448,3.026,3.026,0,0,0-.971.782,3.009,3.009,0,0,0-1.246-.592,3.007,3.007,0,0,0,.264-1.229,3.1,3.1,0,0,0-.051-.513,2.758,2.758,0,0,0,1.636-.042" transform="translate(3.74 15.012)"/>
      <path id="패스_581" data-name="패스 581" d="M14.84,32.658A2.656,2.656,0,1,1,12.182,30a2.656,2.656,0,0,1,2.657,2.656" transform="translate(5.279 16.623)" fill="#fff"/>
      <path id="패스_582" data-name="패스 582" d="M30.1,40.828a2.264,2.264,0,0,0-2.962-2.182c0-.037.012-.071.012-.11a2.293,2.293,0,1,0-4.546.389,2.289,2.289,0,1,0-1.033,4.459,2.284,2.284,0,0,0,3.859,2.373,2.279,2.279,0,0,0,3.411-2.892A2.281,2.281,0,0,0,30.1,40.828m-4.574-.11c0,.037-.011.073-.011.11a2.265,2.265,0,0,0,.289,1.094,2.3,2.3,0,0,0-.734.592,2.258,2.258,0,0,0-.943-.448,2.162,2.162,0,0,0,.162-1.318,2.08,2.08,0,0,0,1.237-.031" transform="translate(10.938 20.081)"/>
      <path id="패스_583" data-name="패스 583" d="M25.856,40.449a2.007,2.007,0,1,1-2.008-2.008,2.008,2.008,0,0,1,2.008,2.008" transform="translate(12.102 21.299)" fill="#fff"/>
    </g>
  </g>
</svg>
