<svg id="icon_error" xmlns="http://www.w3.org/2000/svg" xmlns:xlink="http://www.w3.org/1999/xlink" width="64" height="64" viewBox="0 0 64 64">
  <defs>
    <clipPath id="clip-path">
      <rect id="사각형_957" data-name="사각형 957" width="64" height="64" fill="none"/>
    </clipPath>
  </defs>
  <g id="그룹_1553" data-name="그룹 1553">
    <g id="그룹_434" data-name="그룹 434" transform="translate(-1165 -359)">
      <g id="사각형_355" data-name="사각형 355" transform="translate(1167 363)" fill="#fff" stroke="#000" stroke-width="2.5">
        <rect width="60" height="43" rx="2" stroke="none"/>
        <rect x="1.25" y="1.25" width="57.5" height="40.5" rx="0.75" fill="none"/>
      </g>
      <circle id="타원_98" data-name="타원 98" cx="1.5" cy="1.5" r="1.5" transform="translate(1171 367)"/>
      <path id="패스_207" data-name="패스 207" d="M1.5,0A1.5,1.5,0,1,1,0,1.5,1.5,1.5,0,0,1,1.5,0Z" transform="translate(1176 367)"/>
      <path id="패스_215" data-name="패스 215" d="M1.5,0A1.5,1.5,0,1,1,0,1.5,1.5,1.5,0,0,1,1.5,0Z" transform="translate(1181 367)"/>
      <g id="패스_210" data-name="패스 210" transform="translate(1167 371.448)" fill="#fff">
        <path d="M 58 35.30224990844727 L 1.999998331069946 35.30224990844727 C 1.586448311805725 35.30224990844727 1.249998331069946 34.89845275878906 1.249998331069946 34.4021110534668 L 1.249998331069946 2.224482536315918 C 1.26471996307373 2.037166595458984 1.267866969108582 1.752498745918274 1.268755674362183 1.250718116760254 L 58.75019073486328 1.282735824584961 L 58.75 2.15015172958374 L 58.75 34.4021110534668 C 58.75 34.89845275878906 58.41354751586914 35.30224990844727 58 35.30224990844727 Z" stroke="none"/>
        <path d="M 2.5 2.50140380859375 L 2.5 34.05224227905273 L 57.5 34.05224227905273 L 57.5 2.532039642333984 L 2.5 2.50140380859375 M 0.000530242919921875 -0.000270843505859375 C 0.000705718994140625 -0.000270843505859375 0.000881195068359375 -0.00017547607421875 0.001056671142578125 1.1444091796875e-05 L 0 1.1444091796875e-05 C 0.000179290771484375 -0.000179290771484375 0.000354766845703125 -0.000270843505859375 0.000530242919921875 -0.000270843505859375 Z M 0 1.1444091796875e-05 L 60 0.0334320068359375 C 60 0.0334320068359375 60 0.0334320068359375 60 0.0334320068359375 C 60.0009765625 0.03340530395507812 60 0.963531494140625 60 2.150142669677734 L 60 34.4021110534668 C 60 35.58959197998047 59.10456848144531 36.55224227905273 58 36.55224227905273 L 2 36.55224227905273 C 0.8954277038574219 36.55224227905273 0 35.58959197998047 0 34.4021110534668 L 0 2.150142669677734 C 0.02313995361328125 2.150142669677734 0.02709197998046875 0.02830123901367188 0.001056671142578125 1.1444091796875e-05 Z" stroke="none" fill="#000"/>
      </g>
    </g>
    <g id="그룹_1552" data-name="그룹 1552" clip-path="url(#clip-path)">
      <path id="패스_3416" data-name="패스 3416" d="M58.9,61.75H29.1a1.75,1.75,0,0,1-1.53-2.6l14.9-26.822a1.75,1.75,0,0,1,3.06,0L60.43,59.15a1.75,1.75,0,0,1-1.53,2.6Z" fill="#fff"/>
      <path id="패스_3417" data-name="패스 3417" d="M44,32.677a.469.469,0,0,0-.437.258L28.66,59.757a.5.5,0,0,0,.437.743H58.9a.5.5,0,0,0,.438-.743l-14.9-26.822A.469.469,0,0,0,44,32.677m0-2.5a2.97,2.97,0,0,1,2.622,1.543l14.9,26.823A3,3,0,0,1,58.9,63H29.1a3,3,0,0,1-2.623-4.457l14.9-26.823A2.97,2.97,0,0,1,44,30.177"/>
      <path id="패스_3418" data-name="패스 3418" d="M44.5,42h0A1.5,1.5,0,0,1,46,43.5v7a1.5,1.5,0,0,1-3,0v-7A1.5,1.5,0,0,1,44.5,42"/>
      <path id="패스_3419" data-name="패스 3419" d="M44.5,54A1.5,1.5,0,1,1,43,55.5,1.5,1.5,0,0,1,44.5,54"/>
    </g>
  </g>
</svg>
