<svg id="그룹_1059" data-name="그룹 1059" xmlns="http://www.w3.org/2000/svg" xmlns:xlink="http://www.w3.org/1999/xlink" width="96" height="96" viewBox="0 0 96 96">
  <defs>
    <clipPath id="clip-path">
      <rect id="사각형_741" data-name="사각형 741" width="96" height="96" fill="none"/>
    </clipPath>
  </defs>
  <rect id="사각형_729" data-name="사각형 729" width="58.361" height="72.056" transform="translate(18.819 8.363)" fill="#fff"/>
  <rect id="사각형_730" data-name="사각형 730" width="58.361" height="72.056" transform="translate(18.819 8.363)" fill="none" stroke="#000" stroke-linecap="round" stroke-linejoin="round" stroke-width="2.5"/>
  <rect id="사각형_731" data-name="사각형 731" width="58.361" height="6.704" transform="translate(18.82 80.419)" fill="#fff"/>
  <rect id="사각형_732" data-name="사각형 732" width="58.361" height="6.704" transform="translate(18.82 80.419)" fill="none" stroke="#000" stroke-linecap="round" stroke-linejoin="round" stroke-width="2.5"/>
  <rect id="사각형_733" data-name="사각형 733" width="3.99" height="1.496" transform="translate(20.316 87.123)" fill="#fff"/>
  <rect id="사각형_734" data-name="사각형 734" width="3.99" height="1.496" transform="translate(20.316 87.123)" fill="none" stroke="#000" stroke-linecap="round" stroke-linejoin="round" stroke-width="2.5"/>
  <rect id="사각형_735" data-name="사각형 735" width="3.99" height="1.496" transform="translate(71.472 87.123)" fill="#fff"/>
  <rect id="사각형_736" data-name="사각형 736" width="3.99" height="1.496" transform="translate(71.472 87.123)" fill="none" stroke="#000" stroke-linecap="round" stroke-linejoin="round" stroke-width="2.5"/>
  <rect id="사각형_737" data-name="사각형 737" width="44.451" height="56.865" transform="translate(25.775 15.958)" fill="#fff"/>
  <rect id="사각형_738" data-name="사각형 738" width="44.451" height="56.865" transform="translate(25.775 15.958)" fill="none" stroke="#000" stroke-linecap="round" stroke-linejoin="round" stroke-width="2.5"/>
  <g id="그룹_1058" data-name="그룹 1058">
    <g id="그룹_1057" data-name="그룹 1057" clip-path="url(#clip-path)">
      <path id="패스_710" data-name="패스 710" d="M32.574,63.3s.177,1.293-.539,1.749a2.67,2.67,0,0,1-1.562.363" fill="none" stroke="#000" stroke-linecap="round" stroke-linejoin="round" stroke-width="2.5"/>
      <path id="패스_711" data-name="패스 711" d="M34.714,65.4s-1.293.177-1.749-.539A2.67,2.67,0,0,1,32.6,63.3" fill="none" stroke="#000" stroke-linecap="round" stroke-linejoin="round" stroke-width="2.5"/>
      <path id="패스_712" data-name="패스 712" d="M32.574,67.537s.177-1.293-.539-1.749a2.67,2.67,0,0,0-1.562-.363" fill="none" stroke="#000" stroke-linecap="round" stroke-linejoin="round" stroke-width="2.5"/>
      <path id="패스_713" data-name="패스 713" d="M34.714,65.437s-1.293-.177-1.749.539a2.67,2.67,0,0,0-.363,1.562" fill="none" stroke="#000" stroke-linecap="round" stroke-linejoin="round" stroke-width="2.5"/>
      <path id="패스_714" data-name="패스 714" d="M11.133,25s.265,1.939-.809,2.624a4.012,4.012,0,0,1-2.342.545" fill="none" stroke="#000" stroke-linecap="round" stroke-linejoin="round" stroke-width="2.5"/>
      <path id="패스_715" data-name="패스 715" d="M14.342,28.155s-1.939.265-2.624-.809A4.012,4.012,0,0,1,11.173,25" fill="none" stroke="#000" stroke-linecap="round" stroke-linejoin="round" stroke-width="2.5"/>
      <path id="패스_716" data-name="패스 716" d="M11.133,31.365s.265-1.939-.809-2.624A4.012,4.012,0,0,0,7.982,28.2" fill="none" stroke="#000" stroke-linecap="round" stroke-linejoin="round" stroke-width="2.5"/>
      <path id="패스_717" data-name="패스 717" d="M14.342,28.213s-1.939-.265-2.624.809a4.012,4.012,0,0,0-.545,2.342" fill="none" stroke="#000" stroke-linecap="round" stroke-linejoin="round" stroke-width="2.5"/>
      <path id="패스_718" data-name="패스 718" d="M85.7,43.81s.265,1.939-.809,2.624a4.012,4.012,0,0,1-2.342.545" fill="none" stroke="#000" stroke-linecap="round" stroke-linejoin="round" stroke-width="2.5"/>
      <path id="패스_719" data-name="패스 719" d="M88.906,46.961s-1.939.266-2.624-.808a4.014,4.014,0,0,1-.545-2.342" fill="none" stroke="#000" stroke-linecap="round" stroke-linejoin="round" stroke-width="2.5"/>
      <path id="패스_720" data-name="패스 720" d="M85.7,50.171s.265-1.939-.809-2.624A4.012,4.012,0,0,0,82.545,47" fill="none" stroke="#000" stroke-linecap="round" stroke-linejoin="round" stroke-width="2.5"/>
      <path id="패스_721" data-name="패스 721" d="M88.906,47.02s-1.939-.265-2.624.809a4.012,4.012,0,0,0-.545,2.342" fill="none" stroke="#000" stroke-linecap="round" stroke-linejoin="round" stroke-width="2.5"/>
      <rect id="사각형_739" data-name="사각형 739" width="44.451" height="9.266" transform="translate(25.775 31.365)" fill="none" stroke="#000" stroke-linecap="round" stroke-linejoin="round" stroke-width="2.5"/>
      <rect id="사각형_740" data-name="사각형 740" width="44.451" height="14.812" transform="translate(25.775 58.011)" fill="none" stroke="#000" stroke-linecap="round" stroke-linejoin="round" stroke-width="2.5"/>
      <path id="패스_722" data-name="패스 722" d="M37.468,58.011V52.917c-1.621-4.531-6.994-3.741-6.994-3.741s.842,5.7,6.121,4.024" fill="none" stroke="#000" stroke-linecap="round" stroke-linejoin="round" stroke-width="2.5"/>
      <path id="패스_723" data-name="패스 723" d="M37.468,52.917a5.6,5.6,0,0,1,7.066-4.261S43.828,54.538,37.468,52.917Z" fill="none" stroke="#000" stroke-linecap="round" stroke-linejoin="round" stroke-width="2.5"/>
      <path id="패스_724" data-name="패스 724" d="M57.3,58.011V53.965c-1.621-4.531-6.994-3.741-6.994-3.741s.842,5.7,6.121,4.024" fill="none" stroke="#000" stroke-linecap="round" stroke-linejoin="round" stroke-width="2.5"/>
      <path id="패스_725" data-name="패스 725" d="M57.3,53.576a5.6,5.6,0,0,1,7.067-4.261S63.656,55.2,57.3,53.576Z" fill="none" stroke="#000" stroke-linecap="round" stroke-linejoin="round" stroke-width="2.5"/>
      <path id="패스_726" data-name="패스 726" d="M37.468,30.41V25.316c-1.621-4.531-6.994-3.741-6.994-3.741s.842,5.7,6.121,4.024" fill="none" stroke="#000" stroke-linecap="round" stroke-linejoin="round" stroke-width="2.5"/>
      <path id="패스_727" data-name="패스 727" d="M37.468,25.316a5.6,5.6,0,0,1,7.066-4.261S43.828,26.937,37.468,25.316Z" fill="none" stroke="#000" stroke-linecap="round" stroke-linejoin="round" stroke-width="2.5"/>
      <path id="패스_728" data-name="패스 728" d="M57.3,30.41V26.364c-1.621-4.531-6.994-3.741-6.994-3.741s.842,5.7,6.121,4.024" fill="none" stroke="#000" stroke-linecap="round" stroke-linejoin="round" stroke-width="2.5"/>
      <path id="패스_729" data-name="패스 729" d="M57.3,25.975a5.6,5.6,0,0,1,7.067-4.261S63.656,27.6,57.3,25.975Z" fill="none" stroke="#000" stroke-linecap="round" stroke-linejoin="round" stroke-width="2.5"/>
    </g>
  </g>
</svg>
