<svg id="icon_blog" xmlns="http://www.w3.org/2000/svg" width="56" height="56" viewBox="0 0 56 56">
    <defs>
        <clipPath id="clip-path">
            <path id="사각형_733" data-name="사각형 733" style="fill:none" d="M0 0h56v56H0z"/>
        </clipPath>
        <style>
            .cls-2{clip-path:url(#clip-path)}
        </style>
    </defs>
    <g id="그룹_1138" data-name="그룹 1138" class="cls-2">
        <g id="그룹_1137" data-name="그룹 1137">
            <g id="그룹_1136" data-name="그룹 1136" class="cls-2">
                <path id="패스_393" data-name="패스 393" d="M22.9 35.987a14.325 14.325 0 0 0 3.664-.47 9.79 9.79 0 0 0 3.177-1.45 7.164 7.164 0 0 0 2.215-2.529 7.71 7.71 0 0 0 .822-3.664 7.741 7.741 0 0 0-1.278-4.488 6.718 6.718 0 0 0-3.86-2.608 6.974 6.974 0 0 0 2.841-2.312 6.129 6.129 0 0 0 .961-3.527 7.526 7.526 0 0 0-.646-3.294 5.358 5.358 0 0 0-1.825-2.135 7.831 7.831 0 0 0-2.823-1.156A17.335 17.335 0 0 0 22.5 8H9.334v27.987H22.9zm-1.181-16.658h-6.232v-6.546h5.763a8.867 8.867 0 0 1 1.587.137 3.943 3.943 0 0 1 1.352.489 2.628 2.628 0 0 1 .943.98A3.277 3.277 0 0 1 25.483 16a2.966 2.966 0 0 1-1.058 2.547 4.426 4.426 0 0 1-2.705.783zm.352 11.877h-6.584v-7.685h6.7a5.182 5.182 0 0 1 3.216.923 3.618 3.618 0 0 1 1.215 3.077 3.836 3.836 0 0 1-.374 1.8 2.955 2.955 0 0 1-1 1.117 4.19 4.19 0 0 1-1.45.587 8.119 8.119 0 0 1-1.725.178" transform="translate(7.269 5.31)" style="fill:#666"/>
            </g>
        </g>
    </g>
</svg>
