<svg xmlns="http://www.w3.org/2000/svg" width="24" height="24" viewBox="0 0 24 24">
    <g fill="none" fill-rule="evenodd">
        <g>
            <g>
                <g>
                    <g>
                        <g>
                            <g>
                                <g>
                                    <g>
                                        <path d="M0 0H24V24H0z" transform="translate(-1446 -1574) translate(269 286) translate(235 272) translate(0 25) translate(0 987) translate(942) translate(0 4)"/>
                                        <path stroke="#000" d="M17.5 2.5h-11c-.414 0-.79.168-1.06.44C5.167 3.21 5 3.585 5 4l.857 15.902 5.086-5.187c.303-.297.688-.44 1.072-.436.384.004.766.154 1.056.45L19 19.552V4c0-.414-.168-.79-.44-1.06-.27-.272-.646-.44-1.06-.44z" transform="translate(-1446 -1574) translate(269 286) translate(235 272) translate(0 25) translate(0 987) translate(942) translate(0 4)"/>
                                    </g>
                                </g>
                            </g>
                        </g>
                    </g>
                </g>
            </g>
        </g>
    </g>
</svg>
