<svg xmlns="http://www.w3.org/2000/svg" width="48" height="48" viewBox="0 0 48 48">
    <defs>
        <clipPath id="clip-path">
            <path id="사각형_245" data-name="사각형 245" style="fill:none" d="M0 0h18.5v38.6H0z"/>
        </clipPath>
        <style>
            .cls-4{fill:none;stroke:#da0f47;stroke-linecap:round;stroke-linejoin:round;stroke-width:1.5px}
        </style>
    </defs>
    <g id="icon_vacuum" transform="translate(-444.75 -630.5)">
        <g id="그룹_360" data-name="그룹 360" transform="translate(459.75 635.5)">
            <g id="그룹_359" data-name="그룹 359" style="clip-path:url(#clip-path)">
                <rect id="사각형_244" data-name="사각형 244" class="cls-4" width="17" height="4" rx="1.5" transform="translate(.75 31.85)"/>
                <path id="패스_123" data-name="패스 123" class="cls-4" d="M11.25 31.85h-4v-11h4zM9.1.75a2.5 2.5 0 0 1 2.5 2.5v.96a7 7 0 0 1 .5 12.865V19.6a1.15 1.15 0 0 1-1.15 1.15h-3.7A1.15 1.15 0 0 1 6.1 19.6v-2.524A7 7 0 0 1 6.6 4.21v-.96A2.5 2.5 0 0 1 9.1.75z"/>
                <circle id="타원_22" data-name="타원 22" class="cls-4" cx="3.5" cy="3.5" r="3.5" transform="translate(5.605 7.25)"/>
            </g>
        </g>
    </g>
</svg>
