<svg data-name="그룹 1260" xmlns="http://www.w3.org/2000/svg" width="80" height="80" viewBox="0 0 80 80">
    <path data-name="사각형 828" style="fill:none" d="M0 0h80v80H0z"/>
    <g data-name="그룹 437">
        <g data-name="패스 213" style="fill:#fff">
            <path d="M1.884 19.37c.021-.582.33-1.826.475-2.405.095-.381.177-.71.23-.973l.066-.335-.208-.27C1.384 14.007.75 11.994.75 10 .75 4.9 4.9.75 10 .75S19.25 4.9 19.25 10 15.1 19.25 10 19.25c-1.487 0-2.83-.343-4.358-1.113L5.367 18l-.293.095c-.253.082-.586.238-1.008.437-.619.291-1.62.763-2.182.839z" style="stroke:none" transform="translate(46.91 11)"/>
            <path d="M10 1.5c-4.687 0-8.5 3.813-8.5 8.5 0 2.16.796 3.962 1.54 4.928l.418.541-.134.67c-.056.28-.14.617-.237 1.007-.067.268-.175.7-.268 1.128.356-.152.708-.318.927-.421.446-.21.799-.376 1.097-.473l.586-.19.55.278C7.398 18.182 8.638 18.5 10 18.5c4.687 0 8.5-3.813 8.5-8.5 0-4.687-3.813-8.5-8.5-8.5M10 0c5.523 0 10 4.477 10 10s-4.477 10-10 10c-1.56 0-3.037-.357-4.695-1.193-.787.255-3.318 1.77-4.013 1.193-.496-.408.345-3.077.561-4.156C.798 14.476 0 12.331 0 10 0 4.477 4.477 0 10 0z" style="fill:#000;stroke:none" transform="translate(46.91 11)"/>
        </g>
        <path data-name="패스 212" d="m505.456 355.341 3.6 4.086 5.487-5.631" transform="translate(-453.089 -335.025)" style="stroke-width:1.5px;stroke-linecap:round;stroke:#da0f47;stroke-linejoin:round;fill:none"/>
        <g data-name="그룹 438" transform="translate(-76.686 27.614)">
            <path data-name="패스 214" d="M125.324 10.38a1.9 1.9 0 0 0-1.614-.386l-.372.083A4.285 4.285 0 0 0 120.174 13l-.608 1.974a1.9 1.9 0 0 1-.888 1.1l-.413.23a4.609 4.609 0 0 1-3.06.46 4.04 4.04 0 0 1-1.622-.71l-.885-.625a2.217 2.217 0 0 1-.749-1.106 5.81 5.81 0 0 1 1.53-5.452l1.216-1.224a1.9 1.9 0 0 1 1.565-.547 4.7 4.7 0 0 1 3.1 1.708 3.018 3.018 0 0 0 2.067 1.106l.559.052a1.891 1.891 0 0 0 1.743-.822l.1-.151a1.892 1.892 0 0 0 .224-1.679l-1.208-3.52a1.894 1.894 0 0 0-1.161-1.172l-7.576-2.678a1.888 1.888 0 0 0-1.681.21c-1.012.675-2.8 1.871-4.182 2.8v-13.22a2.748 2.748 0 0 0-2.745-2.744h-.358a2.748 2.748 0 0 0-2.748 2.748v4.671a2.747 2.747 0 0 0-2.747-2.748h-.358a2.748 2.748 0 0 0-2.748 2.748v6.672a2.747 2.747 0 0 0-2.747-2.747h-.358a2.747 2.747 0 0 0-2.748 2.747v18.438a1.893 1.893 0 0 0 .253.945l5.348 9.294a9.5 9.5 0 0 1 .3 2.174c0 1.046.8.665 1.849.665h14.4c.869 0 1.673.637 1.883-.206l.056-.224a8.364 8.364 0 0 1 .494-2.149l8.552-8.049a1.893 1.893 0 0 0 .526-.87l1.167-4.18.877-3.173a3.238 3.238 0 0 0-1.069-3.366z" style="stroke:#040000;stroke-miterlimit:10;fill:#edcec9;stroke-width:1.5px"/>
            <path data-name="선 34" transform="translate(96.538 1.081)" style="stroke:#040000;stroke-miterlimit:10;stroke-width:1.5px;stroke-linecap:round;fill:#fff" d="M0 0v9.868"/>
            <path data-name="선 35" transform="translate(102.391 -5.591)" style="stroke:#040000;stroke-miterlimit:10;stroke-width:1.5px;stroke-linecap:round;fill:#fff" d="M0 0v13.462"/>
            <path data-name="선 36" transform="translate(106.62 2.958)" style="stroke:#040000;stroke-miterlimit:10;stroke-width:1.5px;stroke-linecap:round;fill:#fff" d="M1.625 0 0 1.066"/>
            <rect data-name="사각형 361" width="25.129" height="9.423" rx="1.186" transform="translate(93.525 32.567)" style="fill:#ddd;stroke:#040000;stroke-miterlimit:10;stroke-width:1.5px"/>
            <g data-name="타원 101" transform="translate(111.641 35.188)" style="fill:#5b7d83;stroke:#000">
                <circle cx="2" cy="2" r="2" style="stroke:none"/>
                <circle cx="2" cy="2" r="1.5" style="fill:none"/>
            </g>
        </g>
    </g>
</svg>
