<svg xmlns="http://www.w3.org/2000/svg" width="80" height="80" viewBox="0 0 80 80">
    <g data-name="그룹 2081">
        <path data-name="사각형 812" style="fill:none" d="M0 0h80v80H0z"/>
        <g data-name="그룹 1184">
            <g data-name="그룹 386">
                <g data-name="사각형 278" transform="rotate(90 21.5 39.5)" style="fill:#fff;stroke:#000;stroke-width:1.5px">
                    <rect width="48" height="42" rx="4" style="stroke:none"/>
                    <rect x=".75" y=".75" width="46.5" height="40.5" rx="3.25" style="fill:none"/>
                </g>
                <g data-name="그룹 388">
                    <g data-name="사각형 279" transform="translate(39.332 29)" style="fill:#fff;stroke:#000;stroke-width:1.5px">
                        <rect width="14" height="2" rx="1" style="stroke:none"/>
                        <rect x=".75" y=".75" width="12.5" height=".5" rx=".25" style="fill:none"/>
                    </g>
                    <g data-name="사각형 282" transform="translate(39.332 47)" style="fill:#fff;stroke:#000;stroke-width:1.5px">
                        <rect width="14" height="2" rx="1" style="stroke:none"/>
                        <rect x=".75" y=".75" width="12.5" height=".5" rx=".25" style="fill:none"/>
                    </g>
                    <g data-name="사각형 280" transform="translate(39.332 36)" style="fill:#fff;stroke:#000;stroke-width:1.5px">
                        <rect width="14" height="2" rx="1" style="stroke:none"/>
                        <rect x=".75" y=".75" width="12.5" height=".5" rx=".25" style="fill:none"/>
                    </g>
                    <g data-name="사각형 281" transform="translate(39.332 54)" style="fill:#fff;stroke:#000;stroke-width:1.5px">
                        <rect width="14" height="2" rx="1" style="stroke:none"/>
                        <rect x=".75" y=".75" width="12.5" height=".5" rx=".25" style="fill:none"/>
                    </g>
                    <path data-name="패스 143" d="m431.667 370 2.667 2.667 4.667-5" transform="translate(-404.668 -336)" style="stroke:#da0f47;stroke-linecap:round;stroke-linejoin:round;stroke-width:2px;fill:none"/>
                    <path data-name="패스 144" d="m431.667 370 2.667 2.667 4.667-5" transform="translate(-404.668 -318)" style="stroke:#da0f47;stroke-linecap:round;stroke-linejoin:round;stroke-width:2px;fill:none"/>
                </g>
                <g data-name="사각형 285" transform="translate(27.999 15)" style="fill:#fff;stroke:#000;stroke-width:1.5px">
                    <rect width="24" height="8" rx="2" style="stroke:none"/>
                    <rect x=".75" y=".75" width="22.5" height="6.5" rx="1.25" style="fill:none"/>
                </g>
            </g>
        </g>
    </g>
</svg>
