<svg id="그룹_1051" data-name="그룹 1051" xmlns="http://www.w3.org/2000/svg" xmlns:xlink="http://www.w3.org/1999/xlink" width="96" height="96" viewBox="0 0 96 96">
  <defs>
    <clipPath id="clip-path">
      <rect id="사각형_716" data-name="사각형 716" width="96" height="96" fill="none"/>
    </clipPath>
  </defs>
  <g id="그룹_1050" data-name="그룹 1050" clip-path="url(#clip-path)">
    <path id="패스_647" data-name="패스 647" d="M33.2,30.824s.177,1.293-.539,1.749a2.67,2.67,0,0,1-1.562.363" fill="none" stroke="#000" stroke-linecap="round" stroke-linejoin="round" stroke-width="2.5"/>
    <path id="패스_648" data-name="패스 648" d="M35.342,32.925s-1.293.177-1.749-.539a2.67,2.67,0,0,1-.363-1.562" fill="none" stroke="#000" stroke-linecap="round" stroke-linejoin="round" stroke-width="2.5"/>
    <path id="패스_649" data-name="패스 649" d="M33.2,35.065s.177-1.293-.539-1.749a2.67,2.67,0,0,0-1.562-.363" fill="none" stroke="#000" stroke-linecap="round" stroke-linejoin="round" stroke-width="2.5"/>
    <path id="패스_650" data-name="패스 650" d="M35.342,32.964s-1.293-.177-1.749.539a2.67,2.67,0,0,0-.363,1.562" fill="none" stroke="#000" stroke-linecap="round" stroke-linejoin="round" stroke-width="2.5"/>
    <path id="패스_651" data-name="패스 651" d="M82.141,42.2s.177,1.293-.539,1.749a2.67,2.67,0,0,1-1.562.363" fill="none" stroke="#000" stroke-linecap="round" stroke-linejoin="round" stroke-width="2.5"/>
    <path id="패스_652" data-name="패스 652" d="M84.281,44.3s-1.293.177-1.749-.539a2.67,2.67,0,0,1-.363-1.562" fill="none" stroke="#000" stroke-linecap="round" stroke-linejoin="round" stroke-width="2.5"/>
    <path id="패스_653" data-name="패스 653" d="M82.141,46.441s.177-1.293-.539-1.749a2.67,2.67,0,0,0-1.562-.363" fill="none" stroke="#000" stroke-linecap="round" stroke-linejoin="round" stroke-width="2.5"/>
    <path id="패스_654" data-name="패스 654" d="M84.281,44.341s-1.293-.177-1.749.539a2.67,2.67,0,0,0-.363,1.562" fill="none" stroke="#000" stroke-linecap="round" stroke-linejoin="round" stroke-width="2.5"/>
    <path id="패스_655" data-name="패스 655" d="M44.753,24.393s.353,2.585-1.078,3.5a5.355,5.355,0,0,1-3.123.726" fill="none" stroke="#000" stroke-linecap="round" stroke-linejoin="round" stroke-width="2.5"/>
    <path id="패스_656" data-name="패스 656" d="M49.031,28.594s-2.585.353-3.5-1.078a5.355,5.355,0,0,1-.726-3.123" fill="none" stroke="#000" stroke-linecap="round" stroke-linejoin="round" stroke-width="2.5"/>
    <path id="패스_657" data-name="패스 657" d="M44.753,32.873s.353-2.585-1.078-3.5a5.355,5.355,0,0,0-3.123-.726" fill="none" stroke="#000" stroke-linecap="round" stroke-linejoin="round" stroke-width="2.5"/>
    <path id="패스_658" data-name="패스 658" d="M49.031,28.671s-2.585-.353-3.5,1.078a5.355,5.355,0,0,0-.726,3.123" fill="none" stroke="#000" stroke-linecap="round" stroke-linejoin="round" stroke-width="2.5"/>
    <path id="패스_659" data-name="패스 659" d="M34.4,52.875V43.786s.333-4.989,4.988-4.989H65.881s2.882-.221,2.882-2.771v-5.2" fill="none" stroke="#000" stroke-linecap="round" stroke-linejoin="round" stroke-width="2.5"/>
    <path id="패스_660" data-name="패스 660" d="M76.078,30.824v9.089S75.745,44.9,71.09,44.9H44.6s-2.882.221-2.882,2.771v5.2" fill="none" stroke="#000" stroke-linecap="round" stroke-linejoin="round" stroke-width="2.5"/>
    <path id="패스_661" data-name="패스 661" d="M78.281,51.656h-58.5l-6,13.745h70.5Z" fill="#fff"/>
    <path id="패스_662" data-name="패스 662" d="M78.281,51.656h-58.5l-6,13.745h70.5Z" fill="none" stroke="#000" stroke-linecap="round" stroke-linejoin="round" stroke-width="2.5"/>
    <path id="패스_663" data-name="패스 663" d="M84.281,65.4h-70.5v4.558A2.315,2.315,0,0,0,16.1,72.274h65.79a2.4,2.4,0,0,0,2.395-2.4Z" fill="#fff"/>
    <path id="패스_664" data-name="패스 664" d="M84.281,65.4h-70.5v4.558A2.315,2.315,0,0,0,16.1,72.274h65.79a2.4,2.4,0,0,0,2.395-2.4Z" fill="none" stroke="#000" stroke-linecap="round" stroke-linejoin="round" stroke-width="2.5"/>
    <path id="패스_665" data-name="패스 665" d="M29.8,47.619c-.539-9-8.594-17.8-8.594-17.8s-8.055,8.8-8.594,17.8a8.646,8.646,0,1,0,17.188,0" fill="#fff"/>
    <path id="패스_666" data-name="패스 666" d="M29.8,47.619c-.539-9-8.594-17.8-8.594-17.8s-8.055,8.8-8.594,17.8a8.646,8.646,0,1,0,17.188,0Z" fill="none" stroke="#000" stroke-linecap="round" stroke-linejoin="round" stroke-width="2.5"/>
    <path id="패스_667" data-name="패스 667" d="M33.411,56.038a1.271,1.271,0,1,1-1.271-1.271,1.271,1.271,0,0,1,1.271,1.271"/>
    <path id="패스_668" data-name="패스 668" d="M40.173,56.038A1.271,1.271,0,1,1,38.9,54.767a1.271,1.271,0,0,1,1.271,1.271"/>
    <path id="패스_669" data-name="패스 669" d="M46.935,56.038a1.271,1.271,0,1,1-1.271-1.271,1.271,1.271,0,0,1,1.271,1.271"/>
    <path id="패스_670" data-name="패스 670" d="M53.7,56.038a1.271,1.271,0,1,1-1.271-1.271A1.271,1.271,0,0,1,53.7,56.038"/>
    <path id="패스_671" data-name="패스 671" d="M60.458,56.038a1.271,1.271,0,1,1-1.271-1.271,1.271,1.271,0,0,1,1.271,1.271"/>
    <path id="패스_672" data-name="패스 672" d="M67.22,56.038a1.271,1.271,0,1,1-1.271-1.271,1.271,1.271,0,0,1,1.271,1.271"/>
    <path id="패스_673" data-name="패스 673" d="M73.981,56.038a1.271,1.271,0,1,1-1.271-1.271,1.271,1.271,0,0,1,1.271,1.271"/>
    <path id="패스_674" data-name="패스 674" d="M23.347,60.837a1.271,1.271,0,1,1-1.271-1.271,1.271,1.271,0,0,1,1.271,1.271"/>
    <path id="패스_675" data-name="패스 675" d="M30.109,60.837a1.271,1.271,0,1,1-1.271-1.271,1.271,1.271,0,0,1,1.271,1.271"/>
    <path id="패스_676" data-name="패스 676" d="M36.871,60.837A1.271,1.271,0,1,1,35.6,59.566a1.271,1.271,0,0,1,1.271,1.271"/>
    <path id="패스_677" data-name="패스 677" d="M43.632,60.837a1.271,1.271,0,1,1-1.271-1.271,1.271,1.271,0,0,1,1.271,1.271"/>
    <path id="패스_678" data-name="패스 678" d="M50.394,60.837a1.271,1.271,0,1,1-1.271-1.271,1.271,1.271,0,0,1,1.271,1.271"/>
    <path id="패스_679" data-name="패스 679" d="M57.156,60.837a1.271,1.271,0,1,1-1.271-1.271,1.271,1.271,0,0,1,1.271,1.271"/>
    <path id="패스_680" data-name="패스 680" d="M63.917,60.837a1.271,1.271,0,1,1-1.271-1.271,1.271,1.271,0,0,1,1.271,1.271"/>
    <path id="패스_681" data-name="패스 681" d="M70.679,60.837a1.271,1.271,0,1,1-1.271-1.271,1.271,1.271,0,0,1,1.271,1.271"/>
    <path id="패스_682" data-name="패스 682" d="M77.441,60.837a1.271,1.271,0,1,1-1.271-1.271,1.271,1.271,0,0,1,1.271,1.271"/>
  </g>
</svg>
