<svg id="img_floating_40" xmlns="http://www.w3.org/2000/svg" width="40" height="40">
    <defs>
        <style>
            .cls-2{fill:none;stroke:#fff;stroke-width:1.5px;stroke-linecap:round;stroke-miterlimit:10}.cls-4{fill:#fff}
        </style>
    </defs>
    <path id="guidebox" d="M0 40h40V0H0z" style="fill:none"/>
    <g id="ic" transform="translate(4 8)">
        <path id="Path" class="cls-2" d="M24.569 15.767a12.49 12.49 0 1 0-7.39 8.328" transform="translate(3.125)"/>
        <path id="Rectangle" class="cls-2" d="M4.079 2.267A2.25 2.25 0 0 0 1.867.017L.847 0a28.659 28.659 0 0 1 0 3.769A16.169 16.169 0 0 1 0 7.555h1.829A2.25 2.25 0 0 0 4.079 5.3z" transform="rotate(180 2.04 7.527)"/>
        <path id="Rectangle-2" data-name="Rectangle" class="cls-2" d="M0 2.271A2.25 2.25 0 0 1 2.216.021L3.623 0a18.237 18.237 0 0 0-.169 3.777 12.555 12.555 0 0 0 1.034 3.778H2.25A2.25 2.25 0 0 1 0 5.3z" transform="rotate(180 15.79 7.528)"/>
        <path id="Path-2" data-name="Path" class="cls-2" d="M.418 6.233C.967 6.23 6.875 5.9 6.875 0" transform="translate(22.813 13.125)"/>
        <path id="Rectangle-3" data-name="Rectangle" d="M1.563 0h2.5a1.563 1.563 0 0 1 0 3.125h-2.5a1.563 1.563 0 0 1 0-3.125z" transform="translate(17.5 18.125)" style="stroke:#fff;stroke-width:1.5px;fill:none"/>
        <g id="Group_45" data-name="Group 45" transform="translate(9.625 12.014)">
            <circle id="Oval" class="cls-4" cx="1.111" cy="1.111" r="1.111"/>
            <circle id="Oval-2" data-name="Oval" class="cls-4" cx="1.111" cy="1.111" r="1.111" transform="translate(4.889)"/>
            <circle id="Oval-3" data-name="Oval" class="cls-4" cx="1.111" cy="1.111" r="1.111" transform="translate(9.778)"/>
        </g>
    </g>
</svg>
