<svg xmlns="http://www.w3.org/2000/svg" xmlns:xlink="http://www.w3.org/1999/xlink" width="149" height="149" viewBox="0 0 149 149">
  <defs>
    <clipPath id="clip-path">
      <rect id="사각형_728" data-name="사각형 728" width="149" height="149" transform="translate(-0.107)" fill="none"/>
    </clipPath>
  </defs>
  <g id="그룹_1056" data-name="그룹 1056" transform="translate(0.108)">
    <rect id="사각형_718" data-name="사각형 718" width="90.662" height="111.937" transform="translate(15.279 16.099)" fill="#fff"/>
    <rect id="사각형_719" data-name="사각형 719" width="90.662" height="111.937" transform="translate(15.279 16.099)" fill="none" stroke="#000" stroke-linecap="round" stroke-linejoin="round" stroke-width="2.5"/>
    <rect id="사각형_720" data-name="사각형 720" width="90.662" height="10.415" transform="translate(15.279 128.036)" fill="#fff"/>
    <rect id="사각형_721" data-name="사각형 721" width="90.662" height="10.415" transform="translate(15.279 128.036)" fill="none" stroke="#000" stroke-linecap="round" stroke-linejoin="round" stroke-width="2.5"/>
    <rect id="사각형_722" data-name="사각형 722" width="6.198" height="2.324" transform="translate(17.604 138.451)" fill="#fff"/>
    <rect id="사각형_723" data-name="사각형 723" width="6.198" height="2.324" transform="translate(17.604 138.451)" fill="none" stroke="#000" stroke-linecap="round" stroke-linejoin="round" stroke-width="2.5"/>
    <rect id="사각형_724" data-name="사각형 724" width="6.198" height="2.324" transform="translate(97.074 138.451)" fill="#fff"/>
    <rect id="사각형_725" data-name="사각형 725" width="6.198" height="2.324" transform="translate(97.074 138.451)" fill="none" stroke="#000" stroke-linecap="round" stroke-linejoin="round" stroke-width="2.5"/>
    <rect id="사각형_726" data-name="사각형 726" width="69.054" height="88.338" transform="translate(26.083 27.897)" fill="#fff"/>
    <rect id="사각형_727" data-name="사각형 727" width="69.054" height="88.338" transform="translate(26.083 27.897)" fill="none" stroke="#000" stroke-linecap="round" stroke-linejoin="round" stroke-width="2.5"/>
    <g id="그룹_1055" data-name="그룹 1055" transform="translate(-0.001)">
      <g id="그룹_1054" data-name="그룹 1054" clip-path="url(#clip-path)">
        <path id="패스_698" data-name="패스 698" d="M105.934,74.178s1.285-6.444-6.706-10.9-.4-14.944-16.854-14.127c-15.7.781-18.8.318-24.141,7.553s-.037,9.425-6.459,14.553-2.068,12.283,3.04,15.516C65.2,93.35,62.153,102.387,70.68,105.01a14.125,14.125,0,0,0,10.607-1.274" transform="translate(26.46 27.181)" fill="#fff"/>
        <path id="패스_699" data-name="패스 699" d="M105.934,74.178s1.285-6.444-6.706-10.9-.4-14.944-16.854-14.127c-15.7.781-18.8.318-24.141,7.553s-.037,9.425-6.459,14.553-2.068,12.283,3.04,15.516C65.2,93.35,62.153,102.387,70.68,105.01a14.125,14.125,0,0,0,10.607-1.274" transform="translate(26.46 27.181)" fill="none" stroke="#000" stroke-linecap="round" stroke-width="2.5"/>
        <path id="패스_700" data-name="패스 700" d="M74.236,87.037s-1.947-.67-4.836-1.682c-4.5-1.575-11.525-4.072-12.241-4.55-1.1-.735-2.15-2.68-1.126-6.021s2.715-1.55,2.984-2.821.113-4.064,1.763-4.83,3.405-1.3,3.955-2.27.725-3.059,2.2-3.888,3.185.379,4.205-.811.429-4.926,3.66-4.138,14.065,5.914,15.633,8.05,6.876,9.546,8.819,10.646,8.985,4.844,9.125,6.068-11.034,18.452-14.5,17.775-3.085-3.864-7.116-5.139-12.49,2.088-16.051.593S66.1,90.577,66.8,88.68s2.434-1.849,4.129-2.209" transform="translate(30.365 30.948)" fill="#fff"/>
        <path id="패스_701" data-name="패스 701" d="M74.236,87.037s-1.947-.67-4.836-1.682c-4.5-1.575-11.525-4.072-12.241-4.55-1.1-.735-2.15-2.68-1.126-6.021s2.715-1.55,2.984-2.821.113-4.064,1.763-4.83,3.405-1.3,3.955-2.27.725-3.059,2.2-3.888,3.185.379,4.205-.811.429-4.926,3.66-4.138,14.065,5.914,15.633,8.05,6.876,9.546,8.819,10.646,8.985,4.844,9.125,6.068-11.034,18.452-14.5,17.775-3.085-3.864-7.116-5.139-12.49,2.088-16.051.593S66.1,90.577,66.8,88.68s2.434-1.849,4.129-2.209" transform="translate(30.365 30.948)" fill="none" stroke="#000" stroke-linecap="round" stroke-width="2.5"/>
        <path id="패스_702" data-name="패스 702" d="M40.428,51.676s.275,2.009-.837,2.717a4.147,4.147,0,0,1-2.427.564" transform="translate(20.152 28.601)" fill="none" stroke="#000" stroke-linecap="round" stroke-linejoin="round" stroke-width="2.5"/>
        <path id="패스_703" data-name="패스 703" d="M42.578,54.939s-2.009.275-2.717-.837a4.147,4.147,0,0,1-.564-2.427" transform="translate(21.326 28.601)" fill="none" stroke="#000" stroke-linecap="round" stroke-linejoin="round" stroke-width="2.5"/>
        <path id="패스_704" data-name="패스 704" d="M40.428,57.089s.275-2.009-.837-2.717a4.147,4.147,0,0,0-2.427-.564" transform="translate(20.152 29.775)" fill="none" stroke="#000" stroke-linecap="round" stroke-linejoin="round" stroke-width="2.5"/>
        <path id="패스_705" data-name="패스 705" d="M42.578,53.826s-2.009-.275-2.717.837A4.147,4.147,0,0,0,39.3,57.09" transform="translate(21.326 29.775)" fill="none" stroke="#000" stroke-linecap="round" stroke-linejoin="round" stroke-width="2.5"/>
        <path id="패스_706" data-name="패스 706" d="M51.215,40.631s.548,4.016-1.675,5.434a8.319,8.319,0,0,1-4.852,1.128" transform="translate(24.317 22.488)" fill="none" stroke="#000" stroke-linecap="round" stroke-linejoin="round" stroke-width="2.5"/>
        <path id="패스_707" data-name="패스 707" d="M55.514,47.157s-4.016.548-5.434-1.675a8.319,8.319,0,0,1-1.128-4.852" transform="translate(26.664 22.488)" fill="none" stroke="#000" stroke-linecap="round" stroke-linejoin="round" stroke-width="2.5"/>
        <path id="패스_708" data-name="패스 708" d="M51.215,51.456s.548-4.016-1.675-5.434a8.319,8.319,0,0,0-4.852-1.128" transform="translate(24.317 24.835)" fill="none" stroke="#000" stroke-linecap="round" stroke-linejoin="round" stroke-width="2.5"/>
        <path id="패스_709" data-name="패스 709" d="M55.514,44.93S51.5,44.382,50.08,46.6a8.319,8.319,0,0,0-1.128,4.852" transform="translate(26.664 24.835)" fill="none" stroke="#000" stroke-linecap="round" stroke-linejoin="round" stroke-width="2.5"/>
        <line id="선_190" data-name="선 190" y1="20.922" x2="21.438" transform="translate(31.036 33.322)" fill="#fff"/>
        <line id="선_191" data-name="선 191" y1="20.922" x2="21.438" transform="translate(31.036 33.322)" fill="none" stroke="#000" stroke-linecap="round" stroke-width="2.5"/>
        <line id="선_192" data-name="선 192" y1="10.354" x2="10.87" transform="translate(30.952 33.598)" fill="#fff"/>
        <line id="선_193" data-name="선 193" y1="10.354" x2="10.87" transform="translate(30.952 33.598)" fill="none" stroke="#000" stroke-linecap="round" stroke-width="2.5"/>
      </g>
    </g>
  </g>
</svg>
