<svg xmlns="http://www.w3.org/2000/svg" width="160" height="160" viewBox="0 0 160 160">
  <g id="booking_img02" transform="translate(-387 -314)">
    <circle id="타원_37" data-name="타원 37" cx="80" cy="80" r="80" transform="translate(387 314)" fill="#fbf5ff"/>
    <g id="그룹_383" data-name="그룹 383" transform="translate(416 366)">
      <g id="그룹_380" data-name="그룹 380" transform="translate(16.615)">
        <g id="사각형_257" data-name="사각형 257" transform="translate(0.385 3.906)" fill="#e1d0b6" stroke="#000" stroke-width="3">
          <rect width="62" height="52" rx="4" stroke="none"/>
          <rect x="1.5" y="1.5" width="59" height="49" rx="2.5" fill="none"/>
        </g>
        <g id="사각형_258" data-name="사각형 258" transform="translate(11.385)" fill="#fff" stroke="#000" stroke-width="3">
          <rect width="6" height="13" rx="2" stroke="none"/>
          <rect x="1.5" y="1.5" width="3" height="10" rx="0.5" fill="none"/>
        </g>
        <g id="사각형_259" data-name="사각형 259" transform="translate(28.385)" fill="#fff" stroke="#000" stroke-width="3">
          <rect width="6" height="13" rx="2" stroke="none"/>
          <rect x="1.5" y="1.5" width="3" height="10" rx="0.5" fill="none"/>
        </g>
        <g id="사각형_277" data-name="사각형 277" transform="translate(45.385)" fill="#fff" stroke="#000" stroke-width="3">
          <rect width="6" height="13" rx="2" stroke="none"/>
          <rect x="1.5" y="1.5" width="3" height="10" rx="0.5" fill="none"/>
        </g>
        <g id="그룹_379" data-name="그룹 379" transform="translate(10.415 24.736)">
          <g id="사각형_262" data-name="사각형 262" fill="#fff" stroke="#000" stroke-width="3">
            <rect width="6.509" height="3.906" rx="1.953" stroke="none"/>
            <rect x="1.5" y="1.5" width="3.509" height="0.906" rx="0.453" fill="none"/>
          </g>
          <g id="사각형_266" data-name="사각형 266" transform="translate(0 9.113)" fill="#fff" stroke="#000" stroke-width="3">
            <rect width="6.509" height="3.906" rx="1.953" stroke="none"/>
            <rect x="1.5" y="1.5" width="3.509" height="0.906" rx="0.453" fill="none"/>
          </g>
          <g id="사각형_269" data-name="사각형 269" transform="translate(0 18.227)" fill="#fff" stroke="#000" stroke-width="3">
            <rect width="6.509" height="3.906" rx="1.953" stroke="none"/>
            <rect x="1.5" y="1.5" width="3.509" height="0.906" rx="0.453" fill="none"/>
          </g>
          <g id="사각형_263" data-name="사각형 263" transform="translate(11.717)" fill="#fff" stroke="#000" stroke-width="3">
            <rect width="6.509" height="3.906" rx="1.953" stroke="none"/>
            <rect x="1.5" y="1.5" width="3.509" height="0.906" rx="0.453" fill="none"/>
          </g>
          <g id="사각형_267" data-name="사각형 267" transform="translate(11.717 9.113)" fill="#fff" stroke="#000" stroke-width="3">
            <rect width="6.509" height="3.906" rx="1.953" stroke="none"/>
            <rect x="1.5" y="1.5" width="3.509" height="0.906" rx="0.453" fill="none"/>
          </g>
          <g id="사각형_270" data-name="사각형 270" transform="translate(11.717 18.227)" fill="#fff" stroke="#000" stroke-width="3">
            <rect width="6.509" height="3.906" rx="1.953" stroke="none"/>
            <rect x="1.5" y="1.5" width="3.509" height="0.906" rx="0.453" fill="none"/>
          </g>
          <g id="사각형_264" data-name="사각형 264" transform="translate(23.434)" fill="#fff" stroke="#000" stroke-width="3">
            <rect width="6.509" height="3.906" rx="1.953" stroke="none"/>
            <rect x="1.5" y="1.5" width="3.509" height="0.906" rx="0.453" fill="none"/>
          </g>
          <g id="사각형_276" data-name="사각형 276" transform="translate(35.151)" fill="#fff" stroke="#000" stroke-width="3">
            <rect width="6.509" height="3.906" rx="1.953" stroke="none"/>
            <rect x="1.5" y="1.5" width="3.509" height="0.906" rx="0.453" fill="none"/>
          </g>
          <g id="사각형_268" data-name="사각형 268" transform="translate(23.434 9.113)" fill="#fff" stroke="#000" stroke-width="3">
            <rect width="6.509" height="3.906" rx="1.953" stroke="none"/>
            <rect x="1.5" y="1.5" width="3.509" height="0.906" rx="0.453" fill="none"/>
          </g>
          <g id="사각형_274" data-name="사각형 274" transform="translate(35.151 9.113)" fill="#fff" stroke="#000" stroke-width="3">
            <rect width="6.509" height="3.906" rx="1.953" stroke="none"/>
            <rect x="1.5" y="1.5" width="3.509" height="0.906" rx="0.453" fill="none"/>
          </g>
          <g id="사각형_271" data-name="사각형 271" transform="translate(23.434 18.227)" fill="#fff" stroke="#000" stroke-width="3">
            <rect width="6.509" height="3.906" rx="1.953" stroke="none"/>
            <rect x="1.5" y="1.5" width="3.509" height="0.906" rx="0.453" fill="none"/>
          </g>
          <g id="사각형_275" data-name="사각형 275" transform="translate(35.151 18.227)" fill="#fff" stroke="#000" stroke-width="3">
            <rect width="6.509" height="3.906" rx="1.953" stroke="none"/>
            <rect x="1.5" y="1.5" width="3.509" height="0.906" rx="0.453" fill="none"/>
          </g>
        </g>
        <g id="사각형_261" data-name="사각형 261" transform="translate(0.385 15.623)" fill="none" stroke="#000" stroke-width="3">
          <rect width="61.514" height="3" stroke="none"/>
          <rect x="1.5" y="1.5" width="58.514" fill="none"/>
        </g>
      </g>
      <g id="그룹_382" data-name="그룹 382" transform="translate(0 21.264)">
        <path id="합치기_9" data-name="합치기 9" d="M1.639,16.845a11.062,11.062,0,1,1,20.493-5.792A11,11,0,0,1,20.5,16.83L11.066,33.849Z" transform="translate(0 0)" fill="#edcec9" stroke="#000" stroke-linecap="round" stroke-linejoin="round" stroke-width="3"/>
        <g id="타원_42" data-name="타원 42" transform="translate(4.092 4.092)" fill="#5b7d83" stroke="#000" stroke-width="3">
          <circle cx="7.03" cy="7.03" r="7.03" stroke="none"/>
          <circle cx="7.03" cy="7.03" r="5.53" fill="none"/>
        </g>
      </g>
      <g id="그룹_384" data-name="그룹 384" transform="translate(72.596 27.34)">
        <g id="타원_43" data-name="타원 43" transform="translate(0 0)" fill="#ddd" stroke="#000" stroke-width="3">
          <circle cx="14.321" cy="14.321" r="14.321" stroke="none"/>
          <circle cx="14.321" cy="14.321" r="12.821" fill="none"/>
        </g>
        <g id="사각형_272" data-name="사각형 272" transform="translate(12.404 6.66)" fill="#fff" stroke="#000" stroke-width="2.5">
          <rect width="3" height="11" rx="1.5" stroke="none"/>
          <rect x="1.25" y="1.25" width="0.5" height="8.5" rx="0.25" fill="none"/>
        </g>
        <g id="사각형_273" data-name="사각형 273" transform="translate(21.404 14.661) rotate(90)" fill="#fff" stroke="#000" stroke-width="2.5">
          <rect width="3" height="9" rx="1.5" stroke="none"/>
          <rect x="1.25" y="1.25" width="0.5" height="6.5" rx="0.25" fill="none"/>
        </g>
      </g>
    </g>
  </g>
</svg>
