<svg xmlns="http://www.w3.org/2000/svg" width="120" height="120" viewBox="0 0 120 120">
    <path data-name="사각형 832" style="fill:none" d="M0 0h120v120H0z"/>
    <g data-name="그룹 437">
        <path data-name="패스 213" d="M14.262 0a14.262 14.262 0 1 1-6.7 26.823c-1.123.364-4.732 2.524-5.723 1.7-.707-.582.492-4.389.8-5.927A14.054 14.054 0 0 1 0 14.262 14.262 14.262 0 0 1 14.262 0z" transform="translate(69.937 18)" style="stroke-width:3px;stroke:#000;fill:#fff"/>
        <path data-name="패스 212" d="m505.456 356 5.132 5.827 7.825-8.031" transform="translate(-427.736 -324.714)" style="stroke-linecap:round;stroke:#da0f47;stroke-linejoin:round;stroke-width:3px;fill:none"/>
        <g data-name="그룹 438" transform="translate(23 23.14)">
            <path data-name="패스 214" d="M140.087 20.348a2.7 2.7 0 0 0-2.3-.551l-.531.118a6.111 6.111 0 0 0-4.512 4.167l-.867 2.815a2.707 2.707 0 0 1-1.266 1.566l-.589.328a6.574 6.574 0 0 1-4.363.656 5.762 5.762 0 0 1-2.314-1.013l-1.262-.891a3.162 3.162 0 0 1-1.068-1.577 8.286 8.286 0 0 1 2.182-7.776l1.734-1.746a2.7 2.7 0 0 1 2.232-.779 6.71 6.71 0 0 1 4.427 2.436 4.3 4.3 0 0 0 2.948 1.577l.8.074a2.7 2.7 0 0 0 2.486-1.172l.147-.215a2.7 2.7 0 0 0 .319-2.395l-1.723-5.02a2.7 2.7 0 0 0-1.656-1.671L124.09 5.465a2.692 2.692 0 0 0-2.4.3c-1.443.963-3.992 2.668-5.964 4V-9.091a3.919 3.919 0 0 0-3.919-3.919h-.507a3.919 3.919 0 0 0-3.919 3.919v6.662a3.918 3.918 0 0 0-3.918-3.919h-.511a3.919 3.919 0 0 0-3.919 3.919v9.515a3.918 3.918 0 0 0-3.918-3.918H94.6a3.918 3.918 0 0 0-3.919 3.918v26.3a2.7 2.7 0 0 0 .361 1.348l7.627 13.255a13.547 13.547 0 0 1 .425 3.1c0 1.492 1.144.948 2.637.948h20.538c1.239 0 2.386.909 2.685-.293l.08-.319c.126-.5.328-2.71.7-3.065l12.2-11.479a2.7 2.7 0 0 0 .75-1.241l1.664-5.961 1.251-4.525a4.618 4.618 0 0 0-1.512-4.806z" transform="translate(-90.685 13.01)" style="stroke:#040000;stroke-miterlimit:10;fill:#edcec9;stroke-width:3px"/>
            <path data-name="선 34" transform="translate(8.348 20.097)" style="stroke:#040000;stroke-miterlimit:10;stroke-linecap:round;stroke-width:3px;fill:#fff" d="M0 0v14.074"/>
            <path data-name="선 35" transform="translate(16.696 10.58)" style="stroke:#040000;stroke-miterlimit:10;stroke-linecap:round;stroke-width:3px;fill:#fff" d="M0 0v19.199"/>
            <path data-name="선 36" transform="translate(22.726 22.773)" style="stroke:#040000;stroke-miterlimit:10;stroke-linecap:round;stroke-width:3px;fill:#fff" d="M2.317 0 0 1.521"/>
            <rect data-name="사각형 361" width="35.839" height="13.44" rx="1.186" transform="translate(4.05 65.001)" style="fill:#ddd;stroke:#040000;stroke-miterlimit:10;stroke-width:3px"/>
            <g data-name="타원 101" transform="translate(28.887 67.74)" style="fill:#5b7d83;stroke-width:2px;stroke:#000">
                <circle cx="3.852" cy="3.852" r="3.852" style="stroke:none"/>
                <circle cx="3.852" cy="3.852" r="2.852" style="fill:none"/>
            </g>
        </g>
    </g>
</svg>
