<?xml version="1.0" encoding="utf-8"?>
<!-- Generator: Adobe Illustrator 15.0.0, SVG Export Plug-In . SVG Version: 6.00 Build 0)  -->
<!DOCTYPE svg PUBLIC "-//W3C//DTD SVG 1.1//EN" "http://www.w3.org/Graphics/SVG/1.1/DTD/svg11.dtd">
<svg version="1.1" id="Layer_2" xmlns="http://www.w3.org/2000/svg" xmlns:xlink="http://www.w3.org/1999/xlink" x="0px" y="0px"
	 width="57px" height="18px" viewBox="0 0 57 18" enable-background="new 0 0 57 18" xml:space="preserve">
<g>
	<path fill="#222222" d="M2.314,4.142H0v10.026h7.113v-1.949H2.314V4.142z M12.207,10.348h1.883v1.755
		c-0.345,0.133-1.024,0.265-1.669,0.265c-2.083,0-2.781-1.06-2.781-3.212c0-2.052,0.664-3.255,2.748-3.255
		c1.159,0,1.821,0.36,2.366,1.055l1.439-1.319c-0.878-1.26-2.415-1.643-3.853-1.643c-3.247,0-4.948,1.774-4.948,5.148
		c0,3.356,1.536,5.177,4.931,5.177c1.553,0,3.075-0.393,3.897-0.976V8.479h-4.014V10.348z"/>
	<polygon fill="#222222" points="23.311,14.18 25.025,14.18 25.025,5.523 28.111,5.523 28.111,4.14 20.212,4.14 20.212,5.523 
		23.311,5.523 	"/>
	<path fill="#222222" d="M43.326,7.167c-0.425,0-0.833,0.061-1.227,0.187c-0.102,0.034-0.186,0.063-0.267,0.095
		c-0.018,0.01-0.035,0.015-0.048,0.022L41.75,7.485c-0.061,0.024-0.117,0.048-0.17,0.077c-0.039,0.015-0.069,0.035-0.106,0.053
		l-0.065,0.039c-0.024,0.015-0.043,0.02-0.066,0.031c-0.056,0.037-0.113,0.075-0.165,0.114l-0.031,0.018
		c-0.083,0.058-0.147,0.106-0.208,0.156c-0.214,0.184-0.382,0.382-0.508,0.595c-0.061,0.12-0.216,0.492-0.216,1.216v4.396H41.9
		V9.901c0-0.094,0.018-0.171,0.035-0.242c0.006-0.035,0.013-0.072,0.026-0.114c0.224-0.685,0.998-0.907,1.249-0.929l0.041-0.005
		c0.024-0.003,0.046-0.003,0.067-0.003l0.146,0.008c0.452,0.063,1.281,0.431,1.281,1.286v4.278h1.685V9.783
		c0-0.805-0.204-1.203-0.242-1.277C45.689,7.712,44.538,7.17,43.326,7.167"/>
	<path fill="#222222" d="M32.141,7.167c-0.403,0-0.799,0.061-1.181,0.173l-0.245,0.074V4.14h-1.685v10.04h1.695V9.853
		c0.007-0.079,0.011-0.137,0.02-0.193c0.007-0.035,0.017-0.072,0.03-0.114c0.225-0.685,0.999-0.907,1.248-0.929l0.043-0.005
		c0.018-0.003,0.046-0.003,0.064-0.003l0.147,0.008c0.45,0.063,1.279,0.431,1.279,1.286v4.278h1.692V9.783
		c0-0.805-0.208-1.203-0.248-1.277C34.503,7.712,33.354,7.17,32.141,7.167"/>
	<path fill="#222222" d="M38.76,5.899c0,0.564-0.456,1.02-1.016,1.02c-0.565,0-1.018-0.456-1.018-1.02
		c0-0.563,0.453-1.019,1.018-1.019C38.305,4.88,38.76,5.336,38.76,5.899"/>
	<path fill="#222222" d="M36.9,7.9v6.279h1.687V7.9c-0.258,0.106-0.543,0.17-0.843,0.17C37.445,8.071,37.158,8.007,36.9,7.9"/>
	<path fill="#222222" d="M56.754,13.37c-0.194-0.624-0.887-0.613-0.887-0.613H54.34l0.082-0.12c0.217-0.317,0.388-0.647,0.535-1.021
		c0.248-0.65,0.374-1.498,0.374-2.524c0-0.803-0.063-1.54-0.182-2.187c-0.127-0.641-0.332-1.19-0.611-1.633
		c-0.281-0.442-0.666-0.789-1.123-1.023c-0.469-0.237-1.048-0.36-1.728-0.36c-1.351,0-2.354,0.422-2.989,1.258
		c-0.623,0.833-0.944,2.133-0.944,3.86c0,0.809,0.063,1.541,0.184,2.179c0.125,0.635,0.33,1.18,0.61,1.612
		c0.284,0.442,0.658,0.788,1.11,1.024c0.459,0.235,1.039,0.357,1.716,0.357h0.02c0.007,0.002,0.023,0.002,0.033,0.002
		c0.012,0,0.023,0,0.039-0.002c0.006-0.002,0.012-0.002,0.012-0.002L57,14.178L56.754,13.37z M53.549,10.568
		c-0.076,0.479-0.204,0.891-0.377,1.223c-0.187,0.328-0.425,0.578-0.722,0.735c-0.225,0.124-0.495,0.2-0.803,0.23l-0.177,0.008
		c-0.027,0.003-0.044,0.007-0.089,0.007c-0.394,0-0.718-0.096-0.961-0.279c-0.256-0.19-0.463-0.453-0.607-0.778
		c-0.152-0.33-0.254-0.722-0.31-1.156c-0.055-0.434-0.083-0.906-0.083-1.403c0-0.612,0.038-1.164,0.113-1.633
		c0.073-0.478,0.205-0.89,0.384-1.223c0.187-0.333,0.429-0.591,0.733-0.762c0.301-0.175,0.642-0.253,1.064-0.253
		c0.38,0,0.704,0.099,0.955,0.291c0.256,0.199,0.462,0.467,0.606,0.792c0.146,0.326,0.245,0.711,0.302,1.15
		c0.058,0.432,0.083,0.894,0.083,1.377C53.661,9.516,53.622,10.078,53.549,10.568"/>
</g>
</svg>
