<svg xmlns="http://www.w3.org/2000/svg" xmlns:xlink="http://www.w3.org/1999/xlink" width="253.5" height="26.605" viewBox="0 0 253.5 26.605">
    <defs>
        <clipPath id="fhdjrgp92b">
            <path data-name="사각형 1070" style="fill:none" d="M0 0h100v26.605H0z"/>
        </clipPath>
        <clipPath id="q6nagi36wc">
            <path data-name="패스 3500" d="M13.294 0A13.3 13.3 0 1 0 26.6 13.406V13.2A13.3 13.3 0 0 0 13.3 0z" style="fill:none"/>
        </clipPath>
        <clipPath id="ou1m7rt0be">
            <path data-name="패스 3501" d="M12.925.644a12.264 12.264 0 0 0-8.582 3.7c-4.5 4.5-4.954 11.356-1 15.308s10.8 3.5 15.3-1.01 4.964-11.356 1.012-15.308A9.389 9.389 0 0 0 13.076.642h-.151" style="fill:none"/>
        </clipPath>
        <clipPath id="rsjarn6s0g">
            <path data-name="패스 3503" d="M7.473 9.278a1.772 1.772 0 1 0 1.758-1.784 1.771 1.771 0 0 0-1.758 1.784M13 7.682h-.056V7.7l-.082.024.082.131v11.214l-.329.184.257.185a.344.344 0 0 0 .184.054h3.7a.079.079 0 0 0 .069-.09v-1.029a.181.181 0 0 0-.029-.124l-.194-.3h-2.414L14.2 7.733a.119.119 0 0 0-.025-.085l-.177-.306zm.413-5.554-.274.092C6.9 2.22 2.231 7.432 2.231 13.64a11.314 11.314 0 0 0 22.627-.069v-.642l-.266-.236h-8.211v1.314l.2.275a.1.1 0 0 0 .07.028h6.871A10 10 0 1 1 6.43 6.565a10.111 10.111 0 0 1 7.138-2.92l.538-.008h.059c.038 0 .07-.005.07-.092V2.471a.217.217 0 0 0-.027-.117l-.242-.305z" style="fill:none"/>
        </clipPath>
        <clipPath id="9cuat8p5ni">
            <path data-name="패스 3507" d="m13.693 7.515.008 10.74.291-.236V7.267z" style="fill:none"/>
        </clipPath>
        <clipPath id="43uc2pfzuk">
            <path data-name="패스 3508" d="M16.339 18.195V19l.264.268V17.94z" style="fill:none"/>
        </clipPath>
        <clipPath id="n4mginxqul">
            <path data-name="패스 3510" d="M7.56 9.072a1.5 1.5 0 0 1 1.492-1.5h.007a1.493 1.493 0 0 1 1.495 1.491 1.5 1.5 0 0 1-1.492 1.5h-.005a1.5 1.5 0 0 1-1.5-1.493M7.3 9.057v.006a1.758 1.758 0 1 0 1.761-1.757h-.005A1.754 1.754 0 0 0 7.3 9.057" style="fill:none"/>
        </clipPath>
        <clipPath id="0vxl7r83nn">
            <path data-name="패스 3513" d="M2.032 13.3a11.254 11.254 0 1 0 22.508 0v-.65l-.26.261v.389A10.986 10.986 0 1 1 13.288 2.306l.419-.006.257-.25-.676-.006A11.255 11.255 0 0 0 2.032 13.3" style="fill:none"/>
        </clipPath>
        <clipPath id="d8xz4aaxip">
            <path data-name="패스 3514" d="M13.141 3.127a10.175 10.175 0 0 0 .019 20.348h.263a10.2 10.2 0 0 0 10.018-9.486l.009-.281-.129.119-.137.142A9.917 9.917 0 1 1 13.3 3.385l.668.007-.261-.259-.291-.006z" style="fill:none"/>
        </clipPath>
        <clipPath id="k52ihprmer">
            <path data-name="패스 3516" d="M13.707 2.3v.83l.26.262v-1.34z" style="fill:none"/>
        </clipPath>
        <clipPath id="uyjyo49u0t">
            <path data-name="패스 3517" d="M12.76 7.48v11.631h3.7v-1.037h-2.64V7.48zm.386-5.291A11.112 11.112 0 1 0 24.392 13.3v-.5h-7.926v1.032h6.872v.15A10.072 10.072 0 1 1 13.292 3.23h.531V2.19c-.1 0-.275 0-.416-.006z" style="fill:none"/>
        </clipPath>
        <clipPath id="sr4bbx28fv">
            <path data-name="패스 3518" d="M7.433 9.059a1.617 1.617 0 1 0 1.618-1.612 1.616 1.616 0 0 0-1.618 1.615" style="fill:none"/>
        </clipPath>
        <linearGradient id="74nlfk5q3f" x1=".124" y1=".985" x2=".157" y2=".985" gradientUnits="objectBoundingBox">
            <stop offset="0" stop-color="#f38895"/>
            <stop offset=".086" stop-color="#eb7487"/>
            <stop offset=".314" stop-color="#d84768"/>
            <stop offset=".517" stop-color="#ca2751"/>
            <stop offset=".687" stop-color="#c21343"/>
            <stop offset=".801" stop-color="#bf0c3f"/>
            <stop offset="1" stop-color="#bf0c3f"/>
        </linearGradient>
        <linearGradient id="pawrcuk46h" x1=".201" y1=".785" x2=".223" y2=".785" gradientUnits="objectBoundingBox">
            <stop offset="0" stop-color="#cd425c"/>
            <stop offset=".089" stop-color="#bd3251"/>
            <stop offset=".249" stop-color="#a91e43"/>
            <stop offset=".43" stop-color="#9b1038"/>
            <stop offset=".648" stop-color="#920732"/>
            <stop offset="1" stop-color="#900531"/>
        </linearGradient>
        <linearGradient id="j1ko7rd2bj" x1="-45.794" y1="1.76" x2="-42.451" y2="1.76" gradientUnits="objectBoundingBox">
            <stop offset="0" stop-color="#b4bdc3"/>
            <stop offset=".04" stop-color="#adb6bc"/>
            <stop offset=".498" stop-color="#6b7379"/>
            <stop offset=".83" stop-color="#424950"/>
            <stop offset="1" stop-color="#333940"/>
        </linearGradient>
        <linearGradient id="0wyq31o7ma" x1="-61.89" y1="6.525" x2="-58.102" y2="6.525" gradientUnits="objectBoundingBox">
            <stop offset="0" stop-color="#b3bbc1"/>
            <stop offset=".081" stop-color="#a6aeb3"/>
            <stop offset=".52" stop-color="#636b70"/>
            <stop offset=".838" stop-color="#394146"/>
            <stop offset="1" stop-color="#2a3236"/>
        </linearGradient>
        <linearGradient id="2m6jsw9ljm" x1="-2.077" y1="5.488" x2="-1.792" y2="5.488" gradientUnits="objectBoundingBox">
            <stop offset="0" stop-color="#abbac2"/>
            <stop offset="1" stop-color="#262a30"/>
        </linearGradient>
        <linearGradient id="kcugxbjpoo" x1="-.09" y1="1.091" x2="-.046" y2="1.091" gradientUnits="objectBoundingBox">
            <stop offset="0" stop-color="#b4bdc3"/>
            <stop offset="1" stop-color="#3e454d"/>
        </linearGradient>
        <linearGradient id="zr6iy3yasq" x1="-.148" y1="1.156" x2="-.099" y2="1.156" gradientUnits="objectBoundingBox">
            <stop offset="0" stop-color="#b4bdc3"/>
            <stop offset="1" stop-color="#485159"/>
        </linearGradient>
        <linearGradient id="63dfxnhlps" x1="-52.719" y1="18.255" x2="-48.873" y2="18.255" xlink:href="#0wyq31o7ma"/>
        <radialGradient id="una23su68d" cx=".481" cy="1.834" r=".521" gradientTransform="matrix(1 0 0 -1 0 2)" gradientUnits="objectBoundingBox">
            <stop offset="0" stop-color="#bf0c3f"/>
            <stop offset=".5" stop-color="#bf0c3f"/>
            <stop offset=".753" stop-color="#bc0b3d"/>
            <stop offset=".859" stop-color="#b5093a"/>
            <stop offset=".938" stop-color="#a90534"/>
            <stop offset="1" stop-color="#99002c"/>
        </radialGradient>
        <radialGradient id="9tsavmzaxu" cx=".3" cy=".287" r=".761" gradientUnits="objectBoundingBox">
            <stop offset="0" stop-color="#fff"/>
            <stop offset=".35" stop-color="#fff"/>
            <stop offset=".511" stop-color="#fafbfc"/>
            <stop offset=".677" stop-color="#eef1f3"/>
            <stop offset=".845" stop-color="#d9e0e4"/>
            <stop offset="1" stop-color="#c0ccd2"/>
        </radialGradient>
        <radialGradient id="7wmkl3of4w" cx=".266" cy=".316" r=".78" gradientTransform="translate(.001)" gradientUnits="objectBoundingBox">
            <stop offset="0" stop-color="#fff"/>
            <stop offset=".35" stop-color="#fff"/>
            <stop offset=".537" stop-color="#fafbfc"/>
            <stop offset=".73" stop-color="#eef1f3"/>
            <stop offset=".926" stop-color="#d9e1e5"/>
            <stop offset="1" stop-color="#d0dadf"/>
        </radialGradient>
    </defs>
    <text data-name="BEST SHOP" transform="translate(137 20.004)" style="fill:#6d6e71;stroke:#6d6e71;stroke-width:.5px;font-size:20px;font-family:Helvetica-Bold,Helvetica;font-weight:700"><tspan x="0" y="0">BEST SHOP</tspan></text>
    <path data-name="사각형 938" d="M118 5.004h1v16h-1z"/>
    <g data-name="그룹 1985">
        <g data-name="그룹 1952">
            <g data-name="그룹 1951" style="clip-path:url(#fhdjrgp92b)">
                <path data-name="패스 3497" d="M63.512 4.686V7.2h3.478v.649c0 2.6-1.051 3.97-3.879 4.869l1.07 2.4a6.984 6.984 0 0 0 4.644-3.169 6.84 6.84 0 0 0 4.375 3.065l1.359-2.752c-2.467-.535-4.243-1.872-4.243-4.429V7.2h3.42V4.684zm15.844-.346h-3.191v3.628h-3v2.615h3v6.624h2.81a16.49 16.49 0 0 0 .381-3.5zm.326 15.229h-9.4c-.248 0-.326-.056-.326-.325v-3.721h-3.199v5.02a1.43 1.43 0 0 0 1.647 1.6h11.278zM81.5 4.659v2.51h3.63v1.208c0 3.189-.651 5.193-3.96 6.644l1.246 2.213a8.159 8.159 0 0 0 4.491-3.741 8.193 8.193 0 0 0 4.2 3.57l1.49-2.6c-3.211-1.2-4.32-3.075-4.32-6.11V7.165h3.533v-2.5zM100 9.074h-3.175V4.336h-3.056v17.809h2.677a21.872 21.872 0 0 0 .381-4.265v-6.248H100z" style="fill:#6b6b6b"/>
                <path data-name="패스 3498" d="M37.334 21.9h7.3v-3.35h-8.24V4.708h-3.976V21.9z" style="fill:#6b6b6b"/>
                <path data-name="패스 3499" d="M53.308 15.346h3.238v3.005a9.172 9.172 0 0 1-2.87.458c-3.578 0-4.771-1.816-4.771-5.5 0-3.519 1.135-5.589 4.713-5.589a4.609 4.609 0 0 1 4.063 1.815l2.472-2.269c-1.508-2.156-4.147-2.809-6.619-2.809-5.566 0-8.492 3.035-8.492 8.821 0 5.76 2.64 8.88 8.465 8.88a12.669 12.669 0 0 0 6.7-1.674v-8.343h-6.9z" style="fill:#6b6b6b"/>
            </g>
        </g>
        <g data-name="그룹 1954">
            <g data-name="그룹 1953" style="clip-path:url(#q6nagi36wc)">
                <path data-name="사각형 1071" transform="translate(-.005)" style="fill:url(#una23su68d)" d="M0 0h26.61v26.61H0z"/>
            </g>
        </g>
        <g data-name="그룹 1956">
            <g data-name="그룹 1955" style="clip-path:url(#ou1m7rt0be)">
                <path data-name="사각형 1072" transform="rotate(-20.009 5.433 24.318)" style="fill:url(#74nlfk5q3f)" d="M0 0h30.611v29.875H0z"/>
            </g>
        </g>
        <g data-name="그룹 1958">
            <g data-name="그룹 1957" style="clip-path:url(#rsjarn6s0g)">
                <path data-name="패스 3502" d="m-9.092 13.558 22.71 22.823L36.2 13.428 13.49-9.4z" style="fill:url(#pawrcuk46h)"/>
            </g>
        </g>
        <g data-name="그룹 1960">
            <g data-name="그룹 1959" style="clip-path:url(#fhdjrgp92b)">
                <path data-name="패스 3504" d="m12.859 19-.275.261h4.036L16.357 19z" style="fill:#626d77"/>
                <path data-name="패스 3505" d="m16.353 18.205.263-.255h-2.643l-.313.255z" style="fill:#8699a3"/>
                <path data-name="패스 3506" d="M14 7.327h-1.4l.261.25h.839z" style="fill:#8d9aa1"/>
            </g>
        </g>
        <g data-name="그룹 1962">
            <g data-name="그룹 1961" style="clip-path:url(#9cuat8p5ni)">
                <path data-name="사각형 1074" transform="translate(13.693 7.267)" style="fill:url(#j1ko7rd2bj)" d="M0 0h.299v10.988H0z"/>
            </g>
        </g>
        <g data-name="그룹 1964">
            <g data-name="그룹 1963" style="clip-path:url(#43uc2pfzuk)">
                <path data-name="사각형 1075" transform="translate(16.339 17.94)" style="fill:url(#0wyq31o7ma)" d="M0 0h.264v1.328H0z"/>
            </g>
        </g>
        <g data-name="그룹 1966">
            <g data-name="그룹 1965" style="clip-path:url(#fhdjrgp92b)">
                <path data-name="패스 3509" d="M12.609 7.256v12.083l.275-.261L12.872 7.5z" style="fill:#b4bdc3"/>
            </g>
        </g>
        <g data-name="그룹 1968">
            <g data-name="그룹 1967" style="clip-path:url(#n4mginxqul)">
                <path data-name="사각형 1077" transform="translate(7.301 7.306)" style="fill:url(#2m6jsw9ljm)" d="M0 0h3.516v3.517H0z"/>
            </g>
        </g>
        <g data-name="그룹 1970">
            <g data-name="그룹 1969" style="clip-path:url(#fhdjrgp92b)">
                <path data-name="패스 3511" d="m23.448 13.707-6.979-.007-.258.275h6.972l.138-.144z" style="fill:#505c61"/>
                <path data-name="패스 3512" d="m16.475 12.925 7.8-.013.265-.266h-8.324z" style="fill:#8f9ca4"/>
            </g>
        </g>
        <g data-name="그룹 1972">
            <g data-name="그룹 1971" style="clip-path:url(#0vxl7r83nn)">
                <path data-name="사각형 1079" transform="translate(2.032 2.044)" style="fill:url(#kcugxbjpoo)" d="M0 0h22.508v22.508H0z"/>
            </g>
        </g>
        <g data-name="그룹 1974">
            <g data-name="그룹 1973" style="clip-path:url(#d8xz4aaxip)">
                <path data-name="사각형 1080" transform="translate(3.027 3.127)" style="fill:url(#zr6iy3yasq)" d="M0 0h20.423v20.438H0z"/>
            </g>
        </g>
        <g data-name="그룹 1976">
            <g data-name="그룹 1975" style="clip-path:url(#fhdjrgp92b)">
                <path data-name="패스 3515" d="m16.6 12.919-.259-.275v1.336l.259-.275z" style="fill:#b4bdc3"/>
            </g>
        </g>
        <g data-name="그룹 1978">
            <g data-name="그룹 1977" style="clip-path:url(#k52ihprmer)">
                <path data-name="사각형 1082" transform="translate(13.707 2.052)" style="fill:url(#63dfxnhlps)" d="M0 0h.26v1.345H0z"/>
            </g>
        </g>
        <g data-name="그룹 1980">
            <g data-name="그룹 1979" style="clip-path:url(#uyjyo49u0t)">
                <path data-name="사각형 1083" transform="translate(2.095 2.184)" style="fill:url(#9tsavmzaxu)" d="M0 0h22.298v22.301H0z"/>
            </g>
        </g>
        <g data-name="그룹 1982">
            <g data-name="그룹 1981" style="clip-path:url(#sr4bbx28fv)">
                <path data-name="사각형 1084" transform="translate(7.433 7.445)" style="fill:url(#7wmkl3of4w)" d="M0 0h3.234v3.235H0z"/>
            </g>
        </g>
        <g data-name="그룹 1984">
            <g data-name="그룹 1983" style="clip-path:url(#fhdjrgp92b)">
                <path data-name="패스 3519" d="M9.358 7.747a1.605 1.605 0 0 1 .982.343 1.607 1.607 0 1 0-2.263 2.245 1.589 1.589 0 0 1-.338-.972 1.618 1.618 0 0 1 1.619-1.616" style="fill:#fff"/>
                <path data-name="패스 3520" d="M13.988 2.194c-.141 0-.408-.007-.544-.007A11.192 11.192 0 0 0 2.186 13.271a10.927 10.927 0 0 0 3.3 7.836c.067.067.138.131.207.2a10.916 10.916 0 0 1-3.113-7.648c0-6.1 4.391-11.161 11.408-11.468" style="fill:#fff"/>
                <path data-name="패스 3521" d="M13.8 18.061a10.924 10.924 0 0 0 2.675.225v-.225z" style="fill:#fff"/>
                <path data-name="패스 3522" d="M13.826 7.712v-.333h-1.074v11.8s.335-1.8.335-11.468z" style="fill:#fff"/>
                <path data-name="패스 3523" d="M24.391 12.778h-8.042v1.046h.292v-.755c7.007 0 7.75-.293 7.75-.293" style="fill:#fff"/>
                <path data-name="패스 3524" d="M23.325 13.672a1.339 1.339 0 0 1-.006.156 10.137 10.137 0 0 1-10.028 9.526 9.916 9.916 0 0 1-7.108-3 10.17 10.17 0 0 1-2.569-4.467 10.08 10.08 0 0 0 19.842-2.219z" style="fill:#fff"/>
            </g>
        </g>
    </g>
</svg>
