<svg xmlns="http://www.w3.org/2000/svg" width="430.073" height="44.871" viewBox="0 0 430.073 44.871">
    <defs>
        <linearGradient id="7poggqnklb" x1=".336" y1=".05" x2=".664" y2=".95" gradientUnits="objectBoundingBox">
            <stop offset="0" stop-color="#f38895"/>
            <stop offset=".086" stop-color="#eb7487"/>
            <stop offset=".314" stop-color="#d84768"/>
            <stop offset=".517" stop-color="#ca2751"/>
            <stop offset=".687" stop-color="#c21343"/>
            <stop offset=".801" stop-color="#bf0c3f"/>
            <stop offset="1" stop-color="#bf0c3f"/>
        </linearGradient>
        <linearGradient id="qqrcjhnfxc" x1=".098" y1=".196" x2=".808" y2=".902" gradientUnits="objectBoundingBox">
            <stop offset="0" stop-color="#cd425c"/>
            <stop offset=".089" stop-color="#bd3251"/>
            <stop offset=".249" stop-color="#a91e43"/>
            <stop offset=".43" stop-color="#9b1038"/>
            <stop offset=".648" stop-color="#920732"/>
            <stop offset="1" stop-color="#900531"/>
        </linearGradient>
        <linearGradient id="5uizuz0gjd" y1=".5" x2="1" y2=".5" gradientUnits="objectBoundingBox">
            <stop offset="0" stop-color="#b4bdc3"/>
            <stop offset=".04" stop-color="#adb6bc"/>
            <stop offset=".498" stop-color="#6b7379"/>
            <stop offset=".83" stop-color="#424950"/>
            <stop offset="1" stop-color="#333940"/>
        </linearGradient>
        <linearGradient id="l143p2xbue" y1=".5" x2="1" y2=".5" gradientUnits="objectBoundingBox">
            <stop offset="0" stop-color="#b3bbc1"/>
            <stop offset=".081" stop-color="#a6aeb3"/>
            <stop offset=".52" stop-color="#636b70"/>
            <stop offset=".838" stop-color="#394146"/>
            <stop offset="1" stop-color="#2a3236"/>
        </linearGradient>
        <linearGradient id="atp9mjx77f" x1="11.859" y1="5.951" x2="11.946" y2="5.951" gradientUnits="objectBoundingBox">
            <stop offset="0" stop-color="#abbac2"/>
            <stop offset="1" stop-color="#262a30"/>
        </linearGradient>
        <linearGradient id="ltc0solmhg" x1="2.209" y1="1.23" x2="2.222" y2="1.23" gradientUnits="objectBoundingBox">
            <stop offset="0" stop-color="#b4bdc3"/>
            <stop offset="1" stop-color="#3e454d"/>
        </linearGradient>
        <linearGradient id="ye21xi8zbh" x1="2.447" y1="1.316" x2="2.462" y2="1.316" gradientUnits="objectBoundingBox">
            <stop offset="0" stop-color="#b4bdc3"/>
            <stop offset="1" stop-color="#485159"/>
        </linearGradient>
        <radialGradient id="phs0ipyvwa" cx=".481" cy=".485" r=".521" gradientTransform="matrix(1 0 0 -1 0 2.319)" gradientUnits="objectBoundingBox">
            <stop offset="0" stop-color="#bf0c3f"/>
            <stop offset=".5" stop-color="#bf0c3f"/>
            <stop offset=".753" stop-color="#bc0b3d"/>
            <stop offset=".859" stop-color="#b5093a"/>
            <stop offset=".938" stop-color="#a90534"/>
            <stop offset="1" stop-color="#99002c"/>
        </radialGradient>
        <radialGradient id="hkrwrdurmi" cx=".298" cy=".288" r=".764" gradientUnits="objectBoundingBox">
            <stop offset="0" stop-color="#fff"/>
            <stop offset=".35" stop-color="#fff"/>
            <stop offset=".511" stop-color="#fafbfc"/>
            <stop offset=".677" stop-color="#eef1f3"/>
            <stop offset=".845" stop-color="#d9e0e4"/>
            <stop offset="1" stop-color="#c0ccd2"/>
        </radialGradient>
        <radialGradient id="eflmp9nfwj" cx=".293" cy=".316" r=".78" gradientTransform="translate(-.027)" gradientUnits="objectBoundingBox">
            <stop offset="0" stop-color="#fff"/>
            <stop offset=".35" stop-color="#fff"/>
            <stop offset=".537" stop-color="#fafbfc"/>
            <stop offset=".73" stop-color="#eef1f3"/>
            <stop offset=".926" stop-color="#d9e1e5"/>
            <stop offset="1" stop-color="#d0dadf"/>
        </radialGradient>
    </defs>
    <path data-name="사각형 1355" d="M192.503 7.588h1.835v30.496h-1.835z"/>
    <g data-name="그룹 2292">
        <path data-name="패스 6825" d="M17.173 13.991c2.9 1.438 5 2.793 5 7.019 0 5.729-3.819 8.656-9.9 8.656H0V.479h11.636c6.294 0 9.818 1.981 9.706 7.343a6.475 6.475 0 0 1-4.169 6.169M5.669 4.976v7.342h5.723c2.376 0 4-1.25 3.985-3.627-.013-3.025-1.8-3.6-4.024-3.715zm0 11.686v8.331h5.717c2.943.133 4.712-.982 4.63-4.149-.086-3.267-1.911-4.283-4.589-4.183z" transform="translate(216.56 7.183)" style="fill:#6d6e71"/>
        <path data-name="패스 6826" d="M25.508.479h18.509v4.68H31.344v7.167h12.173v4.5H31.344V25h13.171v4.666H25.508z" transform="translate(217.247 7.182)" style="fill:#6d6e71"/>
        <path data-name="패스 6827" d="M49.1 23.4a17.469 17.469 0 0 0 8.01 2.013c4.065 0 5.635-1.448 5.635-3.342a3.525 3.525 0 0 0-2.253-2.977c-2.3-1.128-4.993-1.893-7.528-2.9-3.663-1.772-5.556-3.425-5.556-7.81C47.406 3.189 51.311.05 58.518.05a20.334 20.334 0 0 1 9.62 2.172L66.164 6.57a15.634 15.634 0 0 0-7.607-1.893c-3.744 0-5.273 1.291-5.273 3.219a2.767 2.767 0 0 0 .927 2.216 8.962 8.962 0 0 0 1.848 1.127c1.933.846 4.832 1.77 7.209 2.86 2.856 1.366 5.233 3.058 5.233 7.646 0 5.193-4.269 8.413-11.313 8.413a23.787 23.787 0 0 1-10.264-2.375z" transform="translate(217.822 7.171)" style="fill:#6d6e71"/>
        <path data-name="패스 6828" d="M70.354.479h23v4.674h-8.5v24.511h-5.84V5.153h-8.66z" transform="translate(218.453 7.182)" style="fill:#6d6e71"/>
        <path data-name="패스 6829" d="M107.774 23.4a17.487 17.487 0 0 0 8.012 2.013c4.065 0 5.636-1.448 5.636-3.342a3.527 3.527 0 0 0-2.254-2.977c-2.3-1.128-4.993-1.893-7.528-2.9-3.664-1.772-5.554-3.425-5.554-7.81 0-5.194 3.9-8.333 11.11-8.333a20.331 20.331 0 0 1 9.62 2.172l-1.973 4.347a15.642 15.642 0 0 0-7.609-1.893c-3.746 0-5.272 1.291-5.272 3.219a2.773 2.773 0 0 0 .925 2.216 8.954 8.954 0 0 0 1.852 1.127c1.933.846 4.829 1.77 7.2 2.86 2.859 1.366 5.235 3.058 5.235 7.646 0 5.193-4.269 8.413-11.312 8.413a23.788 23.788 0 0 1-10.262-2.375z" transform="translate(219.401 7.171)" style="fill:#6d6e71"/>
        <path data-name="패스 6830" d="M131.1.479h5.824v12.178h12.02V.479h5.829v29.185h-5.829V17.326h-12.02v12.338H131.1z" transform="translate(220.085 7.182)" style="fill:#6d6e71"/>
        <path data-name="패스 6831" d="M183.921 15.125c0 9.909-4.489 14.882-13.793 14.882-9.54 0-12.71-5.9-12.71-15.163C157.418 4.9 161.831 0 171.132 0c9.421 0 12.789 5.778 12.789 15.125m-20.568.2c0 5.576 1.524 10.15 6.654 10.15 6.057 0 7.82-3.891 7.82-10.913 0-5.5-1.444-10.149-6.656-10.149-5.813 0-7.818 3.971-7.818 10.912" transform="translate(220.795 7.17)" style="fill:#6d6e71"/>
        <path data-name="패스 6832" d="M198.25.479H187.3v29.185h5.836v-10.67h5.679c6.053-.066 9.59-3.638 9.66-9.5.069-6-3.4-9.017-10.225-9.017m-.42 14.011h-4.693V4.983h4.513c1.148.043 4.718.4 4.822 4.452-.1 2.341-.863 5.143-4.643 5.055" transform="translate(221.597 7.183)" style="fill:#6d6e71"/>
    </g>
    <g data-name="그룹 2294">
        <g data-name="그룹 2293">
            <path data-name="패스 6833" d="M170.509 15.243h-5.4V7.17h-5.211v30.341h4.56a37.328 37.328 0 0 0 .651-7.265V19.6h5.4zM138.99 7.722v4.264h6.192v2.056c0 5.433-1.109 8.847-6.746 11.319l2.122 3.771c3.219-1.2 6.245-3.481 7.651-6.373a13.953 13.953 0 0 0 7.162 6.08l2.538-4.421c-5.471-2.051-7.359-5.239-7.359-10.408v-2.024h6.018V7.722zm-3.09 25.4h-16.023c-.421 0-.555-.1-.555-.554v-6.339h-5.439v8.552c0 1.854.946 2.73 2.805 2.73H135.9zm-.555-25.952h-5.437v6.179h-5.114v4.456h5.114V29.09h4.792a28.159 28.159 0 0 0 .65-5.953zm-26.993.589v4.291h5.925v1.1c0 4.424-1.789 6.765-6.607 8.294l1.823 4.1c3.32-.781 6.573-2.73 7.912-5.4 1.432 2.669 4.56 4.52 7.455 5.207l2.315-4.685c-4.2-.911-7.229-3.19-7.229-7.545V12.05h5.827V7.759z" transform="translate(-.227)" style="fill:#6d6e71"/>
            <path data-name="패스 6834" d="M63.758 37.08H76.19v-5.7H62.152V7.795h-6.774V37.08z" transform="translate(-.227)" style="fill:#6d6e71"/>
            <path data-name="패스 6835" d="M90.971 25.918h5.517v5.119a15.655 15.655 0 0 1-4.89.775c-6.093 0-8.128-3.1-8.128-9.375 0-6 1.933-9.521 8.029-9.521 3.392 0 5.325 1.063 6.922 3.092l4.211-3.864c-2.568-3.673-7.064-4.786-11.277-4.786-9.482 0-14.466 5.172-14.466 15.029 0 9.811 4.5 15.127 14.421 15.127 4.546 0 9-1.161 11.418-2.852V20.455H90.971z" transform="translate(-.227)" style="fill:#6d6e71"/>
        </g>
        <path d="M154.461 344.638a22.436 22.436 0 1 0 22.45 22.611v-.349a22.436 22.436 0 0 0-22.45-22.259z" transform="translate(-132.039 -344.638)" style="fill:url(#phs0ipyvwa)"/>
        <path d="M146.391 358.923c-7.582 7.589-8.355 19.154-1.693 25.818s18.218 5.9 25.809-1.7 8.368-19.166 1.7-25.83a15.834 15.834 0 0 0-11.351-4.538 20.689 20.689 0 0 0-14.473 6.246" transform="translate(-139.059 -351.586)" style="fill:url(#7poggqnklb)"/>
        <path d="m177.336 399.156.554-.309v-18.918l-.138-.22.138-.04v-.028h.1l1.674-.574.3.517a.2.2 0 0 1 .042.142l-.017 17.226h4.069l.327.511a.294.294 0 0 1 .05.209v1.728a.136.136 0 0 1-.125.155h-6.23a.577.577 0 0 1-.31-.091zm20.2-11.065h-13.851v2.217l.344.464a.166.166 0 0 0 .118.046h11.588a16.927 16.927 0 1 1-16.794-17.987l.908-.014h.1c.063 0 .118-.009.118-.155v-1.812a.368.368 0 0 0-.045-.2l-.408-.514-.928.132-.464.155c-10.522 0-18.4 8.792-18.4 19.26a19.081 19.081 0 0 0 38.163-.114v-1.079zm-25.906-8.768a2.988 2.988 0 1 0 3.01 2.992 2.988 2.988 0 0 0-3.01-2.992z" transform="translate(-156.057 -366.684)" style="fill:url(#qqrcjhnfxc)"/>
        <path d="m291.2 583.67-.464.441h6.808l-.444-.453z" transform="translate(-269.507 -551.618)" style="fill:#626d77"/>
        <path d="m308.727 570.917.444-.43h-4.458l-.528.43z" transform="translate(-281.146 -540.213)" style="fill:#8699a3"/>
        <path d="M293.085 436.8h-2.353l.441.422h1.408z" transform="translate(-269.476 -424.442)" style="fill:#8d9aa1"/>
        <path d="m304.375 455.332.491-.4V436.8l-.5.419z" transform="translate(-281.267 -424.544)" style="fill:url(#5uizuz0gjd)"/>
        <path d="M337.664 570.917v1.357l.444.453v-2.24z" transform="translate(-310.106 -540.23)" style="fill:url(#l143p2xbue)"/>
        <path d="M290.732 436.8v20.379l.464-.441-.02-19.517z" transform="translate(-269.465 -424.562)" style="fill:#b4bdc3"/>
        <path d="M227.313 442.527a2.519 2.519 0 1 0 .741-1.783 2.525 2.525 0 0 0-.741 1.783z" transform="translate(-214.562 -427.245)" style="fill:transparent"/>
        <path d="M224.082 439.694a2.96 2.96 0 1 0 .869-2.1 2.965 2.965 0 0 0-.869 2.1zm5.487 0a2.525 2.525 0 1 1-2.522-2.517 2.525 2.525 0 0 1 2.522 2.517z" transform="translate(-211.768 -424.408)" style="fill:url(#atp9mjx77f)"/>
        <path d="m349.818 517.024-11.77-.014-.436.464h11.758l.234-.243z" transform="translate(-310.271 -493.906)" style="fill:#505c61"/>
        <path d="m338.054 504.235 13.164-.022.446-.449h-14.046z" transform="translate(-310.267 -482.437)" style="fill:#8f9ca4"/>
        <path d="M195.47 389.044v-1.1l-.439.441v.653A18.527 18.527 0 1 1 176.5 370.5l.7-.009.433-.421-1.14-.011a18.981 18.981 0 1 0 18.979 18.98z" transform="translate(-154.081 -366.615)" style="fill:url(#ltc0solmhg)"/>
        <path d="m188.844 383.513-.489-.011h-.464a17.16 17.16 0 1 0 .032 34.32h.442a17.207 17.207 0 0 0 16.9-16l.015-.473-.218.2-.231.24a16.726 16.726 0 1 1-16.672-17.849l1.126.011z" transform="translate(-165.728 -378.229)" style="fill:url(#ye21xi8zbh)"/>
        <path d="m338.054 504.256-.436-.464v2.254l.436-.464z" transform="translate(-310.058 -482.467)" style="fill:#b4bdc3"/>
        <path d="m304.531 371.969.439.441v-2.267l-.439.425z" transform="translate(-281.413 -366.682)" style="fill:url(#l143p2xbue)"/>
        <path d="M177.056 380.769v19.616h6.236v-1.749h-4.449v-17.867zm.651-8.923a18.741 18.741 0 1 0 18.967 18.737v-.851h-13.367v1.739H194.9v.254a16.986 16.986 0 1 1-16.947-18.125h.9v-1.755c-.176 0-.464 0-.7-.009z" transform="translate(-155.535 -368.154)" style="fill:url(#hkrwrdurmi)"/>
        <path d="M225.737 441.209a2.725 2.725 0 1 0 .8-1.928 2.726 2.726 0 0 0-.8 1.928" transform="translate(-213.2 -425.925)" style="fill:url(#eflmp9nfwj)"/>
        <path d="M228.954 438.973a2.7 2.7 0 0 1 1.656.579 2.711 2.711 0 1 0-3.816 3.786 2.677 2.677 0 0 1-.571-1.64 2.729 2.729 0 0 1 2.731-2.725" transform="translate(-213.171 -425.908)" style="fill:#fff"/>
        <path d="M179.125 371.83c-.238 0-.689-.012-.918-.012a18.877 18.877 0 0 0-18.987 18.694 18.43 18.43 0 0 0 5.563 13.217c.115.113.234.22.35.33a18.413 18.413 0 0 1-5.248-12.892c0-10.285 7.405-18.824 19.241-19.341" transform="translate(-155.533 -368.131)" style="fill:#fff"/>
        <path d="M305.927 572.169a18.426 18.426 0 0 0 4.512.379v-.379z" transform="translate(-282.659 -541.707)" style="fill:#fff"/>
        <path d="M294.386 439.117v-.562h-1.812v19.9s.566-3.026.566-19.341z" transform="translate(-271.067 -426.11)" style="fill:#fff"/>
        <path d="M352.873 505.573H339.31v1.764h.492v-1.273c11.818 0 13.072-.494 13.072-.494" transform="translate(-311.736 -484.022)" style="fill:#fff"/>
        <path d="M210.2 518.607a2.1 2.1 0 0 1-.011.263 17.1 17.1 0 0 1-16.912 16.067 16.722 16.722 0 0 1-11.988-5.054 17.141 17.141 0 0 1-4.332-7.534 17 17 0 0 0 33.465-3.743z" transform="translate(-170.858 -495.548)" style="fill:#fff"/>
    </g>
</svg>
