<svg xmlns="http://www.w3.org/2000/svg" width="477.478" height="50.001" viewBox="0 0 477.478 50.001">
    <defs>
        <linearGradient id="linear-gradient" x1=".336" y1=".05" x2=".664" y2=".95" gradientUnits="objectBoundingBox">
            <stop offset="0" stop-color="#f38895"/>
            <stop offset=".086" stop-color="#eb7487"/>
            <stop offset=".314" stop-color="#d84768"/>
            <stop offset=".517" stop-color="#ca2751"/>
            <stop offset=".687" stop-color="#c21343"/>
            <stop offset=".801" stop-color="#bf0c3f"/>
            <stop offset="1" stop-color="#bf0c3f"/>
        </linearGradient>
        <linearGradient id="linear-gradient-2" x1=".098" y1=".196" x2=".808" y2=".902" gradientUnits="objectBoundingBox">
            <stop offset="0" stop-color="#cd425c"/>
            <stop offset=".089" stop-color="#bd3251"/>
            <stop offset=".249" stop-color="#a91e43"/>
            <stop offset=".43" stop-color="#9b1038"/>
            <stop offset=".648" stop-color="#920732"/>
            <stop offset="1" stop-color="#900531"/>
        </linearGradient>
        <linearGradient id="linear-gradient-3" y1=".5" x2="1" y2=".5" gradientUnits="objectBoundingBox">
            <stop offset="0" stop-color="#b4bdc3"/>
            <stop offset=".04" stop-color="#adb6bc"/>
            <stop offset=".498" stop-color="#6b7379"/>
            <stop offset=".83" stop-color="#424950"/>
            <stop offset="1" stop-color="#333940"/>
        </linearGradient>
        <linearGradient id="linear-gradient-4" y1=".5" x2="1" y2=".5" gradientUnits="objectBoundingBox">
            <stop offset="0" stop-color="#b3bbc1"/>
            <stop offset=".081" stop-color="#a6aeb3"/>
            <stop offset=".52" stop-color="#636b70"/>
            <stop offset=".838" stop-color="#394146"/>
            <stop offset="1" stop-color="#2a3236"/>
        </linearGradient>
        <linearGradient id="linear-gradient-5" x1="11.859" y1="5.951" x2="11.946" y2="5.951" gradientUnits="objectBoundingBox">
            <stop offset="0" stop-color="#abbac2"/>
            <stop offset="1" stop-color="#262a30"/>
        </linearGradient>
        <linearGradient id="linear-gradient-6" x1="2.209" y1="1.23" x2="2.222" y2="1.23" gradientUnits="objectBoundingBox">
            <stop offset="0" stop-color="#b4bdc3"/>
            <stop offset="1" stop-color="#3e454d"/>
        </linearGradient>
        <linearGradient id="linear-gradient-7" x1="2.447" y1="1.316" x2="2.462" y2="1.316" gradientUnits="objectBoundingBox">
            <stop offset="0" stop-color="#b4bdc3"/>
            <stop offset="1" stop-color="#485159"/>
        </linearGradient>
        <radialGradient id="radial-gradient" cx=".481" cy=".485" r=".521" gradientTransform="matrix(1 0 0 -1 0 2.319)" gradientUnits="objectBoundingBox">
            <stop offset="0" stop-color="#bf0c3f"/>
            <stop offset=".5" stop-color="#bf0c3f"/>
            <stop offset=".753" stop-color="#bc0b3d"/>
            <stop offset=".859" stop-color="#b5093a"/>
            <stop offset=".938" stop-color="#a90534"/>
            <stop offset="1" stop-color="#99002c"/>
        </radialGradient>
        <radialGradient id="radial-gradient-2" cx=".298" cy=".288" r=".764" gradientUnits="objectBoundingBox">
            <stop offset="0" stop-color="#fff"/>
            <stop offset=".35" stop-color="#fff"/>
            <stop offset=".511" stop-color="#fafbfc"/>
            <stop offset=".677" stop-color="#eef1f3"/>
            <stop offset=".845" stop-color="#d9e0e4"/>
            <stop offset="1" stop-color="#c0ccd2"/>
        </radialGradient>
        <radialGradient id="radial-gradient-3" cx=".293" cy=".316" r=".78" gradientTransform="translate(-.027)" gradientUnits="objectBoundingBox">
            <stop offset="0" stop-color="#fff"/>
            <stop offset=".35" stop-color="#fff"/>
            <stop offset=".537" stop-color="#fafbfc"/>
            <stop offset=".73" stop-color="#eef1f3"/>
            <stop offset=".926" stop-color="#d9e1e5"/>
            <stop offset="1" stop-color="#d0dadf"/>
        </radialGradient>
        <clipPath id="clip-path">
            <path id="사각형_1295" data-name="사각형 1295" style="fill:none" d="M0 0h372.786v49.899H0z"/>
        </clipPath>
        <style>
            
        </style>
    </defs>
    <g id="logo" transform="translate(0 .055)">
        <g id="그룹_2180" data-name="그룹 2180" transform="translate(61.586 8.022)">
            <path id="패스_6822" data-name="패스 6822" d="M157.84 14.835h-6.011V5.858h-5.793V39.6h5.071a41.484 41.484 0 0 0 .723-8.079V19.68h6.011zm-35.05-8.363v4.741h6.886V13.5c0 6.041-1.233 9.839-7.5 12.587l2.36 4.194c3.58-1.339 6.945-3.871 8.508-7.088a15.531 15.531 0 0 0 7.965 6.761l2.823-4.917c-6.085-2.28-8.184-5.825-8.184-11.573v-2.251h6.692V6.472zm-3.436 28.246h-17.818c-.468 0-.617-.108-.617-.617v-7.049H94.87v9.51c0 2.062 1.052 3.036 3.12 3.036h21.364zm-.617-28.859h-6.047v6.871H107v4.955h5.687v12.549h5.322a31.331 31.331 0 0 0 .724-6.62zm-30.017.654v4.771h6.588v1.229c0 4.919-1.989 7.524-7.348 9.222l2.028 4.556c3.692-.868 7.31-3.036 8.8-6 1.591 2.967 5.071 5.026 8.29 5.789l2.574-5.209c-4.673-1.013-8.038-3.549-8.038-8.391v-1.196h6.478V6.513z" transform="translate(-29.813 -5.858)" style="fill:#6d6e71"/>
            <path id="패스_6823" data-name="패스 6823" d="M54.56 38.934h13.825v-6.342H52.774V6.368h-7.531v32.566z" transform="translate(-45.243 -5.672)" style="fill:#6d6e71"/>
            <path id="패스_6824" data-name="패스 6824" d="M78.475 26.65h6.135v5.693a17.421 17.421 0 0 1-5.438.862c-6.776 0-9.039-3.441-9.039-10.426 0-6.666 2.151-10.588 8.928-10.588 3.772 0 5.923 1.182 7.7 3.438l4.683-4.3C88.586 7.249 83.586 6.01 78.9 6.01c-10.545 0-16.087 5.753-16.087 16.713 0 10.91 5 16.822 16.037 16.822 5.056 0 10.008-1.29 12.7-3.172v-15.8H78.475z" transform="translate(-38.895 -5.802)" style="fill:#6d6e71"/>
        </g>
        <path id="사각형_1290" data-name="사각형 1290" transform="translate(0 .048)" style="fill:none" d="M0 0h372.786v49.899H0z"/>
        <g id="Group_590" transform="translate(0 -.055)">
            <g id="Group_433">
                <path id="Path_254" d="M156.969 344.638a24.945 24.945 0 1 0 24.961 25.14v-.391a24.946 24.946 0 0 0-24.961-24.749z" transform="translate(-132.039 -344.638)" style="fill:url(#radial-gradient)"/>
                <path id="Path_255" d="M147.088 359.623c-8.43 8.438-9.29 21.3-1.882 28.706s20.256 6.558 28.7-1.892 9.3-21.31 1.892-28.72a17.6 17.6 0 0 0-12.621-5.046 23 23 0 0 0-16.092 6.945" transform="translate(-138.935 -351.465)" style="fill:url(#linear-gradient)"/>
                <path id="Path_256" d="m179.3 402.4.616-.344v-21.032l-.153-.244.153-.045v-.035h.107l1.861-.638.334.575a.22.22 0 0 1 .046.158l-.019 19.153h4.525l.363.568a.327.327 0 0 1 .055.232v1.927a.152.152 0 0 1-.139.172h-6.921a.641.641 0 0 1-.344-.1zm22.456-12.3h-15.4v2.465l.382.516a.184.184 0 0 0 .131.052h12.884a18.821 18.821 0 1 1-18.673-20l1.01-.015h.112c.07 0 .131-.01.131-.172v-2.014a.409.409 0 0 0-.05-.218l-.454-.571-1.032.146-.516.172c-11.7 0-20.459 9.775-20.459 21.415a21.216 21.216 0 0 0 42.432-.127v-1.2zm-28.8-9.749a3.322 3.322 0 1 0 3.346 3.327 3.322 3.322 0 0 0-3.346-3.327z" transform="translate(-155.636 -366.298)" style="fill:url(#linear-gradient-2)"/>
                <path id="Path_257" d="m291.247 583.672-.516.49h7.57l-.494-.5z" transform="translate(-267.133 -548.034)" style="fill:#626d77"/>
                <path id="Path_258" d="m309.235 570.965.494-.478h-4.956l-.587.478z" transform="translate(-278.568 -536.826)" style="fill:#8699a3"/>
                <path id="Path_259" d="M293.349 436.8h-2.617l.49.47h1.566z" transform="translate(-267.098 -423.059)" style="fill:#8d9aa1"/>
                <path id="Path_260" d="m304.376 457.4.545-.442V436.8l-.561.466z" transform="translate(-278.683 -423.173)" style="fill:url(#linear-gradient-3)"/>
                <path id="Path_261" d="M337.664 570.965v1.509l.494.5v-2.491z" transform="translate(-307.023 -536.845)" style="fill:url(#linear-gradient-4)"/>
                <path id="Path_262" d="M290.732 436.8v22.659l.516-.49-.022-21.7z" transform="translate(-267.086 -423.193)" style="fill:#b4bdc3"/>
                <path id="Path_263" d="M227.313 442.809a2.8 2.8 0 1 0 .824-1.982 2.808 2.808 0 0 0-.824 1.982z" transform="translate(-213.136 -425.817)" style="fill:transparent"/>
                <path id="Path_264" d="M224.082 440.025a3.291 3.291 0 1 0 .966-2.332 3.3 3.3 0 0 0-.966 2.332zm6.1 0a2.808 2.808 0 1 1-2.8-2.8 2.808 2.808 0 0 1 2.8 2.8z" transform="translate(-210.39 -423.03)" style="fill:url(#linear-gradient-5)"/>
                <path id="Path_265" d="m351.183 517.025-13.083-.015-.485.516h13.075l.26-.27z" transform="translate(-307.212 -491.321)" style="fill:#505c61"/>
                <path id="Path_267" d="m338.1 504.288 14.637-.024.5-.5h-15.619z" transform="translate(-307.207 -480.051)" style="fill:#8f9ca4"/>
                <path id="Path_268" d="M199.717 391.167v-1.218l-.489.49v.726a20.6 20.6 0 1 1-20.609-20.613l.782-.01.482-.468-1.268-.012a21.1 21.1 0 1 0 21.1 21.1z" transform="translate(-153.697 -366.229)" style="fill:url(#linear-gradient-6)"/>
                <path id="Path_269" d="m190.869 383.514-.544-.012h-.516a19.08 19.08 0 1 0 .036 38.159h.492a19.132 19.132 0 0 0 18.788-17.789l.017-.526-.243.222-.256.267a18.6 18.6 0 1 1-18.537-19.846l1.252.012z" transform="translate(-165.167 -377.639)" style="fill:url(#linear-gradient-7)"/>
                <path id="Path_272" d="m338.1 504.308-.485-.516v2.508l.485-.516z" transform="translate(-306.975 -480.082)" style="fill:#b4bdc3"/>
                <path id="Path_273" d="m304.531 372.173.489.49v-2.52l-.489.473z" transform="translate(-278.827 -366.294)" style="fill:url(#linear-gradient-4)"/>
                <path id="Path_274" d="M179.054 381.768v21.811h6.933v-1.944h-4.946v-19.867zm.724-9.921a20.837 20.837 0 1 0 21.089 20.833v-.946H186v1.934h12.89v.282a18.886 18.886 0 1 1-18.838-20.15h1v-1.951c-.2 0-.516 0-.779-.01z" transform="translate(-155.126 -367.742)" style="fill:url(#radial-gradient-2)"/>
                <path id="Path_275" d="M225.737 441.513a3.03 3.03 0 1 0 .889-2.144 3.031 3.031 0 0 0-.889 2.144" transform="translate(-211.797 -424.52)" style="fill:url(#radial-gradient-3)"/>
                <g id="Group_432" transform="translate(4.101 4.099)">
                    <path id="Path_276" d="M229.314 439.028a3 3 0 0 1 1.841.643 3.014 3.014 0 1 0-4.243 4.21 2.976 2.976 0 0 1-.635-1.824 3.035 3.035 0 0 1 3.036-3.03" transform="translate(-215.865 -428.601)" style="fill:#fff"/>
                    <path id="Path_277" d="M181.352 371.832c-.265 0-.766-.014-1.02-.014a20.989 20.989 0 0 0-21.111 20.782 20.492 20.492 0 0 0 6.185 14.7c.127.125.26.244.389.366a20.473 20.473 0 0 1-5.836-14.334c0-11.435 8.234-20.93 21.393-21.5" transform="translate(-159.221 -371.818)" style="fill:#fff"/>
                    <path id="Path_278" d="M305.927 572.169a20.487 20.487 0 0 0 5.017.421v-.421z" transform="translate(-284.157 -542.399)" style="fill:#fff"/>
                    <path id="Path_279" d="M294.589 439.179v-.624h-2.015v22.129s.63-3.365.63-21.5z" transform="translate(-272.762 -428.817)" style="fill:#fff"/>
                    <path id="Path_280" d="M354.391 505.573H339.31v1.961h.547v-1.416c13.14 0 14.534-.549 14.534-.549" transform="translate(-312.752 -485.711)" style="fill:#fff"/>
                    <path id="Path_281" d="M213.917 518.607a2.336 2.336 0 0 1-.012.292 19.01 19.01 0 0 1-18.8 17.864 18.592 18.592 0 0 1-13.33-5.619 19.059 19.059 0 0 1-4.817-8.377 18.9 18.9 0 0 0 37.208-4.161z" transform="translate(-174.277 -497.068)" style="fill:#fff"/>
                </g>
            </g>
        </g>
        <path id="사각형_1312" data-name="사각형 1312" transform="translate(213.501 8.025)" d="M0 0h2.72v34.031H0z"/>
        <g id="그룹_2183" data-name="그룹 2183" transform="translate(240.108 8.231)">
            <path id="패스_6825" data-name="패스 6825" d="M19.092 15.5c3.226 1.6 5.563 3.105 5.561 7.8 0 6.369-4.246 9.623-11.009 9.623H0V.479h12.936c7 0 10.915 2.2 10.791 8.164a7.2 7.2 0 0 1-4.635 6.857M6.3 5.478v8.163h6.362c2.642 0 4.444-1.389 4.431-4.032-.015-3.363-2-4-4.474-4.13zm0 12.992v9.262h6.356c3.272.148 5.239-1.091 5.148-4.612-.1-3.632-2.125-4.762-5.1-4.65z" transform="translate(0 .068)" style="fill:#6d6e71"/>
            <path id="패스_6826" data-name="패스 6826" d="M25.508.479h20.577v5.2H32v7.971h13.529v5H32v9.084h14.639v5.188H25.508z" transform="translate(3.614 .067)" style="fill:#6d6e71"/>
            <path id="패스_6827" data-name="패스 6827" d="M49.341 26a19.421 19.421 0 0 0 8.9 2.238c4.52 0 6.264-1.61 6.264-3.715 0-1.923-1.7-2.908-2.5-3.31-2.553-1.254-5.551-2.1-8.369-3.221-4.072-1.97-6.176-3.807-6.176-8.682C47.459 3.54 51.8.05 59.813.05c3.443 0 7.7.67 10.695 2.415L68.314 7.3a17.38 17.38 0 0 0-8.457-2.1c-4.162 0-5.862 1.435-5.862 3.579a3.077 3.077 0 0 0 1.031 2.464 9.963 9.963 0 0 0 2.055 1.252c2.149.941 5.371 1.968 8.014 3.179 3.175 1.518 5.818 3.4 5.818 8.5 0 5.773-4.746 9.353-12.577 9.353a26.445 26.445 0 0 1-11.411-2.641z" transform="translate(6.646 .007)" style="fill:#6d6e71"/>
            <path id="패스_6828" data-name="패스 6828" d="M70.354.479h25.575v5.2h-9.446v27.25h-6.492V5.675h-9.637z" transform="translate(9.965 .067)" style="fill:#6d6e71"/>
            <path id="패스_6829" data-name="패스 6829" d="M108.017 26a19.441 19.441 0 0 0 8.907 2.238c4.52 0 6.265-1.61 6.265-3.715 0-1.923-1.7-2.908-2.506-3.31-2.553-1.254-5.551-2.1-8.369-3.221-4.073-1.97-6.175-3.807-6.175-8.682 0-5.774 4.338-9.264 12.351-9.264 3.445 0 7.695.67 10.695 2.415L126.993 7.3a17.39 17.39 0 0 0-8.46-2.1c-4.165 0-5.861 1.435-5.861 3.579a3.082 3.082 0 0 0 1.029 2.464 9.953 9.953 0 0 0 2.058 1.252c2.149.941 5.369 1.968 8.01 3.179 3.178 1.518 5.82 3.4 5.82 8.5 0 5.773-4.746 9.353-12.576 9.353a26.447 26.447 0 0 1-11.413-2.645z" transform="translate(14.958 .007)" style="fill:#6d6e71"/>
            <path id="패스_6830" data-name="패스 6830" d="M131.1.479h6.474v13.538h13.363V.479h6.48v32.446h-6.48V19.208h-13.368v13.717H131.1z" transform="translate(18.567 .067)" style="fill:#6d6e71"/>
            <path id="패스_6831" data-name="패스 6831" d="M186.883 16.815c0 11.016-4.99 16.545-15.335 16.545-10.606 0-14.13-6.555-14.13-16.857 0-11.06 4.906-16.5 15.247-16.5 10.473 0 14.218 6.424 14.218 16.815m-22.866.223c0 6.2 1.694 11.284 7.4 11.284 6.733 0 8.694-4.326 8.694-12.132 0-6.111-1.605-11.283-7.4-11.283-6.463 0-8.691 4.415-8.691 12.131" transform="translate(22.297)" style="fill:#6d6e71"/>
            <path id="패스_6832" data-name="패스 6832" d="M199.473.479H187.3v32.447h6.488V21.063h6.312c6.729-.073 10.662-4.045 10.739-10.559.078-6.667-3.776-10.025-11.366-10.025m-.467 15.577h-5.217V5.486h5.018c1.276.048 5.245.444 5.361 4.949-.116 2.6-.959 5.717-5.161 5.62" transform="translate(26.528 .068)" style="fill:#6d6e71"/>
        </g>
    </g>
</svg>
