<svg xmlns="http://www.w3.org/2000/svg" width="64" height="64" viewBox="0 0 64 64">
    <defs>
        <clipPath id="clip-path">
            <path id="사각형_534" data-name="사각형 534" class="cls-1" d="M0 0h51.5v39.472H0z"/>
        </clipPath>
        <style>
            .cls-1{fill:none}.cls-3{fill:#fff}
        </style>
    </defs>
    <g id="main_icon_lx" transform="translate(-8 -10)">
        <path id="bg" class="cls-1" transform="translate(8 10)" d="M0 0h64v64H0z"/>
        <g id="그룹_715" data-name="그룹 715" transform="translate(7.962 41.175)">
            <g id="그룹_714" data-name="그룹 714" transform="translate(6.038 -19.175)" style="clip-path:url(#clip-path)">
                <path id="패스_273" data-name="패스 273" class="cls-3" d="M0 .727v14.487a1.406 1.406 0 0 0 1.355 1.122c.982.047 10.187 0 10.608 0s2.9-2.9 2.851-3.177-10.608 0-10.608 0S4.44.821 4.206.727A25.3 25.3 0 0 0 0 .727" transform="translate(10.231 1.119)"/>
                <path id="패스_274" data-name="패스 274" class="cls-3" d="m32.333 1.257 5.748 6.636 2.383-2.43-3.84-4.233z" transform="translate(-8.503 .776)"/>
                <path id="패스_275" data-name="패스 275" class="cls-3" d="M46.049 1.23 32.777 16.7h4.159l4.58-5.068 4.533 5.068h4.206l-6.589-7.4 6.589-8.07z" transform="translate(-8.761 .776)"/>
                <path id="패스_276" data-name="패스 276" class="cls-3" d="M90.864.071v3.411h6.776l-8.084 12.057s6.449.748 7.383.888a31.423 31.423 0 0 0 5.935 0c.514-.234 1.776-1.4 1.822-2.056s.187-2.1-.608-2.1-2.243 1.168-4.486 1.122a21.63 21.63 0 0 1-3.411-.281l8.224-12.8z" transform="translate(-88.293 22.902)"/>
                <path id="패스_277" data-name="패스 277" class="cls-3" d="M137.316 6.506a2.547 2.547 0 1 1-2.547-2.547 2.547 2.547 0 0 1 2.547 2.547" transform="translate(-113.015 20.65)"/>
                <path id="패스_278" data-name="패스 278" class="cls-3" d="M137.316 25.618a2.547 2.547 0 1 1-2.547-2.547 2.547 2.547 0 0 1 2.547 2.547" transform="translate(-113.015 9.576)"/>
                <path id="패스_279" data-name="패스 279" class="cls-3" d="M152.222.071v16.5s2.1.045 2.991-.843a6.257 6.257 0 0 0 1.075-1.262V.071z" transform="translate(-124.603 22.902)"/>
                <path id="패스_280" data-name="패스 280" class="cls-3" d="M169 1.011c.327.281 1.589 1.262 1.636 2.383s0 13.133 0 13.133h4.252s-.14-10.1 0-10.423 1.822-2.757 3.6-2.757 2.012 1.075 2.012 1.776v11.4h4.066V4.212A5.507 5.507 0 0 0 179 .03c-4.44 0-5 2.757-5 2.757A2.924 2.924 0 0 0 171.43.03C169-.2 169 1.011 169 1.011" transform="translate(-134.325 22.944)"/>
            </g>
        </g>
    </g>
</svg>
