<svg xmlns="http://www.w3.org/2000/svg" width="56" height="56" viewBox="0 0 56 56">
    <defs>
        <style>
            .cls-2,.cls-3{fill:none;stroke:#000;stroke-linecap:round;stroke-miterlimit:10;stroke-width:1.5px}.cls-2{stroke-linejoin:round}
        </style>
    </defs>
    <g id="main_icon_book" transform="translate(-617.416 -1097)">
        <path id="사각형_541" data-name="사각형 541" transform="translate(617.416 1097)" style="fill:none" d="M0 0h56v56H0z"/>
        <g id="그룹_100" data-name="그룹 100" transform="translate(-753.795 -175.143)">
            <path id="패스_66" data-name="패스 66" class="cls-2" d="M1405.449 1464c13.7 0 13.7 14.682 13.7 14.682H1380s0-14.682 13.7-14.682l5.873 5.873z" transform="translate(0 -155.657)"/>
            <path id="패스_67" data-name="패스 67" class="cls-2" d="m1440 1470 3.915 8.809 3.915-1.958" transform="translate(-50.212 -160.678)"/>
            <path id="패스_68" data-name="패스 68" class="cls-2" d="m1519.83 1470-3.915 8.809-3.915-1.958" transform="translate(-110.466 -160.678)"/>
            <path id="선_7" data-name="선 7" class="cls-3" transform="translate(1394.623 1305.465)" d="M0 3.302V0"/>
            <path id="선_8" data-name="선 8" class="cls-3" transform="translate(1404.529 1305.465)" d="M0 3.302V0"/>
            <path id="패스_69" data-name="패스 69" class="cls-3" d="M1449.661 1314c-2.455 5.869-9.6 7.841-15.661 6.851" transform="translate(-45.191 -30.127)"/>
            <path id="선_9" data-name="선 9" class="cls-3" transform="translate(1390.767 1290.891)" d="M0 6.196V0"/>
            <path id="패스_70" data-name="패스 70" class="cls-2" d="M1461.3 1327.02a6.865 6.865 0 0 0 4.894 5.707v5.873a8.811 8.811 0 0 1-17.117 2.937" transform="translate(-57.805 -41.023)"/>
            <path id="패스_71" data-name="패스 71" class="cls-2" d="M1481.873 1404h-3.915a1.958 1.958 0 0 0-1.958 1.957h0a1.958 1.958 0 0 0 1.958 1.958h3.915a1.958 1.958 0 0 0 1.958-1.958h0a1.958 1.958 0 0 0-1.958-1.957z" transform="translate(-80.339 -105.445)"/>
            <path id="패스_72" data-name="패스 72" class="cls-2" d="M1416 1310.3v-18.6a13.7 13.7 0 0 1 27.407 0v14.682" transform="translate(-30.127)"/>
            <path id="패스_73" data-name="패스 73" class="cls-2" d="M1584 1356h0a3.915 3.915 0 0 1 3.915 3.915v.979a3.915 3.915 0 0 1-3.915 3.915h0z" transform="translate(-170.72 -65.275)"/>
            <path id="패스_74" data-name="패스 74" class="cls-2" d="M1395.915 1356h0a3.915 3.915 0 0 0-3.915 3.915v.979a3.915 3.915 0 0 0 3.915 3.915h0z" transform="translate(-10.042 -65.275)"/>
            <path id="패스_75" data-name="패스 75" class="cls-2" d="M1425.788 1400.937h-2.7A10.026 10.026 0 0 1 1416 1398h0" transform="translate(-30.127 -100.424)"/>
        </g>
    </g>
</svg>
