<svg xmlns="http://www.w3.org/2000/svg" width="64" height="64" viewBox="0 0 64 64">
    <defs>
        <style>
            .cls-1,.cls-2,.cls-5{fill:none}.cls-2,.cls-5{stroke:#fff;stroke-width:2px}.cls-5{stroke-linecap:round;stroke-linejoin:round}
        </style>
    </defs>
    <g id="main_icon_image" transform="translate(-8 -10)">
        <path id="bg" class="cls-1" transform="translate(8 10)" d="M0 0h64v64H0z"/>
        <g id="그룹_718" data-name="그룹 718">
            <path id="패스_282" data-name="패스 282" class="cls-2" d="M3.714 0h18.572A3.63 3.63 0 0 1 26 3.538v38.924A3.63 3.63 0 0 1 22.286 46H3.714A3.63 3.63 0 0 1 0 42.462V3.538A3.63 3.63 0 0 1 3.714 0z" transform="translate(13.5 19)"/>
            <rect id="사각형_536" data-name="사각형 536" width="12" height="2" rx="1" transform="translate(20.5 23)" style="fill:#fff"/>
            <g id="타원_95" data-name="타원 95" class="cls-2" transform="translate(21.5 36)">
                <circle cx="5" cy="5" r="5" style="stroke:none"/>
                <circle class="cls-1" cx="5" cy="5" r="4"/>
            </g>
            <path id="패스_281" data-name="패스 281" d="M30.4 54.6s-.454-9 7.206-9 6.756 9 6.756 9" transform="translate(-10.895 -.6)" style="stroke-linecap:round;stroke:#fff;stroke-width:2px;fill:none"/>
            <path id="합치기_15" data-name="합치기 15" class="cls-5" d="m-4132.6 9279.166 4.447.232-5.059 4.307zm-6.4-.287V9268h16v10.881z" transform="translate(4185 -9242.703)"/>
            <path id="합치기_16" data-name="합치기 16" class="cls-5" d="m6.4 4.539 4.447-.232L5.786 0zM0 4.826v10.881h16V4.826z" transform="rotate(180 33.5 32.5)"/>
        </g>
    </g>
</svg>
