<svg xmlns="http://www.w3.org/2000/svg" width="82" height="90" viewBox="0 0 82 90">
    <defs>
        <clipPath id="vn66b3gvxa">
            <path data-name="사각형 956" transform="translate(0 -.001)" style="fill:none" d="M0 0h82v90H0z"/>
        </clipPath>
    </defs>
    <g data-name="그룹 1484">
        <g data-name="그룹 1483" transform="translate(0 .001)" style="clip-path:url(#vn66b3gvxa)">
            <path data-name="패스 3395" d="M15.991 35.466C19.16 45.794 25.972 52.4 33.551 52.4c7.459 0 14.25-6.6 17.5-16.919 1.844-.768 3.356-3.042 3.84-6 .264-1.581.506-4.512-.825-6.369a3.814 3.814 0 0 0-.506-.575 20.109 20.109 0 0 0-4.067-15.265C46.882 3.954 42 0 33.551 0 25.019 0 20.1 3.94 17.476 7.246a20.159 20.159 0 0 0-4.071 15.3 4.46 4.46 0 0 0-1.247 2.447 13.071 13.071 0 0 0 .061 4.486c.482 2.964 1.946 5.207 3.772 5.987M51.323 28.9c-.346 2.108-1.331 3.185-1.635 3.255a1.759 1.759 0 0 0-1.805 1.309c-2.618 9.168-8.377 15.327-14.332 15.327-6.156 0-11.8-6.011-14.374-15.314a1.773 1.773 0 0 0-1.715-1.324h-.014c-.334-.074-1.316-1.149-1.66-3.258a7.2 7.2 0 0 1 .05-3.641c.053-.011.093-.048.145-.064a1.847 1.847 0 0 0 .281-.129 1.766 1.766 0 0 0 .7-.611c.01-.013.014-.031.023-.043a46.467 46.467 0 0 1 7.413-6.722c.09.067.178.133.262.2a35.355 35.355 0 0 0 22.648 7.626c1.236 0 2.536-.064 3.88-.178a6.557 6.557 0 0 1 .135 3.567M20.31 9.493c2.128-2.682 6.153-5.877 13.241-5.877 6.995 0 10.986 3.2 13.1 5.892a16.661 16.661 0 0 1 3.342 12.28c-13.028.845-20.086-4.466-23.151-6.788a8.223 8.223 0 0 0-1.774-1.16 1.815 1.815 0 0 0-1.6.141 39.4 39.4 0 0 0-6.657 5.378 16.516 16.516 0 0 1 3.5-9.867" transform="translate(7.28)" style="fill:#fff"/>
            <path data-name="패스 3396" d="M80.738 44.656a1.841 1.841 0 0 0-.384-.339C79.931 44.041 69.911 37.48 61.873 34a4.64 4.64 0 0 0-3.858-.035 4.189 4.189 0 0 0-2.2 2.751l-4.412 15.2a43.737 43.737 0 0 1-3.803 5.139l-2.094-12.024 3.6-6.6a1.806 1.806 0 0 0-1.586-2.674H34.144a1.808 1.808 0 0 0-1.586 2.674l3.6 6.594-2.086 12.03a42.806 42.806 0 0 1-3.808-5.142l-4.406-15.168a4.215 4.215 0 0 0-2.205-2.784 4.65 4.65 0 0 0-3.859.034C11.756 37.48 1.736 44.041 1.313 44.317a1.84 1.84 0 0 0-.384.339c-2.237 2.627-.014 14.425 2.242 23.86A1.808 1.808 0 0 0 4.93 69.9h71.806a1.807 1.807 0 0 0 1.758-1.387c2.258-9.435 4.481-21.233 2.244-23.86m-50.46 7.307-.006-.021.008.024M75.3 66.288H6.363c-1.85-8.059-3.274-17.129-2.678-19.2a145.523 145.523 0 0 1 17.547-9.775 1.115 1.115 0 0 1 .85-.095.778.778 0 0 1 .293.5l4.415 15.2c.149.572.376 1.435 6.931 9.452a1.807 1.807 0 0 0 3.057-.421l.1-.23a1.8 1.8 0 0 0 .122-.407l2.773-15.973a1.177 1.177 0 0 0 .018-.129 2.99 2.99 0 0 0-.231-1.488 1.65 1.65 0 0 0-.072-.146l-2.3-4.2h7.284l-2.3 4.2c-.026.045-.047.09-.069.138a3.049 3.049 0 0 0-.217 1.624l2.774 15.989a1.791 1.791 0 0 0 .431.892l.14.159a1.854 1.854 0 0 0 1.39.606 1.808 1.808 0 0 0 1.361-.664c6.51-7.963 6.736-8.824 6.874-9.353L59.3 37.686a.746.746 0 0 1 .284-.469 1.115 1.115 0 0 1 .85.095 145.361 145.361 0 0 1 17.547 9.775c.6 2.071-.829 11.14-2.679 19.2" transform="translate(0 20.36)" style="fill:#fff"/>
        </g>
    </g>
</svg>
