<svg xmlns="http://www.w3.org/2000/svg" width="80" height="80" viewBox="0 0 80 80">
    <defs>
        <clipPath id="8hr5ffn4ya">
            <path data-name="사각형 961" d="M0 0h32v50H0z"/>
        </clipPath>
    </defs>
    <g data-name="그룹 1541">
        <g data-name="그룹 1493">
            <g data-name="그룹 1492" transform="translate(24 15)" style="clip-path:url(#8hr5ffn4ya)">
                <path data-name="패스 3411" d="M27.585 0H4.415A4.553 4.553 0 0 0 0 4.669v40.662A4.553 4.553 0 0 0 4.415 50h23.17A4.552 4.552 0 0 0 32 45.331V4.669A4.552 4.552 0 0 0 27.585 0M4.415 2.133h23.17a2.473 2.473 0 0 1 2.4 2.537v3.24H2.017V4.669a2.473 2.473 0 0 1 2.4-2.537m25.566 38.654H2.017V10.042h27.966zm-2.4 7.082H4.415a2.474 2.474 0 0 1-2.4-2.537v-2.413h27.968v2.412a2.473 2.473 0 0 1-2.4 2.537"/>
                <path data-name="패스 3412" d="M13.474 6.156h5.051a1.039 1.039 0 0 0 1.008-1.067 1.039 1.039 0 0 0-1.008-1.066h-5.051a1.039 1.039 0 0 0-1.008 1.066 1.039 1.039 0 0 0 1.008 1.066"/>
            </g>
        </g>
    </g>
</svg>
