<svg xmlns="http://www.w3.org/2000/svg" width="80" height="80" viewBox="0 0 80 80">
    <defs>
        <clipPath id="fja3riaqoa">
            <path data-name="사각형 966" style="fill:none;stroke:#000" d="M0 0h44v56H0z"/>
        </clipPath>
    </defs>
    <g data-name="그룹 1539">
        <g data-name="그룹 1502">
            <path data-name="선 180" transform="translate(38 53)" style="stroke-linecap:round;stroke-linejoin:round;stroke-width:2px;fill:none;stroke:#000" d="M0 0h4"/>
            <path data-name="선 181" transform="translate(40 17)" style="stroke-linecap:round;stroke-linejoin:round;stroke-width:2px;fill:none;stroke:#000" d="M0 0h0"/>
            <g data-name="그룹 1501">
                <g data-name="그룹 1500" style="clip-path:url(#fja3riaqoa)" transform="translate(18 12)">
                    <path data-name="패스 3423" d="M39 41.971A3.515 3.515 0 0 1 34.029 37l.971-.97A3.515 3.515 0 1 1 39.971 41z" style="stroke-linecap:round;stroke-linejoin:round;stroke-width:2px;fill:none;stroke:#000"/>
                    <path data-name="패스 3424" d="M39 33.971A3.515 3.515 0 0 1 34.029 29l.971-.97A3.515 3.515 0 1 1 39.971 33z" style="stroke-linecap:round;stroke-linejoin:round;stroke-width:2px;fill:none;stroke:#000"/>
                    <path data-name="패스 3425" d="M39 25.971A3.515 3.515 0 0 1 34.029 21l.971-.97A3.515 3.515 0 1 1 39.971 25z" style="stroke-linecap:round;stroke-linejoin:round;stroke-width:2px;fill:none;stroke:#000"/>
                    <path data-name="패스 3426" d="m35 10.029 2-2A3.515 3.515 0 0 1 41.971 13L35 19.97" style="stroke-linecap:round;stroke-linejoin:round;stroke-width:2px;fill:none;stroke:#000"/>
                    <path data-name="패스 3427" d="M35 20.029V5a4 4 0 0 0-4-4H13a4 4 0 0 0-4 4v38a4 4 0 0 0 4 4h18a4 4 0 0 0 4-4v-.359" style="stroke-linecap:round;stroke-linejoin:round;stroke-width:2px;fill:none;stroke:#000"/>
                    <path data-name="패스 3428" d="M39 41.971A3.515 3.515 0 0 1 34.029 37l.971-.97A3.515 3.515 0 1 1 39.971 41z" style="stroke-linecap:round;stroke-linejoin:round;stroke-width:2px;fill:none;stroke:#000"/>
                    <path data-name="패스 3429" d="M31 47H13a4 4 0 0 1-4-4V21a6 6 0 0 0-6-6 2 2 0 0 0-2 2v25c0 7.18 7.163 13 16 13 6.693 0 12.419-3.342 14.806-8.081A4.035 4.035 0 0 1 31 47z" style="stroke-linecap:round;stroke-linejoin:round;stroke-width:2px;fill:none;stroke:#000"/>
                </g>
            </g>
        </g>
    </g>
</svg>
