<svg xmlns="http://www.w3.org/2000/svg" xmlns:xlink="http://www.w3.org/1999/xlink" width="484.622" height="51" viewBox="0 0 484.622 51">
    <defs>
        <clipPath id="i0elafpc0b">
            <path data-name="패스 3663" d="M11.4 40.458a25.777 25.777 0 0 0 51.548.2v-.395a25.777 25.777 0 0 0-51.548.2" transform="translate(-11.404 -14.962)" style="fill:none"/>
        </clipPath>
        <clipPath id="bcm5qt8fvd">
            <path data-name="패스 3664" d="M19.27 22.841c-8.611 8.614-9.485 21.735-1.919 29.3s20.672 6.694 29.291-1.924c8.627-8.635 9.5-21.752 1.939-29.315A17.99 17.99 0 0 0 35.7 15.748a23.469 23.469 0 0 0-16.43 7.093" transform="translate(-12.199 -15.748)" style="fill:none"/>
        </clipPath>
        <clipPath id="6yi9to20zf">
            <path data-name="패스 3665" d="M24.245 31.3a3.466 3.466 0 1 0 3.468-3.4 3.429 3.429 0 0 0-3.468 3.4m10.782-3.049h-.108v.031l-.156.042.156.255v21.5l-.637.355.49.341a.636.636 0 0 0 .363.106H42.3a.154.154 0 0 0 .143-.165v-1.969c0-.147-.02-.2-.06-.234l-.374-.584H37.33l.019-19.578a.223.223 0 0 0-.05-.165l-.346-.585zm.819-10.645-.534.18c-12.107 0-21.185 9.989-21.185 21.893a21.238 21.238 0 0 0 6.438 15.251 21.773 21.773 0 0 0 15.5 6.141A21.985 21.985 0 0 0 51.623 54.8a21.252 21.252 0 0 0 6.436-15.255v-1.24l-.522-.444-15.945.006v2.521l.4.523a.2.2 0 0 0 .137.05h13.34a19.5 19.5 0 0 1-33.085 12.185 19.071 19.071 0 0 1-.11-27.034 19.8 19.8 0 0 1 13.861-5.6l1.045-.014h.113c.074-.009.138-.009.138-.168v-2.063a.411.411 0 0 0-.053-.224l-.468-.584z" transform="translate(-14.126 -17.46)" style="fill:none"/>
        </clipPath>
        <clipPath id="wstgnjc4th">
            <path data-name="패스 3666" d="M28.287 24.469 28.3 45.03l.556-.454V23.993z" transform="translate(-28.287 -23.993)" style="fill:none"/>
        </clipPath>
        <clipPath id="xxvh2n8vhj">
            <path data-name="패스 3667" d="M31.55 37.578v1.54l.5.511v-2.54z" transform="translate(-31.55 -37.089)" style="fill:none"/>
        </clipPath>
        <clipPath id="pnz1wc3obk">
            <path data-name="패스 3668" d="M20.919 27.348a2.865 2.865 0 1 1 2.869 2.852 2.866 2.866 0 0 1-2.868-2.848m-.5 0a3.364 3.364 0 1 0 3.367-3.362 3.361 3.361 0 0 0-3.367 3.362" transform="translate(-20.421 -23.986)" style="fill:none"/>
        </clipPath>
        <clipPath id="haa6m2jogm">
            <path data-name="패스 3669" d="M13.9 39.029a21.338 21.338 0 0 0 6.394 15.253 22.04 22.04 0 0 0 30.89 0 21.317 21.317 0 0 0 6.392-15.253v-1.248l-.5.506v.742a20.812 20.812 0 0 1-6.244 14.9 21.516 21.516 0 0 1-30.173 0 20.839 20.839 0 0 1-6.249-14.9 21.222 21.222 0 0 1 21.32-21.077l.814-.008.5-.481-1.314-.011A21.728 21.728 0 0 0 13.9 39.029" transform="translate(-13.9 -17.453)" style="fill:none"/>
        </clipPath>
        <clipPath id="8pmf52upuo">
            <path data-name="패스 3670" d="M34.691 18.768a19.871 19.871 0 0 0-13.7 5.709 19.361 19.361 0 0 0 0 27.6 19.81 19.81 0 0 0 13.737 5.716h.506A19.725 19.725 0 0 0 54.725 39.6l.017-.538-.253.222-.266.276a19.351 19.351 0 0 1-32.871 12.16 18.865 18.865 0 0 1 0-26.9 19.386 19.386 0 0 1 13.636-5.557l1.3.009-.5-.5-.563-.012z" transform="translate(-15.213 -18.768)" style="fill:none"/>
        </clipPath>
        <clipPath id="b4hy390npq">
            <path data-name="패스 3671" d="M28.3 17.947v1.586l.5.5V17.46z" transform="translate(-28.304 -17.46)" style="fill:none"/>
        </clipPath>
        <clipPath id="8egfjoty2s">
            <path data-name="패스 3672" d="M34.6 27.768v22.3h7.183v-1.987h-5.124V27.768zm.748-10.139a21.455 21.455 0 0 0-21.284 21.3 21.027 21.027 0 0 0 6.317 15.058 21.756 21.756 0 0 0 30.5 0 21 21 0 0 0 6.313-15.058v-.969H41.8v1.972h13.345c0 .051 0 .254-.006.295A19.62 19.62 0 0 1 21.8 52.578a19.166 19.166 0 0 1 0-27.305 19.651 19.651 0 0 1 13.83-5.652c.223 0 .783 0 1.029.009v-1.993c-.2 0-.541-.008-.806-.008z" transform="translate(-14.066 -17.629)" style="fill:none"/>
        </clipPath>
        <clipPath id="6m5rel4hyu">
            <path data-name="패스 3673" d="M20.581 27.251a3.1 3.1 0 1 0 3.1-3.095 3.1 3.1 0 0 0-3.1 3.095" transform="translate(-20.581 -24.156)" style="fill:none"/>
        </clipPath>
        <linearGradient id="4r9wjjvfme" x1="-.182" y1="1.32" x2="-.155" y2="1.32" gradientUnits="objectBoundingBox">
            <stop offset="0" stop-color="#e87483"/>
            <stop offset=".053" stop-color="#e2687a"/>
            <stop offset=".292" stop-color="#ce3b57"/>
            <stop offset=".504" stop-color="#bf1b3e"/>
            <stop offset=".681" stop-color="#b6072e"/>
            <stop offset=".801" stop-color="#b30029"/>
            <stop offset="1" stop-color="#b30029"/>
        </linearGradient>
        <linearGradient id="t5fp5yevmg" x1="-.209" y1="1.207" x2="-.184" y2="1.207" gradientUnits="objectBoundingBox">
            <stop offset="0" stop-color="#c12746"/>
            <stop offset=".082" stop-color="#b31e3d"/>
            <stop offset=".247" stop-color="#9f1031"/>
            <stop offset=".432" stop-color="#900727"/>
            <stop offset=".653" stop-color="#870122"/>
            <stop offset="1" stop-color="#850021"/>
        </linearGradient>
        <linearGradient id="7x7pxgrqpi" x1="-77.926" y1="2.655" x2="-75.171" y2="2.655" gradientUnits="objectBoundingBox">
            <stop offset="0" stop-color="#b8bfc2"/>
            <stop offset=".138" stop-color="#a0a6a9"/>
            <stop offset=".549" stop-color="#606366"/>
            <stop offset=".848" stop-color="#37393c"/>
            <stop offset="1" stop-color="#28292c"/>
        </linearGradient>
        <linearGradient id="28bqfbtika" x1="-98.593" y1="13.888" x2="-95.468" y2="13.888" gradientUnits="objectBoundingBox">
            <stop offset="0" stop-color="#b0b7bb"/>
            <stop offset=".129" stop-color="#9aa1a5"/>
            <stop offset=".544" stop-color="#585f63"/>
            <stop offset=".845" stop-color="#2f3539"/>
            <stop offset="1" stop-color="#20262a"/>
        </linearGradient>
        <linearGradient id="screl4rxvl" x1="-3.23" y1="6.024" x2="-3.065" y2="6.024" gradientUnits="objectBoundingBox">
            <stop offset="0" stop-color="#aebbc1"/>
            <stop offset="1" stop-color="#1c1b1d"/>
        </linearGradient>
        <linearGradient id="sllt3ivbtn" x1="-.207" y1="1.217" x2="-.182" y2="1.217" gradientUnits="objectBoundingBox">
            <stop offset="0" stop-color="#b8bfc2"/>
            <stop offset="1" stop-color="#323438"/>
        </linearGradient>
        <linearGradient id="61yikialnp" x1="-.605" y1="1.619" x2="-.565" y2="1.619" gradientUnits="objectBoundingBox">
            <stop offset="0" stop-color="#b8bfc2"/>
            <stop offset="1" stop-color="#3c4045"/>
        </linearGradient>
        <linearGradient id="9p7bgs1pxr" x1="-89.006" y1="25.702" x2="-85.861" y2="25.702" xlink:href="#28bqfbtika"/>
        <radialGradient id="lytcrtr00c" cx=".481" cy=".485" r=".521" gradientTransform="matrix(1 0 0 -1 0 2.718)" gradientUnits="objectBoundingBox">
            <stop offset="0" stop-color="#b30029"/>
            <stop offset=".5" stop-color="#b30029"/>
            <stop offset=".752" stop-color="#b00028"/>
            <stop offset=".857" stop-color="#a90025"/>
            <stop offset=".935" stop-color="#9d0021"/>
            <stop offset="1" stop-color="#8c001c"/>
        </radialGradient>
        <radialGradient id="g5xn1gwhst" cx=".298" cy=".288" r=".765" gradientUnits="objectBoundingBox">
            <stop offset="0" stop-color="#fff"/>
            <stop offset=".35" stop-color="#fff"/>
            <stop offset=".518" stop-color="#fafbfb"/>
            <stop offset=".691" stop-color="#eef1f2"/>
            <stop offset=".867" stop-color="#d9e0e3"/>
            <stop offset="1" stop-color="#c5cfd4"/>
        </radialGradient>
        <radialGradient id="jvjmamwnsv" cx=".293" cy=".316" r=".781" gradientTransform="translate(-.019)" gradientUnits="objectBoundingBox">
            <stop offset="0" stop-color="#fff"/>
            <stop offset=".35" stop-color="#fff"/>
            <stop offset=".553" stop-color="#fafbfb"/>
            <stop offset=".763" stop-color="#eef1f2"/>
            <stop offset=".976" stop-color="#d9e0e4"/>
            <stop offset="1" stop-color="#d7dee2"/>
        </radialGradient>
    </defs>
    <g data-name="그룹 2091">
        <g data-name="그룹 2122">
            <path data-name="패스 3660" d="M90.558 20.971v4.866h6.731v1.25c0 5.01-2.032 7.667-7.506 9.4l2.068 4.643c3.774-.886 7.473-3.094 8.992-6.113 1.625 3.019 5.179 5.116 8.469 5.889l2.627-5.3c-4.772-1.033-8.213-3.61-8.213-8.546v-1.224h6.623v-4.865zm30.664-.664h-6.175v7h-5.809v5.049h5.809v12.786h5.438a32.159 32.159 0 0 0 .737-6.745zm.63 29.4h-18.2c-.479 0-.63-.113-.63-.626V41.9h-6.178v9.69c0 2.1 1.073 3.092 3.182 3.092h21.826zm3.516-28.771v4.826h7.023V28.1c0 6.149-1.251 10.016-7.658 12.819l2.41 4.271c3.659-1.36 7.1-3.939 8.689-7.218a15.914 15.914 0 0 0 8.139 6.884l2.886-5.006c-6.217-2.327-8.362-5.933-8.362-11.791v-2.295h6.838v-4.826zm35.8 8.515h-6.139v-9.144H149.1v34.375h5.183a42.255 42.255 0 0 0 .738-8.238V34.389h6.139z" transform="translate(33.362 -12.089)" style="fill:#5f5e5e"/>
            <path data-name="패스 3661" d="M61.154 53.934h14.12v-6.458H59.337V20.761h-7.7v33.173z" transform="translate(11.574 -11.832)" style="fill:#5f5e5e"/>
            <path data-name="패스 3662" d="M83.274 41.473h6.264v5.8a17.687 17.687 0 0 1-5.55.881c-6.926 0-9.236-3.51-9.236-10.625 0-6.783 2.2-10.784 9.126-10.784 3.846 0 6.044 1.2 7.858 3.5l4.787-4.377c-2.917-4.168-8.023-5.426-12.811-5.426-10.772 0-16.435 5.861-16.435 17.026 0 11.118 5.11 17.143 16.377 17.143 5.169 0 10.225-1.315 12.977-3.235V35.283H83.274z" transform="translate(20.506 -12.013)" style="fill:#5f5e5e"/>
        </g>
    </g>
    <g data-name="그룹 2093">
        <g data-name="그룹 2092" style="clip-path:url(#i0elafpc0b)">
            <path data-name="사각형 1277" style="fill:url(#lytcrtr00c)" d="M0 0h51.548v51H0z"/>
        </g>
    </g>
    <g data-name="그룹 2095">
        <g data-name="그룹 2094" style="clip-path:url(#bcm5qt8fvd)" transform="translate(1.249 1.269)">
            <path data-name="사각형 1278" transform="rotate(-20 6.309 49.47)" style="fill:url(#4r9wjjvfme)" d="M0 0h58.592v57.154H0z"/>
        </g>
    </g>
    <g data-name="그룹 2097">
        <g data-name="그룹 2096" style="clip-path:url(#6yi9to20zf)" transform="translate(4.278 3.928)">
            <path data-name="패스 3689" d="m0 0 61.9.385.385 61.9-61.9-.385z" transform="rotate(-45 15.283 37.555)" style="fill:url(#t5fp5yevmg)"/>
        </g>
    </g>
    <g data-name="그룹 2099">
        <g data-name="그룹 2098" style="clip-path:url(#wstgnjc4th)" transform="translate(26.534 13.955)">
            <path data-name="사각형 1280" style="fill:url(#7x7pxgrqpi)" d="M0 0h.571v21.037H0z"/>
        </g>
    </g>
    <g data-name="그룹 2101">
        <g data-name="그룹 2100" style="clip-path:url(#xxvh2n8vhj)" transform="translate(31.663 34.357)">
            <path data-name="사각형 1281" style="fill:url(#28bqfbtika)" d="M0 0h.503v2.54H0z"/>
        </g>
    </g>
    <g data-name="그룹 2103">
        <g data-name="그룹 2102" style="clip-path:url(#pnz1wc3obk)" transform="translate(14.171 14.06)">
            <path data-name="사각형 1282" transform="rotate(-45 2.374 5.73)" style="fill:url(#screl4rxvl)" d="M0 0h9.505v9.505H0z"/>
        </g>
    </g>
    <g data-name="그룹 2105">
        <g data-name="그룹 2104" style="clip-path:url(#haa6m2jogm)" transform="translate(3.922 3.919)">
            <path data-name="패스 3690" d="m0 0 61.392.386.386 61.392-61.392-.386z" transform="rotate(-45 15.118 37.157)" style="fill:url(#sllt3ivbtn)"/>
        </g>
    </g>
    <g data-name="그룹 2107">
        <g data-name="그룹 2106" style="clip-path:url(#8pmf52upuo)" transform="translate(5.986 5.988)">
            <path data-name="사각형 1284" style="fill:url(#61yikialnp)" d="M0 0h39.529v39.021H0z"/>
        </g>
    </g>
    <g data-name="그룹 2109">
        <g data-name="그룹 2108" style="clip-path:url(#b4hy390npq)" transform="translate(26.561 4.029)">
            <path data-name="사각형 1285" style="fill:url(#9p7bgs1pxr)" d="M0 0h.5v2.573H0z"/>
        </g>
    </g>
    <g data-name="그룹 2111">
        <g data-name="그룹 2110" style="clip-path:url(#8egfjoty2s)" transform="translate(4.183 4.196)">
            <path data-name="사각형 1286" style="fill:url(#g5xn1gwhst)" d="M0 0h43.127v42.596H0z"/>
        </g>
    </g>
    <g data-name="그룹 2113">
        <g data-name="그룹 2112" style="clip-path:url(#6m5rel4hyu)" transform="translate(14.423 14.326)">
            <path data-name="사각형 1287" style="fill:url(#jvjmamwnsv)" d="M0 0h6.194v6.172H0z"/>
        </g>
    </g>
    <g data-name="그룹 2115">
        <g data-name="그룹 2123">
            <path data-name="패스 3674" d="M24.24 24.712a3.1 3.1 0 0 1 1.876.648 3.075 3.075 0 1 0-4.33 4.285 3.04 3.04 0 0 1-.644-1.855 3.088 3.088 0 0 1 3.1-3.078" transform="translate(-6.168 -9.801)" style="fill:#fff"/>
            <path data-name="패스 3675" d="M36.651 17.639a62.43 62.43 0 0 0-1.042-.015A21.389 21.389 0 0 0 14.068 38.8a20.832 20.832 0 0 0 6.31 14.964c.132.126.266.25.4.373a20.805 20.805 0 0 1-5.956-14.6c0-11.646 8.406-21.312 21.832-21.9" transform="translate(-9.888 -13.335)" style="fill:#fff"/>
            <path data-name="패스 3676" d="M28.441 37.253a20.86 20.86 0 0 0 5.121.43v-.43z" transform="translate(-1.678 -2.656)" style="fill:#fff"/>
            <path data-name="패스 3677" d="M29.189 24.8v-.632h-2.057v22.489s.644-3.424.644-21.862z" transform="translate(-2.426 -9.939)" style="fill:#fff"/>
            <path data-name="패스 3678" d="M47.1 30.73H31.712v1.991h.558v-1.44c13.41 0 14.831-.556 14.831-.556" transform="translate(.19 -6.216)" style="fill:#fff"/>
            <path data-name="패스 3679" d="M54.138 32c0 .045 0 .26-.009.3a19.562 19.562 0 0 1-33.324 12.452 19.225 19.225 0 0 1-5-8.517A19.79 19.79 0 0 0 34.965 50.7 19.552 19.552 0 0 0 54.395 32z" transform="translate(-8.896 -5.756)" style="fill:#fff"/>
            <path data-name="패스 3680" d="M187.7 35.861c3.311 1.605 5.708 3.122 5.705 7.844 0 6.4-4.357 9.674-11.3 9.674h-14V20.758h13.274c7.182 0 11.2 2.213 11.075 8.207a7.269 7.269 0 0 1-4.756 6.9m-13.122-10.081v8.207h6.53c2.71 0 4.561-1.4 4.547-4.054-.016-3.38-2.055-4.02-4.591-4.153zm0 13.062v9.312h6.524c3.358.148 5.377-1.1 5.284-4.638-.1-3.651-2.181-4.787-5.235-4.675z" transform="translate(75.372 -11.564)" style="fill:#71005f"/>
            <path data-name="패스 3681" d="M187.129 20.758h21.117v5.23h-14.46V34h13.89v5.03h-13.89v9.134h15.029v5.215h-21.686z" transform="translate(85.923 -11.564)" style="fill:#71005f"/>
            <path data-name="패스 3682" d="M205.578 46.545a20.248 20.248 0 0 0 9.137 2.251c4.641 0 6.431-1.62 6.431-3.738 0-1.934-1.744-2.924-2.57-3.329-2.619-1.26-5.7-2.116-8.588-3.239-4.179-1.984-6.34-3.83-6.34-8.733 0-5.809 4.456-9.319 12.678-9.319 3.535 0 7.9.673 10.977 2.429l-2.252 4.862a18.123 18.123 0 0 0-8.679-2.116c-4.272 0-6.018 1.443-6.018 3.6a3.061 3.061 0 0 0 1.059 2.478 10.238 10.238 0 0 0 2.11 1.261c2.2.946 5.512 1.979 8.222 3.2 3.26 1.528 5.971 3.42 5.971 8.552 0 5.806-4.869 9.408-12.906 9.408a27.589 27.589 0 0 1-11.71-2.655z" transform="translate(94.743 -11.745)" style="fill:#71005f"/>
            <path data-name="패스 3683" d="M220.57 20.758h26.247v5.226h-9.694v27.394h-6.663V25.983h-9.89z" transform="translate(104.4 -11.564)" style="fill:#71005f"/>
            <path data-name="패스 3684" d="M249.332 46.545a20.265 20.265 0 0 0 9.14 2.251c4.64 0 6.431-1.62 6.431-3.738 0-1.934-1.746-2.924-2.572-3.329-2.619-1.26-5.7-2.116-8.588-3.239-4.181-1.984-6.338-3.83-6.338-8.733 0-5.809 4.453-9.319 12.677-9.319 3.537 0 7.9.673 10.975 2.429l-2.25 4.862a18.12 18.12 0 0 0-8.681-2.116c-4.272 0-6.015 1.443-6.015 3.6a3.063 3.063 0 0 0 1.056 2.478 10.256 10.256 0 0 0 2.113 1.261c2.2.946 5.509 1.979 8.219 3.2 3.262 1.528 5.972 3.42 5.972 8.552 0 5.806-4.869 9.408-12.906 9.408a27.6 27.6 0 0 1-11.712-2.655z" transform="translate(118.962 -11.745)" style="fill:#71005f"/>
            <path data-name="패스 3685" d="M265.864 20.758h6.645v13.611h13.714V20.758h6.649v32.62h-6.649V39.587h-13.715v13.791h-6.645z" transform="translate(128.747 -11.564)" style="fill:#71005f"/>
            <path data-name="패스 3686" d="M315.732 37.313c0 11.081-5.122 16.642-15.739 16.642-10.885 0-14.5-6.594-14.5-16.956 0-11.124 5.036-16.6 15.648-16.6 10.749 0 14.593 6.462 14.593 16.913m-23.468.225c0 6.235 1.738 11.349 7.594 11.349 6.907 0 8.92-4.35 8.92-12.2 0-6.147-1.645-11.349-7.594-11.349-6.634 0-8.92 4.441-8.92 12.2" transform="translate(139.959 -11.767)" style="fill:#71005f"/>
            <path data-name="패스 3687" d="M320.268 20.758h-12.493V53.38h6.657V41.453h6.48c6.9-.074 10.942-4.067 11.021-10.616.079-6.7-3.876-10.079-11.665-10.079m-.479 15.66h-5.355V25.793h5.149c1.31.048 5.383.446 5.5 4.975-.119 2.617-.985 5.747-5.3 5.65" transform="translate(152.688 -11.564)" style="fill:#71005f"/>
        </g>
    </g>
</svg>
